<svg xmlns="http://www.w3.org/2000/svg" id="Area_without_line" data-name="Area without line" viewBox="0 0 483.3 384.62"><defs><style>.cls-1{fill:#231f20}.cls-2{fill:#ee2e24}.cls-3{fill:#fff}</style></defs><title>1_EN_RedList_CMYK</title><path d="M523.67 589.11h15v2.8h-5.9v15.76h-3.25v-15.76h-5.88zM540.78 589.11H544v7.38h8.45v-7.38h3.25v18.56h-3.25v-8.37H544v8.37h-3.25zM559.63 589.11H573v2.8h-10.12v4.87h9.36v2.65h-9.36v5.43h10.29v2.81h-13.54zM583.24 589.11h3.25v18.56h-3.25zM590.78 589.11H594v10.81c0 2.5.15 5.38 4.36 5.38s4.37-2.88 4.37-5.38v-10.81H606V601c0 4.76-3 7.12-7.62 7.12s-7.61-2.36-7.61-7.12zM622.29 595a4.45 4.45 0 00-4.63-3.69c-4 0-5.64 3.51-5.64 7.07s1.66 7.07 5.64 7.07c2.89 0 4.47-2.16 4.73-4.86h3.17a7.6 7.6 0 01-7.9 7.51c-5.56 0-8.89-4.42-8.89-9.72s3.33-9.73 8.89-9.73c4.19 0 7.49 2.34 7.88 6.35zM628.4 589.11h3.43l8.47 13.67h.06v-13.67h3.09v18.56H640L631.57 594h-.08v13.65h-3.09zM654.53 589.11h8.86c4.06 0 6.14 1.87 6.14 5 0 3.57-2.47 4.48-3.07 4.68v.06c1.12.15 2.76 1 2.76 3.92 0 2.16.31 4.14 1 4.89h-3.48a5.11 5.11 0 01-.5-2.73c0-3.41-.7-4.91-3.69-4.91h-4.78v7.64h-3.25zm3.25 8.45h5.33c2 0 3.17-1 3.17-3 0-2.36-1.54-2.83-3.23-2.83h-5.27zM672.83 589.11h13.36v2.8h-10.11v4.87h9.36v2.65h-9.36v5.43h10.3v2.81h-13.55zM689.21 589.11h7.7c5.72 0 8.19 4.16 8.19 9.28s-2.47 9.28-8.19 9.28h-7.7zm3.25 15.89h3.2c5.09 0 6.19-2.91 6.19-6.63s-1.1-6.63-6.19-6.63h-3.2zM715.21 589.11h3.25v15.75h9.44v2.81h-12.69zM729.61 589.11h3.25v18.56h-3.25zM739 601.48c0 2.86 2.11 4 4.71 4 2.86 0 3.93-1.4 3.93-2.81a2.21 2.21 0 00-1.54-2.29c-1.3-.49-3-.83-5.54-1.53-3.17-.86-4.1-2.78-4.1-4.71 0-3.71 3.43-5.46 6.78-5.46 3.88 0 7.13 2.06 7.13 5.93h-3.25c-.16-2.39-1.77-3.27-4-3.27-1.51 0-3.4.54-3.4 2.41 0 1.3.88 2 2.21 2.4.28.07 4.39 1.14 5.35 1.43a4.9 4.9 0 013.62 4.73c0 4.16-3.7 5.82-7.39 5.82-4.24 0-7.67-2-7.75-6.63zM750.88 589.11h15v2.8H760v15.76h-3.25v-15.76h-5.88zM542.24 630.39c0 5.3-3.33 9.72-8.9 9.72s-8.89-4.42-8.89-9.72 3.33-9.73 8.89-9.73 8.9 4.42 8.9 9.73zm-14.54 0c0 3.56 1.67 7.07 5.64 7.07S539 634 539 630.39s-1.67-7.07-5.65-7.07-5.65 3.51-5.65 7.07zM545.2 621.11H558v2.8h-9.57v4.87h8.4v2.65h-8.4v8.24h-3.23zM566.08 621.11h15v2.8h-5.9v15.76H572v-15.76h-5.87zM583.18 621.11h3.25v7.38h8.45v-7.38h3.25v18.56h-3.25v-8.37h-8.45v8.37h-3.25zM602 621.11h8.87c4.06 0 6.14 1.87 6.14 5 0 3.57-2.47 4.48-3.07 4.68v.06c1.12.15 2.75 1 2.75 3.92 0 2.16.32 4.14 1 4.89h-3.49a5.2 5.2 0 01-.49-2.73c0-3.41-.7-4.91-3.69-4.91h-4.79v7.64H602zm3.25 8.45h5.33c2.06 0 3.18-1 3.18-3 0-2.36-1.54-2.83-3.23-2.83h-5.28zM620.34 621.11h13.36v2.8h-10.11v4.87H633v2.65h-9.36v5.43h10.29v2.81h-13.59zM641.16 621.11h3.46l7.15 18.56h-3.48l-1.75-4.91h-7.41l-1.74 4.91H634zM640 632.29h5.67l-2.78-8h-.08zM649.38 621.11h15v2.8h-5.9v15.76h-3.25v-15.76h-5.88zM666.57 621.11h13.36v2.8h-10.11v4.87h9.36v2.65h-9.36v5.43h10.3v2.81h-13.55zM682.82 621.11h3.43l8.48 13.67v-13.67h3.09v18.56h-3.43L686 626h-.08v13.65h-3.09zM701.72 621.11h13.36v2.8H705v4.87h9.36v2.65H705v5.43h10.3v2.81h-13.58zM718.1 621.11h7.7c5.72 0 8.19 4.16 8.19 9.28s-2.47 9.28-8.19 9.28h-7.7zm3.25 15.89h3.2c5.09 0 6.19-2.91 6.19-6.63s-1.1-6.63-6.19-6.63h-3.2zM746.23 633.48c0 2.86 2.11 4 4.71 4 2.86 0 3.92-1.4 3.92-2.81a2.21 2.21 0 00-1.53-2.29c-1.3-.49-3-.83-5.54-1.53-3.17-.86-4.11-2.78-4.11-4.71 0-3.71 3.44-5.46 6.79-5.46 3.87 0 7.12 2.06 7.12 5.93h-3.25c-.15-2.39-1.76-3.27-4-3.27-1.51 0-3.41.54-3.41 2.41 0 1.3.89 2 2.21 2.4.29.07 4.4 1.14 5.36 1.43a4.91 4.91 0 013.62 4.73c0 4.16-3.7 5.82-7.39 5.82-4.24 0-7.67-2-7.75-6.63zM761 621.11h8.19c5.3 0 6.32 3.43 6.32 5.74s-1 5.72-6.32 5.7h-4.99v7.12H761zm3.25 8.78H769a3 3 0 003.25-3.06c0-2.45-1.49-3.07-3.2-3.07h-4.85zM776.73 621.11h13.36v2.8H780v4.87h9.36v2.65H780v5.43h10.3v2.81h-13.57zM805.64 627a4.43 4.43 0 00-4.63-3.69c-4 0-5.64 3.51-5.64 7.07s1.67 7.07 5.64 7.07c2.89 0 4.48-2.16 4.74-4.86h3.17a7.61 7.61 0 01-7.91 7.51c-5.56 0-8.89-4.42-8.89-9.72s3.33-9.73 8.89-9.73c4.19 0 7.49 2.34 7.88 6.35zM811.88 621.11h3.25v18.56h-3.25zM819.11 621.11h13.36v2.8h-10.11v4.87h9.36v2.65h-9.36v5.43h10.3v2.81h-13.55zM837.62 633.48c0 2.86 2.11 4 4.71 4 2.86 0 3.92-1.4 3.92-2.81a2.21 2.21 0 00-1.53-2.29c-1.3-.49-3-.83-5.54-1.53-3.17-.86-4.11-2.78-4.11-4.71 0-3.71 3.43-5.46 6.79-5.46 3.87 0 7.12 2.06 7.12 5.93h-3.25c-.15-2.39-1.77-3.27-4-3.27-1.51 0-3.41.54-3.41 2.41 0 1.3.89 2 2.21 2.4.29.07 4.4 1.14 5.36 1.43a4.9 4.9 0 013.61 4.73c0 4.16-3.69 5.82-7.38 5.82-4.24 0-7.67-2-7.75-6.63zM525.3 415.7h26.39c9.13 0 18.12 4.13 18.12 14.57 0 5.58-2.68 10.88-8.12 13v.14c5.51 1.31 7.11 7.47 7.54 12.4.15 2.17.37 9.79 2.18 11.67h-13.34c-1.16-1.74-1.38-6.81-1.52-8.26-.36-5.22-1.24-10.59-7.54-10.59h-10.22v18.85H525.3zm13.49 22.47h11.31c4.06 0 6.23-2.17 6.23-6.09s-3-5.58-6.81-5.58h-10.73zM576.19 415.7h41.25v10.8h-27.76v9.06h25.37V446h-25.37v9.86h28.49v11.6h-42zM624.41 415.7h22.25c15.88 0 25.38 9.64 25.38 25.66 0 17-9.65 26.1-25.38 26.1h-22.25zm13.48 40.16h6.38c10.22-.21 14.28-4.2 14.28-14.57 0-9.42-5.07-14-14.28-14h-6.38zM525.3 472.78h13.49v40.16h24.14v11.6H525.3zM566.7 472.78h13.48v51.76H566.7zM597.15 507.14c.29 6.09 4.06 8.05 9.78 8.05 4.06 0 8.27-1.45 8.27-5.29 0-4.57-7.4-5.44-14.86-7.54s-15.16-5.44-15.16-14.94c0-11.31 11.39-15.73 21.1-15.73 10.29 0 20.66 5 20.73 16.68h-13.48c.22-4.72-4.2-6.24-8.34-6.24-2.9 0-6.52 1-6.52 4.42 0 4 7.46 4.72 15 6.82s15 5.58 15 14.93c0 13.12-11.16 17.33-22.55 17.33-11.88 0-22.4-5.22-22.47-18.49z" class="cls-1" transform="translate(-378.86 -255.5)"/><path d="M671.31 484.38h-15.44v40.16h-13.49v-40.16h-15.44v-11.6h44.37z" class="cls-1" transform="translate(-378.86 -255.5)"/><path d="M625.37 294.6c-10.39 10-12.62 24.58-5 32.49s22.25 6.17 32.64-3.87 12.63-24.57 5-32.47-22.25-6.18-32.64 3.85z" class="cls-2" transform="translate(-378.86 -255.5)"/><path d="M617.06 343.4c-10.39 10-12.62 24.57-5 32.48s22.25 6.17 32.63-3.86 12.63-24.58 5-32.49-22.24-6.17-32.63 3.87zM545.68 272c-10.39 10-12.62 24.57-5 32.48s22.25 6.17 32.64-3.86 12.62-24.59 5-32.49-22.26-6.13-32.64 3.87z" class="cls-2" transform="translate(-378.86 -255.5)"/><path d="M594.86 264.32c-10.39 10-12.63 24.57-5 32.48s22.26 6.17 32.65-3.86 12.62-24.59 5-32.48-22.26-6.18-32.65 3.86z" class="cls-2" transform="translate(-378.86 -255.5)"/><circle cx="184.53" cy="97.68" r="40.88" class="cls-2"/><path d="M509.33 328.69a65.19 65.19 0 11-65.19-65.17h65.27zM510 471.61A65.59 65.59 0 11444.45 406 65.6 65.6 0 01510 471.61z" class="cls-2" transform="translate(-378.86 -255.5)"/><path d="M418.11 465.31v13.21h-2.91v-13.21zM430 477.51a7.28 7.28 0 01-8.29 0 5 5 0 01-1.48-4v-8.21h2.91v8.21a6.23 6.23 0 00.09 1.06 2.07 2.07 0 00.39.91 2.16 2.16 0 00.82.65 3.32 3.32 0 001.42.25 2.72 2.72 0 002.14-.69 3.3 3.3 0 00.6-2.18v-8.21h2.9v8.21a5 5 0 01-1.5 4zM442.1 468.83a3 3 0 00-1.53-1.22 3.16 3.16 0 00-1-.17 3.33 3.33 0 00-1.67.38 3.26 3.26 0 00-1.11 1 4.57 4.57 0 00-.62 1.46A7.15 7.15 0 00436 472a6.77 6.77 0 00.19 1.62 4.49 4.49 0 00.62 1.41 3.26 3.26 0 001.11 1 3.44 3.44 0 001.67.38 2.7 2.7 0 002.08-.81 3.78 3.78 0 00.91-2.15h2.81a6.59 6.59 0 01-.57 2.24 5.39 5.39 0 01-1.22 1.7 5.06 5.06 0 01-1.77 1.07 6.46 6.46 0 01-2.24.37 6.82 6.82 0 01-2.73-.52 6 6 0 01-2.05-1.46 6.34 6.34 0 01-1.27-2.17 7.87 7.87 0 01-.45-2.69 8.18 8.18 0 01.45-2.75 6.62 6.62 0 011.27-2.21 5.9 5.9 0 012.05-1.48 7 7 0 014.79-.22 5.55 5.55 0 011.74.91 5.1 5.1 0 011.27 1.49 5.3 5.3 0 01.62 2h-2.81a2.48 2.48 0 00-.37-.9zM449.85 465.31l5.51 8.86v-8.86h2.72v13.21h-2.91l-5.49-8.85v8.85H447v-13.21z" class="cls-3" transform="translate(-378.86 -255.5)"/><path d="M442.87 485.74q-.36.39-.75.78a21.12 21.12 0 1 1 0-29.86 18.37 18.37 0 0 1 1.27 1.38H452a28.28 28.28 0 1 0-.36 27.7z" class="cls-3" transform="translate(-378.86 -255.5)"/><path d="M850.64 621.13h4.75v.87h-1.86v5h-1v-5h-1.86zM856.06 621.13h1.45l1.62 4.6 1.58-4.6h1.43V627h-1v-4.53l-1.6 4.53h-.85l-1.63-4.53V627h-1zM677.38 426.79a7.1 7.1 0 117-7.1 6.83 6.83 0 01-7 7.1zm0-13a5.52 5.52 0 00-5.47 5.87c0 3.22 2.09 5.86 5.47 5.86 3 0 5.43-2.39 5.43-5.86s-2.39-5.84-5.43-5.84zm3.59 7.23a3.36 3.36 0 01-3.36 2.93 4 4 0 01-4-4.29 3.86 3.86 0 014-4.08 3.2 3.2 0 013.38 2.86h-1.29a2 2 0 00-2.09-1.63c-1.59 0-2.47 1.27-2.47 2.85s1 3.05 2.51 3.05a2 2 0 002-1.69z" class="cls-1" transform="translate(-378.86 -255.5)"/></svg>