<svg id="Area_without_line" data-name="Area without line" xmlns="http://www.w3.org/2000/svg" viewBox="0 0 483.3 384.62">
  <defs>
    <style>
    .cls-1 {
      fill: #231f20;
    }

    .cls-2 {
      fill: #ee2e24;
    }

    .cls-3 {
      fill: #fff;
    }

    </style>
  </defs>
  <title>1_EN_RedList_CMYK</title>
  <path class="cls-1" d="M523.67,589.11h15v2.8h-5.9v15.76h-3.25V591.91h-5.88Z" transform="translate(-378.86 -255.5)"></path>
  <path class="cls-1" d="M540.78,589.11H544v7.38h8.45v-7.38h3.25v18.56h-3.25V599.3H544v8.37h-3.25Z" transform="translate(-378.86 -255.5)"></path>
  <path class="cls-1" d="M559.63,589.11H573v2.8H562.88v4.87h9.36v2.65h-9.36v5.43h10.29v2.81H559.63Z" transform="translate(-378.86 -255.5)"></path>
  <path class="cls-1" d="M583.24,589.11h3.25v18.56h-3.25Z" transform="translate(-378.86 -255.5)"></path>
  <path class="cls-1" d="M590.78,589.11H594v10.81c0,2.5.15,5.38,4.36,5.38s4.37-2.88,4.37-5.38V589.11H606V601c0,4.76-3,7.12-7.62,7.12s-7.61-2.36-7.61-7.12Z" transform="translate(-378.86 -255.5)"></path>
  <path class="cls-1" d="M622.29,595a4.45,4.45,0,0,0-4.63-3.69c-4,0-5.64,3.51-5.64,7.07s1.66,7.07,5.64,7.07c2.89,0,4.47-2.16,4.73-4.86h3.17a7.6,7.6,0,0,1-7.9,7.51c-5.56,0-8.89-4.42-8.89-9.72s3.33-9.73,8.89-9.73c4.19,0,7.49,2.34,7.88,6.35Z" transform="translate(-378.86 -255.5)"></path>
  <path class="cls-1" d="M628.4,589.11h3.43l8.47,13.67h.06V589.11h3.09v18.56H640L631.57,594h-.08v13.65H628.4Z" transform="translate(-378.86 -255.5)"></path>
  <path class="cls-1" d="M654.53,589.11h8.86c4.06,0,6.14,1.87,6.14,5,0,3.57-2.47,4.48-3.07,4.68v.06c1.12.15,2.76,1,2.76,3.92,0,2.16.31,4.14,1,4.89h-3.48a5.11,5.11,0,0,1-.5-2.73c0-3.41-.7-4.91-3.69-4.91h-4.78v7.64h-3.25Zm3.25,8.45h5.33c2,0,3.17-1,3.17-3,0-2.36-1.54-2.83-3.23-2.83h-5.27Z" transform="translate(-378.86 -255.5)"></path>
  <path class="cls-1" d="M672.83,589.11h13.36v2.8H676.08v4.87h9.36v2.65h-9.36v5.43h10.3v2.81H672.83Z" transform="translate(-378.86 -255.5)"></path>
  <path class="cls-1" d="M689.21,589.11h7.7c5.72,0,8.19,4.16,8.19,9.28s-2.47,9.28-8.19,9.28h-7.7ZM692.46,605h3.2c5.09,0,6.19-2.91,6.19-6.63s-1.1-6.63-6.19-6.63h-3.2Z" transform="translate(-378.86 -255.5)"></path>
  <path class="cls-1" d="M715.21,589.11h3.25v15.75h9.44v2.81H715.21Z" transform="translate(-378.86 -255.5)"></path>
  <path class="cls-1" d="M729.61,589.11h3.25v18.56h-3.25Z" transform="translate(-378.86 -255.5)"></path>
  <path class="cls-1" d="M739,601.48c0,2.86,2.11,4,4.71,4,2.86,0,3.93-1.4,3.93-2.81a2.21,2.21,0,0,0-1.54-2.29c-1.3-.49-3-.83-5.54-1.53-3.17-.86-4.1-2.78-4.1-4.71,0-3.71,3.43-5.46,6.78-5.46,3.88,0,7.13,2.06,7.13,5.93h-3.25c-.16-2.39-1.77-3.27-4-3.27-1.51,0-3.4.54-3.4,2.41,0,1.3.88,2,2.21,2.4.28.07,4.39,1.14,5.35,1.43a4.9,4.9,0,0,1,3.62,4.73c0,4.16-3.7,5.82-7.39,5.82-4.24,0-7.67-2-7.75-6.63Z" transform="translate(-378.86 -255.5)"></path>
  <path class="cls-1" d="M750.88,589.11h15v2.8H760v15.76h-3.25V591.91h-5.88Z" transform="translate(-378.86 -255.5)"></path>
  <path class="cls-1" d="M542.24,630.39c0,5.3-3.33,9.72-8.9,9.72s-8.89-4.42-8.89-9.72,3.33-9.73,8.89-9.73S542.24,625.08,542.24,630.39Zm-14.54,0c0,3.56,1.67,7.07,5.64,7.07S539,634,539,630.39s-1.67-7.07-5.65-7.07S527.7,626.83,527.7,630.39Z" transform="translate(-378.86 -255.5)"></path>
  <path class="cls-1" d="M545.2,621.11H558v2.8h-9.57v4.87h8.4v2.65h-8.4v8.24H545.2Z" transform="translate(-378.86 -255.5)"></path>
  <path class="cls-1" d="M566.08,621.11h15v2.8h-5.9v15.76H572V623.91h-5.87Z" transform="translate(-378.86 -255.5)"></path>
  <path class="cls-1" d="M583.18,621.11h3.25v7.38h8.45v-7.38h3.25v18.56h-3.25V631.3h-8.45v8.37h-3.25Z" transform="translate(-378.86 -255.5)"></path>
  <path class="cls-1" d="M602,621.11h8.87c4.06,0,6.14,1.87,6.14,5,0,3.57-2.47,4.48-3.07,4.68v.06c1.12.15,2.75,1,2.75,3.92,0,2.16.32,4.14,1,4.89h-3.49a5.2,5.2,0,0,1-.49-2.73c0-3.41-.7-4.91-3.69-4.91h-4.79v7.64H602Zm3.25,8.45h5.33c2.06,0,3.18-1,3.18-3,0-2.36-1.54-2.83-3.23-2.83h-5.28Z" transform="translate(-378.86 -255.5)"></path>
  <path class="cls-1" d="M620.34,621.11H633.7v2.8H623.59v4.87H633v2.65h-9.36v5.43h10.29v2.81H620.34Z" transform="translate(-378.86 -255.5)"></path>
  <path class="cls-1" d="M641.16,621.11h3.46l7.15,18.56h-3.48l-1.75-4.91h-7.41l-1.74,4.91H634ZM640,632.29h5.67l-2.78-8h-.08Z" transform="translate(-378.86 -255.5)"></path>
  <path class="cls-1" d="M649.38,621.11h15v2.8h-5.9v15.76h-3.25V623.91h-5.88Z" transform="translate(-378.86 -255.5)"></path>
  <path class="cls-1" d="M666.57,621.11h13.36v2.8H669.82v4.87h9.36v2.65h-9.36v5.43h10.3v2.81H666.57Z" transform="translate(-378.86 -255.5)"></path>
  <path class="cls-1" d="M682.82,621.11h3.43l8.48,13.67h0V621.11h3.09v18.56h-3.43L686,626h-.08v13.65h-3.09Z" transform="translate(-378.86 -255.5)"></path>
  <path class="cls-1" d="M701.72,621.11h13.36v2.8H705v4.87h9.36v2.65H705v5.43h10.3v2.81H701.72Z" transform="translate(-378.86 -255.5)"></path>
  <path class="cls-1" d="M718.1,621.11h7.7c5.72,0,8.19,4.16,8.19,9.28s-2.47,9.28-8.19,9.28h-7.7ZM721.35,637h3.2c5.09,0,6.19-2.91,6.19-6.63s-1.1-6.63-6.19-6.63h-3.2Z" transform="translate(-378.86 -255.5)"></path>
  <path class="cls-1" d="M746.23,633.48c0,2.86,2.11,4,4.71,4,2.86,0,3.92-1.4,3.92-2.81a2.21,2.21,0,0,0-1.53-2.29c-1.3-.49-3-.83-5.54-1.53-3.17-.86-4.11-2.78-4.11-4.71,0-3.71,3.44-5.46,6.79-5.46,3.87,0,7.12,2.06,7.12,5.93h-3.25c-.15-2.39-1.76-3.27-4-3.27-1.51,0-3.41.54-3.41,2.41,0,1.3.89,2,2.21,2.4.29.07,4.4,1.14,5.36,1.43a4.91,4.91,0,0,1,3.62,4.73c0,4.16-3.7,5.82-7.39,5.82-4.24,0-7.67-2-7.75-6.63Z" transform="translate(-378.86 -255.5)"></path>
  <path class="cls-1" d="M761,621.11h8.19c5.3,0,6.32,3.43,6.32,5.74s-1,5.72-6.32,5.7H764.2v7.12H761Zm3.25,8.78H769a3,3,0,0,0,3.25-3.06c0-2.45-1.49-3.07-3.2-3.07H764.2Z" transform="translate(-378.86 -255.5)"></path>
  <path class="cls-1" d="M776.73,621.11h13.36v2.8H780v4.87h9.36v2.65H780v5.43h10.3v2.81H776.73Z" transform="translate(-378.86 -255.5)"></path>
  <path class="cls-1" d="M805.64,627a4.43,4.43,0,0,0-4.63-3.69c-4,0-5.64,3.51-5.64,7.07s1.67,7.07,5.64,7.07c2.89,0,4.48-2.16,4.74-4.86h3.17a7.61,7.61,0,0,1-7.91,7.51c-5.56,0-8.89-4.42-8.89-9.72s3.33-9.73,8.89-9.73c4.19,0,7.49,2.34,7.88,6.35Z" transform="translate(-378.86 -255.5)"></path>
  <path class="cls-1" d="M811.88,621.11h3.25v18.56h-3.25Z" transform="translate(-378.86 -255.5)"></path>
  <path class="cls-1" d="M819.11,621.11h13.36v2.8H822.36v4.87h9.36v2.65h-9.36v5.43h10.3v2.81H819.11Z" transform="translate(-378.86 -255.5)"></path>
  <path class="cls-1" d="M837.62,633.48c0,2.86,2.11,4,4.71,4,2.86,0,3.92-1.4,3.92-2.81a2.21,2.21,0,0,0-1.53-2.29c-1.3-.49-3-.83-5.54-1.53-3.17-.86-4.11-2.78-4.11-4.71,0-3.71,3.43-5.46,6.79-5.46,3.87,0,7.12,2.06,7.12,5.93h-3.25c-.15-2.39-1.77-3.27-4-3.27-1.51,0-3.41.54-3.41,2.41,0,1.3.89,2,2.21,2.4.29.07,4.4,1.14,5.36,1.43a4.9,4.9,0,0,1,3.61,4.73c0,4.16-3.69,5.82-7.38,5.82-4.24,0-7.67-2-7.75-6.63Z" transform="translate(-378.86 -255.5)"></path>
  <path class="cls-1" d="M525.3,415.7h26.39c9.13,0,18.12,4.13,18.12,14.57,0,5.58-2.68,10.88-8.12,13v.14c5.51,1.31,7.11,7.47,7.54,12.4.15,2.17.37,9.79,2.18,11.67H558.07c-1.16-1.74-1.38-6.81-1.52-8.26-.36-5.22-1.24-10.59-7.54-10.59H538.79v18.85H525.3Zm13.49,22.47H550.1c4.06,0,6.23-2.17,6.23-6.09s-3-5.58-6.81-5.58H538.79Z" transform="translate(-378.86 -255.5)"></path>
  <path class="cls-1" d="M576.19,415.7h41.25v10.8H589.68v9.06h25.37V446H589.68v9.86h28.49v11.6h-42Z" transform="translate(-378.86 -255.5)"></path>
  <path class="cls-1" d="M624.41,415.7h22.25c15.88,0,25.38,9.64,25.38,25.66,0,17-9.65,26.1-25.38,26.1H624.41Zm13.48,40.16h6.38c10.22-.21,14.28-4.2,14.28-14.57,0-9.42-5.07-14-14.28-14h-6.38Z" transform="translate(-378.86 -255.5)"></path>
  <path class="cls-1" d="M525.3,472.78h13.49v40.16h24.14v11.6H525.3Z" transform="translate(-378.86 -255.5)"></path>
  <path class="cls-1" d="M566.7,472.78h13.48v51.76H566.7Z" transform="translate(-378.86 -255.5)"></path>
  <path class="cls-1" d="M597.15,507.14c.29,6.09,4.06,8.05,9.78,8.05,4.06,0,8.27-1.45,8.27-5.29,0-4.57-7.4-5.44-14.86-7.54s-15.16-5.44-15.16-14.94c0-11.31,11.39-15.73,21.1-15.73,10.29,0,20.66,5,20.73,16.68H613.53c.22-4.72-4.2-6.24-8.34-6.24-2.9,0-6.52,1-6.52,4.42,0,4,7.46,4.72,15,6.82s15,5.58,15,14.93c0,13.12-11.16,17.33-22.55,17.33-11.88,0-22.4-5.22-22.47-18.49Z" transform="translate(-378.86 -255.5)"></path>
  <path class="cls-1" d="M671.31,484.38H655.87v40.16H642.38V484.38H626.94v-11.6h44.37Z" transform="translate(-378.86 -255.5)"></path>
  <path class="cls-2" d="M625.37,294.6c-10.39,10-12.62,24.58-5,32.49s22.25,6.17,32.64-3.87,12.63-24.57,5-32.47S635.76,284.57,625.37,294.6Z" transform="translate(-378.86 -255.5)"></path>
  <path class="cls-2" d="M617.06,343.4c-10.39,10-12.62,24.57-5,32.48s22.25,6.17,32.63-3.86,12.63-24.58,5-32.49S627.45,333.36,617.06,343.4Z" transform="translate(-378.86 -255.5)"></path>
  <path class="cls-2" d="M545.68,272c-10.39,10-12.62,24.57-5,32.48s22.25,6.17,32.64-3.86,12.62-24.59,5-32.49S556.06,262,545.68,272Z" transform="translate(-378.86 -255.5)"></path>
  <path class="cls-2" d="M594.86,264.32c-10.39,10-12.63,24.57-5,32.48s22.26,6.17,32.65-3.86,12.62-24.59,5-32.48S605.25,254.28,594.86,264.32Z" transform="translate(-378.86 -255.5)"></path>
  <circle class="cls-2" cx="184.53" cy="97.68" r="40.88"></circle>
  <path class="cls-2" d="M509.33,328.69a65.19,65.19,0,1,1-65.19-65.17h65.27Z" transform="translate(-378.86 -255.5)"></path>
  <path class="cls-2" d="M510,471.61A65.59,65.59,0,1,1,444.45,406,65.6,65.6,0,0,1,510,471.61Z" transform="translate(-378.86 -255.5)"></path>
  <path class="cls-3" d="M418.11,465.31v13.21H415.2V465.31Z" transform="translate(-378.86 -255.5)"></path>
  <path class="cls-3" d="M430,477.51a7.28,7.28,0,0,1-8.29,0,5,5,0,0,1-1.48-4v-8.21h2.91v8.21a6.23,6.23,0,0,0,.09,1.06,2.07,2.07,0,0,0,.39.91,2.16,2.16,0,0,0,.82.65,3.32,3.32,0,0,0,1.42.25,2.72,2.72,0,0,0,2.14-.69,3.3,3.3,0,0,0,.6-2.18v-8.21h2.9v8.21A5,5,0,0,1,430,477.51Z" transform="translate(-378.86 -255.5)"></path>
  <path class="cls-3" d="M442.1,468.83a3,3,0,0,0-1.53-1.22,3.16,3.16,0,0,0-1-.17,3.33,3.33,0,0,0-1.67.38,3.26,3.26,0,0,0-1.11,1,4.57,4.57,0,0,0-.62,1.46A7.15,7.15,0,0,0,436,472a6.77,6.77,0,0,0,.19,1.62,4.49,4.49,0,0,0,.62,1.41,3.26,3.26,0,0,0,1.11,1,3.44,3.44,0,0,0,1.67.38,2.7,2.7,0,0,0,2.08-.81,3.78,3.78,0,0,0,.91-2.15h2.81a6.59,6.59,0,0,1-.57,2.24,5.39,5.39,0,0,1-1.22,1.7,5.06,5.06,0,0,1-1.77,1.07,6.46,6.46,0,0,1-2.24.37,6.82,6.82,0,0,1-2.73-.52,6,6,0,0,1-2.05-1.46,6.34,6.34,0,0,1-1.27-2.17,7.87,7.87,0,0,1-.45-2.69,8.18,8.18,0,0,1,.45-2.75,6.62,6.62,0,0,1,1.27-2.21,5.9,5.9,0,0,1,2.05-1.48,7,7,0,0,1,4.79-.22,5.55,5.55,0,0,1,1.74.91,5.1,5.1,0,0,1,1.27,1.49,5.3,5.3,0,0,1,.62,2h-2.81A2.48,2.48,0,0,0,442.1,468.83Z" transform="translate(-378.86 -255.5)"></path>
  <path class="cls-3" d="M449.85,465.31l5.51,8.86h0v-8.86h2.72v13.21h-2.91l-5.49-8.85h0v8.85H447V465.31Z" transform="translate(-378.86 -255.5)"></path>
  <path class="cls-3" d="M442.87,485.74q-.36.39-.75.78a21.12,21.12,0,1,1,0-29.86,18.37,18.37,0,0,1,1.27,1.38H452a28.28,28.28,0,1,0-.36,27.7Z" transform="translate(-378.86 -255.5)"></path>
  <path class="cls-1" d="M850.64,621.13h4.75V622h-1.86v5h-1v-5h-1.86Z" transform="translate(-378.86 -255.5)"></path>
  <path class="cls-1" d="M856.06,621.13h1.45l1.62,4.6h0l1.58-4.6h1.43V627h-1v-4.53h0L859.54,627h-.85l-1.63-4.53h0V627h-1Z" transform="translate(-378.86 -255.5)"></path>
  <path class="cls-1" d="M677.38,426.79a7.1,7.1,0,1,1,7-7.1A6.83,6.83,0,0,1,677.38,426.79Zm0-13a5.52,5.52,0,0,0-5.47,5.87c0,3.22,2.09,5.86,5.47,5.86,3,0,5.43-2.39,5.43-5.86S680.42,413.82,677.38,413.82Zm3.59,7.23a3.36,3.36,0,0,1-3.36,2.93,4,4,0,0,1-4-4.29,3.86,3.86,0,0,1,4-4.08,3.2,3.2,0,0,1,3.38,2.86h-1.29a2,2,0,0,0-2.09-1.63c-1.59,0-2.47,1.27-2.47,2.85s1,3.05,2.51,3.05a2,2,0,0,0,2-1.69Z" transform="translate(-378.86 -255.5)"></path>
</svg>