<svg xmlns="http://www.w3.org/2000/svg" width="768" height="159" viewBox="0 0 768 159"><title>category-scale_cr.svg</title><g fill="none" fill-rule="evenodd"><path stroke="#000" d="M163.276 95.857h603.907M163.275 62.635h603.908"/><path fill="#000" d="M709.64 96.305h57.543V62.424H709.64z"/><path fill="#666" d="M81.118 96.314h76.323V62.109H81.118z"/><path fill="#FFF" d="M108.718 76.004h1.399c.909 0 1.779-.56 1.779-2.139 0-1.439-.5-2.359-2.059-2.359h-1.119v4.498zm-1.57-5.817h3.079c1.849 0 3.238 1.16 3.238 3.528 0 2.069-1.059 3.608-3.238 3.608h-3.079v-7.136zm8.94 4.378h1.849l-.9-2.619h-.02l-.929 2.619zm.15-4.378h1.609l2.668 7.136h-1.629l-.539-1.589h-2.669l-.56 1.589h-1.589l2.709-7.136zm5.763 1.319h-2.139v-1.319h5.847v1.319h-2.139v5.817h-1.569v-5.817m5.6 3.059h1.849l-.9-2.619h-.02l-.929 2.619zm.15-4.378h1.609l2.668 7.136h-1.629l-.539-1.589h-2.669l-.56 1.589h-1.589l2.709-7.136zM94.89 87.012h1.399c.909 0 1.779-.56 1.779-2.139 0-1.439-.5-2.359-2.059-2.359H94.89v4.498zm-1.57-5.817h3.079c1.849 0 3.238 1.159 3.238 3.528 0 2.069-1.059 3.608-3.238 3.608H93.32v-7.136zm7.41 0h5.338v1.319H102.3v1.529h3.458v1.22H102.3v1.749h3.847v1.319h-5.417v-7.136m6.48 0h5.018v1.319h-3.448v1.65h2.988v1.219h-2.988v2.948h-1.57v-7.136m5.93 7.136h1.569v-7.136h-1.569zm7.707-4.737c-.099-.709-.779-1.25-1.559-1.25-1.409 0-1.939 1.199-1.939 2.449 0 1.189.53 2.389 1.939 2.389.96 0 1.5-.661 1.619-1.6h1.52c-.16 1.779-1.39 2.919-3.139 2.919-2.208 0-3.508-1.649-3.508-3.708 0-2.119 1.3-3.768 3.508-3.768 1.569 0 2.889.919 3.079 2.569h-1.52m2.653 4.737h1.569v-7.136H123.5zm2.95-7.136h5.338v1.319h-3.768v1.529h3.458v1.22h-3.458v1.749h3.847v1.319h-5.417v-7.136m6.48 0h1.559l2.979 4.787h.02v-4.787h1.469v7.136h-1.569l-2.969-4.777h-.02v4.777h-1.469v-7.136m8.989 1.319h-2.139v-1.319h5.847v1.319h-2.139v5.817h-1.569v-5.817"/><path fill="#666" d="M0 96.314h77.599V62.109H0z"/><path fill="#FFF" d="M28.906 70.187h1.559l2.979 4.788h.02v-4.788h1.469v7.136h-1.569l-2.968-4.777h-.021v4.777h-1.469v-7.136m10.609 5.987c1.409 0 1.939-1.199 1.939-2.389 0-1.249-.53-2.448-1.939-2.448-1.41 0-1.939 1.199-1.939 2.448 0 1.19.529 2.389 1.939 2.389zm0-6.157c2.209 0 3.508 1.649 3.508 3.768 0 2.059-1.299 3.708-3.508 3.708s-3.508-1.649-3.508-3.708c0-2.119 1.299-3.768 3.508-3.768zm6.009 1.489h-2.138v-1.319h5.846v1.319h-2.138v5.817h-1.57v-5.817m-35.29 9.689h5.338v1.319h-3.768v1.529h3.458v1.22h-3.458v1.749h3.847v1.319h-5.417v-7.136m9.969 7.136h-1.769l-2.319-7.136h1.619l1.589 5.018h.02l1.609-5.018h1.619l-2.368 7.136m4.346-2.759h1.849l-.899-2.618h-.021l-.929 2.618zm.15-4.377h1.609l2.669 7.136h-1.629l-.54-1.589H24.14l-.56 1.589h-1.589l2.708-7.136zm5.141 0h1.569v5.817h3.478v1.319H29.84v-7.136m11.631 4.438c0 1.929-1.14 2.868-3.049 2.868-1.919 0-3.038-.93-3.038-2.868v-4.438h1.57v4.438c0 .779.199 1.549 1.468 1.549 1.12 0 1.48-.491 1.48-1.549v-4.438h1.569v4.438m2.902-.061h1.849l-.899-2.618h-.02l-.93 2.618zm.15-4.377h1.609l2.669 7.136h-1.629l-.54-1.589h-2.668l-.56 1.589h-1.589l2.708-7.136zm5.759 1.319h-2.138v-1.319h5.846v1.319h-2.138v5.817h-1.57v-5.817m4.481-1.319h5.338v1.319h-3.769v1.529h3.458v1.22h-3.458v1.749h3.848v1.319h-5.417v-7.136m8.127 5.817h1.399c.909 0 1.779-.56 1.779-2.139 0-1.439-.5-2.359-2.059-2.359H62.89v4.498zm-1.57-5.817h3.079c1.849 0 3.238 1.159 3.238 3.528 0 2.069-1.059 3.608-3.238 3.608H61.32v-7.136z"/><path fill="#000" d="M650.258 70.187h5.337v1.319h-3.768v1.53h3.458v1.219h-3.458v1.749h3.848v1.319h-5.417v-7.136m8.429 3.398l-2.299-3.398h1.819l1.399 2.279 1.45-2.279h1.718l-2.289 3.408 2.49 3.728h-1.87l-1.559-2.469-1.589 2.469h-1.769l2.499-3.738m6.517-2.079h-2.139v-1.319h5.847v1.319h-2.139v5.817h-1.569v-5.817m4.481 5.817h1.569v-7.136h-1.569zm3.159-7.136h1.559l2.979 4.788h.019v-4.788h1.47v7.136h-1.569l-2.969-4.777h-.02v4.777h-1.469v-7.136m12.168 2.399c-.101-.709-.781-1.249-1.56-1.249-1.409 0-1.938 1.199-1.938 2.448 0 1.19.529 2.389 1.938 2.389.96 0 1.499-.66 1.619-1.599h1.52c-.16 1.779-1.39 2.918-3.139 2.918-2.209 0-3.508-1.649-3.508-3.708 0-2.119 1.299-3.768 3.508-3.768 1.569 0 2.889.92 3.078 2.569h-1.518m3.981-1.08h-2.139v-1.319h5.847v1.319h-2.138v5.817h-1.57v-5.817m-47.485 16.825h1.569v-7.136h-1.569zm2.96-7.136h1.559l2.979 4.787h.019v-4.787h1.469v7.136h-1.568l-2.969-4.777h-.019v4.777h-1.47v-7.136m11.623 1.319h-2.139v-1.319h5.847v1.319h-2.139v5.817h-1.569v-5.817m4.48-1.319h1.57v2.739h2.888v-2.739h1.569v7.136h-1.569v-3.078h-2.888v3.078h-1.57v-7.136m7.39 0h5.337v1.319h-3.768v1.529h3.458v1.22h-3.458v1.749h3.848v1.319h-5.417v-7.136m15.852 7.136h-1.56l-1.209-4.857h-.021l-1.189 4.857h-1.589l-1.889-7.136h1.57l1.129 4.858h.019l1.24-4.858h1.469l1.22 4.917h.019l1.169-4.917h1.54l-1.918 7.136m2.653 0h1.569v-7.136h-1.569zm2.956-7.136h1.569v5.817h3.479v1.319h-5.048v-7.136m7.019 5.817h1.4c.909 0 1.778-.56 1.778-2.139 0-1.439-.499-2.359-2.058-2.359h-1.12v4.498zm-1.569-5.817h3.078c1.85 0 3.238 1.159 3.238 3.528 0 2.069-1.059 3.608-3.238 3.608h-3.078v-7.136z"/><path fill="#FFF" d="M718.203 75.703h5.337v1.319h-3.768v1.529h3.458v1.219h-3.458v1.75h3.848v1.319h-5.417v-7.136m8.429 3.398l-2.299-3.398h1.819l1.4 2.278 1.449-2.278h1.719l-2.289 3.408 2.489 3.728h-1.869l-1.56-2.469-1.589 2.469h-1.768l2.498-3.738m6.51-2.079h-2.139v-1.319h5.847v1.319h-2.139v5.817h-1.569v-5.817m4.501 5.817h1.569v-7.136h-1.569zm2.92-7.136h1.559l2.979 4.787h.019v-4.787h1.47v7.136h-1.569l-2.969-4.777h-.02v4.777h-1.469v-7.136m12.137 2.399c-.1-.71-.78-1.25-1.559-1.25-1.41 0-1.939 1.199-1.939 2.449 0 1.189.529 2.388 1.939 2.388.96 0 1.499-.66 1.619-1.599h1.519c-.16 1.779-1.389 2.919-3.138 2.919-2.209 0-3.508-1.65-3.508-3.708 0-2.119 1.299-3.768 3.508-3.768 1.569 0 2.888.919 3.078 2.569H752.7m4.231-1.08h-2.139v-1.319h5.847v1.319H758.5v5.817h-1.569v-5.817"/><path fill="#000" d="M173.43 70.187h1.569v5.817h3.478v1.319h-5.047v-7.136m5.799 0h5.338v1.319h-3.768v1.53h3.458v1.219h-3.458v1.749h3.847v1.319h-5.417v-7.136m8.031 4.378h1.849l-.9-2.619h-.02l-.929 2.619zm.15-4.378h1.609l2.669 7.136h-1.629l-.54-1.589h-2.668l-.56 1.589h-1.589l2.708-7.136zm5.891 4.768c0 .949.739 1.319 1.579 1.319.549 0 1.389-.16 1.389-.89 0-.769-1.069-.899-2.119-1.179-1.059-.28-2.129-.69-2.129-2.029 0-1.459 1.379-2.159 2.669-2.159 1.489 0 2.858.65 2.858 2.299h-1.519c-.05-.859-.659-1.079-1.409-1.079-.5 0-1.079.209-1.079.809 0 .55.339.62 2.128 1.079.52.13 2.119.46 2.119 2.08 0 1.309-1.029 2.288-2.968 2.288-1.579 0-3.059-.78-3.039-2.538h1.52m6.755-3.449h-2.139v-1.319h5.847v1.319h-2.139v5.817h-1.569v-5.817m-31.611 12.088c-.1-.709-.779-1.25-1.559-1.25-1.409 0-1.939 1.199-1.939 2.449 0 1.189.53 2.389 1.939 2.389.959 0 1.499-.661 1.619-1.6h1.519c-.16 1.779-1.389 2.919-3.138 2.919-2.209 0-3.508-1.649-3.508-3.708 0-2.119 1.299-3.768 3.508-3.768 1.569 0 2.888.919 3.078 2.569h-1.519m5.761 3.588c1.409 0 1.939-1.2 1.939-2.389 0-1.25-.53-2.449-1.939-2.449-1.41 0-1.939 1.199-1.939 2.449 0 1.189.529 2.389 1.939 2.389zm0-6.157c2.209 0 3.508 1.649 3.508 3.768 0 2.059-1.299 3.708-3.508 3.708s-3.508-1.649-3.508-3.708c0-2.119 1.299-3.768 3.508-3.768zm4.333.17h1.559l2.979 4.787h.02v-4.787h1.469v7.136h-1.569l-2.969-4.777h-.02v4.777h-1.469v-7.136m12.157 2.399c-.099-.709-.779-1.25-1.559-1.25-1.409 0-1.939 1.199-1.939 2.449 0 1.189.53 2.389 1.939 2.389.96 0 1.5-.661 1.619-1.6h1.52c-.16 1.779-1.39 2.919-3.139 2.919-2.208 0-3.508-1.649-3.508-3.708 0-2.119 1.3-3.768 3.508-3.768 1.57 0 2.889.919 3.079 2.569h-1.52m2.643-2.399h5.337v1.319h-3.768v1.529h3.458v1.22h-3.458v1.749h3.848v1.319h-5.417v-7.136m8.039 3.229h1.72c.699 0 1.079-.301 1.079-1.02 0-.689-.38-.99-1.079-.99h-1.72v2.01zm-1.569-3.229h3.848c1.28 0 2.089.889 2.089 1.969 0 .84-.34 1.469-1.129 1.789v.02c.769.2.989.949 1.039 1.67.03.449.02 1.289.3 1.688h-1.569c-.19-.45-.17-1.14-.25-1.709-.11-.749-.4-1.079-1.189-1.079h-1.57v2.788h-1.569v-7.136zm7.121 0h1.559l2.978 4.787h.02v-4.787h1.47v7.136h-1.57l-2.968-4.777h-.02v4.777h-1.469v-7.136m41.578-11.008h1.559l2.978 4.788h.02v-4.788h1.47v7.136h-1.57l-2.968-4.777h-.02v4.777h-1.469v-7.136m7.44 0h5.337v1.319h-3.768v1.53h3.458v1.219h-3.458v1.749h3.848v1.319h-5.417v-7.136m8.281 4.378h1.849l-.9-2.619h-.02l-.929 2.619zm.15-4.378h1.609l2.668 7.136h-1.629l-.539-1.589h-2.669l-.56 1.589h-1.589l2.709-7.136zm6.31 3.229h1.719c.699 0 1.079-.3 1.079-1.02 0-.689-.38-.99-1.079-.99h-1.719v2.01zm-1.569-3.229h3.848c1.279 0 2.089.89 2.089 1.969 0 .84-.34 1.469-1.13 1.789v.02c.77.2.99.95 1.04 1.669.03.45.019 1.289.3 1.689h-1.57c-.19-.449-.17-1.139-.25-1.709-.11-.749-.399-1.079-1.189-1.079h-1.569v2.788h-1.569v-7.136zm-38.689 12.327h-2.139v-1.319h5.847v1.319H232v5.817h-1.569v-5.817m4.481-1.319h1.569v2.739h2.888v-2.739h1.569v7.136h-1.569v-3.078h-2.888v3.078h-1.569v-7.136m9.001 3.229h1.719c.7 0 1.079-.301 1.079-1.02 0-.689-.379-.99-1.079-.99h-1.719v2.01zm-1.569-3.229h3.848c1.279 0 2.089.889 2.089 1.969 0 .84-.34 1.469-1.13 1.789v.02c.77.2.99.949 1.04 1.67.03.449.02 1.289.3 1.688h-1.57c-.19-.45-.17-1.14-.25-1.709-.109-.749-.399-1.079-1.189-1.079h-1.569v2.788h-1.569v-7.136zm7.02 0h5.337v1.319h-3.768v1.529h3.458v1.22h-3.458v1.749h3.848v1.319h-5.417v-7.136m8.295 4.377h1.848l-.899-2.618h-.02l-.929 2.618zm.15-4.377h1.608l2.669 7.136h-1.629l-.54-1.589h-2.668l-.56 1.589H255.1l2.709-7.136zm5.759 1.319h-2.138v-1.319h5.846v1.319h-2.138v5.817h-1.57v-5.817m4.471-1.319h5.337v1.319h-3.768v1.529h3.458v1.22h-3.458v1.749h3.848v1.319h-5.417v-7.136m6.56 0h1.559l2.979 4.787h.02v-4.787h1.469v7.136h-1.569l-2.969-4.777h-.02v4.777h-1.469v-7.136m7.49 0h5.337v1.319h-3.768v1.529h3.458v1.22h-3.458v1.749h3.848v1.319h-5.417v-7.136m8.129 5.817h1.4c.909 0 1.778-.56 1.778-2.139 0-1.439-.499-2.359-2.059-2.359h-1.119v4.498zm-1.569-5.817h3.079c1.848 0 3.238 1.159 3.238 3.528 0 2.069-1.06 3.608-3.238 3.608h-3.079v-7.136zm24.56 1.683h-1.769l-2.319-7.136h1.619l1.59 5.018h.02l1.608-5.018h1.62l-2.369 7.136m9.098-2.698c0 1.928-1.139 2.868-3.048 2.868-1.919 0-3.038-.93-3.038-2.868v-4.438h1.569v4.438c0 .779.2 1.549 1.469 1.549 1.119 0 1.479-.491 1.479-1.549v-4.438h1.569v4.438m1.381-4.438h1.569v5.817h3.478v1.319h-5.047v-7.136m5.649 0h1.559l2.979 4.787h.02v-4.787h1.469v7.136h-1.569l-2.968-4.777h-.02v4.777h-1.47v-7.136m7.436 0h5.338v1.319h-3.768v1.529h3.458v1.22h-3.458v1.749h3.847v1.319h-5.417v-7.136m8.11 3.228h1.719c.699 0 1.079-.3 1.079-1.019 0-.69-.38-.99-1.079-.99h-1.719v2.009zm-1.57-3.228h3.849c1.279 0 2.088.889 2.088 1.969 0 .839-.339 1.469-1.129 1.789v.02c.77.2.989.949 1.04 1.669.029.45.02 1.29.299 1.689h-1.569c-.19-.45-.17-1.14-.25-1.709-.11-.749-.399-1.079-1.189-1.079h-1.569v2.788h-1.57v-7.136zm9.08 4.377h1.848l-.899-2.618h-.02l-.929 2.618zm.149-4.377h1.609l2.669 7.136h-1.629l-.54-1.589h-2.669l-.559 1.589h-1.589l2.708-7.136zm6.531 5.916h1.679c.62 0 1.159-.199 1.159-.939 0-.729-.46-1.019-1.129-1.019h-1.709v1.958zm0-3.028h1.589c.549 0 .959-.25.959-.849 0-.68-.519-.82-1.079-.82h-1.469v1.669zm-1.57-2.888h3.359c1.359 0 2.279.44 2.279 1.769 0 .7-.35 1.189-.97 1.489.87.25 1.309.919 1.309 1.809 0 1.449-1.229 2.069-2.518 2.069h-3.459v-7.136zm7.005 0h1.569v5.817h3.478v1.319h-5.047v-7.136m5.65 0h5.337v1.319h-3.768v1.529h3.458v1.22h-3.458v1.749h3.848v1.319h-5.417v-7.136m20.85 0h5.337v1.319h-3.768v1.529h3.458v1.22h-3.458v1.749h3.848v1.319h-5.417v-7.136m6.559 0h1.56l2.978 4.787h.02v-4.787h1.469v7.136h-1.569l-2.968-4.777h-.02v4.777h-1.47v-7.136m9.002 5.817h1.4c.909 0 1.779-.56 1.779-2.139 0-1.44-.5-2.359-2.06-2.359h-1.119v4.498zM405 75.742h3.078c1.85 0 3.238 1.159 3.238 3.528 0 2.069-1.059 3.608-3.238 3.608H405v-7.136zm8.938 4.377h1.85l-.899-2.618h-.021l-.93 2.618zm.151-4.377h1.609l2.668 7.136h-1.629l-.54-1.589h-2.668l-.559 1.589h-1.59l2.709-7.136zm4.942 0h1.56l2.978 4.787h.02v-4.787h1.47v7.136h-1.57l-2.968-4.777h-.02v4.777h-1.47v-7.136m12.617 6.326c-.549.709-1.269.98-1.959.98-2.209 0-3.507-1.65-3.507-3.708 0-2.119 1.298-3.768 3.507-3.768 1.459 0 2.839.9 3.009 2.518h-1.499c-.18-.789-.769-1.199-1.51-1.199-1.409 0-1.938 1.199-1.938 2.449 0 1.189.529 2.389 1.938 2.389 1.02 0 1.61-.55 1.7-1.54h-1.579V79.02h2.998v3.858h-.999l-.161-.81m2.483-6.326h5.337v1.319H435.7v1.529h3.458v1.22H435.7v1.749h3.848v1.319h-5.417v-7.136m8.099 3.228h1.719c.7 0 1.08-.3 1.08-1.019 0-.69-.38-.99-1.08-.99h-1.719v2.009zm-1.569-3.228h3.848c1.279 0 2.089.889 2.089 1.969 0 .839-.34 1.469-1.129 1.789v.02c.769.2.989.949 1.039 1.669.03.45.02 1.29.3 1.689h-1.569c-.19-.45-.17-1.14-.25-1.709-.11-.749-.4-1.079-1.189-1.079h-1.57v2.788h-1.569v-7.136zm7.27 0h5.337v1.319H449.5v1.529h3.458v1.22H449.5v1.749h3.848v1.319h-5.417v-7.136m8.099 5.817h1.4c.909 0 1.779-.56 1.779-2.139 0-1.44-.5-2.359-2.06-2.359h-1.119v4.498zm-1.569-5.817h3.078c1.85 0 3.238 1.159 3.238 3.528 0 2.069-1.059 3.608-3.238 3.608h-3.078v-7.136z"/><path fill="#DA2A1C" d="M631.084 79.77V.543H550.51v.034c-43.128.72-77.88 35.884-77.88 79.197 0 43.757 35.474 79.226 79.224 79.226 43.621 0 79.002-35.252 79.221-78.822h.009v-.33l.002-.074-.002-.004"/><path fill="#FFF" d="M604.326 29.976h3.893c1.347 0 2.674.609 2.674 2.149 0 .823-.397 1.604-1.199 1.914v.022c.813.192 1.048 1.101 1.113 1.828.021.32.053 1.444.32 1.721h-1.967c-.172-.257-.203-1.005-.224-1.218-.054-.77-.182-1.562-1.113-1.562h-1.508v2.78h-1.989v-7.634zm1.989 3.315h1.668c.599 0 .92-.321.92-.899 0-.566-.449-.823-1.005-.823h-1.583v1.722zm5.518-3.315h6.085v1.593h-4.096v1.336h3.742v1.54h-3.742v1.454h4.202v1.711h-6.191v-7.634m7.111 0h3.284c2.341 0 3.742 1.422 3.742 3.785 0 2.502-1.422 3.849-3.742 3.849h-3.284v-7.634zm1.99 5.923h.94c1.508-.032 2.106-.62 2.106-2.149 0-1.39-.748-2.063-2.106-2.063h-.94v4.212zm-16.608 2.496h1.989v5.924h3.561v1.71h-5.55v-7.634m6.107 7.634h1.989v-7.634h-1.989zm4.491-2.566c.043.898.598 1.187 1.443 1.187.599 0 1.219-.213 1.219-.78 0-.674-1.091-.803-2.191-1.113-1.091-.31-2.236-.801-2.236-2.202 0-1.668 1.679-2.321 3.112-2.321 1.518 0 3.047.738 3.058 2.46h-1.989c.032-.695-.62-.92-1.23-.92-.427 0-.962.15-.962.652 0 .589 1.101.696 2.213 1.006 1.102.31 2.214.823 2.214 2.202 0 1.936-1.646 2.556-3.326 2.556-1.753 0-3.304-.77-3.314-2.727h1.989"/><path fill="#FFF" d="M625.863 40.105h-2.278v5.924h-1.989v-5.924h-2.278v-1.71h6.545v1.71m-6.776-27.991c-1.533 1.481-1.862 3.625-.736 4.791 1.126 1.166 3.282.91 4.814-.57s1.862-3.625.735-4.79c-1.125-1.166-3.281-.911-4.813.569"/><path fill="#FFF" d="M617.86 19.311c-1.531 1.48-1.86 3.625-.735 4.791 1.127 1.166 3.281.911 4.813-.57 1.534-1.48 1.863-3.625.736-4.792-1.125-1.165-3.28-.909-4.814.571"/><g fill="#FFF"><path d="M607.332 8.782c-1.532 1.481-1.861 3.625-.735 4.792 1.126 1.165 3.282.91 4.813-.57 1.532-1.481 1.861-3.626.736-4.792-1.125-1.165-3.282-.911-4.814.57"/><path d="M614.586 7.647c-1.532 1.48-1.861 3.624-.736 4.79 1.127 1.166 3.282.912 4.814-.569 1.532-1.48 1.861-3.626.735-4.791-1.126-1.166-3.281-.91-4.813.57"/></g><path fill="#FFF" d="M615.975 20.753a6.03 6.03 0 1 1-12.06-.002 6.03 6.03 0 0 1 12.06.002m-14.004-3.611c0 5.312-4.307 9.615-9.617 9.615a9.614 9.614 0 0 1-9.614-9.615c0-5.309 4.305-9.614 9.614-9.614h9.628l-.011 9.614m.104 21.08c0 5.343-4.332 9.674-9.675 9.674-5.342 0-9.673-4.331-9.673-9.674 0-5.344 4.331-9.675 9.673-9.675 5.343 0 9.675 4.331 9.675 9.675"/><path fill="#D61D17" d="M588.087 39.241h.429v-1.948h-.429zm2.183-.149c-.148.129-.351.193-.612.193-.263 0-.468-.064-.612-.191-.145-.128-.217-.324-.217-.59v-1.211h.429v1.211c0 .053.004.105.013.156a.314.314 0 0 0 .057.135c.029.039.07.071.122.095a.484.484 0 0 0 .208.037c.154 0 .259-.034.317-.102.058-.068.088-.175.088-.321v-1.211h.427v1.211c0 .264-.073.46-.22.588m1.785-1.28a.446.446 0 0 0-.377-.206.467.467 0 0 0-.409.206.66.66 0 0 0-.092.215 1.066 1.066 0 0 0 0 .487c.019.077.05.147.092.209a.474.474 0 0 0 .163.148.503.503 0 0 0 .246.056c.131 0 .233-.04.306-.12a.536.536 0 0 0 .135-.316h.415a1.007 1.007 0 0 1-.084.33.775.775 0 0 1-.442.409.968.968 0 0 1-.33.055.999.999 0 0 1-.403-.078.864.864 0 0 1-.301-.214.953.953 0 0 1-.189-.321 1.193 1.193 0 0 1-.065-.397c0-.146.022-.28.065-.405a.976.976 0 0 1 .189-.326.849.849 0 0 1 .301-.218.967.967 0 0 1 .403-.079c.107 0 .209.015.304.046a.825.825 0 0 1 .256.135.753.753 0 0 1 .188.219.798.798 0 0 1 .092.301h-.414a.376.376 0 0 0-.049-.136m1.142-.519l.814 1.307h.005v-1.307h.401v1.948h-.429l-.81-1.304h-.005v1.304h-.402v-1.948h.426"/><path fill="#D61D17" d="M592.168 40.306a3.101 3.101 0 0 1-2.312 1.027 3.103 3.103 0 0 1-2.202-.912 3.101 3.101 0 0 1-.912-2.202 3.1 3.1 0 0 1 .912-2.201 3.104 3.104 0 0 1 2.202-.913 3.102 3.102 0 0 1 2.388 1.116h1.272a4.17 4.17 0 1 0-.053 4.085h-1.295"/><path fill="#FFF" d="M626.758 31.61c-.602 0-1.03-.45-1.03-1.047 0-.629.476-1.047 1.03-1.047.549 0 1.025.418 1.025 1.047 0 .63-.476 1.047-1.025 1.047zm0-1.912c-.453 0-.806.356-.806.865 0 .477.308.866.806.866.448 0 .801-.353.801-.866 0-.509-.353-.865-.801-.865zm.529 1.067a.495.495 0 0 1-.495.431c-.358 0-.594-.271-.594-.633 0-.338.224-.599.588-.601.255 0 .462.148.499.422h-.191c-.028-.143-.148-.24-.308-.24-.235 0-.364.187-.364.419 0 .244.143.451.37.451.165 0 .282-.103.302-.249h.193zM513.104 68.41c-.165-1.17-1.285-2.059-2.571-2.059-2.323 0-3.196 1.977-3.196 4.037 0 1.961.873 3.939 3.196 3.939 1.582 0 2.473-1.088 2.67-2.637h2.505c-.264 2.933-2.29 4.812-5.175 4.812-3.641 0-5.784-2.719-5.784-6.114 0-3.493 2.143-6.213 5.784-6.213 2.588 0 4.763 1.516 5.076 4.235h-2.505m6.919 1.368h2.834c1.155 0 1.781-.494 1.781-1.681 0-1.137-.626-1.631-1.781-1.631h-2.834v3.312zm-2.587-5.323h6.344c2.11 0 3.445 1.467 3.445 3.247 0 1.384-.561 2.422-1.863 2.949v.034c1.27.329 1.632 1.565 1.714 2.752.05.741.033 2.125.494 2.785h-2.587c-.313-.742-.28-1.879-.412-2.818-.18-1.236-.659-1.78-1.961-1.78h-2.587v4.598h-2.587V64.455zm11.862 11.767h2.588V64.455h-2.588zm7.431-9.591h-3.527v-2.176h9.641v2.176h-3.527v9.591h-2.587v-9.591m7.43 9.591h2.588V64.455h-2.588zm12.672-7.812c-.165-1.17-1.285-2.059-2.571-2.059-2.323 0-3.197 1.977-3.197 4.037 0 1.961.874 3.939 3.197 3.939 1.582 0 2.472-1.088 2.67-2.637h2.505c-.264 2.933-2.29 4.812-5.175 4.812-3.642 0-5.784-2.719-5.784-6.114 0-3.493 2.142-6.213 5.784-6.213 2.588 0 4.762 1.516 5.076 4.235h-2.505m6.982 3.263h3.048l-1.483-4.318h-.033l-1.532 4.318zm.247-7.218h2.653l4.4 11.767h-2.686l-.89-2.62h-4.4l-.923 2.62h-2.62l4.466-11.767zm8.154 0h2.588v9.591h5.734v2.176h-8.322V64.455m9.632 0h2.588v9.591h5.734v2.176h-8.322V64.455m11.138 7.186l-4.334-7.186h2.917l2.752 4.648 2.736-4.648h2.884l-4.367 7.251v4.516h-2.588v-4.581m-98.271 10.283h8.801V84.1h-6.213v2.521h5.701v2.01h-5.701v2.885h6.345v2.174h-8.933V81.924m10.808 0h2.572l4.911 7.894h.032v-7.894h2.423V93.69h-2.587l-4.894-7.877h-.034v7.877h-2.423V81.924m14.866 9.592h2.306c1.5 0 2.934-.924 2.934-3.528 0-2.373-.824-3.888-3.395-3.888h-1.845v7.416zm-2.588-9.592h5.076c3.049 0 5.339 1.912 5.339 5.817 0 3.411-1.746 5.949-5.339 5.949h-5.076V81.924zm14.714 7.219h3.049l-1.484-4.319h-.033l-1.532 4.319zm.247-7.219h2.653l4.4 11.766h-2.686l-.89-2.62h-4.4l-.923 2.62h-2.62l4.466-11.766zm8.164 0h2.571l4.911 7.894h.032v-7.894h2.423V93.69h-2.587l-4.894-7.877h-.033v7.877h-2.423V81.924m20.811 10.431c-.906 1.17-2.092 1.616-3.23 1.616-3.642 0-5.784-2.719-5.784-6.115 0-3.493 2.142-6.211 5.784-6.211 2.406 0 4.681 1.482 4.961 4.152h-2.472c-.297-1.302-1.269-1.978-2.489-1.978-2.323 0-3.196 1.978-3.196 4.037 0 1.962.873 3.939 3.196 3.939 1.682 0 2.653-.906 2.802-2.537h-2.604v-1.929h4.943v6.361h-1.647l-.264-1.335m4.1-10.431h8.801V84.1h-6.213v2.521h5.702v2.01h-5.702v2.885h6.345v2.174h-8.933V81.924m13.363 5.323h2.834c1.154 0 1.781-.495 1.781-1.681 0-1.137-.627-1.631-1.781-1.631h-2.834v3.312zm-2.588-5.323h6.345c2.109 0 3.444 1.467 3.444 3.246 0 1.385-.56 2.423-1.862 2.95v.033c1.27.329 1.632 1.566 1.714 2.752.05.741.033 2.126.495 2.785h-2.588c-.312-.741-.28-1.878-.412-2.817-.181-1.236-.659-1.78-1.961-1.78h-2.587v4.597h-2.588V81.924zm11.994 0h8.801V84.1h-6.213v2.521h5.703v2.01h-5.703v2.885h6.345v2.174h-8.933V81.924m13.364 9.592h2.306c1.5 0 2.934-.924 2.934-3.528 0-2.373-.824-3.888-3.395-3.888h-1.845v7.416zm-2.588-9.592h5.076c3.049 0 5.339 1.912 5.339 5.817 0 3.411-1.746 5.949-5.339 5.949h-5.076V81.924z"/></g></svg>