<?xml version="1.0" encoding="UTF-8"?>
<svg width="768px" height="159px" viewBox="0 0 768 159" version="1.1" xmlns="http://www.w3.org/2000/svg" xmlns:xlink="http://www.w3.org/1999/xlink">
    <!-- Generator: Sketch 40.3 (33839) - http://www.bohemiancoding.com/sketch -->
    <title>category-scale_cr.svg</title>
    <desc>Created with Sketch.</desc>
    <defs></defs>
    <g id="Page-1" stroke="none" stroke-width="1" fill="none" fill-rule="evenodd">
        <g id="category-scale_cr.svg">
            <path d="M163.276,95.857 L767.183,95.857 M163.275,62.635 L767.183,62.635" id="Stroke-1" stroke="#000000"></path>
            <polygon id="Fill-3" fill="#000000" points="709.64 96.305 767.183 96.305 767.183 62.424 709.64 62.424"></polygon>
            <polygon id="Fill-4" fill="#666666" points="81.118 96.314 157.441 96.314 157.441 62.109 81.118 62.109"></polygon>
            <path d="M108.718,76.004 L110.117,76.004 C111.026,76.004 111.896,75.444 111.896,73.865 C111.896,72.426 111.396,71.506 109.837,71.506 L108.718,71.506 L108.718,76.004 L108.718,76.004 Z M107.148,70.187 L110.227,70.187 C112.076,70.187 113.465,71.347 113.465,73.715 C113.465,75.784 112.406,77.323 110.227,77.323 L107.148,77.323 L107.148,70.187 L107.148,70.187 Z" id="Fill-5" fill="#FFFFFF"></path>
            <path d="M116.088,74.565 L117.937,74.565 L117.037,71.946 L117.017,71.946 L116.088,74.565 L116.088,74.565 Z M116.238,70.187 L117.847,70.187 L120.515,77.323 L118.886,77.323 L118.347,75.734 L115.678,75.734 L115.118,77.323 L113.529,77.323 L116.238,70.187 L116.238,70.187 Z" id="Fill-6" fill="#FFFFFF"></path>
            <polyline id="Fill-7" fill="#FFFFFF" points="122.001 71.506 119.862 71.506 119.862 70.187 125.709 70.187 125.709 71.506 123.57 71.506 123.57 77.323 122.001 77.323 122.001 71.506"></polyline>
            <path d="M127.601,74.565 L129.45,74.565 L128.55,71.946 L128.53,71.946 L127.601,74.565 L127.601,74.565 Z M127.751,70.187 L129.36,70.187 L132.028,77.323 L130.399,77.323 L129.86,75.734 L127.191,75.734 L126.631,77.323 L125.042,77.323 L127.751,70.187 L127.751,70.187 Z" id="Fill-8" fill="#FFFFFF"></path>
            <path d="M94.89,87.012 L96.289,87.012 C97.198,87.012 98.068,86.452 98.068,84.873 C98.068,83.434 97.568,82.514 96.009,82.514 L94.89,82.514 L94.89,87.012 L94.89,87.012 Z M93.32,81.195 L96.399,81.195 C98.248,81.195 99.637,82.354 99.637,84.723 C99.637,86.792 98.578,88.331 96.399,88.331 L93.32,88.331 L93.32,81.195 L93.32,81.195 Z" id="Fill-9" fill="#FFFFFF"></path>
            <polyline id="Fill-10" fill="#FFFFFF" points="100.73 81.195 106.068 81.195 106.068 82.514 102.3 82.514 102.3 84.043 105.758 84.043 105.758 85.263 102.3 85.263 102.3 87.012 106.147 87.012 106.147 88.331 100.73 88.331 100.73 81.195"></polyline>
            <polyline id="Fill-11" fill="#FFFFFF" points="107.21 81.195 112.228 81.195 112.228 82.514 108.78 82.514 108.78 84.164 111.768 84.164 111.768 85.383 108.78 85.383 108.78 88.331 107.21 88.331 107.21 81.195"></polyline>
            <polygon id="Fill-12" fill="#FFFFFF" points="113.14 88.331 114.709 88.331 114.709 81.195 113.14 81.195"></polygon>
            <path d="M120.847,83.594 C120.748,82.885 120.068,82.344 119.288,82.344 C117.879,82.344 117.349,83.543 117.349,84.793 C117.349,85.982 117.879,87.182 119.288,87.182 C120.248,87.182 120.788,86.521 120.907,85.582 L122.427,85.582 C122.267,87.361 121.037,88.501 119.288,88.501 C117.08,88.501 115.78,86.852 115.78,84.793 C115.78,82.674 117.08,81.025 119.288,81.025 C120.857,81.025 122.177,81.944 122.367,83.594 L120.847,83.594" id="Fill-13" fill="#FFFFFF"></path>
            <polygon id="Fill-14" fill="#FFFFFF" points="123.5 88.331 125.069 88.331 125.069 81.195 123.5 81.195"></polygon>
            <polyline id="Fill-15" fill="#FFFFFF" points="126.45 81.195 131.788 81.195 131.788 82.514 128.02 82.514 128.02 84.043 131.478 84.043 131.478 85.263 128.02 85.263 128.02 87.012 131.867 87.012 131.867 88.331 126.45 88.331 126.45 81.195"></polyline>
            <polyline id="Fill-16" fill="#FFFFFF" points="132.93 81.195 134.489 81.195 137.468 85.982 137.488 85.982 137.488 81.195 138.957 81.195 138.957 88.331 137.388 88.331 134.419 83.554 134.399 83.554 134.399 88.331 132.93 88.331 132.93 81.195"></polyline>
            <polyline id="Fill-17" fill="#FFFFFF" points="141.919 82.514 139.78 82.514 139.78 81.195 145.627 81.195 145.627 82.514 143.488 82.514 143.488 88.331 141.919 88.331 141.919 82.514"></polyline>
            <polygon id="Fill-20" fill="#666666" points="0 96.314 77.599 96.314 77.599 62.109 0 62.109"></polygon>
            <polyline id="Fill-21" fill="#FFFFFF" points="28.906 70.187 30.465 70.187 33.444 74.975 33.464 74.975 33.464 70.187 34.933 70.187 34.933 77.323 33.364 77.323 30.396 72.546 30.375 72.546 30.375 77.323 28.906 77.323 28.906 70.187"></polyline>
            <path d="M39.515,76.174 C40.924,76.174 41.454,74.975 41.454,73.785 C41.454,72.536 40.924,71.337 39.515,71.337 C38.105,71.337 37.576,72.536 37.576,73.785 C37.576,74.975 38.105,76.174 39.515,76.174 L39.515,76.174 Z M39.515,70.017 C41.724,70.017 43.023,71.666 43.023,73.785 C43.023,75.844 41.724,77.493 39.515,77.493 C37.306,77.493 36.007,75.844 36.007,73.785 C36.007,71.666 37.306,70.017 39.515,70.017 L39.515,70.017 Z" id="Fill-22" fill="#FFFFFF"></path>
            <polyline id="Fill-23" fill="#FFFFFF" points="45.524 71.506 43.386 71.506 43.386 70.187 49.232 70.187 49.232 71.506 47.094 71.506 47.094 77.323 45.524 77.323 45.524 71.506"></polyline>
            <polyline id="Fill-24" fill="#FFFFFF" points="10.234 81.195 15.572 81.195 15.572 82.514 11.804 82.514 11.804 84.043 15.262 84.043 15.262 85.263 11.804 85.263 11.804 87.012 15.651 87.012 15.651 88.331 10.234 88.331 10.234 81.195"></polyline>
            <polyline id="Fill-25" fill="#FFFFFF" points="20.203 88.331 18.434 88.331 16.115 81.195 17.734 81.195 19.323 86.213 19.343 86.213 20.952 81.195 22.571 81.195 20.203 88.331"></polyline>
            <path d="M24.549,85.572 L26.398,85.572 L25.499,82.954 L25.478,82.954 L24.549,85.572 L24.549,85.572 Z M24.699,81.195 L26.308,81.195 L28.977,88.331 L27.348,88.331 L26.808,86.742 L24.14,86.742 L23.58,88.331 L21.991,88.331 L24.699,81.195 L24.699,81.195 Z" id="Fill-26" fill="#FFFFFF"></path>
            <polyline id="Fill-27" fill="#FFFFFF" points="29.84 81.195 31.409 81.195 31.409 87.012 34.887 87.012 34.887 88.331 29.84 88.331 29.84 81.195"></polyline>
            <path d="M41.471,85.633 C41.471,87.562 40.331,88.501 38.422,88.501 C36.503,88.501 35.384,87.571 35.384,85.633 L35.384,81.195 L36.954,81.195 L36.954,85.633 C36.954,86.412 37.153,87.182 38.422,87.182 C39.542,87.182 39.902,86.691 39.902,85.633 L39.902,81.195 L41.471,81.195 L41.471,85.633" id="Fill-28" fill="#FFFFFF"></path>
            <path d="M44.373,85.572 L46.222,85.572 L45.323,82.954 L45.303,82.954 L44.373,85.572 L44.373,85.572 Z M44.523,81.195 L46.132,81.195 L48.801,88.331 L47.172,88.331 L46.632,86.742 L43.964,86.742 L43.404,88.331 L41.815,88.331 L44.523,81.195 L44.523,81.195 Z" id="Fill-29" fill="#FFFFFF"></path>
            <polyline id="Fill-30" fill="#FFFFFF" points="50.282 82.514 48.144 82.514 48.144 81.195 53.99 81.195 53.99 82.514 51.852 82.514 51.852 88.331 50.282 88.331 50.282 82.514"></polyline>
            <polyline id="Fill-31" fill="#FFFFFF" points="54.763 81.195 60.101 81.195 60.101 82.514 56.332 82.514 56.332 84.043 59.79 84.043 59.79 85.263 56.332 85.263 56.332 87.012 60.18 87.012 60.18 88.331 54.763 88.331 54.763 81.195"></polyline>
            <path d="M62.89,87.012 L64.289,87.012 C65.198,87.012 66.068,86.452 66.068,84.873 C66.068,83.434 65.568,82.514 64.009,82.514 L62.89,82.514 L62.89,87.012 L62.89,87.012 Z M61.32,81.195 L64.399,81.195 C66.248,81.195 67.637,82.354 67.637,84.723 C67.637,86.792 66.578,88.331 64.399,88.331 L61.32,88.331 L61.32,81.195 L61.32,81.195 Z" id="Fill-32" fill="#FFFFFF"></path>
            <polyline id="Fill-35" fill="#000000" points="650.258 70.187 655.595 70.187 655.595 71.506 651.827 71.506 651.827 73.036 655.285 73.036 655.285 74.255 651.827 74.255 651.827 76.004 655.675 76.004 655.675 77.323 650.258 77.323 650.258 70.187"></polyline>
            <polyline id="Fill-36" fill="#000000" points="658.687 73.585 656.388 70.187 658.207 70.187 659.606 72.466 661.056 70.187 662.774 70.187 660.485 73.595 662.975 77.323 661.105 77.323 659.546 74.854 657.957 77.323 656.188 77.323 658.687 73.585"></polyline>
            <polyline id="Fill-37" fill="#000000" points="665.204 71.506 663.065 71.506 663.065 70.187 668.912 70.187 668.912 71.506 666.773 71.506 666.773 77.323 665.204 77.323 665.204 71.506"></polyline>
            <polygon id="Fill-38" fill="#000000" points="669.685 77.323 671.254 77.323 671.254 70.187 669.685 70.187"></polygon>
            <polyline id="Fill-39" fill="#000000" points="672.844 70.187 674.403 70.187 677.382 74.975 677.401 74.975 677.401 70.187 678.871 70.187 678.871 77.323 677.302 77.323 674.333 72.546 674.313 72.546 674.313 77.323 672.844 77.323 672.844 70.187"></polyline>
            <path d="M685.012,72.586 C684.911,71.877 684.231,71.337 683.452,71.337 C682.043,71.337 681.514,72.536 681.514,73.785 C681.514,74.975 682.043,76.174 683.452,76.174 C684.412,76.174 684.951,75.514 685.071,74.575 L686.591,74.575 C686.431,76.354 685.201,77.493 683.452,77.493 C681.243,77.493 679.944,75.844 679.944,73.785 C679.944,71.666 681.243,70.017 683.452,70.017 C685.021,70.017 686.341,70.937 686.53,72.586 L685.012,72.586" id="Fill-40" fill="#000000"></path>
            <polyline id="Fill-41" fill="#000000" points="688.993 71.506 686.854 71.506 686.854 70.187 692.701 70.187 692.701 71.506 690.563 71.506 690.563 77.323 688.993 77.323 688.993 71.506"></polyline>
            <polygon id="Fill-42" fill="#000000" points="641.508 88.331 643.077 88.331 643.077 81.195 641.508 81.195"></polygon>
            <polyline id="Fill-43" fill="#000000" points="644.468 81.195 646.027 81.195 649.006 85.982 649.025 85.982 649.025 81.195 650.494 81.195 650.494 88.331 648.926 88.331 645.957 83.554 645.938 83.554 645.938 88.331 644.468 88.331 644.468 81.195"></polyline>
            <polyline id="Fill-44" fill="#000000" points="656.091 82.514 653.952 82.514 653.952 81.195 659.799 81.195 659.799 82.514 657.66 82.514 657.66 88.331 656.091 88.331 656.091 82.514"></polyline>
            <polyline id="Fill-45" fill="#000000" points="660.571 81.195 662.141 81.195 662.141 83.934 665.029 83.934 665.029 81.195 666.598 81.195 666.598 88.331 665.029 88.331 665.029 85.253 662.141 85.253 662.141 88.331 660.571 88.331 660.571 81.195"></polyline>
            <polyline id="Fill-46" fill="#000000" points="667.961 81.195 673.298 81.195 673.298 82.514 669.53 82.514 669.53 84.043 672.988 84.043 672.988 85.263 669.53 85.263 669.53 87.012 673.378 87.012 673.378 88.331 667.961 88.331 667.961 81.195"></polyline>
            <polyline id="Fill-47" fill="#000000" points="683.813 88.331 682.253 88.331 681.044 83.474 681.023 83.474 679.834 88.331 678.245 88.331 676.356 81.195 677.926 81.195 679.055 86.053 679.074 86.053 680.314 81.195 681.783 81.195 683.003 86.112 683.022 86.112 684.191 81.195 685.731 81.195 683.813 88.331"></polyline>
            <polygon id="Fill-48" fill="#000000" points="686.466 88.331 688.035 88.331 688.035 81.195 686.466 81.195"></polygon>
            <polyline id="Fill-49" fill="#000000" points="689.422 81.195 690.991 81.195 690.991 87.012 694.47 87.012 694.47 88.331 689.422 88.331 689.422 81.195"></polyline>
            <path d="M696.441,87.012 L697.841,87.012 C698.75,87.012 699.619,86.452 699.619,84.873 C699.619,83.434 699.12,82.514 697.561,82.514 L696.441,82.514 L696.441,87.012 L696.441,87.012 Z M694.872,81.195 L697.95,81.195 C699.8,81.195 701.188,82.354 701.188,84.723 C701.188,86.792 700.129,88.331 697.95,88.331 L694.872,88.331 L694.872,81.195 L694.872,81.195 Z" id="Fill-50" fill="#000000"></path>
            <polyline id="Fill-53" fill="#FFFFFF" points="718.203 75.703 723.54 75.703 723.54 77.022 719.772 77.022 719.772 78.551 723.23 78.551 723.23 79.77 719.772 79.77 719.772 81.52 723.62 81.52 723.62 82.839 718.203 82.839 718.203 75.703"></polyline>
            <polyline id="Fill-54" fill="#FFFFFF" points="726.632 79.101 724.333 75.703 726.152 75.703 727.552 77.981 729.001 75.703 730.72 75.703 728.431 79.111 730.92 82.839 729.051 82.839 727.491 80.37 725.902 82.839 724.134 82.839 726.632 79.101"></polyline>
            <polyline id="Fill-55" fill="#FFFFFF" points="733.142 77.022 731.003 77.022 731.003 75.703 736.85 75.703 736.85 77.022 734.711 77.022 734.711 82.839 733.142 82.839 733.142 77.022"></polyline>
            <polygon id="Fill-56" fill="#FFFFFF" points="737.643 82.839 739.212 82.839 739.212 75.703 737.643 75.703"></polygon>
            <polyline id="Fill-57" fill="#FFFFFF" points="740.563 75.703 742.122 75.703 745.101 80.49 745.12 80.49 745.12 75.703 746.59 75.703 746.59 82.839 745.021 82.839 742.052 78.062 742.032 78.062 742.032 82.839 740.563 82.839 740.563 75.703"></polyline>
            <path d="M752.7,78.102 C752.6,77.392 751.92,76.852 751.141,76.852 C749.731,76.852 749.202,78.051 749.202,79.301 C749.202,80.49 749.731,81.689 751.141,81.689 C752.101,81.689 752.64,81.029 752.76,80.09 L754.279,80.09 C754.119,81.869 752.89,83.009 751.141,83.009 C748.932,83.009 747.633,81.359 747.633,79.301 C747.633,77.182 748.932,75.533 751.141,75.533 C752.71,75.533 754.029,76.452 754.219,78.102 L752.7,78.102" id="Fill-58" fill="#FFFFFF"></path>
            <polyline id="Fill-59" fill="#FFFFFF" points="756.931 77.022 754.792 77.022 754.792 75.703 760.639 75.703 760.639 77.022 758.5 77.022 758.5 82.839 756.931 82.839 756.931 77.022"></polyline>
            <polyline id="Fill-62" fill="#000000" points="173.43 70.187 174.999 70.187 174.999 76.004 178.477 76.004 178.477 77.323 173.43 77.323 173.43 70.187"></polyline>
            <polyline id="Fill-63" fill="#000000" points="179.229 70.187 184.567 70.187 184.567 71.506 180.799 71.506 180.799 73.036 184.257 73.036 184.257 74.255 180.799 74.255 180.799 76.004 184.646 76.004 184.646 77.323 179.229 77.323 179.229 70.187"></polyline>
            <path d="M187.26,74.565 L189.109,74.565 L188.209,71.946 L188.189,71.946 L187.26,74.565 L187.26,74.565 Z M187.41,70.187 L189.019,70.187 L191.688,77.323 L190.059,77.323 L189.519,75.734 L186.851,75.734 L186.291,77.323 L184.702,77.323 L187.41,70.187 L187.41,70.187 Z" id="Fill-64" fill="#000000"></path>
            <path d="M193.301,74.955 C193.301,75.904 194.04,76.274 194.88,76.274 C195.429,76.274 196.269,76.114 196.269,75.384 C196.269,74.615 195.2,74.485 194.15,74.205 C193.091,73.925 192.021,73.515 192.021,72.176 C192.021,70.717 193.4,70.017 194.69,70.017 C196.179,70.017 197.548,70.667 197.548,72.316 L196.029,72.316 C195.979,71.457 195.37,71.237 194.62,71.237 C194.12,71.237 193.541,71.446 193.541,72.046 C193.541,72.596 193.88,72.666 195.669,73.125 C196.189,73.255 197.788,73.585 197.788,75.205 C197.788,76.514 196.759,77.493 194.82,77.493 C193.241,77.493 191.761,76.713 191.781,74.955 L193.301,74.955" id="Fill-65" fill="#000000"></path>
            <polyline id="Fill-66" fill="#000000" points="200.056 71.506 197.917 71.506 197.917 70.187 203.764 70.187 203.764 71.506 201.625 71.506 201.625 77.323 200.056 77.323 200.056 71.506"></polyline>
            <path d="M168.445,83.594 C168.345,82.885 167.666,82.344 166.886,82.344 C165.477,82.344 164.947,83.543 164.947,84.793 C164.947,85.982 165.477,87.182 166.886,87.182 C167.845,87.182 168.385,86.521 168.505,85.582 L170.024,85.582 C169.864,87.361 168.635,88.501 166.886,88.501 C164.677,88.501 163.378,86.852 163.378,84.793 C163.378,82.674 164.677,81.025 166.886,81.025 C168.455,81.025 169.774,81.944 169.964,83.594 L168.445,83.594" id="Fill-67" fill="#000000"></path>
            <path d="M174.206,87.182 C175.615,87.182 176.145,85.982 176.145,84.793 C176.145,83.543 175.615,82.344 174.206,82.344 C172.796,82.344 172.267,83.543 172.267,84.793 C172.267,85.982 172.796,87.182 174.206,87.182 L174.206,87.182 Z M174.206,81.025 C176.415,81.025 177.714,82.674 177.714,84.793 C177.714,86.852 176.415,88.501 174.206,88.501 C171.997,88.501 170.698,86.852 170.698,84.793 C170.698,82.674 171.997,81.025 174.206,81.025 L174.206,81.025 Z" id="Fill-68" fill="#000000"></path>
            <polyline id="Fill-69" fill="#000000" points="178.539 81.195 180.098 81.195 183.077 85.982 183.097 85.982 183.097 81.195 184.566 81.195 184.566 88.331 182.997 88.331 180.028 83.554 180.008 83.554 180.008 88.331 178.539 88.331 178.539 81.195"></polyline>
            <path d="M190.696,83.594 C190.597,82.885 189.917,82.344 189.137,82.344 C187.728,82.344 187.198,83.543 187.198,84.793 C187.198,85.982 187.728,87.182 189.137,87.182 C190.097,87.182 190.637,86.521 190.756,85.582 L192.276,85.582 C192.116,87.361 190.886,88.501 189.137,88.501 C186.929,88.501 185.629,86.852 185.629,84.793 C185.629,82.674 186.929,81.025 189.137,81.025 C190.707,81.025 192.026,81.944 192.216,83.594 L190.696,83.594" id="Fill-70" fill="#000000"></path>
            <polyline id="Fill-71" fill="#000000" points="193.339 81.195 198.676 81.195 198.676 82.514 194.908 82.514 194.908 84.043 198.366 84.043 198.366 85.263 194.908 85.263 194.908 87.012 198.756 87.012 198.756 88.331 193.339 88.331 193.339 81.195"></polyline>
            <path d="M201.378,84.424 L203.098,84.424 C203.797,84.424 204.177,84.123 204.177,83.404 C204.177,82.715 203.797,82.414 203.098,82.414 L201.378,82.414 L201.378,84.424 L201.378,84.424 Z M199.809,81.195 L203.657,81.195 C204.937,81.195 205.746,82.084 205.746,83.164 C205.746,84.004 205.406,84.633 204.617,84.953 L204.617,84.973 C205.386,85.173 205.606,85.922 205.656,86.643 C205.686,87.092 205.676,87.932 205.956,88.331 L204.387,88.331 C204.197,87.881 204.217,87.191 204.137,86.622 C204.027,85.873 203.737,85.543 202.948,85.543 L201.378,85.543 L201.378,88.331 L199.809,88.331 L199.809,81.195 L199.809,81.195 Z" id="Fill-72" fill="#000000"></path>
            <polyline id="Fill-73" fill="#000000" points="206.93 81.195 208.489 81.195 211.467 85.982 211.487 85.982 211.487 81.195 212.957 81.195 212.957 88.331 211.387 88.331 208.419 83.554 208.399 83.554 208.399 88.331 206.93 88.331 206.93 81.195"></polyline>
            <polyline id="Fill-76" fill="#000000" points="248.508 70.187 250.067 70.187 253.045 74.975 253.065 74.975 253.065 70.187 254.535 70.187 254.535 77.323 252.965 77.323 249.997 72.546 249.977 72.546 249.977 77.323 248.508 77.323 248.508 70.187"></polyline>
            <polyline id="Fill-77" fill="#000000" points="255.948 70.187 261.285 70.187 261.285 71.506 257.517 71.506 257.517 73.036 260.975 73.036 260.975 74.255 257.517 74.255 257.517 76.004 261.365 76.004 261.365 77.323 255.948 77.323 255.948 70.187"></polyline>
            <path d="M264.229,74.565 L266.078,74.565 L265.178,71.946 L265.158,71.946 L264.229,74.565 L264.229,74.565 Z M264.379,70.187 L265.988,70.187 L268.656,77.323 L267.027,77.323 L266.488,75.734 L263.819,75.734 L263.259,77.323 L261.67,77.323 L264.379,70.187 L264.379,70.187 Z" id="Fill-78" fill="#000000"></path>
            <path d="M270.689,73.416 L272.408,73.416 C273.107,73.416 273.487,73.116 273.487,72.396 C273.487,71.707 273.107,71.406 272.408,71.406 L270.689,71.406 L270.689,73.416 L270.689,73.416 Z M269.12,70.187 L272.968,70.187 C274.247,70.187 275.057,71.077 275.057,72.156 C275.057,72.996 274.717,73.625 273.927,73.945 L273.927,73.965 C274.697,74.165 274.917,74.915 274.967,75.634 C274.997,76.084 274.986,76.923 275.267,77.323 L273.697,77.323 C273.507,76.874 273.527,76.184 273.447,75.614 C273.337,74.865 273.048,74.535 272.258,74.535 L270.689,74.535 L270.689,77.323 L269.12,77.323 L269.12,70.187 L269.12,70.187 Z" id="Fill-79" fill="#000000"></path>
            <polyline id="Fill-80" fill="#000000" points="230.431 82.514 228.292 82.514 228.292 81.195 234.139 81.195 234.139 82.514 232 82.514 232 88.331 230.431 88.331 230.431 82.514"></polyline>
            <polyline id="Fill-81" fill="#000000" points="234.912 81.195 236.481 81.195 236.481 83.934 239.369 83.934 239.369 81.195 240.938 81.195 240.938 88.331 239.369 88.331 239.369 85.253 236.481 85.253 236.481 88.331 234.912 88.331 234.912 81.195"></polyline>
            <path d="M243.913,84.424 L245.632,84.424 C246.332,84.424 246.711,84.123 246.711,83.404 C246.711,82.715 246.332,82.414 245.632,82.414 L243.913,82.414 L243.913,84.424 L243.913,84.424 Z M242.344,81.195 L246.192,81.195 C247.471,81.195 248.281,82.084 248.281,83.164 C248.281,84.004 247.941,84.633 247.151,84.953 L247.151,84.973 C247.921,85.173 248.141,85.922 248.191,86.643 C248.221,87.092 248.211,87.932 248.491,88.331 L246.921,88.331 C246.731,87.881 246.751,87.191 246.671,86.622 C246.562,85.873 246.272,85.543 245.482,85.543 L243.913,85.543 L243.913,88.331 L242.344,88.331 L242.344,81.195 L242.344,81.195 Z" id="Fill-82" fill="#000000"></path>
            <polyline id="Fill-83" fill="#000000" points="249.364 81.195 254.701 81.195 254.701 82.514 250.933 82.514 250.933 84.043 254.391 84.043 254.391 85.263 250.933 85.263 250.933 87.012 254.781 87.012 254.781 88.331 249.364 88.331 249.364 81.195"></polyline>
            <path d="M257.659,85.572 L259.507,85.572 L258.608,82.954 L258.588,82.954 L257.659,85.572 L257.659,85.572 Z M257.809,81.195 L259.417,81.195 L262.086,88.331 L260.457,88.331 L259.917,86.742 L257.249,86.742 L256.689,88.331 L255.1,88.331 L257.809,81.195 L257.809,81.195 Z" id="Fill-84" fill="#000000"></path>
            <polyline id="Fill-85" fill="#000000" points="263.568 82.514 261.43 82.514 261.43 81.195 267.276 81.195 267.276 82.514 265.138 82.514 265.138 88.331 263.568 88.331 263.568 82.514"></polyline>
            <polyline id="Fill-86" fill="#000000" points="268.039 81.195 273.376 81.195 273.376 82.514 269.608 82.514 269.608 84.043 273.066 84.043 273.066 85.263 269.608 85.263 269.608 87.012 273.456 87.012 273.456 88.331 268.039 88.331 268.039 81.195"></polyline>
            <polyline id="Fill-87" fill="#000000" points="274.599 81.195 276.158 81.195 279.137 85.982 279.157 85.982 279.157 81.195 280.626 81.195 280.626 88.331 279.057 88.331 276.088 83.554 276.068 83.554 276.068 88.331 274.599 88.331 274.599 81.195"></polyline>
            <polyline id="Fill-88" fill="#000000" points="282.089 81.195 287.426 81.195 287.426 82.514 283.658 82.514 283.658 84.043 287.116 84.043 287.116 85.263 283.658 85.263 283.658 87.012 287.506 87.012 287.506 88.331 282.089 88.331 282.089 81.195"></polyline>
            <path d="M290.218,87.012 L291.618,87.012 C292.527,87.012 293.396,86.452 293.396,84.873 C293.396,83.434 292.897,82.514 291.337,82.514 L290.218,82.514 L290.218,87.012 L290.218,87.012 Z M288.649,81.195 L291.728,81.195 C293.576,81.195 294.966,82.354 294.966,84.723 C294.966,86.792 293.906,88.331 291.728,88.331 L288.649,88.331 L288.649,81.195 L288.649,81.195 Z" id="Fill-89" fill="#000000"></path>
            <polyline id="Fill-92" fill="#000000" points="313.209 82.878 311.44 82.878 309.121 75.742 310.74 75.742 312.33 80.76 312.35 80.76 313.958 75.742 315.578 75.742 313.209 82.878"></polyline>
            <path d="M322.307,80.18 C322.307,82.108 321.168,83.048 319.259,83.048 C317.34,83.048 316.221,82.118 316.221,80.18 L316.221,75.742 L317.79,75.742 L317.79,80.18 C317.79,80.959 317.99,81.729 319.259,81.729 C320.378,81.729 320.738,81.238 320.738,80.18 L320.738,75.742 L322.307,75.742 L322.307,80.18" id="Fill-93" fill="#000000"></path>
            <polyline id="Fill-94" fill="#000000" points="323.688 75.742 325.257 75.742 325.257 81.559 328.735 81.559 328.735 82.878 323.688 82.878 323.688 75.742"></polyline>
            <polyline id="Fill-95" fill="#000000" points="329.337 75.742 330.896 75.742 333.875 80.529 333.895 80.529 333.895 75.742 335.364 75.742 335.364 82.878 333.795 82.878 330.827 78.101 330.807 78.101 330.807 82.878 329.337 82.878 329.337 75.742"></polyline>
            <polyline id="Fill-96" fill="#000000" points="336.773 75.742 342.111 75.742 342.111 77.061 338.343 77.061 338.343 78.59 341.801 78.59 341.801 79.81 338.343 79.81 338.343 81.559 342.19 81.559 342.19 82.878 336.773 82.878 336.773 75.742"></polyline>
            <path d="M344.883,78.97 L346.602,78.97 C347.301,78.97 347.681,78.67 347.681,77.951 C347.681,77.261 347.301,76.961 346.602,76.961 L344.883,76.961 L344.883,78.97 L344.883,78.97 Z M343.313,75.742 L347.162,75.742 C348.441,75.742 349.25,76.631 349.25,77.711 C349.25,78.55 348.911,79.18 348.121,79.5 L348.121,79.52 C348.891,79.72 349.11,80.469 349.161,81.189 C349.19,81.639 349.181,82.479 349.46,82.878 L347.891,82.878 C347.701,82.428 347.721,81.738 347.641,81.169 C347.531,80.42 347.242,80.09 346.452,80.09 L344.883,80.09 L344.883,82.878 L343.313,82.878 L343.313,75.742 L343.313,75.742 Z" id="Fill-97" fill="#000000"></path>
            <path d="M352.393,80.119 L354.241,80.119 L353.342,77.501 L353.322,77.501 L352.393,80.119 L352.393,80.119 Z M352.542,75.742 L354.151,75.742 L356.82,82.878 L355.191,82.878 L354.651,81.289 L351.982,81.289 L351.423,82.878 L349.834,82.878 L352.542,75.742 L352.542,75.742 Z" id="Fill-98" fill="#000000"></path>
            <path d="M359.073,81.658 L360.752,81.658 C361.372,81.658 361.911,81.459 361.911,80.719 C361.911,79.99 361.451,79.7 360.782,79.7 L359.073,79.7 L359.073,81.658 L359.073,81.658 Z M359.073,78.63 L360.662,78.63 C361.211,78.63 361.621,78.38 361.621,77.781 C361.621,77.101 361.102,76.961 360.542,76.961 L359.073,76.961 L359.073,78.63 L359.073,78.63 Z M357.503,75.742 L360.862,75.742 C362.221,75.742 363.141,76.182 363.141,77.511 C363.141,78.211 362.791,78.7 362.171,79 C363.041,79.25 363.48,79.919 363.48,80.809 C363.48,82.258 362.251,82.878 360.962,82.878 L357.503,82.878 L357.503,75.742 L357.503,75.742 Z" id="Fill-99" fill="#000000"></path>
            <polyline id="Fill-100" fill="#000000" points="364.508 75.742 366.077 75.742 366.077 81.559 369.555 81.559 369.555 82.878 364.508 82.878 364.508 75.742"></polyline>
            <polyline id="Fill-101" fill="#000000" points="370.158 75.742 375.495 75.742 375.495 77.061 371.727 77.061 371.727 78.59 375.185 78.59 375.185 79.81 371.727 79.81 371.727 81.559 375.575 81.559 375.575 82.878 370.158 82.878 370.158 75.742"></polyline>
            <polyline id="Fill-104" fill="#000000" points="391.008 75.742 396.345 75.742 396.345 77.061 392.577 77.061 392.577 78.59 396.035 78.59 396.035 79.81 392.577 79.81 392.577 81.559 396.425 81.559 396.425 82.878 391.008 82.878 391.008 75.742"></polyline>
            <polyline id="Fill-105" fill="#000000" points="397.567 75.742 399.127 75.742 402.105 80.529 402.125 80.529 402.125 75.742 403.594 75.742 403.594 82.878 402.025 82.878 399.057 78.101 399.037 78.101 399.037 82.878 397.567 82.878 397.567 75.742"></polyline>
            <path d="M406.569,81.559 L407.969,81.559 C408.878,81.559 409.748,80.999 409.748,79.42 C409.748,77.98 409.248,77.061 407.688,77.061 L406.569,77.061 L406.569,81.559 L406.569,81.559 Z M405,75.742 L408.078,75.742 C409.928,75.742 411.316,76.901 411.316,79.27 C411.316,81.339 410.257,82.878 408.078,82.878 L405,82.878 L405,75.742 L405,75.742 Z" id="Fill-106" fill="#000000"></path>
            <path d="M413.938,80.119 L415.788,80.119 L414.889,77.501 L414.868,77.501 L413.938,80.119 L413.938,80.119 Z M414.089,75.742 L415.698,75.742 L418.366,82.878 L416.737,82.878 L416.197,81.289 L413.529,81.289 L412.97,82.878 L411.38,82.878 L414.089,75.742 L414.089,75.742 Z" id="Fill-107" fill="#000000"></path>
            <polyline id="Fill-108" fill="#000000" points="419.031 75.742 420.591 75.742 423.569 80.529 423.589 80.529 423.589 75.742 425.059 75.742 425.059 82.878 423.489 82.878 420.521 78.101 420.501 78.101 420.501 82.878 419.031 82.878 419.031 75.742"></polyline>
            <path d="M431.648,82.068 C431.099,82.777 430.379,83.048 429.689,83.048 C427.48,83.048 426.182,81.398 426.182,79.34 C426.182,77.221 427.48,75.572 429.689,75.572 C431.148,75.572 432.528,76.472 432.698,78.09 L431.199,78.09 C431.019,77.301 430.43,76.891 429.689,76.891 C428.28,76.891 427.751,78.09 427.751,79.34 C427.751,80.529 428.28,81.729 429.689,81.729 C430.709,81.729 431.299,81.179 431.389,80.189 L429.81,80.189 L429.81,79.02 L432.808,79.02 L432.808,82.878 L431.809,82.878 L431.648,82.068" id="Fill-109" fill="#000000"></path>
            <polyline id="Fill-110" fill="#000000" points="434.131 75.742 439.468 75.742 439.468 77.061 435.7 77.061 435.7 78.59 439.158 78.59 439.158 79.81 435.7 79.81 435.7 81.559 439.548 81.559 439.548 82.878 434.131 82.878 434.131 75.742"></polyline>
            <path d="M442.23,78.97 L443.949,78.97 C444.649,78.97 445.029,78.67 445.029,77.951 C445.029,77.261 444.649,76.961 443.949,76.961 L442.23,76.961 L442.23,78.97 L442.23,78.97 Z M440.661,75.742 L444.509,75.742 C445.788,75.742 446.598,76.631 446.598,77.711 C446.598,78.55 446.258,79.18 445.469,79.5 L445.469,79.52 C446.238,79.72 446.458,80.469 446.508,81.189 C446.538,81.639 446.528,82.479 446.808,82.878 L445.239,82.878 C445.049,82.428 445.069,81.738 444.989,81.169 C444.879,80.42 444.589,80.09 443.8,80.09 L442.23,80.09 L442.23,82.878 L440.661,82.878 L440.661,75.742 L440.661,75.742 Z" id="Fill-111" fill="#000000"></path>
            <polyline id="Fill-112" fill="#000000" points="447.931 75.742 453.268 75.742 453.268 77.061 449.5 77.061 449.5 78.59 452.958 78.59 452.958 79.81 449.5 79.81 449.5 81.559 453.348 81.559 453.348 82.878 447.931 82.878 447.931 75.742"></polyline>
            <path d="M456.03,81.559 L457.43,81.559 C458.339,81.559 459.209,80.999 459.209,79.42 C459.209,77.98 458.709,77.061 457.149,77.061 L456.03,77.061 L456.03,81.559 L456.03,81.559 Z M454.461,75.742 L457.539,75.742 C459.389,75.742 460.777,76.901 460.777,79.27 C460.777,81.339 459.718,82.878 457.539,82.878 L454.461,82.878 L454.461,75.742 L454.461,75.742 Z" id="Fill-113" fill="#000000"></path>
            <path d="M631.084,79.77 L631.084,0.543 L550.51,0.543 L550.51,0.577 C507.382,1.297 472.63,36.461 472.63,79.774 C472.63,123.531 508.104,159 551.854,159 C595.475,159 630.856,123.748 631.075,80.178 L631.084,80.178 L631.084,79.848 C631.084,79.823 631.086,79.799 631.086,79.774 C631.086,79.773 631.084,79.77 631.084,79.77" id="Fill-116" fill="#DA2A1C"></path>
            <path d="M604.326,29.976 L608.219,29.976 C609.566,29.976 610.893,30.585 610.893,32.125 C610.893,32.948 610.496,33.729 609.694,34.039 L609.694,34.061 C610.507,34.253 610.742,35.162 610.807,35.889 C610.828,36.209 610.86,37.333 611.127,37.61 L609.16,37.61 C608.988,37.353 608.957,36.605 608.936,36.392 C608.882,35.622 608.754,34.83 607.823,34.83 L606.315,34.83 L606.315,37.61 L604.326,37.61 L604.326,29.976 L604.326,29.976 Z M606.315,33.291 L607.983,33.291 C608.582,33.291 608.903,32.97 608.903,32.392 C608.903,31.826 608.454,31.569 607.898,31.569 L606.315,31.569 L606.315,33.291 L606.315,33.291 Z" id="Fill-117" fill="#FFFFFF"></path>
            <polyline id="Fill-118" fill="#FFFFFF" points="611.833 29.976 617.918 29.976 617.918 31.569 613.822 31.569 613.822 32.905 617.564 32.905 617.564 34.445 613.822 34.445 613.822 35.899 618.024 35.899 618.024 37.61 611.833 37.61 611.833 29.976"></polyline>
            <path d="M618.944,29.976 L622.228,29.976 C624.569,29.976 625.97,31.398 625.97,33.761 C625.97,36.263 624.548,37.61 622.228,37.61 L618.944,37.61 L618.944,29.976 L618.944,29.976 Z M620.934,35.899 L621.874,35.899 C623.382,35.867 623.98,35.279 623.98,33.75 C623.98,32.36 623.232,31.687 621.874,31.687 L620.934,31.687 L620.934,35.899 L620.934,35.899 Z" id="Fill-119" fill="#FFFFFF"></path>
            <polyline id="Fill-120" fill="#FFFFFF" points="604.326 38.395 606.315 38.395 606.315 44.319 609.876 44.319 609.876 46.029 604.326 46.029 604.326 38.395"></polyline>
            <polygon id="Fill-121" fill="#FFFFFF" points="610.433 46.029 612.422 46.029 612.422 38.395 610.433 38.395"></polygon>
            <path d="M614.924,43.463 C614.967,44.361 615.522,44.65 616.367,44.65 C616.966,44.65 617.586,44.437 617.586,43.87 C617.586,43.196 616.495,43.067 615.395,42.757 C614.304,42.447 613.159,41.956 613.159,40.555 C613.159,38.887 614.838,38.234 616.271,38.234 C617.789,38.234 619.318,38.972 619.329,40.694 L617.34,40.694 C617.372,39.999 616.72,39.774 616.11,39.774 C615.683,39.774 615.148,39.924 615.148,40.426 C615.148,41.015 616.249,41.122 617.361,41.432 C618.463,41.742 619.575,42.255 619.575,43.634 C619.575,45.57 617.929,46.19 616.249,46.19 C614.496,46.19 612.945,45.42 612.935,43.463 L614.924,43.463" id="Fill-122" fill="#FFFFFF"></path>
            <polyline id="Fill-123" fill="#FFFFFF" points="625.863 40.105 623.585 40.105 623.585 46.029 621.596 46.029 621.596 40.105 619.318 40.105 619.318 38.395 625.863 38.395 625.863 40.105"></polyline>
            <path d="M619.087,12.114 C617.554,13.595 617.225,15.739 618.351,16.905 C619.477,18.071 621.633,17.815 623.165,16.335 C624.697,14.855 625.027,12.71 623.9,11.545 C622.775,10.379 620.619,10.634 619.087,12.114" id="Fill-124" fill="#FFFFFF"></path>
            <path d="M617.86,19.311 C616.329,20.791 616,22.936 617.125,24.102 C618.252,25.268 620.406,25.013 621.938,23.532 C623.472,22.052 623.801,19.907 622.674,18.74 C621.549,17.575 619.394,17.831 617.86,19.311" id="Fill-125" fill="#FFFFFF"></path>
            <g id="Group-129" transform="translate(605.000000, 6.000000)" fill="#FFFFFF">
                <path d="M2.332,2.782 C0.8,4.263 0.471,6.407 1.597,7.574 C2.723,8.739 4.879,8.484 6.41,7.004 C7.942,5.523 8.271,3.378 7.146,2.212 C6.021,1.047 3.864,1.301 2.332,2.782" id="Fill-126"></path>
                <path d="M9.586,1.647 C8.054,3.127 7.725,5.271 8.85,6.437 C9.977,7.603 12.132,7.349 13.664,5.868 C15.196,4.388 15.525,2.242 14.399,1.077 C13.273,-0.089 11.118,0.167 9.586,1.647" id="Fill-128"></path>
            </g>
            <path d="M615.975,20.753 C615.975,24.082 613.275,26.782 609.945,26.782 C606.615,26.782 603.915,24.082 603.915,20.753 C603.915,17.423 606.615,14.723 609.945,14.723 C613.275,14.723 615.975,17.423 615.975,20.753" id="Fill-130" fill="#FFFFFF"></path>
            <path d="M601.971,17.142 C601.971,22.454 597.664,26.757 592.354,26.757 C587.045,26.757 582.74,22.454 582.74,17.142 C582.74,11.833 587.045,7.528 592.354,7.528 L601.982,7.528 L601.971,17.142" id="Fill-131" fill="#FFFFFF"></path>
            <path d="M602.075,38.222 C602.075,43.565 597.743,47.896 592.4,47.896 C587.058,47.896 582.727,43.565 582.727,38.222 C582.727,32.878 587.058,28.547 592.4,28.547 C597.743,28.547 602.075,32.878 602.075,38.222" id="Fill-132" fill="#FFFFFF"></path>
            <polygon id="Fill-133" fill="#D61D17" points="588.087 39.241 588.516 39.241 588.516 37.293 588.087 37.293"></polygon>
            <path d="M590.27,39.092 C590.122,39.221 589.919,39.285 589.658,39.285 C589.395,39.285 589.19,39.221 589.046,39.094 C588.901,38.966 588.829,38.77 588.829,38.504 L588.829,37.293 L589.258,37.293 L589.258,38.504 C589.258,38.557 589.262,38.609 589.271,38.66 C589.28,38.711 589.299,38.756 589.328,38.795 C589.357,38.834 589.398,38.866 589.45,38.89 C589.502,38.915 589.571,38.927 589.658,38.927 C589.812,38.927 589.917,38.893 589.975,38.825 C590.033,38.757 590.063,38.65 590.063,38.504 L590.063,37.293 L590.49,37.293 L590.49,38.504 C590.49,38.768 590.417,38.964 590.27,39.092" id="Fill-134" fill="#D61D17"></path>
            <path d="M592.055,37.812 C592.028,37.771 591.997,37.736 591.959,37.705 C591.92,37.674 591.877,37.65 591.829,37.633 C591.781,37.615 591.73,37.606 591.678,37.606 C591.581,37.606 591.499,37.625 591.432,37.663 C591.365,37.7 591.311,37.75 591.269,37.812 C591.227,37.875 591.196,37.947 591.177,38.027 C591.158,38.107 591.148,38.189 591.148,38.275 C591.148,38.357 591.158,38.437 591.177,38.514 C591.196,38.591 591.227,38.661 591.269,38.723 C591.311,38.784 591.365,38.834 591.432,38.871 C591.499,38.908 591.581,38.927 591.678,38.927 C591.809,38.927 591.911,38.887 591.984,38.807 C592.059,38.727 592.104,38.622 592.119,38.491 L592.534,38.491 C592.523,38.612 592.495,38.723 592.45,38.821 C592.404,38.919 592.344,39.003 592.27,39.072 C592.195,39.141 592.107,39.194 592.008,39.23 C591.908,39.266 591.798,39.285 591.678,39.285 C591.528,39.285 591.395,39.259 591.275,39.207 C591.156,39.155 591.056,39.084 590.974,38.993 C590.892,38.902 590.829,38.795 590.785,38.672 C590.742,38.549 590.72,38.417 590.72,38.275 C590.72,38.129 590.742,37.995 590.785,37.87 C590.829,37.745 590.892,37.637 590.974,37.544 C591.056,37.451 591.156,37.378 591.275,37.326 C591.395,37.272 591.528,37.247 591.678,37.247 C591.785,37.247 591.887,37.262 591.982,37.293 C592.077,37.324 592.163,37.369 592.238,37.428 C592.313,37.487 592.376,37.56 592.426,37.647 C592.475,37.735 592.505,37.835 592.518,37.948 L592.104,37.948 C592.096,37.898 592.08,37.854 592.055,37.812" id="Fill-135" fill="#D61D17"></path>
            <polyline id="Fill-136" fill="#D61D17" points="593.197 37.293 594.011 38.6 594.016 38.6 594.016 37.293 594.417 37.293 594.417 39.241 593.988 39.241 593.178 37.937 593.173 37.937 593.173 39.241 592.771 39.241 592.771 37.293 593.197 37.293"></polyline>
            <path d="M592.168,40.306 C592.132,40.345 592.096,40.384 592.058,40.421 C591.494,40.985 590.717,41.333 589.856,41.333 C588.995,41.333 588.219,40.985 587.654,40.421 C587.09,39.857 586.742,39.08 586.742,38.219 C586.742,37.359 587.09,36.582 587.654,36.018 C588.219,35.454 588.995,35.105 589.856,35.105 C590.717,35.105 591.494,35.454 592.058,36.018 C592.123,36.083 592.186,36.15 592.244,36.221 L593.516,36.221 C592.808,34.925 591.434,34.047 589.854,34.046 C587.55,34.047 585.684,35.914 585.683,38.217 C585.684,40.52 587.55,42.387 589.854,42.387 C591.395,42.387 592.741,41.55 593.463,40.306 L592.168,40.306" id="Fill-137" fill="#D61D17"></path>
            <path d="M626.758,31.61 C626.156,31.61 625.728,31.16 625.728,30.563 C625.728,29.934 626.204,29.516 626.758,29.516 C627.307,29.516 627.783,29.934 627.783,30.563 C627.783,31.193 627.307,31.61 626.758,31.61 L626.758,31.61 Z M626.758,29.698 C626.305,29.698 625.952,30.054 625.952,30.563 C625.952,31.04 626.26,31.429 626.758,31.429 C627.206,31.429 627.559,31.076 627.559,30.563 C627.559,30.054 627.206,29.698 626.758,29.698 L626.758,29.698 Z M627.287,30.765 C627.24,31.031 627.038,31.196 626.792,31.196 C626.434,31.196 626.198,30.925 626.198,30.563 C626.198,30.225 626.422,29.964 626.786,29.962 C627.041,29.962 627.248,30.11 627.285,30.384 L627.094,30.384 C627.066,30.241 626.946,30.144 626.786,30.144 C626.551,30.144 626.422,30.331 626.422,30.563 C626.422,30.807 626.565,31.014 626.792,31.014 C626.957,31.014 627.074,30.911 627.094,30.765 L627.287,30.765 L627.287,30.765 Z" id="Fill-138" fill="#FFFFFF"></path>
            <path d="M513.104,68.41 C512.939,67.24 511.819,66.351 510.533,66.351 C508.21,66.351 507.337,68.328 507.337,70.388 C507.337,72.349 508.21,74.327 510.533,74.327 C512.115,74.327 513.006,73.239 513.203,71.69 L515.708,71.69 C515.444,74.623 513.418,76.502 510.533,76.502 C506.892,76.502 504.749,73.783 504.749,70.388 C504.749,66.895 506.892,64.175 510.533,64.175 C513.121,64.175 515.296,65.691 515.609,68.41 L513.104,68.41" id="Fill-139" fill="#FFFFFF"></path>
            <path d="M520.023,69.778 L522.857,69.778 C524.012,69.778 524.638,69.284 524.638,68.097 C524.638,66.96 524.012,66.466 522.857,66.466 L520.023,66.466 L520.023,69.778 L520.023,69.778 Z M517.436,64.455 L523.78,64.455 C525.89,64.455 527.225,65.922 527.225,67.702 C527.225,69.086 526.664,70.124 525.362,70.651 L525.362,70.685 C526.632,71.014 526.994,72.25 527.076,73.437 C527.126,74.178 527.109,75.562 527.57,76.222 L524.983,76.222 C524.67,75.48 524.703,74.343 524.571,73.404 C524.391,72.168 523.912,71.624 522.61,71.624 L520.023,71.624 L520.023,76.222 L517.436,76.222 L517.436,64.455 L517.436,64.455 Z" id="Fill-140" fill="#FFFFFF"></path>
            <polygon id="Fill-141" fill="#FFFFFF" points="529.298 76.222 531.886 76.222 531.886 64.455 529.298 64.455"></polygon>
            <polyline id="Fill-142" fill="#FFFFFF" points="536.729 66.631 533.202 66.631 533.202 64.455 542.843 64.455 542.843 66.631 539.316 66.631 539.316 76.222 536.729 76.222 536.729 66.631"></polyline>
            <polygon id="Fill-143" fill="#FFFFFF" points="544.159 76.222 546.747 76.222 546.747 64.455 544.159 64.455"></polygon>
            <path d="M556.831,68.41 C556.666,67.24 555.546,66.351 554.26,66.351 C551.937,66.351 551.063,68.328 551.063,70.388 C551.063,72.349 551.937,74.327 554.26,74.327 C555.842,74.327 556.732,73.239 556.93,71.69 L559.435,71.69 C559.171,74.623 557.145,76.502 554.26,76.502 C550.618,76.502 548.476,73.783 548.476,70.388 C548.476,66.895 550.618,64.175 554.26,64.175 C556.848,64.175 559.022,65.691 559.336,68.41 L556.831,68.41" id="Fill-144" fill="#FFFFFF"></path>
            <path d="M563.813,71.673 L566.861,71.673 L565.378,67.355 L565.345,67.355 L563.813,71.673 L563.813,71.673 Z M564.06,64.455 L566.713,64.455 L571.113,76.222 L568.427,76.222 L567.537,73.602 L563.137,73.602 L562.214,76.222 L559.594,76.222 L564.06,64.455 L564.06,64.455 Z" id="Fill-145" fill="#FFFFFF"></path>
            <polyline id="Fill-146" fill="#FFFFFF" points="572.214 64.455 574.802 64.455 574.802 74.046 580.536 74.046 580.536 76.222 572.214 76.222 572.214 64.455"></polyline>
            <polyline id="Fill-147" fill="#FFFFFF" points="581.846 64.455 584.434 64.455 584.434 74.046 590.168 74.046 590.168 76.222 581.846 76.222 581.846 64.455"></polyline>
            <polyline id="Fill-148" fill="#FFFFFF" points="592.984 71.641 588.65 64.455 591.567 64.455 594.319 69.103 597.055 64.455 599.939 64.455 595.572 71.706 595.572 76.222 592.984 76.222 592.984 71.641"></polyline>
            <polyline id="Fill-149" fill="#FFFFFF" points="494.713 81.924 503.514 81.924 503.514 84.1 497.301 84.1 497.301 86.621 503.002 86.621 503.002 88.631 497.301 88.631 497.301 91.516 503.646 91.516 503.646 93.69 494.713 93.69 494.713 81.924"></polyline>
            <polyline id="Fill-150" fill="#FFFFFF" points="505.521 81.924 508.093 81.924 513.004 89.818 513.036 89.818 513.036 81.924 515.459 81.924 515.459 93.69 512.872 93.69 507.978 85.813 507.944 85.813 507.944 93.69 505.521 93.69 505.521 81.924"></polyline>
            <path d="M520.387,91.516 L522.693,91.516 C524.193,91.516 525.627,90.592 525.627,87.988 C525.627,85.615 524.803,84.1 522.232,84.1 L520.387,84.1 L520.387,91.516 L520.387,91.516 Z M517.799,81.924 L522.875,81.924 C525.924,81.924 528.214,83.836 528.214,87.741 C528.214,91.152 526.468,93.69 522.875,93.69 L517.799,93.69 L517.799,81.924 L517.799,81.924 Z" id="Fill-151" fill="#FFFFFF"></path>
            <path d="M532.513,89.143 L535.562,89.143 L534.078,84.824 L534.045,84.824 L532.513,89.143 L532.513,89.143 Z M532.76,81.924 L535.413,81.924 L539.813,93.69 L537.127,93.69 L536.237,91.07 L531.837,91.07 L530.914,93.69 L528.294,93.69 L532.76,81.924 L532.76,81.924 Z" id="Fill-152" fill="#FFFFFF"></path>
            <polyline id="Fill-153" fill="#FFFFFF" points="540.924 81.924 543.495 81.924 548.406 89.818 548.438 89.818 548.438 81.924 550.861 81.924 550.861 93.69 548.274 93.69 543.38 85.813 543.347 85.813 543.347 93.69 540.924 93.69 540.924 81.924"></polyline>
            <path d="M561.735,92.355 C560.829,93.525 559.643,93.971 558.505,93.971 C554.863,93.971 552.721,91.252 552.721,87.856 C552.721,84.363 554.863,81.645 558.505,81.645 C560.911,81.645 563.186,83.127 563.466,85.797 L560.994,85.797 C560.697,84.495 559.725,83.819 558.505,83.819 C556.182,83.819 555.309,85.797 555.309,87.856 C555.309,89.818 556.182,91.795 558.505,91.795 C560.187,91.795 561.158,90.889 561.307,89.258 L558.703,89.258 L558.703,87.329 L563.646,87.329 L563.646,93.69 L561.999,93.69 L561.735,92.355" id="Fill-154" fill="#FFFFFF"></path>
            <polyline id="Fill-155" fill="#FFFFFF" points="565.835 81.924 574.636 81.924 574.636 84.1 568.423 84.1 568.423 86.621 574.125 86.621 574.125 88.631 568.423 88.631 568.423 91.516 574.768 91.516 574.768 93.69 565.835 93.69 565.835 81.924"></polyline>
            <path d="M579.198,87.247 L582.032,87.247 C583.186,87.247 583.813,86.752 583.813,85.566 C583.813,84.429 583.186,83.935 582.032,83.935 L579.198,83.935 L579.198,87.247 L579.198,87.247 Z M576.61,81.924 L582.955,81.924 C585.064,81.924 586.399,83.391 586.399,85.17 C586.399,86.555 585.839,87.593 584.537,88.12 L584.537,88.153 C585.807,88.482 586.169,89.719 586.251,90.905 C586.301,91.646 586.284,93.031 586.746,93.69 L584.158,93.69 C583.846,92.949 583.878,91.812 583.746,90.873 C583.565,89.637 583.087,89.093 581.785,89.093 L579.198,89.093 L579.198,93.69 L576.61,93.69 L576.61,81.924 L576.61,81.924 Z" id="Fill-156" fill="#FFFFFF"></path>
            <polyline id="Fill-157" fill="#FFFFFF" points="588.604 81.924 597.405 81.924 597.405 84.1 591.192 84.1 591.192 86.621 596.895 86.621 596.895 88.631 591.192 88.631 591.192 91.516 597.537 91.516 597.537 93.69 588.604 93.69 588.604 81.924"></polyline>
            <path d="M601.968,91.516 L604.274,91.516 C605.774,91.516 607.208,90.592 607.208,87.988 C607.208,85.615 606.384,84.1 603.813,84.1 L601.968,84.1 L601.968,91.516 L601.968,91.516 Z M599.38,81.924 L604.456,81.924 C607.505,81.924 609.795,83.836 609.795,87.741 C609.795,91.152 608.049,93.69 604.456,93.69 L599.38,93.69 L599.38,81.924 L599.38,81.924 Z" id="Fill-158" fill="#FFFFFF"></path>
        </g>
    </g>
</svg>