<?xml version="1.0" encoding="utf-8"?>
<!-- Generator: Adobe Illustrator 22.0.1, SVG Export Plug-In . SVG Version: 6.00 Build 0)  -->
<svg version="1.1" id="Layer_1" xmlns="http://www.w3.org/2000/svg" xmlns:xlink="http://www.w3.org/1999/xlink" x="0px" y="0px"
	 viewBox="0 0 768 159" style="enable-background:new 0 0 768 159;" xml:space="preserve">
<style type="text/css">
	.st0{fill:#666666;}
	.st1{fill:none;stroke:#000000;}
	.st2{fill:#FFFFFF;}
</style>
<title>category-scale_dd</title>
<desc>Created with Sketch.</desc>
<g id="Page-1">
	<g id="category-scale_dd">
		<polygon id="Fill-1" points="709.6,96.3 767.2,96.3 767.2,62.4 709.6,62.4 		"/>
		<polygon id="Fill-2" class="st0" points="0,96.3 77.6,96.3 77.6,62.1 0,62.1 		"/>
		<path id="Stroke-3" class="st1" d="M163.3,95.9h603.9 M163.3,62.6h603.9"/>
		<polyline id="Fill-5" class="st2" points="28.9,70.2 30.5,70.2 33.4,75 33.5,75 33.5,70.2 34.9,70.2 34.9,77.3 33.4,77.3 
			30.4,72.5 30.4,72.5 30.4,77.3 28.9,77.3 28.9,70.2 		"/>
		<path id="Fill-6" class="st2" d="M39.5,76.2c1.4,0,1.9-1.2,1.9-2.4c0-1.2-0.5-2.4-1.9-2.4c-1.4,0-1.9,1.2-1.9,2.4
			C37.6,75,38.1,76.2,39.5,76.2L39.5,76.2z M39.5,70c2.2,0,3.5,1.6,3.5,3.8c0,2.1-1.3,3.7-3.5,3.7S36,75.8,36,73.8
			C36,71.7,37.3,70,39.5,70L39.5,70z"/>
		<polyline id="Fill-7" class="st2" points="45.5,71.5 43.4,71.5 43.4,70.2 49.2,70.2 49.2,71.5 47.1,71.5 47.1,77.3 45.5,77.3 
			45.5,71.5 		"/>
		<polyline id="Fill-8" class="st2" points="10.2,81.2 15.6,81.2 15.6,82.5 11.8,82.5 11.8,84 15.3,84 15.3,85.3 11.8,85.3 11.8,87 
			15.7,87 15.7,88.3 10.2,88.3 10.2,81.2 		"/>
		<polyline id="Fill-9" class="st2" points="20.2,88.3 18.4,88.3 16.1,81.2 17.7,81.2 19.3,86.2 19.3,86.2 21,81.2 22.6,81.2 
			20.2,88.3 		"/>
		<path id="Fill-10" class="st2" d="M24.5,85.6h1.8L25.5,83h0L24.5,85.6L24.5,85.6z M24.7,81.2h1.6l2.7,7.1h-1.6l-0.5-1.6h-2.7
			l-0.6,1.6H22L24.7,81.2L24.7,81.2z"/>
		<polyline id="Fill-11" class="st2" points="29.8,81.2 31.4,81.2 31.4,87 34.9,87 34.9,88.3 29.8,88.3 29.8,81.2 		"/>
		<path id="Fill-12" class="st2" d="M41.5,85.6c0,1.9-1.1,2.9-3,2.9c-1.9,0-3-0.9-3-2.9v-4.4H37v4.4c0,0.8,0.2,1.5,1.5,1.5
			c1.1,0,1.5-0.5,1.5-1.5v-4.4h1.6V85.6"/>
		<path id="Fill-13" class="st2" d="M44.4,85.6h1.8L45.3,83h0L44.4,85.6L44.4,85.6z M44.5,81.2h1.6l2.7,7.1h-1.6l-0.5-1.6H44
			l-0.6,1.6h-1.6L44.5,81.2L44.5,81.2z"/>
		<polyline id="Fill-14" class="st2" points="50.3,82.5 48.1,82.5 48.1,81.2 54,81.2 54,82.5 51.9,82.5 51.9,88.3 50.3,88.3 
			50.3,82.5 		"/>
		<polyline id="Fill-15" class="st2" points="54.8,81.2 60.1,81.2 60.1,82.5 56.3,82.5 56.3,84 59.8,84 59.8,85.3 56.3,85.3 
			56.3,87 60.2,87 60.2,88.3 54.8,88.3 54.8,81.2 		"/>
		<path id="Fill-16" class="st2" d="M62.9,87h1.4c0.9,0,1.8-0.6,1.8-2.1c0-1.4-0.5-2.4-2.1-2.4h-1.1V87L62.9,87z M61.3,81.2h3.1
			c1.8,0,3.2,1.2,3.2,3.5c0,2.1-1.1,3.6-3.2,3.6h-3.1V81.2L61.3,81.2z"/>
		<polyline id="Fill-19" points="404.4,82.9 402.6,82.9 400.3,75.7 401.9,75.7 403.5,80.8 403.5,80.8 405.1,75.7 406.8,75.7 
			404.4,82.9 		"/>
		<path id="Fill-20" d="M413.5,80.2c0,1.9-1.1,2.9-3,2.9c-1.9,0-3-0.9-3-2.9v-4.4h1.6v4.4c0,0.8,0.2,1.5,1.5,1.5
			c1.1,0,1.5-0.5,1.5-1.5v-4.4h1.6V80.2"/>
		<polyline id="Fill-21" points="414.9,75.7 416.4,75.7 416.4,81.6 419.9,81.6 419.9,82.9 414.9,82.9 414.9,75.7 		"/>
		<polyline id="Fill-22" points="420.5,75.7 422.1,75.7 425.1,80.5 425.1,80.5 425.1,75.7 426.5,75.7 426.5,82.9 425,82.9 422,78.1 
			422,78.1 422,82.9 420.5,82.9 420.5,75.7 		"/>
		<polyline id="Fill-23" points="428,75.7 433.3,75.7 433.3,77.1 429.5,77.1 429.5,78.6 433,78.6 433,79.8 429.5,79.8 429.5,81.6 
			433.4,81.6 433.4,82.9 428,82.9 428,75.7 		"/>
		<path id="Fill-24" d="M436.1,79h1.7c0.7,0,1.1-0.3,1.1-1c0-0.7-0.4-1-1.1-1h-1.7V79L436.1,79z M434.5,75.7h3.8
			c1.3,0,2.1,0.9,2.1,2c0,0.8-0.3,1.5-1.1,1.8v0c0.8,0.2,1,0.9,1,1.7c0,0.4,0,1.3,0.3,1.7h-1.6c-0.2-0.4-0.2-1.1-0.2-1.7
			c-0.1-0.7-0.4-1.1-1.2-1.1h-1.6v2.8h-1.6V75.7L434.5,75.7z"/>
		<path id="Fill-25" d="M443.6,80.1h1.8l-0.9-2.6h0L443.6,80.1L443.6,80.1z M443.7,75.7h1.6l2.7,7.1h-1.6l-0.5-1.6h-2.7l-0.6,1.6
			H441L443.7,75.7L443.7,75.7z"/>
		<path id="Fill-26" d="M450.3,81.7h1.7c0.6,0,1.2-0.2,1.2-0.9c0-0.7-0.5-1-1.1-1h-1.7V81.7L450.3,81.7z M450.3,78.6h1.6
			c0.5,0,1-0.2,1-0.8c0-0.7-0.5-0.8-1.1-0.8h-1.5V78.6L450.3,78.6z M448.7,75.7h3.4c1.4,0,2.3,0.4,2.3,1.8c0,0.7-0.3,1.2-1,1.5
			c0.9,0.2,1.3,0.9,1.3,1.8c0,1.4-1.2,2.1-2.5,2.1h-3.5V75.7L448.7,75.7z"/>
		<polyline id="Fill-27" points="455.7,75.7 457.3,75.7 457.3,81.6 460.7,81.6 460.7,82.9 455.7,82.9 455.7,75.7 		"/>
		<polyline id="Fill-28" points="461.3,75.7 466.7,75.7 466.7,77.1 462.9,77.1 462.9,78.6 466.4,78.6 466.4,79.8 462.9,79.8 
			462.9,81.6 466.8,81.6 466.8,82.9 461.3,82.9 461.3,75.7 		"/>
		<polyline id="Fill-31" points="480.5,75.7 485.9,75.7 485.9,77.1 482.1,77.1 482.1,78.6 485.6,78.6 485.6,79.8 482.1,79.8 
			482.1,81.6 485.9,81.6 485.9,82.9 480.5,82.9 480.5,75.7 		"/>
		<polyline id="Fill-32" points="487.1,75.7 488.6,75.7 491.6,80.5 491.6,80.5 491.6,75.7 493.1,75.7 493.1,82.9 491.5,82.9 
			488.6,78.1 488.6,78.1 488.6,82.9 487.1,82.9 487.1,75.7 		"/>
		<path id="Fill-33" d="M496.1,81.6h1.4c0.9,0,1.8-0.6,1.8-2.1c0-1.4-0.5-2.4-2.1-2.4h-1.1V81.6L496.1,81.6z M494.5,75.7h3.1
			c1.8,0,3.2,1.2,3.2,3.5c0,2.1-1.1,3.6-3.2,3.6h-3.1V75.7L494.5,75.7z"/>
		<path id="Fill-34" d="M503.5,80.1h1.9l-0.9-2.6h0L503.5,80.1L503.5,80.1z M503.6,75.7h1.6l2.7,7.1h-1.6l-0.5-1.6h-2.7l-0.6,1.6
			h-1.6L503.6,75.7L503.6,75.7z"/>
		<polyline id="Fill-35" points="508.6,75.7 510.1,75.7 513.1,80.5 513.1,80.5 513.1,75.7 514.6,75.7 514.6,82.9 513,82.9 510,78.1 
			510,78.1 510,82.9 508.6,82.9 508.6,75.7 		"/>
		<path id="Fill-36" d="M521.2,82.1c-0.5,0.7-1.3,1-2,1c-2.2,0-3.5-1.6-3.5-3.7c0-2.1,1.3-3.8,3.5-3.8c1.5,0,2.8,0.9,3,2.5h-1.5
			c-0.2-0.8-0.8-1.2-1.5-1.2c-1.4,0-1.9,1.2-1.9,2.4c0,1.2,0.5,2.4,1.9,2.4c1,0,1.6-0.5,1.7-1.5h-1.6V79h3v3.9h-1L521.2,82.1"/>
		<polyline id="Fill-37" points="523.7,75.7 529,75.7 529,77.1 525.2,77.1 525.2,78.6 528.7,78.6 528.7,79.8 525.2,79.8 525.2,81.6 
			529.1,81.6 529.1,82.9 523.7,82.9 523.7,75.7 		"/>
		<path id="Fill-38" d="M531.8,79h1.7c0.7,0,1.1-0.3,1.1-1c0-0.7-0.4-1-1.1-1h-1.7V79L531.8,79z M530.2,75.7h3.8
			c1.3,0,2.1,0.9,2.1,2c0,0.8-0.3,1.5-1.1,1.8v0c0.8,0.2,1,0.9,1,1.7c0,0.4,0,1.3,0.3,1.7h-1.6c-0.2-0.4-0.2-1.1-0.2-1.7
			c-0.1-0.7-0.4-1.1-1.2-1.1h-1.6v2.8h-1.6V75.7L530.2,75.7z"/>
		<polyline id="Fill-39" points="537.5,75.7 542.8,75.7 542.8,77.1 539,77.1 539,78.6 542.5,78.6 542.5,79.8 539,79.8 539,81.6 
			542.9,81.6 542.9,82.9 537.5,82.9 537.5,75.7 		"/>
		<path id="Fill-40" d="M545.6,81.6h1.4c0.9,0,1.8-0.6,1.8-2.1c0-1.4-0.5-2.4-2.1-2.4h-1.1V81.6L545.6,81.6z M544,75.7h3.1
			c1.8,0,3.2,1.2,3.2,3.5c0,2.1-1.1,3.6-3.2,3.6H544V75.7L544,75.7z"/>
		<polyline id="Fill-43" points="651.4,70.2 656.7,70.2 656.7,71.5 653,71.5 653,73 656.4,73 656.4,74.3 653,74.3 653,76 656.8,76 
			656.8,77.3 651.4,77.3 651.4,70.2 		"/>
		<polyline id="Fill-44" points="659.8,73.6 657.5,70.2 659.3,70.2 660.7,72.5 662.2,70.2 663.9,70.2 661.6,73.6 664.1,77.3 
			662.2,77.3 660.7,74.9 659.1,77.3 657.3,77.3 659.8,73.6 		"/>
		<polyline id="Fill-45" points="666.3,71.5 664.2,71.5 664.2,70.2 670,70.2 670,71.5 667.9,71.5 667.9,77.3 666.3,77.3 666.3,71.5 
					"/>
		<polygon id="Fill-46" points="670.8,77.3 672.4,77.3 672.4,70.2 670.8,70.2 		"/>
		<polyline id="Fill-47" points="674,70.2 675.5,70.2 678.5,75 678.5,75 678.5,70.2 680,70.2 680,77.3 678.4,77.3 675.5,72.5 
			675.4,72.5 675.4,77.3 674,77.3 674,70.2 		"/>
		<path id="Fill-48" d="M686.1,72.6c-0.1-0.7-0.8-1.2-1.6-1.2c-1.4,0-1.9,1.2-1.9,2.4c0,1.2,0.5,2.4,1.9,2.4c1,0,1.5-0.7,1.6-1.6
			h1.5c-0.2,1.8-1.4,2.9-3.1,2.9c-2.2,0-3.5-1.6-3.5-3.7c0-2.1,1.3-3.8,3.5-3.8c1.6,0,2.9,0.9,3.1,2.6H686.1"/>
		<polyline id="Fill-49" points="690.1,71.5 688,71.5 688,70.2 693.8,70.2 693.8,71.5 691.7,71.5 691.7,77.3 690.1,77.3 690.1,71.5 
					"/>
		<polygon id="Fill-50" points="642.6,88.3 644.2,88.3 644.2,81.2 642.6,81.2 		"/>
		<polyline id="Fill-51" points="645.6,81.2 647.2,81.2 650.1,86 650.2,86 650.2,81.2 651.6,81.2 651.6,88.3 650.1,88.3 647.1,83.6 
			647.1,83.6 647.1,88.3 645.6,88.3 645.6,81.2 		"/>
		<polyline id="Fill-52" points="657.2,82.5 655.1,82.5 655.1,81.2 660.9,81.2 660.9,82.5 658.8,82.5 658.8,88.3 657.2,88.3 
			657.2,82.5 		"/>
		<polyline id="Fill-53" points="661.7,81.2 663.3,81.2 663.3,83.9 666.2,83.9 666.2,81.2 667.7,81.2 667.7,88.3 666.2,88.3 
			666.2,85.3 663.3,85.3 663.3,88.3 661.7,88.3 661.7,81.2 		"/>
		<polyline id="Fill-54" points="669.1,81.2 674.4,81.2 674.4,82.5 670.7,82.5 670.7,84 674.1,84 674.1,85.3 670.7,85.3 670.7,87 
			674.5,87 674.5,88.3 669.1,88.3 669.1,81.2 		"/>
		<polyline id="Fill-55" points="684.9,88.3 683.4,88.3 682.2,83.5 682.2,83.5 681,88.3 679.4,88.3 677.5,81.2 679.1,81.2 
			680.2,86.1 680.2,86.1 681.4,81.2 682.9,81.2 684.1,86.1 684.2,86.1 685.3,81.2 686.9,81.2 684.9,88.3 		"/>
		<polygon id="Fill-56" points="687.6,88.3 689.2,88.3 689.2,81.2 687.6,81.2 		"/>
		<polyline id="Fill-57" points="690.6,81.2 692.1,81.2 692.1,87 695.6,87 695.6,88.3 690.6,88.3 690.6,81.2 		"/>
		<path id="Fill-58" d="M697.6,87h1.4c0.9,0,1.8-0.6,1.8-2.1c0-1.4-0.5-2.4-2.1-2.4h-1.1V87L697.6,87z M696,81.2h3.1
			c1.8,0,3.2,1.2,3.2,3.5c0,2.1-1.1,3.6-3.2,3.6H696V81.2L696,81.2z"/>
		<polyline id="Fill-61" class="st2" points="718.2,75.7 723.5,75.7 723.5,77 719.8,77 719.8,78.6 723.2,78.6 723.2,79.8 
			719.8,79.8 719.8,81.5 723.6,81.5 723.6,82.8 718.2,82.8 718.2,75.7 		"/>
		<polyline id="Fill-62" class="st2" points="726.6,79.1 724.3,75.7 726.2,75.7 727.6,78 729,75.7 730.7,75.7 728.4,79.1 
			730.9,82.8 729.1,82.8 727.5,80.4 725.9,82.8 724.1,82.8 726.6,79.1 		"/>
		<polyline id="Fill-63" class="st2" points="733.1,77 731,77 731,75.7 736.8,75.7 736.8,77 734.7,77 734.7,82.8 733.1,82.8 
			733.1,77 		"/>
		<polygon id="Fill-64" class="st2" points="737.6,82.8 739.2,82.8 739.2,75.7 737.6,75.7 		"/>
		<polyline id="Fill-65" class="st2" points="740.6,75.7 742.1,75.7 745.1,80.5 745.1,80.5 745.1,75.7 746.6,75.7 746.6,82.8 
			745,82.8 742.1,78.1 742,78.1 742,82.8 740.6,82.8 740.6,75.7 		"/>
		<path id="Fill-66" class="st2" d="M752.7,78.1c-0.1-0.7-0.8-1.2-1.6-1.2c-1.4,0-1.9,1.2-1.9,2.4c0,1.2,0.5,2.4,1.9,2.4
			c1,0,1.5-0.7,1.6-1.6h1.5c-0.2,1.8-1.4,2.9-3.1,2.9c-2.2,0-3.5-1.7-3.5-3.7c0-2.1,1.3-3.8,3.5-3.8c1.6,0,2.9,0.9,3.1,2.6H752.7"/>
		<polyline id="Fill-67" class="st2" points="756.9,77 754.8,77 754.8,75.7 760.6,75.7 760.6,77 758.5,77 758.5,82.8 756.9,82.8 
			756.9,77 		"/>
		<path id="Fill-70" d="M570.3,72.6c-0.1-0.7-0.8-1.2-1.6-1.2c-1.4,0-1.9,1.2-1.9,2.4c0,1.2,0.5,2.4,1.9,2.4c1,0,1.5-0.7,1.6-1.6
			h1.5c-0.2,1.8-1.4,2.9-3.1,2.9c-2.2,0-3.5-1.6-3.5-3.7c0-2.1,1.3-3.8,3.5-3.8c1.6,0,2.9,0.9,3.1,2.6H570.3"/>
		<path id="Fill-71" d="M574.5,73.4h1.7c0.7,0,1.1-0.3,1.1-1c0-0.7-0.4-1-1.1-1h-1.7V73.4L574.5,73.4z M573,70.2h3.8
			c1.3,0,2.1,0.9,2.1,2c0,0.8-0.3,1.5-1.1,1.8v0c0.8,0.2,1,1,1,1.7c0,0.4,0,1.3,0.3,1.7h-1.6c-0.2-0.4-0.2-1.1-0.2-1.7
			c-0.1-0.7-0.4-1.1-1.2-1.1h-1.6v2.8H573V70.2L573,70.2z"/>
		<polygon id="Fill-72" points="580.1,77.3 581.7,77.3 581.7,70.2 580.1,70.2 		"/>
		<polyline id="Fill-73" points="584.6,71.5 582.5,71.5 582.5,70.2 588.3,70.2 588.3,71.5 586.2,71.5 586.2,77.3 584.6,77.3 
			584.6,71.5 		"/>
		<polygon id="Fill-74" points="589.1,77.3 590.7,77.3 590.7,70.2 589.1,70.2 		"/>
		<path id="Fill-75" d="M596.8,72.6c-0.1-0.7-0.8-1.2-1.6-1.2c-1.4,0-1.9,1.2-1.9,2.4c0,1.2,0.5,2.4,1.9,2.4c1,0,1.5-0.7,1.6-1.6
			h1.5c-0.2,1.8-1.4,2.9-3.1,2.9c-2.2,0-3.5-1.6-3.5-3.7c0-2.1,1.3-3.8,3.5-3.8c1.6,0,2.9,0.9,3.1,2.6H596.8"/>
		<path id="Fill-76" d="M601.1,74.6h1.8l-0.9-2.6h0L601.1,74.6L601.1,74.6z M601.2,70.2h1.6l2.7,7.1h-1.6l-0.5-1.6h-2.7l-0.6,1.6
			h-1.6L601.2,70.2L601.2,70.2z"/>
		<polyline id="Fill-77" points="606.2,70.2 607.7,70.2 607.7,76 611.2,76 611.2,77.3 606.2,77.3 606.2,70.2 		"/>
		<polyline id="Fill-78" points="612,70.2 613.6,70.2 613.6,76 617.1,76 617.1,77.3 612,77.3 612,70.2 		"/>
		<polyline id="Fill-79" points="618.8,74.5 616.2,70.2 618,70.2 619.6,73 621.3,70.2 623,70.2 620.4,74.6 620.4,77.3 618.8,77.3 
			618.8,74.5 		"/>
		<polyline id="Fill-80" points="559.2,81.2 564.5,81.2 564.5,82.5 560.8,82.5 560.8,84 564.2,84 564.2,85.3 560.8,85.3 560.8,87 
			564.6,87 564.6,88.3 559.2,88.3 559.2,81.2 		"/>
		<polyline id="Fill-81" points="565.8,81.2 567.3,81.2 570.3,86 570.3,86 570.3,81.2 571.8,81.2 571.8,88.3 570.2,88.3 567.3,83.6 
			567.2,83.6 567.2,88.3 565.8,88.3 565.8,81.2 		"/>
		<path id="Fill-82" d="M574.8,87h1.4c0.9,0,1.8-0.6,1.8-2.1c0-1.4-0.5-2.4-2.1-2.4h-1.1V87L574.8,87z M573.2,81.2h3.1
			c1.8,0,3.2,1.2,3.2,3.5c0,2.1-1.1,3.6-3.2,3.6h-3.1V81.2L573.2,81.2z"/>
		<path id="Fill-83" d="M582.1,85.6h1.8l-0.9-2.6h0L582.1,85.6L582.1,85.6z M582.3,81.2h1.6l2.7,7.1h-1.6l-0.5-1.6h-2.7l-0.6,1.6
			h-1.6L582.3,81.2L582.3,81.2z"/>
		<polyline id="Fill-84" points="587.2,81.2 588.8,81.2 591.8,86 591.8,86 591.8,81.2 593.3,81.2 593.3,88.3 591.7,88.3 588.7,83.6 
			588.7,83.6 588.7,88.3 587.2,88.3 587.2,81.2 		"/>
		<path id="Fill-85" d="M599.9,87.5c-0.5,0.7-1.3,1-2,1c-2.2,0-3.5-1.6-3.5-3.7c0-2.1,1.3-3.8,3.5-3.8c1.5,0,2.8,0.9,3,2.5h-1.5
			c-0.2-0.8-0.8-1.2-1.5-1.2c-1.4,0-1.9,1.2-1.9,2.4c0,1.2,0.5,2.4,1.9,2.4c1,0,1.6-0.5,1.7-1.5H598v-1.2h3v3.9h-1L599.9,87.5"/>
		<polyline id="Fill-86" points="602.3,81.2 607.7,81.2 607.7,82.5 603.9,82.5 603.9,84 607.4,84 607.4,85.3 603.9,85.3 603.9,87 
			607.8,87 607.8,88.3 602.3,88.3 602.3,81.2 		"/>
		<path id="Fill-87" d="M610.4,84.4h1.7c0.7,0,1.1-0.3,1.1-1c0-0.7-0.4-1-1.1-1h-1.7V84.4L610.4,84.4z M608.9,81.2h3.8
			c1.3,0,2.1,0.9,2.1,2c0,0.8-0.3,1.5-1.1,1.8v0c0.8,0.2,1,0.9,1,1.7c0,0.4,0,1.3,0.3,1.7h-1.6c-0.2-0.5-0.2-1.1-0.2-1.7
			c-0.1-0.7-0.4-1.1-1.2-1.1h-1.6v2.8h-1.6V81.2L608.9,81.2z"/>
		<polyline id="Fill-88" points="616.1,81.2 621.5,81.2 621.5,82.5 617.7,82.5 617.7,84 621.2,84 621.2,85.3 617.7,85.3 617.7,87 
			621.6,87 621.6,88.3 616.1,88.3 616.1,81.2 		"/>
		<path id="Fill-89" d="M624.2,87h1.4c0.9,0,1.8-0.6,1.8-2.1c0-1.4-0.5-2.4-2.1-2.4h-1.1V87L624.2,87z M622.7,81.2h3.1
			c1.8,0,3.2,1.2,3.2,3.5c0,2.1-1.1,3.6-3.2,3.6h-3.1V81.2L622.7,81.2z"/>
		<polyline id="Fill-92" points="262.7,70.2 264.3,70.2 264.3,76 267.8,76 267.8,77.3 262.7,77.3 262.7,70.2 		"/>
		<polyline id="Fill-93" points="268.5,70.2 273.9,70.2 273.9,71.5 270.1,71.5 270.1,73 273.6,73 273.6,74.3 270.1,74.3 270.1,76 
			273.9,76 273.9,77.3 268.5,77.3 268.5,70.2 		"/>
		<path id="Fill-94" d="M276.5,74.6h1.8l-0.9-2.6h0L276.5,74.6L276.5,74.6z M276.7,70.2h1.6l2.7,7.1h-1.6l-0.5-1.6h-2.7l-0.6,1.6
			H274L276.7,70.2L276.7,70.2z"/>
		<path id="Fill-95" d="M282.6,75c0,0.9,0.7,1.3,1.6,1.3c0.5,0,1.4-0.2,1.4-0.9c0-0.8-1.1-0.9-2.1-1.2c-1.1-0.3-2.1-0.7-2.1-2
			c0-1.5,1.4-2.2,2.7-2.2c1.5,0,2.9,0.7,2.9,2.3h-1.5c0-0.9-0.7-1.1-1.4-1.1c-0.5,0-1.1,0.2-1.1,0.8c0,0.6,0.3,0.6,2.1,1.1
			c0.5,0.1,2.1,0.5,2.1,2.1c0,1.3-1,2.3-3,2.3c-1.6,0-3.1-0.8-3-2.5H282.6"/>
		<polyline id="Fill-96" points="289.3,71.5 287.2,71.5 287.2,70.2 293.1,70.2 293.1,71.5 290.9,71.5 290.9,77.3 289.3,77.3 
			289.3,71.5 		"/>
		<path id="Fill-97" d="M257.7,83.6c-0.1-0.7-0.8-1.2-1.6-1.2c-1.4,0-1.9,1.2-1.9,2.4c0,1.2,0.5,2.4,1.9,2.4c1,0,1.5-0.7,1.6-1.6
			h1.5c-0.2,1.8-1.4,2.9-3.1,2.9c-2.2,0-3.5-1.6-3.5-3.7c0-2.1,1.3-3.8,3.5-3.8c1.6,0,2.9,0.9,3.1,2.6H257.7"/>
		<path id="Fill-98" d="M263.5,87.2c1.4,0,1.9-1.2,1.9-2.4c0-1.2-0.5-2.4-1.9-2.4c-1.4,0-1.9,1.2-1.9,2.4
			C261.6,86,262.1,87.2,263.5,87.2L263.5,87.2z M263.5,81c2.2,0,3.5,1.6,3.5,3.8c0,2.1-1.3,3.7-3.5,3.7c-2.2,0-3.5-1.6-3.5-3.7
			C260,82.7,261.3,81,263.5,81L263.5,81z"/>
		<polyline id="Fill-99" points="267.8,81.2 269.4,81.2 272.4,86 272.4,86 272.4,81.2 273.9,81.2 273.9,88.3 272.3,88.3 269.3,83.6 
			269.3,83.6 269.3,88.3 267.8,88.3 267.8,81.2 		"/>
		<path id="Fill-100" d="M280,83.6c-0.1-0.7-0.8-1.2-1.6-1.2c-1.4,0-1.9,1.2-1.9,2.4c0,1.2,0.5,2.4,1.9,2.4c1,0,1.5-0.7,1.6-1.6h1.5
			c-0.2,1.8-1.4,2.9-3.1,2.9c-2.2,0-3.5-1.6-3.5-3.7c0-2.1,1.3-3.8,3.5-3.8c1.6,0,2.9,0.9,3.1,2.6H280"/>
		<polyline id="Fill-101" points="282.6,81.2 288,81.2 288,82.5 284.2,82.5 284.2,84 287.7,84 287.7,85.3 284.2,85.3 284.2,87 
			288,87 288,88.3 282.6,88.3 282.6,81.2 		"/>
		<path id="Fill-102" d="M290.7,84.4h1.7c0.7,0,1.1-0.3,1.1-1c0-0.7-0.4-1-1.1-1h-1.7V84.4L290.7,84.4z M289.1,81.2h3.8
			c1.3,0,2.1,0.9,2.1,2c0,0.8-0.3,1.5-1.1,1.8v0c0.8,0.2,1,0.9,1,1.7c0,0.4,0,1.3,0.3,1.7h-1.6c-0.2-0.5-0.2-1.1-0.2-1.7
			c-0.1-0.7-0.4-1.1-1.2-1.1h-1.6v2.8h-1.6V81.2L289.1,81.2z"/>
		<polyline id="Fill-103" points="296.2,81.2 297.8,81.2 300.8,86 300.8,86 300.8,81.2 302.2,81.2 302.2,88.3 300.7,88.3 
			297.7,83.6 297.7,83.6 297.7,88.3 296.2,88.3 296.2,81.2 		"/>
		<polyline id="Fill-106" points="340.9,70.2 342.5,70.2 345.5,75 345.5,75 345.5,70.2 346.9,70.2 346.9,77.3 345.4,77.3 
			342.4,72.5 342.4,72.5 342.4,77.3 340.9,77.3 340.9,70.2 		"/>
		<polyline id="Fill-107" points="348.4,70.2 353.7,70.2 353.7,71.5 349.9,71.5 349.9,73 353.4,73 353.4,74.3 349.9,74.3 349.9,76 
			353.8,76 353.8,77.3 348.4,77.3 348.4,70.2 		"/>
		<path id="Fill-108" d="M356.6,74.6h1.8l-0.9-2.6h0L356.6,74.6L356.6,74.6z M356.8,70.2h1.6l2.7,7.1h-1.6l-0.5-1.6h-2.7l-0.6,1.6
			h-1.6L356.8,70.2L356.8,70.2z"/>
		<path id="Fill-109" d="M363.1,73.4h1.7c0.7,0,1.1-0.3,1.1-1c0-0.7-0.4-1-1.1-1h-1.7V73.4L363.1,73.4z M361.5,70.2h3.8
			c1.3,0,2.1,0.9,2.1,2c0,0.8-0.3,1.5-1.1,1.8v0c0.8,0.2,1,1,1,1.7c0,0.4,0,1.3,0.3,1.7h-1.6c-0.2-0.4-0.2-1.1-0.2-1.7
			c-0.1-0.7-0.4-1.1-1.2-1.1h-1.6v2.8h-1.6V70.2L361.5,70.2z"/>
		<polyline id="Fill-110" points="322.8,82.5 320.7,82.5 320.7,81.2 326.6,81.2 326.6,82.5 324.4,82.5 324.4,88.3 322.8,88.3 
			322.8,82.5 		"/>
		<polyline id="Fill-111" points="327.3,81.2 328.9,81.2 328.9,83.9 331.8,83.9 331.8,81.2 333.4,81.2 333.4,88.3 331.8,88.3 
			331.8,85.3 328.9,85.3 328.9,88.3 327.3,88.3 327.3,81.2 		"/>
		<path id="Fill-112" d="M336.3,84.4h1.7c0.7,0,1.1-0.3,1.1-1c0-0.7-0.4-1-1.1-1h-1.7V84.4L336.3,84.4z M334.8,81.2h3.8
			c1.3,0,2.1,0.9,2.1,2c0,0.8-0.3,1.5-1.1,1.8v0c0.8,0.2,1,0.9,1,1.7c0,0.4,0,1.3,0.3,1.7h-1.6c-0.2-0.5-0.2-1.1-0.2-1.7
			c-0.1-0.7-0.4-1.1-1.2-1.1h-1.6v2.8h-1.6V81.2L334.8,81.2z"/>
		<polyline id="Fill-113" points="341.8,81.2 347.1,81.2 347.1,82.5 343.3,82.5 343.3,84 346.8,84 346.8,85.3 343.3,85.3 343.3,87 
			347.2,87 347.2,88.3 341.8,88.3 341.8,81.2 		"/>
		<path id="Fill-114" d="M350.1,85.6h1.8L351,83h0L350.1,85.6L350.1,85.6z M350.2,81.2h1.6l2.7,7.1h-1.6l-0.5-1.6h-2.7l-0.6,1.6
			h-1.6L350.2,81.2L350.2,81.2z"/>
		<polyline id="Fill-115" points="356,82.5 353.8,82.5 353.8,81.2 359.7,81.2 359.7,82.5 357.5,82.5 357.5,88.3 356,88.3 356,82.5 
					"/>
		<polyline id="Fill-116" points="360.5,81.2 365.8,81.2 365.8,82.5 362,82.5 362,84 365.5,84 365.5,85.3 362,85.3 362,87 365.9,87 
			365.9,88.3 360.5,88.3 360.5,81.2 		"/>
		<polyline id="Fill-117" points="367,81.2 368.6,81.2 371.6,86 371.6,86 371.6,81.2 373,81.2 373,88.3 371.5,88.3 368.5,83.6 
			368.5,83.6 368.5,88.3 367,88.3 367,81.2 		"/>
		<polyline id="Fill-118" points="374.5,81.2 379.8,81.2 379.8,82.5 376.1,82.5 376.1,84 379.5,84 379.5,85.3 376.1,85.3 376.1,87 
			379.9,87 379.9,88.3 374.5,88.3 374.5,81.2 		"/>
		<path id="Fill-119" d="M382.6,87h1.4c0.9,0,1.8-0.6,1.8-2.1c0-1.4-0.5-2.4-2.1-2.4h-1.1V87L382.6,87z M381.1,81.2h3.1
			c1.8,0,3.2,1.2,3.2,3.5c0,2.1-1.1,3.6-3.2,3.6h-3.1V81.2L381.1,81.2z"/>
		<path id="Fill-122" class="st0" d="M239.9,79.8V0.5h-80.6v0c-43.1,0.7-77.9,35.9-77.9,79.2c0,43.8,35.5,79.2,79.2,79.2
			c43.6,0,79-35.3,79.2-78.8h0V79.8C239.9,79.8,239.9,79.8,239.9,79.8C239.9,79.8,239.9,79.8,239.9,79.8"/>
		<path id="Fill-123" class="st2" d="M213.1,30h3.9c1.3,0,2.7,0.6,2.7,2.1c0,0.8-0.4,1.6-1.2,1.9v0c0.8,0.2,1,1.1,1.1,1.8
			c0,0.3,0.1,1.4,0.3,1.7h-2c-0.2-0.3-0.2-1-0.2-1.2c-0.1-0.8-0.2-1.6-1.1-1.6h-1.5v2.8h-2V30L213.1,30z M215.1,33.3h1.7
			c0.6,0,0.9-0.3,0.9-0.9c0-0.6-0.4-0.8-1-0.8h-1.6V33.3L215.1,33.3z"/>
		<polyline id="Fill-124" class="st2" points="220.7,30 226.7,30 226.7,31.6 222.6,31.6 222.6,32.9 226.4,32.9 226.4,34.4 
			222.6,34.4 222.6,35.9 226.8,35.9 226.8,37.6 220.7,37.6 220.7,30 		"/>
		<path id="Fill-125" class="st2" d="M227.8,30h3.3c2.3,0,3.7,1.4,3.7,3.8c0,2.5-1.4,3.8-3.7,3.8h-3.3V30L227.8,30z M229.8,35.9h0.9
			c1.5,0,2.1-0.6,2.1-2.1c0-1.4-0.7-2.1-2.1-2.1h-0.9V35.9L229.8,35.9z"/>
		<polyline id="Fill-126" class="st2" points="213.1,38.4 215.1,38.4 215.1,44.3 218.7,44.3 218.7,46 213.1,46 213.1,38.4 		"/>
		<polygon id="Fill-127" class="st2" points="219.3,46 221.2,46 221.2,38.4 219.3,38.4 		"/>
		<path id="Fill-128" class="st2" d="M223.7,43.5c0,0.9,0.6,1.2,1.4,1.2c0.6,0,1.2-0.2,1.2-0.8c0-0.7-1.1-0.8-2.2-1.1
			c-1.1-0.3-2.2-0.8-2.2-2.2c0-1.7,1.7-2.3,3.1-2.3c1.5,0,3,0.7,3.1,2.5h-2c0-0.7-0.6-0.9-1.2-0.9c-0.4,0-1,0.2-1,0.7
			c0,0.6,1.1,0.7,2.2,1c1.1,0.3,2.2,0.8,2.2,2.2c0,1.9-1.6,2.6-3.3,2.6c-1.8,0-3.3-0.8-3.3-2.7H223.7"/>
		<polyline id="Fill-129" class="st2" points="234.7,40.1 232.4,40.1 232.4,46 230.4,46 230.4,40.1 228.1,40.1 228.1,38.4 
			234.7,38.4 234.7,40.1 		"/>
		<path id="Fill-130" class="st2" d="M227.9,12.1c-1.5,1.5-1.9,3.6-0.7,4.8c1.1,1.2,3.3,0.9,4.8-0.6c1.5-1.5,1.9-3.6,0.7-4.8
			C231.6,10.4,229.4,10.6,227.9,12.1"/>
		<path id="Fill-131" class="st2" d="M226.7,19.3c-1.5,1.5-1.9,3.6-0.7,4.8c1.1,1.2,3.3,0.9,4.8-0.6c1.5-1.5,1.9-3.6,0.7-4.8
			C230.4,17.6,228.2,17.8,226.7,19.3"/>
		<g id="Group-135" transform="translate(214.000000, 6.000000)">
			<path id="Fill-132" class="st2" d="M2.2,2.8C0.6,4.3,0.3,6.4,1.4,7.6C2.5,8.7,4.7,8.5,6.2,7C7.8,5.5,8.1,3.4,7,2.2
				C5.8,1,3.7,1.3,2.2,2.8"/>
			<path id="Fill-134" class="st2" d="M9.4,1.6C7.9,3.1,7.5,5.3,8.7,6.4c1.1,1.2,3.3,0.9,4.8-0.6c1.5-1.5,1.9-3.6,0.7-4.8
				C13.1-0.1,10.9,0.2,9.4,1.6"/>
		</g>
		<path id="Fill-136" class="st2" d="M224.8,20.8c0,3.3-2.7,6-6,6c-3.3,0-6-2.7-6-6c0-3.3,2.7-6,6-6
			C222.1,14.7,224.8,17.4,224.8,20.8"/>
		<path id="Fill-137" class="st2" d="M210.8,17.1c0,5.3-4.3,9.6-9.6,9.6s-9.6-4.3-9.6-9.6c0-5.3,4.3-9.6,9.6-9.6h9.6L210.8,17.1"/>
		<path id="Fill-138" class="st2" d="M210.9,38.2c0,5.3-4.3,9.7-9.7,9.7c-5.3,0-9.7-4.3-9.7-9.7c0-5.3,4.3-9.7,9.7-9.7
			C206.6,28.5,210.9,32.9,210.9,38.2"/>
		<polygon id="Fill-139" class="st0" points="196.9,39.2 197.3,39.2 197.3,37.3 196.9,37.3 		"/>
		<path id="Fill-140" class="st0" d="M199.1,39.1c-0.1,0.1-0.4,0.2-0.6,0.2c-0.3,0-0.5-0.1-0.6-0.2c-0.1-0.1-0.2-0.3-0.2-0.6v-1.2
			h0.4v1.2c0,0.1,0,0.1,0,0.2s0,0.1,0.1,0.1c0,0,0.1,0.1,0.1,0.1c0.1,0,0.1,0,0.2,0c0.2,0,0.3,0,0.3-0.1c0.1-0.1,0.1-0.2,0.1-0.3
			v-1.2h0.4v1.2C199.3,38.8,199.2,39,199.1,39.1"/>
		<path id="Fill-141" class="st0" d="M200.9,37.8c0,0-0.1-0.1-0.1-0.1c0,0-0.1-0.1-0.1-0.1c0,0-0.1,0-0.2,0c-0.1,0-0.2,0-0.2,0.1
			c-0.1,0-0.1,0.1-0.2,0.1c0,0.1-0.1,0.1-0.1,0.2c0,0.1,0,0.2,0,0.2c0,0.1,0,0.2,0,0.2s0,0.1,0.1,0.2c0,0.1,0.1,0.1,0.2,0.1
			c0.1,0,0.1,0.1,0.2,0.1c0.1,0,0.2,0,0.3-0.1c0.1-0.1,0.1-0.2,0.1-0.3h0.4c0,0.1,0,0.2-0.1,0.3c0,0.1-0.1,0.2-0.2,0.3
			c-0.1,0.1-0.2,0.1-0.3,0.2c-0.1,0-0.2,0.1-0.3,0.1c-0.1,0-0.3,0-0.4-0.1c-0.1-0.1-0.2-0.1-0.3-0.2c-0.1-0.1-0.1-0.2-0.2-0.3
			c0-0.1-0.1-0.3-0.1-0.4c0-0.1,0-0.3,0.1-0.4c0-0.1,0.1-0.2,0.2-0.3c0.1-0.1,0.2-0.2,0.3-0.2c0.1-0.1,0.3-0.1,0.4-0.1
			c0.1,0,0.2,0,0.3,0c0.1,0,0.2,0.1,0.3,0.1c0.1,0.1,0.1,0.1,0.2,0.2c0,0.1,0.1,0.2,0.1,0.3h-0.4C200.9,37.9,200.9,37.9,200.9,37.8"
			/>
		<polyline id="Fill-142" class="st0" points="202,37.3 202.8,38.6 202.8,38.6 202.8,37.3 203.2,37.3 203.2,39.2 202.8,39.2 
			202,37.9 202,37.9 202,39.2 201.6,39.2 201.6,37.3 202,37.3 		"/>
		<path id="Fill-143" class="st0" d="M201,40.3c0,0-0.1,0.1-0.1,0.1c-0.6,0.6-1.3,0.9-2.2,0.9c-0.9,0-1.6-0.3-2.2-0.9
			c-0.6-0.6-0.9-1.3-0.9-2.2c0-0.9,0.3-1.6,0.9-2.2c0.6-0.6,1.3-0.9,2.2-0.9c0.9,0,1.6,0.3,2.2,0.9c0.1,0.1,0.1,0.1,0.2,0.2h1.3
			c-0.7-1.3-2.1-2.2-3.7-2.2c-2.3,0-4.2,1.9-4.2,4.2c0,2.3,1.9,4.2,4.2,4.2c1.5,0,2.9-0.8,3.6-2.1H201"/>
		<path id="Fill-144" class="st2" d="M235.6,31.6c-0.6,0-1-0.5-1-1c0-0.6,0.5-1,1-1c0.5,0,1,0.4,1,1
			C236.6,31.2,236.1,31.6,235.6,31.6L235.6,31.6z M235.6,29.7c-0.5,0-0.8,0.4-0.8,0.9c0,0.5,0.3,0.9,0.8,0.9c0.4,0,0.8-0.4,0.8-0.9
			C236.4,30.1,236,29.7,235.6,29.7L235.6,29.7z M236.1,30.8c0,0.3-0.2,0.4-0.5,0.4c-0.4,0-0.6-0.3-0.6-0.6c0-0.3,0.2-0.6,0.6-0.6
			c0.3,0,0.5,0.1,0.5,0.4h-0.2c0-0.1-0.1-0.2-0.3-0.2c-0.2,0-0.4,0.2-0.4,0.4c0,0.2,0.1,0.5,0.4,0.5c0.2,0,0.3-0.1,0.3-0.2H236.1
			L236.1,30.8z"/>
		<path id="Fill-145" class="st2" d="M143.8,74.3h2.3c1.5,0,2.9-0.9,2.9-3.5c0-2.4-0.8-3.9-3.4-3.9h-1.8V74.3L143.8,74.3z
			 M141.2,64.7h5.1c3,0,5.3,1.9,5.3,5.8c0,3.4-1.7,5.9-5.3,5.9h-5.1V64.7L141.2,64.7z"/>
		<path id="Fill-146" class="st2" d="M155.9,71.9h3l-1.5-4.3h0L155.9,71.9L155.9,71.9z M156.2,64.7h2.7l4.4,11.8h-2.7l-0.9-2.6h-4.4
			l-0.9,2.6h-2.6L156.2,64.7L156.2,64.7z"/>
		<polyline id="Fill-147" class="st2" points="165.6,66.9 162.1,66.9 162.1,64.7 171.8,64.7 171.8,66.9 168.2,66.9 168.2,76.5 
			165.6,76.5 165.6,66.9 		"/>
		<path id="Fill-148" class="st2" d="M174.8,71.9h3l-1.5-4.3h0L174.8,71.9L174.8,71.9z M175.1,64.7h2.7l4.4,11.8h-2.7l-0.9-2.6h-4.4
			l-0.9,2.6h-2.6L175.1,64.7L175.1,64.7z"/>
		<path id="Fill-149" class="st2" d="M120.9,91.8h2.3c1.5,0,2.9-0.9,2.9-3.5c0-2.4-0.8-3.9-3.4-3.9h-1.8V91.8L120.9,91.8z
			 M118.4,82.2h5.1c3,0,5.3,1.9,5.3,5.8c0,3.4-1.7,5.9-5.3,5.9h-5.1V82.2L118.4,82.2z"/>
		<polyline id="Fill-150" class="st2" points="130.6,82.2 139.4,82.2 139.4,84.4 133.2,84.4 133.2,86.9 138.9,86.9 138.9,88.9 
			133.2,88.9 133.2,91.8 139.5,91.8 139.5,94 130.6,94 130.6,82.2 		"/>
		<polyline id="Fill-151" class="st2" points="141.2,82.2 149.5,82.2 149.5,84.4 143.8,84.4 143.8,87.1 148.8,87.1 148.8,89.1 
			143.8,89.1 143.8,94 141.2,94 141.2,82.2 		"/>
		<polygon id="Fill-152" class="st2" points="151,94 153.6,94 153.6,82.2 151,82.2 		"/>
		<path id="Fill-153" class="st2" d="M163.7,86.2c-0.2-1.2-1.3-2.1-2.6-2.1c-2.3,0-3.2,2-3.2,4c0,2,0.9,3.9,3.2,3.9
			c1.6,0,2.5-1.1,2.7-2.6h2.5c-0.3,2.9-2.3,4.8-5.2,4.8c-3.6,0-5.8-2.7-5.8-6.1c0-3.5,2.1-6.2,5.8-6.2c2.6,0,4.8,1.5,5.1,4.2H163.7"
			/>
		<polygon id="Fill-154" class="st2" points="168.1,94 170.7,94 170.7,82.2 168.1,82.2 		"/>
		<polyline id="Fill-155" class="st2" points="172.9,82.2 181.7,82.2 181.7,84.4 175.5,84.4 175.5,86.9 181.2,86.9 181.2,88.9 
			175.5,88.9 175.5,91.8 181.9,91.8 181.9,94 172.9,94 172.9,82.2 		"/>
		<polyline id="Fill-156" class="st2" points="183.6,82.2 186.2,82.2 191.1,90.1 191.1,90.1 191.1,82.2 193.6,82.2 193.6,94 191,94 
			186.1,86.1 186,86.1 186,94 183.6,94 183.6,82.2 		"/>
		<polyline id="Fill-157" class="st2" points="198.6,84.4 195,84.4 195,82.2 204.7,82.2 204.7,84.4 201.1,84.4 201.1,94 198.6,94 
			198.6,84.4 		"/>
	</g>
</g>
</svg>
