<svg xmlns="http://www.w3.org/2000/svg" id="Layer_1" x="0" y="0" version="1.1" viewBox="0 0 768 159" xml:space="preserve"><style>.st0{fill:#666}.st1{fill:none;stroke:#000}.st2{fill:#fff}</style><title>category-scale_dd</title><g id="Page-1"><g id="category-scale_dd"><path id="Fill-1" d="M709.6 96.3h57.6V62.4h-57.6z"/><path id="Fill-2" d="M0 96.3h77.6V62.1H0z" class="st0"/><path id="Stroke-3" d="M163.3 95.9h603.9M163.3 62.6h603.9" class="st1"/><path id="Fill-5" d="M28.9 70.2h1.6l2.9 4.8h.1v-4.8h1.4v7.1h-1.5l-3-4.8v4.8h-1.5v-7.1" class="st2"/><path id="Fill-6" d="M39.5 76.2c1.4 0 1.9-1.2 1.9-2.4s-.5-2.4-1.9-2.4-1.9 1.2-1.9 2.4.5 2.4 1.9 2.4zm0-6.2c2.2 0 3.5 1.6 3.5 3.8 0 2.1-1.3 3.7-3.5 3.7S36 75.8 36 73.8c0-2.1 1.3-3.8 3.5-3.8z" class="st2"/><path id="Fill-7" d="M45.5 71.5h-2.1v-1.3h5.8v1.3h-2.1v5.8h-1.6v-5.8" class="st2"/><path id="Fill-8" d="M10.2 81.2h5.4v1.3h-3.8V84h3.5v1.3h-3.5V87h3.9v1.3h-5.5v-7.1" class="st2"/><path id="Fill-9" d="M20.2 88.3h-1.8l-2.3-7.1h1.6l1.6 5 1.7-5h1.6l-2.4 7.1" class="st2"/><path id="Fill-10" d="M24.5 85.6h1.8l-.8-2.6-1 2.6zm.2-4.4h1.6l2.7 7.1h-1.6l-.5-1.6h-2.7l-.6 1.6H22l2.7-7.1z" class="st2"/><path id="Fill-11" d="M29.8 81.2h1.6V87h3.5v1.3h-5.1v-7.1" class="st2"/><path id="Fill-12" d="M41.5 85.6c0 1.9-1.1 2.9-3 2.9s-3-.9-3-2.9v-4.4H37v4.4c0 .8.2 1.5 1.5 1.5 1.1 0 1.5-.5 1.5-1.5v-4.4h1.6v4.4" class="st2"/><path id="Fill-13" d="M44.4 85.6h1.8l-.9-2.6-.9 2.6zm.1-4.4h1.6l2.7 7.1h-1.6l-.5-1.6H44l-.6 1.6h-1.6l2.7-7.1z" class="st2"/><path id="Fill-14" d="M50.3 82.5h-2.2v-1.3H54v1.3h-2.1v5.8h-1.6v-5.8" class="st2"/><path id="Fill-15" d="M54.8 81.2h5.3v1.3h-3.8V84h3.5v1.3h-3.5V87h3.9v1.3h-5.4v-7.1" class="st2"/><path id="Fill-16" d="M62.9 87h1.4c.9 0 1.8-.6 1.8-2.1 0-1.4-.5-2.4-2.1-2.4h-1.1V87zm-1.6-5.8h3.1c1.8 0 3.2 1.2 3.2 3.5 0 2.1-1.1 3.6-3.2 3.6h-3.1v-7.1z" class="st2"/><path id="Fill-19" d="M404.4 82.9h-1.8l-2.3-7.2h1.6l1.6 5.1 1.6-5.1h1.7l-2.4 7.2"/><path id="Fill-20" d="M413.5 80.2c0 1.9-1.1 2.9-3 2.9s-3-.9-3-2.9v-4.4h1.6v4.4c0 .8.2 1.5 1.5 1.5 1.1 0 1.5-.5 1.5-1.5v-4.4h1.6v4.4"/><path id="Fill-21" d="M414.9 75.7h1.5v5.9h3.5v1.3h-5v-7.2"/><path id="Fill-22" d="M420.5 75.7h1.6l3 4.8v-4.8h1.4v7.2H425l-3-4.8v4.8h-1.5v-7.2"/><path id="Fill-23" d="M428 75.7h5.3v1.4h-3.8v1.5h3.5v1.2h-3.5v1.8h3.9v1.3H428v-7.2"/><path id="Fill-24" d="M436.1 79h1.7c.7 0 1.1-.3 1.1-1s-.4-1-1.1-1h-1.7v2zm-1.6-3.3h3.8c1.3 0 2.1.9 2.1 2 0 .8-.3 1.5-1.1 1.8.8.2 1 .9 1 1.7 0 .4 0 1.3.3 1.7H439c-.2-.4-.2-1.1-.2-1.7-.1-.7-.4-1.1-1.2-1.1H436v2.8h-1.6v-7.2h.1z"/><path id="Fill-25" d="M443.6 80.1h1.8l-.9-2.6-.9 2.6zm.1-4.4h1.6l2.7 7.1h-1.6l-.5-1.6h-2.7l-.6 1.6H441l2.7-7.1z"/><path id="Fill-26" d="M450.3 81.7h1.7c.6 0 1.2-.2 1.2-.9s-.5-1-1.1-1h-1.7v1.9h-.1zm0-3.1h1.6c.5 0 1-.2 1-.8 0-.7-.5-.8-1.1-.8h-1.5v1.6zm-1.6-2.9h3.4c1.4 0 2.3.4 2.3 1.8 0 .7-.3 1.2-1 1.5.9.2 1.3.9 1.3 1.8 0 1.4-1.2 2.1-2.5 2.1h-3.5v-7.2z"/><path id="Fill-27" d="M455.7 75.7h1.6v5.9h3.4v1.3h-5v-7.2"/><path id="Fill-28" d="M461.3 75.7h5.4v1.4h-3.8v1.5h3.5v1.2h-3.5v1.8h3.9v1.3h-5.5v-7.2"/><path id="Fill-31" d="M480.5 75.7h5.4v1.4h-3.8v1.5h3.5v1.2h-3.5v1.8h3.8v1.3h-5.4v-7.2"/><path id="Fill-32" d="M487.1 75.7h1.5l3 4.8v-4.8h1.5v7.2h-1.6l-2.9-4.8v4.8h-1.5v-7.2"/><path id="Fill-33" d="M496.1 81.6h1.4c.9 0 1.8-.6 1.8-2.1 0-1.4-.5-2.4-2.1-2.4h-1.1v4.5zm-1.6-5.9h3.1c1.8 0 3.2 1.2 3.2 3.5 0 2.1-1.1 3.6-3.2 3.6h-3.1v-7.1z"/><path id="Fill-34" d="M503.5 80.1h1.9l-.9-2.6-1 2.6zm.1-4.4h1.6l2.7 7.1h-1.6l-.5-1.6h-2.7l-.6 1.6h-1.6l2.7-7.1z"/><path id="Fill-35" d="M508.6 75.7h1.5l3 4.8v-4.8h1.5v7.2H513l-3-4.8v4.8h-1.4v-7.2"/><path id="Fill-36" d="M521.2 82.1c-.5.7-1.3 1-2 1-2.2 0-3.5-1.6-3.5-3.7s1.3-3.8 3.5-3.8c1.5 0 2.8.9 3 2.5h-1.5c-.2-.8-.8-1.2-1.5-1.2-1.4 0-1.9 1.2-1.9 2.4s.5 2.4 1.9 2.4c1 0 1.6-.5 1.7-1.5h-1.6V79h3v3.9h-1l-.1-.8"/><path id="Fill-37" d="M523.7 75.7h5.3v1.4h-3.8v1.5h3.5v1.2h-3.5v1.8h3.9v1.3h-5.4v-7.2"/><path id="Fill-38" d="M531.8 79h1.7c.7 0 1.1-.3 1.1-1s-.4-1-1.1-1h-1.7v2zm-1.6-3.3h3.8c1.3 0 2.1.9 2.1 2 0 .8-.3 1.5-1.1 1.8.8.2 1 .9 1 1.7 0 .4 0 1.3.3 1.7h-1.6c-.2-.4-.2-1.1-.2-1.7-.1-.7-.4-1.1-1.2-1.1h-1.6v2.8h-1.6v-7.2h.1z"/><path id="Fill-39" d="M537.5 75.7h5.3v1.4H539v1.5h3.5v1.2H539v1.8h3.9v1.3h-5.4v-7.2"/><path id="Fill-40" d="M545.6 81.6h1.4c.9 0 1.8-.6 1.8-2.1 0-1.4-.5-2.4-2.1-2.4h-1.1v4.5zm-1.6-5.9h3.1c1.8 0 3.2 1.2 3.2 3.5 0 2.1-1.1 3.6-3.2 3.6H544v-7.1z"/><path id="Fill-43" d="M651.4 70.2h5.3v1.3H653V73h3.4v1.3H653V76h3.8v1.3h-5.4v-7.1"/><path id="Fill-44" d="M659.8 73.6l-2.3-3.4h1.8l1.4 2.3 1.5-2.3h1.7l-2.3 3.4 2.5 3.7h-1.9l-1.5-2.4-1.6 2.4h-1.8l2.5-3.7"/><path id="Fill-45" d="M666.3 71.5h-2.1v-1.3h5.8v1.3h-2.1v5.8h-1.6v-5.8"/><path id="Fill-46" d="M670.8 77.3h1.6v-7.1h-1.6z"/><path id="Fill-47" d="M674 70.2h1.5l3 4.8v-4.8h1.5v7.1h-1.6l-2.9-4.8h-.1v4.8H674v-7.1"/><path id="Fill-48" d="M686.1 72.6c-.1-.7-.8-1.2-1.6-1.2-1.4 0-1.9 1.2-1.9 2.4s.5 2.4 1.9 2.4c1 0 1.5-.7 1.6-1.6h1.5c-.2 1.8-1.4 2.9-3.1 2.9-2.2 0-3.5-1.6-3.5-3.7s1.3-3.8 3.5-3.8c1.6 0 2.9.9 3.1 2.6h-1.5"/><path id="Fill-49" d="M690.1 71.5H688v-1.3h5.8v1.3h-2.1v5.8h-1.6v-5.8"/><path id="Fill-50" d="M642.6 88.3h1.6v-7.1h-1.6z"/><path id="Fill-51" d="M645.6 81.2h1.6l2.9 4.8h.1v-4.8h1.4v7.1h-1.5l-3-4.7v4.7h-1.5v-7.1"/><path id="Fill-52" d="M657.2 82.5h-2.1v-1.3h5.8v1.3h-2.1v5.8h-1.6v-5.8"/><path id="Fill-53" d="M661.7 81.2h1.6v2.7h2.9v-2.7h1.5v7.1h-1.5v-3h-2.9v3h-1.6v-7.1"/><path id="Fill-54" d="M669.1 81.2h5.3v1.3h-3.7V84h3.4v1.3h-3.4V87h3.8v1.3h-5.4v-7.1"/><path id="Fill-55" d="M684.9 88.3h-1.5l-1.2-4.8-1.2 4.8h-1.6l-1.9-7.1h1.6l1.1 4.9 1.2-4.9h1.5l1.2 4.9h.1l1.1-4.9h1.6l-2 7.1"/><path id="Fill-56" d="M687.6 88.3h1.6v-7.1h-1.6z"/><path id="Fill-57" d="M690.6 81.2h1.5V87h3.5v1.3h-5v-7.1"/><path id="Fill-58" d="M697.6 87h1.4c.9 0 1.8-.6 1.8-2.1 0-1.4-.5-2.4-2.1-2.4h-1.1V87zm-1.6-5.8h3.1c1.8 0 3.2 1.2 3.2 3.5 0 2.1-1.1 3.6-3.2 3.6H696v-7.1z"/><path id="Fill-61" d="M718.2 75.7h5.3V77h-3.7v1.6h3.4v1.2h-3.4v1.7h3.8v1.3h-5.4v-7.1" class="st2"/><path id="Fill-62" d="M726.6 79.1l-2.3-3.4h1.9l1.4 2.3 1.4-2.3h1.7l-2.3 3.4 2.5 3.7h-1.8l-1.6-2.4-1.6 2.4h-1.8l2.5-3.7" class="st2"/><path id="Fill-63" d="M733.1 77H731v-1.3h5.8V77h-2.1v5.8h-1.6V77" class="st2"/><path id="Fill-64" d="M737.6 82.8h1.6v-7.1h-1.6z" class="st2"/><path id="Fill-65" d="M740.6 75.7h1.5l3 4.8v-4.8h1.5v7.1H745l-2.9-4.7h-.1v4.7h-1.4v-7.1" class="st2"/><path id="Fill-66" d="M752.7 78.1c-.1-.7-.8-1.2-1.6-1.2-1.4 0-1.9 1.2-1.9 2.4s.5 2.4 1.9 2.4c1 0 1.5-.7 1.6-1.6h1.5c-.2 1.8-1.4 2.9-3.1 2.9-2.2 0-3.5-1.7-3.5-3.7 0-2.1 1.3-3.8 3.5-3.8 1.6 0 2.9.9 3.1 2.6h-1.5" class="st2"/><path id="Fill-67" d="M756.9 77h-2.1v-1.3h5.8V77h-2.1v5.8h-1.6V77" class="st2"/><path id="Fill-70" d="M570.3 72.6c-.1-.7-.8-1.2-1.6-1.2-1.4 0-1.9 1.2-1.9 2.4s.5 2.4 1.9 2.4c1 0 1.5-.7 1.6-1.6h1.5c-.2 1.8-1.4 2.9-3.1 2.9-2.2 0-3.5-1.6-3.5-3.7s1.3-3.8 3.5-3.8c1.6 0 2.9.9 3.1 2.6h-1.5"/><path id="Fill-71" d="M574.5 73.4h1.7c.7 0 1.1-.3 1.1-1s-.4-1-1.1-1h-1.7v2zm-1.5-3.2h3.8c1.3 0 2.1.9 2.1 2 0 .8-.3 1.5-1.1 1.8.8.2 1 1 1 1.7 0 .4 0 1.3.3 1.7h-1.6c-.2-.4-.2-1.1-.2-1.7-.1-.7-.4-1.1-1.2-1.1h-1.6v2.8H573v-7.2z"/><path id="Fill-72" d="M580.1 77.3h1.6v-7.1h-1.6z"/><path id="Fill-73" d="M584.6 71.5h-2.1v-1.3h5.8v1.3h-2.1v5.8h-1.6v-5.8"/><path id="Fill-74" d="M589.1 77.3h1.6v-7.1h-1.6z"/><path id="Fill-75" d="M596.8 72.6c-.1-.7-.8-1.2-1.6-1.2-1.4 0-1.9 1.2-1.9 2.4s.5 2.4 1.9 2.4c1 0 1.5-.7 1.6-1.6h1.5c-.2 1.8-1.4 2.9-3.1 2.9-2.2 0-3.5-1.6-3.5-3.7s1.3-3.8 3.5-3.8c1.6 0 2.9.9 3.1 2.6h-1.5"/><path id="Fill-76" d="M601.1 74.6h1.8L602 72l-.9 2.6zm.1-4.4h1.6l2.7 7.1h-1.6l-.5-1.6h-2.7l-.6 1.6h-1.6l2.7-7.1z"/><path id="Fill-77" d="M606.2 70.2h1.5V76h3.5v1.3h-5v-7.1"/><path id="Fill-78" d="M612 70.2h1.6V76h3.5v1.3H612v-7.1"/><path id="Fill-79" d="M618.8 74.5l-2.6-4.3h1.8l1.6 2.8 1.7-2.8h1.7l-2.6 4.4v2.7h-1.6v-2.8"/><path id="Fill-80" d="M559.2 81.2h5.3v1.3h-3.7V84h3.4v1.3h-3.4V87h3.8v1.3h-5.4v-7.1"/><path id="Fill-81" d="M565.8 81.2h1.5l3 4.8v-4.8h1.5v7.1h-1.6l-2.9-4.7h-.1v4.7h-1.4v-7.1"/><path id="Fill-82" d="M574.8 87h1.4c.9 0 1.8-.6 1.8-2.1 0-1.4-.5-2.4-2.1-2.4h-1.1V87zm-1.6-5.8h3.1c1.8 0 3.2 1.2 3.2 3.5 0 2.1-1.1 3.6-3.2 3.6h-3.1v-7.1z"/><path id="Fill-83" d="M582.1 85.6h1.8L583 83l-.9 2.6zm.2-4.4h1.6l2.7 7.1H585l-.5-1.6h-2.7l-.6 1.6h-1.6l2.7-7.1z"/><path id="Fill-84" d="M587.2 81.2h1.6l3 4.8v-4.8h1.5v7.1h-1.6l-3-4.7v4.7h-1.5v-7.1"/><path id="Fill-85" d="M599.9 87.5c-.5.7-1.3 1-2 1-2.2 0-3.5-1.6-3.5-3.7s1.3-3.8 3.5-3.8c1.5 0 2.8.9 3 2.5h-1.5c-.2-.8-.8-1.2-1.5-1.2-1.4 0-1.9 1.2-1.9 2.4s.5 2.4 1.9 2.4c1 0 1.6-.5 1.7-1.5H598v-1.2h3v3.9h-1l-.1-.8"/><path id="Fill-86" d="M602.3 81.2h5.4v1.3h-3.8V84h3.5v1.3h-3.5V87h3.9v1.3h-5.5v-7.1"/><path id="Fill-87" d="M610.4 84.4h1.7c.7 0 1.1-.3 1.1-1s-.4-1-1.1-1h-1.7v2zm-1.5-3.2h3.8c1.3 0 2.1.9 2.1 2 0 .8-.3 1.5-1.1 1.8.8.2 1 .9 1 1.7 0 .4 0 1.3.3 1.7h-1.6c-.2-.5-.2-1.1-.2-1.7-.1-.7-.4-1.1-1.2-1.1h-1.6v2.8h-1.6v-7.2h.1z"/><path id="Fill-88" d="M616.1 81.2h5.4v1.3h-3.8V84h3.5v1.3h-3.5V87h3.9v1.3h-5.5v-7.1"/><path id="Fill-89" d="M624.2 87h1.4c.9 0 1.8-.6 1.8-2.1 0-1.4-.5-2.4-2.1-2.4h-1.1V87zm-1.5-5.8h3.1c1.8 0 3.2 1.2 3.2 3.5 0 2.1-1.1 3.6-3.2 3.6h-3.1v-7.1z"/><path id="Fill-92" d="M262.7 70.2h1.6V76h3.5v1.3h-5.1v-7.1"/><path id="Fill-93" d="M268.5 70.2h5.4v1.3h-3.8V73h3.5v1.3h-3.5V76h3.8v1.3h-5.4v-7.1"/><path id="Fill-94" d="M276.5 74.6h1.8l-.9-2.6-.9 2.6zm.2-4.4h1.6l2.7 7.1h-1.6l-.5-1.6h-2.7l-.6 1.6H274l2.7-7.1z"/><path id="Fill-95" d="M282.6 75c0 .9.7 1.3 1.6 1.3.5 0 1.4-.2 1.4-.9 0-.8-1.1-.9-2.1-1.2-1.1-.3-2.1-.7-2.1-2 0-1.5 1.4-2.2 2.7-2.2 1.5 0 2.9.7 2.9 2.3h-1.5c0-.9-.7-1.1-1.4-1.1-.5 0-1.1.2-1.1.8 0 .6.3.6 2.1 1.1.5.1 2.1.5 2.1 2.1 0 1.3-1 2.3-3 2.3-1.6 0-3.1-.8-3-2.5h1.4"/><path id="Fill-96" d="M289.3 71.5h-2.1v-1.3h5.9v1.3h-2.2v5.8h-1.6v-5.8"/><path id="Fill-97" d="M257.7 83.6c-.1-.7-.8-1.2-1.6-1.2-1.4 0-1.9 1.2-1.9 2.4s.5 2.4 1.9 2.4c1 0 1.5-.7 1.6-1.6h1.5c-.2 1.8-1.4 2.9-3.1 2.9-2.2 0-3.5-1.6-3.5-3.7s1.3-3.8 3.5-3.8c1.6 0 2.9.9 3.1 2.6h-1.5"/><path id="Fill-98" d="M263.5 87.2c1.4 0 1.9-1.2 1.9-2.4s-.5-2.4-1.9-2.4-1.9 1.2-1.9 2.4.5 2.4 1.9 2.4zm0-6.2c2.2 0 3.5 1.6 3.5 3.8 0 2.1-1.3 3.7-3.5 3.7s-3.5-1.6-3.5-3.7 1.3-3.8 3.5-3.8z"/><path id="Fill-99" d="M267.8 81.2h1.6l3 4.8v-4.8h1.5v7.1h-1.6l-3-4.7v4.7h-1.5v-7.1"/><path id="Fill-100" d="M280 83.6c-.1-.7-.8-1.2-1.6-1.2-1.4 0-1.9 1.2-1.9 2.4s.5 2.4 1.9 2.4c1 0 1.5-.7 1.6-1.6h1.5c-.2 1.8-1.4 2.9-3.1 2.9-2.2 0-3.5-1.6-3.5-3.7s1.3-3.8 3.5-3.8c1.6 0 2.9.9 3.1 2.6H280"/><path id="Fill-101" d="M282.6 81.2h5.4v1.3h-3.8V84h3.5v1.3h-3.5V87h3.8v1.3h-5.4v-7.1"/><path id="Fill-102" d="M290.7 84.4h1.7c.7 0 1.1-.3 1.1-1s-.4-1-1.1-1h-1.7v2zm-1.6-3.2h3.8c1.3 0 2.1.9 2.1 2 0 .8-.3 1.5-1.1 1.8.8.2 1 .9 1 1.7 0 .4 0 1.3.3 1.7h-1.6c-.2-.5-.2-1.1-.2-1.7-.1-.7-.4-1.1-1.2-1.1h-1.6v2.8H289v-7.2h.1z"/><path id="Fill-103" d="M296.2 81.2h1.6l3 4.8v-4.8h1.4v7.1h-1.5l-3-4.7v4.7h-1.5v-7.1"/><path id="Fill-106" d="M340.9 70.2h1.6l3 4.8v-4.8h1.4v7.1h-1.5l-3-4.8v4.8h-1.5v-7.1"/><path id="Fill-107" d="M348.4 70.2h5.3v1.3h-3.8V73h3.5v1.3h-3.5V76h3.9v1.3h-5.4v-7.1"/><path id="Fill-108" d="M356.6 74.6h1.8l-.9-2.6-.9 2.6zm.2-4.4h1.6l2.7 7.1h-1.6l-.5-1.6h-2.7l-.6 1.6h-1.6l2.7-7.1z"/><path id="Fill-109" d="M363.1 73.4h1.7c.7 0 1.1-.3 1.1-1s-.4-1-1.1-1h-1.7v2zm-1.6-3.2h3.8c1.3 0 2.1.9 2.1 2 0 .8-.3 1.5-1.1 1.8.8.2 1 1 1 1.7 0 .4 0 1.3.3 1.7H366c-.2-.4-.2-1.1-.2-1.7-.1-.7-.4-1.1-1.2-1.1H363v2.8h-1.6v-7.2h.1z"/><path id="Fill-110" d="M322.8 82.5h-2.1v-1.3h5.9v1.3h-2.2v5.8h-1.6v-5.8"/><path id="Fill-111" d="M327.3 81.2h1.6v2.7h2.9v-2.7h1.6v7.1h-1.6v-3h-2.9v3h-1.6v-7.1"/><path id="Fill-112" d="M336.3 84.4h1.7c.7 0 1.1-.3 1.1-1s-.4-1-1.1-1h-1.7v2zm-1.5-3.2h3.8c1.3 0 2.1.9 2.1 2 0 .8-.3 1.5-1.1 1.8.8.2 1 .9 1 1.7 0 .4 0 1.3.3 1.7h-1.6c-.2-.5-.2-1.1-.2-1.7-.1-.7-.4-1.1-1.2-1.1h-1.6v2.8h-1.6v-7.2h.1z"/><path id="Fill-113" d="M341.8 81.2h5.3v1.3h-3.8V84h3.5v1.3h-3.5V87h3.9v1.3h-5.4v-7.1"/><path id="Fill-114" d="M350.1 85.6h1.8L351 83l-.9 2.6zm.1-4.4h1.6l2.7 7.1h-1.6l-.5-1.6h-2.7l-.6 1.6h-1.6l2.7-7.1z"/><path id="Fill-115" d="M356 82.5h-2.2v-1.3h5.9v1.3h-2.2v5.8H356v-5.8"/><path id="Fill-116" d="M360.5 81.2h5.3v1.3H362V84h3.5v1.3H362V87h3.9v1.3h-5.4v-7.1"/><path id="Fill-117" d="M367 81.2h1.6l3 4.8v-4.8h1.4v7.1h-1.5l-3-4.7v4.7H367v-7.1"/><path id="Fill-118" d="M374.5 81.2h5.3v1.3h-3.7V84h3.4v1.3h-3.4V87h3.8v1.3h-5.4v-7.1"/><path id="Fill-119" d="M382.6 87h1.4c.9 0 1.8-.6 1.8-2.1 0-1.4-.5-2.4-2.1-2.4h-1.1V87zm-1.5-5.8h3.1c1.8 0 3.2 1.2 3.2 3.5 0 2.1-1.1 3.6-3.2 3.6h-3.1v-7.1z"/><path id="Fill-122" d="M239.9 79.8V.5h-80.6c-43.1.7-77.9 35.9-77.9 79.2 0 43.8 35.5 79.2 79.2 79.2 43.6 0 79-35.3 79.2-78.8v-.3h.1" class="st0"/><path id="Fill-123" d="M213.1 30h3.9c1.3 0 2.7.6 2.7 2.1 0 .8-.4 1.6-1.2 1.9.8.2 1 1.1 1.1 1.8 0 .3.1 1.4.3 1.7h-2c-.2-.3-.2-1-.2-1.2-.1-.8-.2-1.6-1.1-1.6h-1.5v2.8h-2V30zm2 3.3h1.7c.6 0 .9-.3.9-.9 0-.6-.4-.8-1-.8h-1.6v1.7z" class="st2"/><path id="Fill-124" d="M220.7 30h6v1.6h-4.1v1.3h3.8v1.5h-3.8v1.5h4.2v1.7h-6.1V30" class="st2"/><path id="Fill-125" d="M227.8 30h3.3c2.3 0 3.7 1.4 3.7 3.8 0 2.5-1.4 3.8-3.7 3.8h-3.3V30zm2 5.9h.9c1.5 0 2.1-.6 2.1-2.1 0-1.4-.7-2.1-2.1-2.1h-.9v4.2z" class="st2"/><path id="Fill-126" d="M213.1 38.4h2v5.9h3.6V46h-5.6v-7.6" class="st2"/><path id="Fill-127" d="M219.3 46h1.9v-7.6h-1.9z" class="st2"/><path id="Fill-128" d="M223.7 43.5c0 .9.6 1.2 1.4 1.2.6 0 1.2-.2 1.2-.8 0-.7-1.1-.8-2.2-1.1-1.1-.3-2.2-.8-2.2-2.2 0-1.7 1.7-2.3 3.1-2.3 1.5 0 3 .7 3.1 2.5h-2c0-.7-.6-.9-1.2-.9-.4 0-1 .2-1 .7 0 .6 1.1.7 2.2 1 1.1.3 2.2.8 2.2 2.2 0 1.9-1.6 2.6-3.3 2.6-1.8 0-3.3-.8-3.3-2.7h2" class="st2"/><path id="Fill-129" d="M234.7 40.1h-2.3V46h-2v-5.9h-2.3v-1.7h6.6v1.7" class="st2"/><path id="Fill-130" d="M227.9 12.1c-1.5 1.5-1.9 3.6-.7 4.8 1.1 1.2 3.3.9 4.8-.6s1.9-3.6.7-4.8c-1.1-1.1-3.3-.9-4.8.6" class="st2"/><path id="Fill-131" d="M226.7 19.3c-1.5 1.5-1.9 3.6-.7 4.8 1.1 1.2 3.3.9 4.8-.6s1.9-3.6.7-4.8c-1.1-1.1-3.3-.9-4.8.6" class="st2"/><g id="Group-135" transform="translate(214 6)"><path id="Fill-132" d="M2.2 2.8C.6 4.3.3 6.4 1.4 7.6c1.1 1.1 3.3.9 4.8-.6 1.6-1.5 1.9-3.6.8-4.8-1.2-1.2-3.3-.9-4.8.6" class="st2"/><path id="Fill-134" d="M9.4 1.6c-1.5 1.5-1.9 3.7-.7 4.8 1.1 1.2 3.3.9 4.8-.6s1.9-3.6.7-4.8c-1.1-1.1-3.3-.8-4.8.6" class="st2"/></g><path id="Fill-136" d="M224.8 20.8c0 3.3-2.7 6-6 6s-6-2.7-6-6 2.7-6 6-6c3.3-.1 6 2.6 6 6" class="st2"/><path id="Fill-137" d="M210.8 17.1c0 5.3-4.3 9.6-9.6 9.6s-9.6-4.3-9.6-9.6 4.3-9.6 9.6-9.6h9.6v9.6" class="st2"/><path id="Fill-138" d="M210.9 38.2c0 5.3-4.3 9.7-9.7 9.7-5.3 0-9.7-4.3-9.7-9.7 0-5.3 4.3-9.7 9.7-9.7 5.4 0 9.7 4.4 9.7 9.7" class="st2"/><path id="Fill-139" d="M196.9 39.2h.4v-1.9h-.4z" class="st0"/><path id="Fill-140" d="M199.1 39.1c-.1.1-.4.2-.6.2-.3 0-.5-.1-.6-.2-.1-.1-.2-.3-.2-.6v-1.2h.4v1.4c0 .1 0 .1.1.1l.1.1h.2c.2 0 .3 0 .3-.1.1-.1.1-.2.1-.3v-1.2h.4v1.2c0 .3-.1.5-.2.6" class="st0"/><path id="Fill-141" d="M200.9 37.8l-.1-.1-.1-.1h-.2c-.1 0-.2 0-.2.1-.1 0-.1.1-.2.1 0 .1-.1.1-.1.2v.4s0 .1.1.2c0 .1.1.1.2.1s.1.1.2.1.2 0 .3-.1c.1-.1.1-.2.1-.3h.4c0 .1 0 .2-.1.3 0 .1-.1.2-.2.3-.1.1-.2.1-.3.2-.1 0-.2.1-.3.1-.1 0-.3 0-.4-.1-.1-.1-.2-.1-.3-.2-.1-.1-.1-.2-.2-.3 0-.1-.1-.3-.1-.4 0-.1 0-.3.1-.4 0-.1.1-.2.2-.3.1-.1.2-.2.3-.2.1-.1.3-.1.4-.1h.3c.1 0 .2.1.3.1l.2.2c0 .1.1.2.1.3h-.4v-.1" class="st0"/><path id="Fill-142" d="M202 37.3l.8 1.3v-1.3h.4v1.9h-.4l-.8-1.3v1.3h-.4v-1.9h.4" class="st0"/><path id="Fill-143" d="M201 40.3l-.1.1c-.6.6-1.3.9-2.2.9-.9 0-1.6-.3-2.2-.9-.6-.6-.9-1.3-.9-2.2 0-.9.3-1.6.9-2.2.6-.6 1.3-.9 2.2-.9.9 0 1.6.3 2.2.9l.2.2h1.3c-.7-1.3-2.1-2.2-3.7-2.2-2.3 0-4.2 1.9-4.2 4.2 0 2.3 1.9 4.2 4.2 4.2 1.5 0 2.9-.8 3.6-2.1H201" class="st0"/><path id="Fill-144" d="M235.6 31.6c-.6 0-1-.5-1-1 0-.6.5-1 1-1s1 .4 1 1-.5 1-1 1zm0-1.9c-.5 0-.8.4-.8.9s.3.9.8.9c.4 0 .8-.4.8-.9s-.4-.9-.8-.9zm.5 1.1c0 .3-.2.4-.5.4-.4 0-.6-.3-.6-.6s.2-.6.6-.6c.3 0 .5.1.5.4h-.2c0-.1-.1-.2-.3-.2-.2 0-.4.2-.4.4s.1.5.4.5c.2 0 .3-.1.3-.2h.2v-.1z" class="st2"/><path id="Fill-145" d="M143.8 74.3h2.3c1.5 0 2.9-.9 2.9-3.5 0-2.4-.8-3.9-3.4-3.9h-1.8v7.4zm-2.6-9.6h5.1c3 0 5.3 1.9 5.3 5.8 0 3.4-1.7 5.9-5.3 5.9h-5.1V64.7z" class="st2"/><path id="Fill-146" d="M155.9 71.9h3l-1.5-4.3-1.5 4.3zm.3-7.2h2.7l4.4 11.8h-2.7l-.9-2.6h-4.4l-.9 2.6h-2.6l4.4-11.8z" class="st2"/><path id="Fill-147" d="M165.6 66.9h-3.5v-2.2h9.7v2.2h-3.6v9.6h-2.6v-9.6" class="st2"/><path id="Fill-148" d="M174.8 71.9h3l-1.5-4.3-1.5 4.3zm.3-7.2h2.7l4.4 11.8h-2.7l-.9-2.6h-4.4l-.9 2.6h-2.6l4.4-11.8z" class="st2"/><path id="Fill-149" d="M120.9 91.8h2.3c1.5 0 2.9-.9 2.9-3.5 0-2.4-.8-3.9-3.4-3.9h-1.8v7.4zm-2.5-9.6h5.1c3 0 5.3 1.9 5.3 5.8 0 3.4-1.7 5.9-5.3 5.9h-5.1V82.2z" class="st2"/><path id="Fill-150" d="M130.6 82.2h8.8v2.2h-6.2v2.5h5.7v2h-5.7v2.9h6.3V94h-8.9V82.2" class="st2"/><path id="Fill-151" d="M141.2 82.2h8.3v2.2h-5.7v2.7h5v2h-5V94h-2.6V82.2" class="st2"/><path id="Fill-152" d="M151 94h2.6V82.2H151z" class="st2"/><path id="Fill-153" d="M163.7 86.2c-.2-1.2-1.3-2.1-2.6-2.1-2.3 0-3.2 2-3.2 4s.9 3.9 3.2 3.9c1.6 0 2.5-1.1 2.7-2.6h2.5c-.3 2.9-2.3 4.8-5.2 4.8-3.6 0-5.8-2.7-5.8-6.1 0-3.5 2.1-6.2 5.8-6.2 2.6 0 4.8 1.5 5.1 4.2h-2.5" class="st2"/><path id="Fill-154" d="M168.1 94h2.6V82.2h-2.6z" class="st2"/><path id="Fill-155" d="M172.9 82.2h8.8v2.2h-6.2v2.5h5.7v2h-5.7v2.9h6.4V94h-9V82.2" class="st2"/><path id="Fill-156" d="M183.6 82.2h2.6l4.9 7.9v-7.9h2.5V94H191l-4.9-7.9h-.1V94h-2.4V82.2" class="st2"/><path id="Fill-157" d="M198.6 84.4H195v-2.2h9.7v2.2h-3.6V94h-2.5v-9.6" class="st2"/></g></g></svg>