<svg xmlns="http://www.w3.org/2000/svg" width="768" height="159" viewBox="0 0 768 159"><title>category-scale_en</title><g fill="none" fill-rule="evenodd"><path fill="#000" d="M650.258 70.187h5.337v1.319h-3.768v1.53h3.458v1.219h-3.458v1.749h3.848v1.319h-5.417v-7.136M658.687 73.585l-2.299-3.398h1.819l1.399 2.279 1.45-2.279h1.718l-2.289 3.408 2.49 3.728h-1.87l-1.559-2.469-1.589 2.469h-1.769l2.499-3.738M665.204 71.506h-2.139v-1.319h5.847v1.319h-2.139v5.817h-1.569v-5.817M669.685 77.323h1.569v-7.136h-1.569zM672.844 70.187h1.559l2.979 4.788h.019v-4.788h1.47v7.136h-1.569l-2.969-4.777h-.02v4.777h-1.469v-7.136M685.012 72.586c-.101-.709-.781-1.249-1.56-1.249-1.409 0-1.938 1.199-1.938 2.448 0 1.19.529 2.389 1.938 2.389.96 0 1.499-.66 1.619-1.599h1.52c-.16 1.779-1.39 2.918-3.139 2.918-2.209 0-3.508-1.649-3.508-3.708 0-2.119 1.299-3.768 3.508-3.768 1.569 0 2.889.92 3.078 2.569h-1.518M688.993 71.506h-2.139v-1.319h5.847v1.319h-2.138v5.817h-1.57v-5.817M641.508 88.331h1.569v-7.136h-1.569zM644.468 81.195h1.559l2.979 4.787h.019v-4.787h1.469v7.136h-1.568l-2.969-4.777h-.019v4.777h-1.47v-7.136M656.091 82.514h-2.139v-1.319h5.847v1.319h-2.139v5.817h-1.569v-5.817M660.571 81.195h1.57v2.739h2.888v-2.739h1.569v7.136h-1.569v-3.078h-2.888v3.078h-1.57v-7.136M667.961 81.195h5.337v1.319h-3.768v1.529h3.458v1.22h-3.458v1.749h3.848v1.319h-5.417v-7.136M683.813 88.331h-1.56l-1.209-4.857h-.021l-1.189 4.857h-1.589l-1.889-7.136h1.57l1.129 4.858h.019l1.24-4.858h1.469l1.22 4.917h.019l1.169-4.917h1.54l-1.918 7.136M686.466 88.331h1.569v-7.136h-1.569zM689.422 81.195h1.569v5.817h3.479v1.319h-5.048v-7.136M696.441 87.012h1.4c.909 0 1.778-.56 1.778-2.139 0-1.439-.499-2.359-2.058-2.359h-1.12v4.498zm-1.569-5.817h3.078c1.85 0 3.238 1.159 3.238 3.528 0 2.069-1.059 3.608-3.238 3.608h-3.078v-7.136z"/><path stroke="#000" d="M163.276 95.857h603.907M163.275 62.635h603.908"/><path fill="#000" d="M313.209 82.878h-1.769l-2.319-7.136h1.619l1.59 5.018h.02l1.608-5.018h1.62l-2.369 7.136M322.307 80.18c0 1.928-1.139 2.868-3.048 2.868-1.919 0-3.038-.93-3.038-2.868v-4.438h1.569v4.438c0 .779.2 1.549 1.469 1.549 1.119 0 1.479-.491 1.479-1.549v-4.438h1.569v4.438M323.688 75.742h1.569v5.817h3.478v1.319h-5.047v-7.136M329.337 75.742h1.559l2.979 4.787h.02v-4.787h1.469v7.136h-1.569l-2.968-4.777h-.02v4.777h-1.47v-7.136M336.773 75.742h5.338v1.319h-3.768v1.529h3.458v1.22h-3.458v1.749h3.847v1.319h-5.417v-7.136M344.883 78.97h1.719c.699 0 1.079-.3 1.079-1.019 0-.69-.38-.99-1.079-.99h-1.719v2.009zm-1.57-3.228h3.849c1.279 0 2.088.889 2.088 1.969 0 .839-.339 1.469-1.129 1.789v.02c.77.2.989.949 1.04 1.669.029.45.02 1.29.299 1.689h-1.569c-.19-.45-.17-1.14-.25-1.709-.11-.749-.399-1.079-1.189-1.079h-1.569v2.788h-1.57v-7.136zM352.393 80.119h1.848l-.899-2.618h-.02l-.929 2.618zm.149-4.377h1.609l2.669 7.136h-1.629l-.54-1.589h-2.669l-.559 1.589h-1.589l2.708-7.136zM359.073 81.658h1.679c.62 0 1.159-.199 1.159-.939 0-.729-.46-1.019-1.129-1.019h-1.709v1.958zm0-3.028h1.589c.549 0 .959-.25.959-.849 0-.68-.519-.82-1.079-.82h-1.469v1.669zm-1.57-2.888h3.359c1.359 0 2.279.44 2.279 1.769 0 .7-.35 1.189-.97 1.489.87.25 1.309.919 1.309 1.809 0 1.449-1.229 2.069-2.518 2.069h-3.459v-7.136zM364.508 75.742h1.569v5.817h3.478v1.319h-5.047v-7.136M370.158 75.742h5.337v1.319h-3.768v1.529h3.458v1.22h-3.458v1.749h3.848v1.319h-5.417v-7.136M709.64 96.305h57.543V62.424H709.64z"/><path fill="#666" d="M81.118 96.314h76.323V62.109H81.118z"/><path fill="#FFF" d="M108.718 76.004h1.399c.909 0 1.779-.56 1.779-2.139 0-1.439-.5-2.359-2.059-2.359h-1.119v4.498zm-1.57-5.817h3.079c1.849 0 3.238 1.16 3.238 3.528 0 2.069-1.059 3.608-3.238 3.608h-3.079v-7.136zM116.088 74.565h1.849l-.9-2.619h-.02l-.929 2.619zm.15-4.378h1.609l2.668 7.136h-1.629l-.539-1.589h-2.669l-.56 1.589h-1.589l2.709-7.136zM122.001 71.506h-2.139v-1.319h5.847v1.319h-2.139v5.817h-1.569v-5.817M127.601 74.565h1.849l-.9-2.619h-.02l-.929 2.619zm.15-4.378h1.609l2.668 7.136h-1.629l-.539-1.589h-2.669l-.56 1.589h-1.589l2.709-7.136zM94.89 87.012h1.399c.909 0 1.779-.56 1.779-2.139 0-1.439-.5-2.359-2.059-2.359H94.89v4.498zm-1.57-5.817h3.079c1.849 0 3.238 1.159 3.238 3.528 0 2.069-1.059 3.608-3.238 3.608H93.32v-7.136zM100.73 81.195h5.338v1.319H102.3v1.529h3.458v1.22H102.3v1.749h3.847v1.319h-5.417v-7.136M107.21 81.195h5.018v1.319h-3.448v1.65h2.988v1.219h-2.988v2.948h-1.57v-7.136M113.14 88.331h1.569v-7.136h-1.569zM120.847 83.594c-.099-.709-.779-1.25-1.559-1.25-1.409 0-1.939 1.199-1.939 2.449 0 1.189.53 2.389 1.939 2.389.96 0 1.5-.661 1.619-1.6h1.52c-.16 1.779-1.39 2.919-3.139 2.919-2.208 0-3.508-1.649-3.508-3.708 0-2.119 1.3-3.768 3.508-3.768 1.569 0 2.889.919 3.079 2.569h-1.52M123.5 88.331h1.569v-7.136H123.5zM126.45 81.195h5.338v1.319h-3.768v1.529h3.458v1.22h-3.458v1.749h3.847v1.319h-5.417v-7.136M132.93 81.195h1.559l2.979 4.787h.02v-4.787h1.469v7.136h-1.569l-2.969-4.777h-.02v4.777h-1.469v-7.136M141.919 82.514h-2.139v-1.319h5.847v1.319h-2.139v5.817h-1.569v-5.817"/><path fill="#666" d="M0 96.314h77.599V62.109H0z"/><path fill="#FFF" d="M28.906 70.187h1.559l2.979 4.788h.02v-4.788h1.469v7.136h-1.569l-2.968-4.777h-.021v4.777h-1.469v-7.136M39.515 76.174c1.409 0 1.939-1.199 1.939-2.389 0-1.249-.53-2.448-1.939-2.448-1.41 0-1.939 1.199-1.939 2.448 0 1.19.529 2.389 1.939 2.389zm0-6.157c2.209 0 3.508 1.649 3.508 3.768 0 2.059-1.299 3.708-3.508 3.708s-3.508-1.649-3.508-3.708c0-2.119 1.299-3.768 3.508-3.768zM45.524 71.506h-2.138v-1.319h5.846v1.319h-2.138v5.817h-1.57v-5.817M10.234 81.195h5.338v1.319h-3.768v1.529h3.458v1.22h-3.458v1.749h3.847v1.319h-5.417v-7.136M20.203 88.331h-1.769l-2.319-7.136h1.619l1.589 5.018h.02l1.609-5.018h1.619l-2.368 7.136M24.549 85.572h1.849l-.899-2.618h-.021l-.929 2.618zm.15-4.377h1.609l2.669 7.136h-1.629l-.54-1.589H24.14l-.56 1.589h-1.589l2.708-7.136zM29.84 81.195h1.569v5.817h3.478v1.319H29.84v-7.136M41.471 85.633c0 1.929-1.14 2.868-3.049 2.868-1.919 0-3.038-.93-3.038-2.868v-4.438h1.57v4.438c0 .779.199 1.549 1.468 1.549 1.12 0 1.48-.491 1.48-1.549v-4.438h1.569v4.438M44.373 85.572h1.849l-.899-2.618h-.02l-.93 2.618zm.15-4.377h1.609l2.669 7.136h-1.629l-.54-1.589h-2.668l-.56 1.589h-1.589l2.708-7.136zM50.282 82.514h-2.138v-1.319h5.846v1.319h-2.138v5.817h-1.57v-5.817M54.763 81.195h5.338v1.319h-3.769v1.529h3.458v1.22h-3.458v1.749h3.848v1.319h-5.417v-7.136M62.89 87.012h1.399c.909 0 1.779-.56 1.779-2.139 0-1.439-.5-2.359-2.059-2.359H62.89v4.498zm-1.57-5.817h3.079c1.849 0 3.238 1.159 3.238 3.528 0 2.069-1.059 3.608-3.238 3.608H61.32v-7.136zM718.203 75.703h5.337v1.319h-3.768v1.529h3.458v1.219h-3.458v1.75h3.848v1.319h-5.417v-7.136M726.632 79.101l-2.299-3.398h1.819l1.4 2.278 1.449-2.278h1.719l-2.289 3.408 2.489 3.728h-1.869l-1.56-2.469-1.589 2.469h-1.768l2.498-3.738M733.142 77.022h-2.139v-1.319h5.847v1.319h-2.139v5.817h-1.569v-5.817M737.643 82.839h1.569v-7.136h-1.569zM740.563 75.703h1.559l2.979 4.787h.019v-4.787h1.47v7.136h-1.569l-2.969-4.777h-.02v4.777h-1.469v-7.136M752.7 78.102c-.1-.71-.78-1.25-1.559-1.25-1.41 0-1.939 1.199-1.939 2.449 0 1.189.529 2.388 1.939 2.388.96 0 1.499-.66 1.619-1.599h1.519c-.16 1.779-1.389 2.919-3.138 2.919-2.209 0-3.508-1.65-3.508-3.708 0-2.119 1.299-3.768 3.508-3.768 1.569 0 2.888.919 3.078 2.569H752.7M756.931 77.022h-2.139v-1.319h5.847v1.319H758.5v5.817h-1.569v-5.817"/><path fill="#000" d="M173.43 70.187h1.569v5.817h3.478v1.319h-5.047v-7.136M179.229 70.187h5.338v1.319h-3.768v1.53h3.458v1.219h-3.458v1.749h3.847v1.319h-5.417v-7.136M187.26 74.565h1.849l-.9-2.619h-.02l-.929 2.619zm.15-4.378h1.609l2.669 7.136h-1.629l-.54-1.589h-2.668l-.56 1.589h-1.589l2.708-7.136zM193.301 74.955c0 .949.739 1.319 1.579 1.319.549 0 1.389-.16 1.389-.89 0-.769-1.069-.899-2.119-1.179-1.059-.28-2.129-.69-2.129-2.029 0-1.459 1.379-2.159 2.669-2.159 1.489 0 2.858.65 2.858 2.299h-1.519c-.05-.859-.659-1.079-1.409-1.079-.5 0-1.079.209-1.079.809 0 .55.339.62 2.128 1.079.52.13 2.119.46 2.119 2.08 0 1.309-1.029 2.288-2.968 2.288-1.579 0-3.059-.78-3.039-2.538h1.52M200.056 71.506h-2.139v-1.319h5.847v1.319h-2.139v5.817h-1.569v-5.817M168.445 83.594c-.1-.709-.779-1.25-1.559-1.25-1.409 0-1.939 1.199-1.939 2.449 0 1.189.53 2.389 1.939 2.389.959 0 1.499-.661 1.619-1.6h1.519c-.16 1.779-1.389 2.919-3.138 2.919-2.209 0-3.508-1.649-3.508-3.708 0-2.119 1.299-3.768 3.508-3.768 1.569 0 2.888.919 3.078 2.569h-1.519M174.206 87.182c1.409 0 1.939-1.2 1.939-2.389 0-1.25-.53-2.449-1.939-2.449-1.41 0-1.939 1.199-1.939 2.449 0 1.189.529 2.389 1.939 2.389zm0-6.157c2.209 0 3.508 1.649 3.508 3.768 0 2.059-1.299 3.708-3.508 3.708s-3.508-1.649-3.508-3.708c0-2.119 1.299-3.768 3.508-3.768zM178.539 81.195h1.559l2.979 4.787h.02v-4.787h1.469v7.136h-1.569l-2.969-4.777h-.02v4.777h-1.469v-7.136M190.696 83.594c-.099-.709-.779-1.25-1.559-1.25-1.409 0-1.939 1.199-1.939 2.449 0 1.189.53 2.389 1.939 2.389.96 0 1.5-.661 1.619-1.6h1.52c-.16 1.779-1.39 2.919-3.139 2.919-2.208 0-3.508-1.649-3.508-3.708 0-2.119 1.3-3.768 3.508-3.768 1.57 0 2.889.919 3.079 2.569h-1.52M193.339 81.195h5.337v1.319h-3.768v1.529h3.458v1.22h-3.458v1.749h3.848v1.319h-5.417v-7.136M201.378 84.424h1.72c.699 0 1.079-.301 1.079-1.02 0-.689-.38-.99-1.079-.99h-1.72v2.01zm-1.569-3.229h3.848c1.28 0 2.089.889 2.089 1.969 0 .84-.34 1.469-1.129 1.789v.02c.769.2.989.949 1.039 1.67.03.449.02 1.289.3 1.688h-1.569c-.19-.45-.17-1.14-.25-1.709-.11-.749-.4-1.079-1.189-1.079h-1.57v2.788h-1.569v-7.136zM206.93 81.195h1.559l2.978 4.787h.02v-4.787h1.47v7.136h-1.57l-2.968-4.777h-.02v4.777h-1.469v-7.136M248.508 70.187h1.559l2.978 4.788h.02v-4.788h1.47v7.136h-1.57l-2.968-4.777h-.02v4.777h-1.469v-7.136M255.948 70.187h5.337v1.319h-3.768v1.53h3.458v1.219h-3.458v1.749h3.848v1.319h-5.417v-7.136M264.229 74.565h1.849l-.9-2.619h-.02l-.929 2.619zm.15-4.378h1.609l2.668 7.136h-1.629l-.539-1.589h-2.669l-.56 1.589h-1.589l2.709-7.136zM270.689 73.416h1.719c.699 0 1.079-.3 1.079-1.02 0-.689-.38-.99-1.079-.99h-1.719v2.01zm-1.569-3.229h3.848c1.279 0 2.089.89 2.089 1.969 0 .84-.34 1.469-1.13 1.789v.02c.77.2.99.95 1.04 1.669.03.45.019 1.289.3 1.689h-1.57c-.19-.449-.17-1.139-.25-1.709-.11-.749-.399-1.079-1.189-1.079h-1.569v2.788h-1.569v-7.136zM230.431 82.514h-2.139v-1.319h5.847v1.319H232v5.817h-1.569v-5.817M234.912 81.195h1.569v2.739h2.888v-2.739h1.569v7.136h-1.569v-3.078h-2.888v3.078h-1.569v-7.136M243.913 84.424h1.719c.7 0 1.079-.301 1.079-1.02 0-.689-.379-.99-1.079-.99h-1.719v2.01zm-1.569-3.229h3.848c1.279 0 2.089.889 2.089 1.969 0 .84-.34 1.469-1.13 1.789v.02c.77.2.99.949 1.04 1.67.03.449.02 1.289.3 1.688h-1.57c-.19-.45-.17-1.14-.25-1.709-.109-.749-.399-1.079-1.189-1.079h-1.569v2.788h-1.569v-7.136zM249.364 81.195h5.337v1.319h-3.768v1.529h3.458v1.22h-3.458v1.749h3.848v1.319h-5.417v-7.136M257.659 85.572h1.848l-.899-2.618h-.02l-.929 2.618zm.15-4.377h1.608l2.669 7.136h-1.629l-.54-1.589h-2.668l-.56 1.589H255.1l2.709-7.136zM263.568 82.514h-2.138v-1.319h5.846v1.319h-2.138v5.817h-1.57v-5.817M268.039 81.195h5.337v1.319h-3.768v1.529h3.458v1.22h-3.458v1.749h3.848v1.319h-5.417v-7.136M274.599 81.195h1.559l2.979 4.787h.02v-4.787h1.469v7.136h-1.569l-2.969-4.777h-.02v4.777h-1.469v-7.136M282.089 81.195h5.337v1.319h-3.768v1.529h3.458v1.22h-3.458v1.749h3.848v1.319h-5.417v-7.136M290.218 87.012h1.4c.909 0 1.778-.56 1.778-2.139 0-1.439-.499-2.359-2.059-2.359h-1.119v4.498zm-1.569-5.817h3.079c1.848 0 3.238 1.159 3.238 3.528 0 2.069-1.06 3.608-3.238 3.608h-3.079v-7.136z"/><path fill="#DA2A1C" d="M543.918 79.77V.543h-80.574v.034c-43.127.72-77.879 35.884-77.879 79.197 0 43.757 35.473 79.226 79.223 79.226 43.621 0 79.003-35.252 79.222-78.822h.008v-.33l.002-.074-.002-.004"/><path fill="#FFF" d="M517.161 29.976h3.893c1.346 0 2.673.609 2.673 2.149 0 .823-.396 1.604-1.198 1.914v.022c.813.192 1.048 1.101 1.113 1.828.02.32.052 1.444.32 1.721h-1.968c-.171-.257-.203-1.005-.224-1.218-.053-.77-.182-1.562-1.112-1.562h-1.508v2.78h-1.989v-7.634zm1.989 3.315h1.668c.599 0 .92-.321.92-.899 0-.566-.449-.823-1.006-.823h-1.582v1.722zM524.668 29.976h6.084v1.593h-4.096v1.336h3.743v1.54h-3.743v1.454h4.203v1.711h-6.191v-7.634M531.779 29.976h3.283c2.342 0 3.743 1.422 3.743 3.785 0 2.502-1.422 3.849-3.743 3.849h-3.283v-7.634zm1.989 5.923h.941c1.508-.032 2.106-.62 2.106-2.149 0-1.39-.749-2.063-2.106-2.063h-.941v4.212zM517.161 38.395h1.989v5.924h3.561v1.71h-5.55v-7.634M523.268 46.029h1.988v-7.634h-1.988zM527.758 43.463c.043.898.599 1.187 1.443 1.187.6 0 1.22-.213 1.22-.78 0-.674-1.091-.803-2.192-1.113-1.091-.31-2.235-.801-2.235-2.202 0-1.668 1.679-2.321 3.111-2.321 1.519 0 3.048.738 3.059 2.46h-1.989c.032-.695-.62-.92-1.23-.92-.427 0-.963.15-.963.652 0 .589 1.102.696 2.214 1.006 1.102.31 2.214.823 2.214 2.202 0 1.936-1.647 2.556-3.326 2.556-1.754 0-3.304-.77-3.314-2.727h1.988"/><path fill="#FFF" d="M538.697 40.105h-2.277v5.924h-1.989v-5.924h-2.278v-1.71h6.544v1.71M531.922 12.114c-1.533 1.481-1.862 3.625-.736 4.791 1.126 1.166 3.282.91 4.814-.57s1.862-3.625.735-4.79c-1.126-1.166-3.282-.911-4.813.569"/><path fill="#FFF" d="M530.695 19.311c-1.531 1.48-1.861 3.625-.735 4.791 1.127 1.166 3.281.911 4.813-.57 1.534-1.48 1.862-3.625.736-4.792-1.125-1.165-3.28-.909-4.814.571"/><g fill="#FFF"><path d="M520.167 8.782c-1.532 1.481-1.861 3.625-.735 4.792 1.126 1.165 3.281.91 4.813-.57 1.532-1.481 1.861-3.626.735-4.792-1.125-1.165-3.281-.911-4.813.57"/><path d="M527.421 7.647c-1.532 1.48-1.862 3.624-.737 4.79 1.128 1.166 3.283.912 4.815-.569 1.532-1.48 1.861-3.626.734-4.791-1.125-1.166-3.28-.91-4.812.57"/></g><path fill="#FFF" d="M528.81 20.753a6.031 6.031 0 01-12.06 0 6.03 6.03 0 1112.06 0M514.805 17.142c0 5.312-4.306 9.615-9.616 9.615a9.614 9.614 0 01-9.615-9.615c0-5.309 4.305-9.614 9.615-9.614h9.627l-.011 9.614M514.91 38.222c0 5.343-4.332 9.674-9.676 9.674-5.341 0-9.673-4.331-9.673-9.674 0-5.344 4.332-9.675 9.673-9.675 5.344 0 9.676 4.331 9.676 9.675"/><path fill="#D61D17" d="M500.922 39.241h.428v-1.948h-.428zM503.104 39.092c-.147.129-.351.193-.611.193-.264 0-.468-.064-.612-.191-.145-.128-.217-.324-.217-.59v-1.211h.428v1.211c0 .053.005.105.013.156a.308.308 0 00.179.23.49.49 0 00.209.037c.153 0 .259-.034.317-.102.058-.068.086-.175.086-.321v-1.211h.429v1.211c0 .264-.073.46-.221.588M504.889 37.812a.429.429 0 00-.225-.179.492.492 0 00-.397.03.45.45 0 00-.163.149.66.66 0 00-.092.215 1.015 1.015 0 000 .487c.019.077.05.147.092.209a.457.457 0 00.163.148.503.503 0 00.246.056c.131 0 .233-.04.306-.12a.549.549 0 00.135-.316h.415a.983.983 0 01-.085.33.778.778 0 01-.441.409.972.972 0 01-.33.055c-.15 0-.284-.026-.404-.078a.86.86 0 01-.3-.214.953.953 0 01-.189-.321 1.168 1.168 0 01-.065-.397c0-.146.021-.28.065-.405a.976.976 0 01.189-.326.845.845 0 01.3-.218.971.971 0 01.404-.079c.106 0 .208.015.303.046a.82.82 0 01.257.135.735.735 0 01.28.52h-.415a.358.358 0 00-.049-.136M506.032 37.293l.813 1.307h.006v-1.307h.401v1.948h-.429l-.81-1.304h-.005v1.304h-.402v-1.948h.426"/><path fill="#D61D17" d="M505.002 40.306a3.105 3.105 0 0 1-2.311 1.027 3.11 3.11 0 0 1-2.203-5.315 3.106 3.106 0 0 1 2.203-.913 3.106 3.106 0 0 1 2.387 1.116h1.272a4.17 4.17 0 0 0-7.832 1.996 4.17 4.17 0 0 0 7.78 2.089h-1.296"/><path fill="#FFF" d="M539.593 31.61c-.602 0-1.03-.45-1.03-1.047 0-.629.476-1.047 1.03-1.047.549 0 1.025.418 1.025 1.047 0 .63-.476 1.047-1.025 1.047zm0-1.912c-.453 0-.806.356-.806.865 0 .477.308.866.806.866.448 0 .801-.353.801-.866 0-.509-.353-.865-.801-.865zm.529 1.067a.496.496 0 01-.495.431c-.359 0-.594-.271-.594-.633 0-.338.224-.599.588-.601.255 0 .462.148.498.422h-.19c-.029-.143-.149-.24-.308-.24-.235 0-.364.187-.364.419 0 .244.142.451.37.451.165 0 .282-.103.302-.249h.193zM407.236 73.666h8.801v2.176h-6.213v2.521h5.701v2.01h-5.701v2.885h6.345v2.175h-8.933V73.666M418.045 73.666h2.571l4.911 7.895h.033v-7.895h2.422v11.767h-2.586l-4.895-7.877h-.033v7.877h-2.423V73.666M432.902 83.258h2.307c1.5 0 2.934-.924 2.934-3.528 0-2.373-.825-3.888-3.395-3.888h-1.846v7.416zm-2.588-9.592h5.077c3.048 0 5.338 1.912 5.338 5.817 0 3.412-1.746 5.95-5.338 5.95h-5.077V73.666zM445.028 80.885h3.049l-1.483-4.319h-.033l-1.533 4.319zm.247-7.219h2.654l4.399 11.767h-2.685l-.89-2.621h-4.4l-.923 2.621h-2.62l4.465-11.767zM453.439 73.666h2.572l4.911 7.895h.032v-7.895h2.423v11.767h-2.587l-4.894-7.877h-.034v7.877h-2.423V73.666M474.251 84.098c-.906 1.17-2.093 1.615-3.23 1.615-3.642 0-5.785-2.719-5.785-6.114 0-3.494 2.143-6.213 5.785-6.213 2.406 0 4.68 1.483 4.96 4.153h-2.471c-.297-1.302-1.27-1.977-2.489-1.977-2.324 0-3.197 1.977-3.197 4.037 0 1.962.873 3.938 3.197 3.938 1.681 0 2.653-.906 2.801-2.537h-2.603v-1.929h4.943v6.362h-1.647l-.264-1.335M478.351 73.666h8.8v2.176h-6.213v2.521h5.703v2.01h-5.703v2.885h6.345v2.175h-8.932V73.666M491.714 78.989h2.834c1.153 0 1.78-.494 1.78-1.681 0-1.137-.627-1.631-1.78-1.631h-2.834v3.312zm-2.588-5.323h6.345c2.109 0 3.444 1.467 3.444 3.247 0 1.384-.561 2.422-1.862 2.949v.033c1.269.33 1.632 1.566 1.714 2.752.049.742.033 2.126.495 2.786h-2.588c-.313-.742-.28-1.879-.412-2.818-.181-1.236-.659-1.78-1.961-1.78h-2.587v4.598h-2.588V73.666zM501.12 73.666h8.801v2.176h-6.213v2.521h5.702v2.01h-5.702v2.885h6.345v2.175h-8.933V73.666M514.483 83.258h2.307c1.5 0 2.934-.924 2.934-3.528 0-2.373-.825-3.888-3.395-3.888h-1.846v7.416zm-2.587-9.592h5.076c3.049 0 5.339 1.912 5.339 5.817 0 3.412-1.747 5.95-5.339 5.95h-5.076V73.666z"/><path fill="#000" d="M567.023 72.586c-.1-.709-.78-1.249-1.559-1.249-1.409 0-1.939 1.199-1.939 2.448 0 1.19.53 2.389 1.939 2.389.96 0 1.499-.66 1.619-1.599h1.52c-.161 1.779-1.39 2.918-3.139 2.918-2.209 0-3.508-1.649-3.508-3.708 0-2.119 1.299-3.768 3.508-3.768 1.569 0 2.889.92 3.078 2.569h-1.519M571.215 73.416h1.719c.7 0 1.08-.3 1.08-1.02 0-.689-.38-.99-1.08-.99h-1.719v2.01zm-1.569-3.229h3.847c1.279 0 2.089.89 2.089 1.969 0 .84-.34 1.469-1.129 1.789v.02c.77.2.989.95 1.039 1.669.03.45.021 1.289.3 1.689h-1.568c-.191-.449-.17-1.139-.25-1.709-.111-.749-.401-1.079-1.19-1.079h-1.569v2.788h-1.569v-7.136zM576.835 77.323h1.569v-7.136h-1.569zM581.335 71.506h-2.139v-1.319h5.847v1.319h-2.139v5.817h-1.569v-5.817M585.835 77.323h1.569v-7.136h-1.569zM593.513 72.586c-.101-.709-.781-1.249-1.56-1.249-1.409 0-1.938 1.199-1.938 2.448 0 1.19.529 2.389 1.938 2.389.96 0 1.499-.66 1.619-1.599h1.52c-.16 1.779-1.39 2.918-3.139 2.918-2.209 0-3.508-1.649-3.508-3.708 0-2.119 1.299-3.768 3.508-3.768 1.569 0 2.889.92 3.078 2.569h-1.518M597.791 74.565h1.85l-.9-2.619h-.02l-.93 2.619zm.15-4.378h1.61l2.668 7.136h-1.629l-.54-1.589h-2.668l-.56 1.589h-1.59l2.709-7.136zM602.882 70.187h1.569v5.817h3.479v1.319h-5.048v-7.136M608.727 70.187h1.569v5.817h3.478v1.319h-5.047v-7.136M615.526 74.545l-2.629-4.358h1.769l1.67 2.819 1.658-2.819h1.749l-2.648 4.398v2.738h-1.569v-2.778M555.898 81.195h5.337v1.319h-3.767v1.529h3.458v1.22h-3.458v1.749h3.847v1.319h-5.417v-7.136M562.458 81.195h1.56l2.978 4.787h.02v-4.787h1.468v7.136h-1.568l-2.969-4.777h-.019v4.777h-1.47v-7.136M571.468 87.012h1.399c.909 0 1.779-.56 1.779-2.139 0-1.439-.5-2.359-2.059-2.359h-1.119v4.498zm-1.57-5.817h3.079c1.849 0 3.238 1.159 3.238 3.528 0 2.069-1.06 3.608-3.238 3.608h-3.079v-7.136zM578.837 85.572h1.85l-.9-2.618h-.02l-.93 2.618zm.15-4.377h1.61l2.668 7.136h-1.629l-.54-1.589h-2.668l-.56 1.589h-1.59l2.709-7.136zM583.93 81.195h1.559l2.979 4.787h.019v-4.787h1.47v7.136h-1.569l-2.969-4.777h-.02v4.777h-1.469v-7.136M596.547 87.521c-.55.709-1.27.98-1.959.98-2.209 0-3.508-1.649-3.508-3.708 0-2.119 1.299-3.768 3.508-3.768 1.459 0 2.839.9 3.009 2.518h-1.499c-.181-.789-.77-1.199-1.51-1.199-1.409 0-1.939 1.199-1.939 2.449 0 1.189.53 2.389 1.939 2.389 1.019 0 1.609-.55 1.699-1.539h-1.579v-1.17h2.998v3.858h-.999l-.16-.81M599.029 81.195h5.337v1.319h-3.767v1.529h3.458v1.22h-3.458v1.749h3.847v1.319h-5.417v-7.136M607.129 84.424h1.719c.7 0 1.08-.301 1.08-1.02 0-.689-.38-.99-1.08-.99h-1.719v2.01zm-1.569-3.229h3.847c1.28 0 2.089.889 2.089 1.969 0 .84-.34 1.469-1.129 1.789v.02c.77.2.989.949 1.039 1.67.031.449.021 1.289.3 1.688h-1.568c-.191-.45-.17-1.14-.25-1.709-.111-.749-.401-1.079-1.19-1.079h-1.569v2.788h-1.569v-7.136zM612.829 81.195h5.337v1.319h-3.768v1.529h3.458v1.22h-3.458v1.749h3.848v1.319h-5.417v-7.136M620.929 87.012h1.399c.909 0 1.779-.56 1.779-2.139 0-1.439-.5-2.359-2.059-2.359h-1.119v4.498zm-1.57-5.817h3.079c1.849 0 3.238 1.159 3.238 3.528 0 2.069-1.06 3.608-3.238 3.608h-3.079v-7.136z"/></g></svg>