<?xml version="1.0" encoding="UTF-8"?>
<svg width="768px" height="159px" viewBox="0 0 768 159" version="1.1" xmlns="http://www.w3.org/2000/svg" xmlns:xlink="http://www.w3.org/1999/xlink">
    <!-- Generator: Sketch 40.3 (33839) - http://www.bohemiancoding.com/sketch -->
    <title>category-scale_en</title>
    <desc>Created with Sketch.</desc>
    <defs></defs>
    <g id="Page-1" stroke="none" stroke-width="1" fill="none" fill-rule="evenodd">
        <g id="category-scale_en">
            <polyline id="Fill-1" fill="#000000" points="650.258 70.187 655.595 70.187 655.595 71.506 651.827 71.506 651.827 73.036 655.285 73.036 655.285 74.255 651.827 74.255 651.827 76.004 655.675 76.004 655.675 77.323 650.258 77.323 650.258 70.187"></polyline>
            <polyline id="Fill-2" fill="#000000" points="658.687 73.585 656.388 70.187 658.207 70.187 659.606 72.466 661.056 70.187 662.774 70.187 660.485 73.595 662.975 77.323 661.105 77.323 659.546 74.854 657.957 77.323 656.188 77.323 658.687 73.585"></polyline>
            <polyline id="Fill-3" fill="#000000" points="665.204 71.506 663.065 71.506 663.065 70.187 668.912 70.187 668.912 71.506 666.773 71.506 666.773 77.323 665.204 77.323 665.204 71.506"></polyline>
            <polygon id="Fill-4" fill="#000000" points="669.685 77.323 671.254 77.323 671.254 70.187 669.685 70.187"></polygon>
            <polyline id="Fill-5" fill="#000000" points="672.844 70.187 674.403 70.187 677.382 74.975 677.401 74.975 677.401 70.187 678.871 70.187 678.871 77.323 677.302 77.323 674.333 72.546 674.313 72.546 674.313 77.323 672.844 77.323 672.844 70.187"></polyline>
            <path d="M685.012,72.586 C684.911,71.877 684.231,71.337 683.452,71.337 C682.043,71.337 681.514,72.536 681.514,73.785 C681.514,74.975 682.043,76.174 683.452,76.174 C684.412,76.174 684.951,75.514 685.071,74.575 L686.591,74.575 C686.431,76.354 685.201,77.493 683.452,77.493 C681.243,77.493 679.944,75.844 679.944,73.785 C679.944,71.666 681.243,70.017 683.452,70.017 C685.021,70.017 686.341,70.937 686.53,72.586 L685.012,72.586" id="Fill-6" fill="#000000"></path>
            <polyline id="Fill-7" fill="#000000" points="688.993 71.506 686.854 71.506 686.854 70.187 692.701 70.187 692.701 71.506 690.563 71.506 690.563 77.323 688.993 77.323 688.993 71.506"></polyline>
            <polygon id="Fill-8" fill="#000000" points="641.508 88.331 643.077 88.331 643.077 81.195 641.508 81.195"></polygon>
            <polyline id="Fill-9" fill="#000000" points="644.468 81.195 646.027 81.195 649.006 85.982 649.025 85.982 649.025 81.195 650.494 81.195 650.494 88.331 648.926 88.331 645.957 83.554 645.938 83.554 645.938 88.331 644.468 88.331 644.468 81.195"></polyline>
            <polyline id="Fill-10" fill="#000000" points="656.091 82.514 653.952 82.514 653.952 81.195 659.799 81.195 659.799 82.514 657.66 82.514 657.66 88.331 656.091 88.331 656.091 82.514"></polyline>
            <polyline id="Fill-11" fill="#000000" points="660.571 81.195 662.141 81.195 662.141 83.934 665.029 83.934 665.029 81.195 666.598 81.195 666.598 88.331 665.029 88.331 665.029 85.253 662.141 85.253 662.141 88.331 660.571 88.331 660.571 81.195"></polyline>
            <polyline id="Fill-12" fill="#000000" points="667.961 81.195 673.298 81.195 673.298 82.514 669.53 82.514 669.53 84.043 672.988 84.043 672.988 85.263 669.53 85.263 669.53 87.012 673.378 87.012 673.378 88.331 667.961 88.331 667.961 81.195"></polyline>
            <polyline id="Fill-13" fill="#000000" points="683.813 88.331 682.253 88.331 681.044 83.474 681.023 83.474 679.834 88.331 678.245 88.331 676.356 81.195 677.926 81.195 679.055 86.053 679.074 86.053 680.314 81.195 681.783 81.195 683.003 86.112 683.022 86.112 684.191 81.195 685.731 81.195 683.813 88.331"></polyline>
            <polygon id="Fill-14" fill="#000000" points="686.466 88.331 688.035 88.331 688.035 81.195 686.466 81.195"></polygon>
            <polyline id="Fill-15" fill="#000000" points="689.422 81.195 690.991 81.195 690.991 87.012 694.47 87.012 694.47 88.331 689.422 88.331 689.422 81.195"></polyline>
            <path d="M696.441,87.012 L697.841,87.012 C698.75,87.012 699.619,86.452 699.619,84.873 C699.619,83.434 699.12,82.514 697.561,82.514 L696.441,82.514 L696.441,87.012 L696.441,87.012 Z M694.872,81.195 L697.95,81.195 C699.8,81.195 701.188,82.354 701.188,84.723 C701.188,86.792 700.129,88.331 697.95,88.331 L694.872,88.331 L694.872,81.195 L694.872,81.195 Z" id="Fill-16" fill="#000000"></path>
            <path d="M163.276,95.857 L767.183,95.857 M163.275,62.635 L767.183,62.635" id="Stroke-19" stroke="#000000"></path>
            <polyline id="Fill-21" fill="#000000" points="313.209 82.878 311.44 82.878 309.121 75.742 310.74 75.742 312.33 80.76 312.35 80.76 313.958 75.742 315.578 75.742 313.209 82.878"></polyline>
            <path d="M322.307,80.18 C322.307,82.108 321.168,83.048 319.259,83.048 C317.34,83.048 316.221,82.118 316.221,80.18 L316.221,75.742 L317.79,75.742 L317.79,80.18 C317.79,80.959 317.99,81.729 319.259,81.729 C320.378,81.729 320.738,81.238 320.738,80.18 L320.738,75.742 L322.307,75.742 L322.307,80.18" id="Fill-22" fill="#000000"></path>
            <polyline id="Fill-23" fill="#000000" points="323.688 75.742 325.257 75.742 325.257 81.559 328.735 81.559 328.735 82.878 323.688 82.878 323.688 75.742"></polyline>
            <polyline id="Fill-24" fill="#000000" points="329.337 75.742 330.896 75.742 333.875 80.529 333.895 80.529 333.895 75.742 335.364 75.742 335.364 82.878 333.795 82.878 330.827 78.101 330.807 78.101 330.807 82.878 329.337 82.878 329.337 75.742"></polyline>
            <polyline id="Fill-25" fill="#000000" points="336.773 75.742 342.111 75.742 342.111 77.061 338.343 77.061 338.343 78.59 341.801 78.59 341.801 79.81 338.343 79.81 338.343 81.559 342.19 81.559 342.19 82.878 336.773 82.878 336.773 75.742"></polyline>
            <path d="M344.883,78.97 L346.602,78.97 C347.301,78.97 347.681,78.67 347.681,77.951 C347.681,77.261 347.301,76.961 346.602,76.961 L344.883,76.961 L344.883,78.97 L344.883,78.97 Z M343.313,75.742 L347.162,75.742 C348.441,75.742 349.25,76.631 349.25,77.711 C349.25,78.55 348.911,79.18 348.121,79.5 L348.121,79.52 C348.891,79.72 349.11,80.469 349.161,81.189 C349.19,81.639 349.181,82.479 349.46,82.878 L347.891,82.878 C347.701,82.428 347.721,81.738 347.641,81.169 C347.531,80.42 347.242,80.09 346.452,80.09 L344.883,80.09 L344.883,82.878 L343.313,82.878 L343.313,75.742 L343.313,75.742 Z" id="Fill-26" fill="#000000"></path>
            <path d="M352.393,80.119 L354.241,80.119 L353.342,77.501 L353.322,77.501 L352.393,80.119 L352.393,80.119 Z M352.542,75.742 L354.151,75.742 L356.82,82.878 L355.191,82.878 L354.651,81.289 L351.982,81.289 L351.423,82.878 L349.834,82.878 L352.542,75.742 L352.542,75.742 Z" id="Fill-27" fill="#000000"></path>
            <path d="M359.073,81.658 L360.752,81.658 C361.372,81.658 361.911,81.459 361.911,80.719 C361.911,79.99 361.451,79.7 360.782,79.7 L359.073,79.7 L359.073,81.658 L359.073,81.658 Z M359.073,78.63 L360.662,78.63 C361.211,78.63 361.621,78.38 361.621,77.781 C361.621,77.101 361.102,76.961 360.542,76.961 L359.073,76.961 L359.073,78.63 L359.073,78.63 Z M357.503,75.742 L360.862,75.742 C362.221,75.742 363.141,76.182 363.141,77.511 C363.141,78.211 362.791,78.7 362.171,79 C363.041,79.25 363.48,79.919 363.48,80.809 C363.48,82.258 362.251,82.878 360.962,82.878 L357.503,82.878 L357.503,75.742 L357.503,75.742 Z" id="Fill-28" fill="#000000"></path>
            <polyline id="Fill-29" fill="#000000" points="364.508 75.742 366.077 75.742 366.077 81.559 369.555 81.559 369.555 82.878 364.508 82.878 364.508 75.742"></polyline>
            <polyline id="Fill-30" fill="#000000" points="370.158 75.742 375.495 75.742 375.495 77.061 371.727 77.061 371.727 78.59 375.185 78.59 375.185 79.81 371.727 79.81 371.727 81.559 375.575 81.559 375.575 82.878 370.158 82.878 370.158 75.742"></polyline>
            <polygon id="Fill-33" fill="#000000" points="709.64 96.305 767.183 96.305 767.183 62.424 709.64 62.424"></polygon>
            <polygon id="Fill-34" fill="#666666" points="81.118 96.314 157.441 96.314 157.441 62.109 81.118 62.109"></polygon>
            <path d="M108.718,76.004 L110.117,76.004 C111.026,76.004 111.896,75.444 111.896,73.865 C111.896,72.426 111.396,71.506 109.837,71.506 L108.718,71.506 L108.718,76.004 L108.718,76.004 Z M107.148,70.187 L110.227,70.187 C112.076,70.187 113.465,71.347 113.465,73.715 C113.465,75.784 112.406,77.323 110.227,77.323 L107.148,77.323 L107.148,70.187 L107.148,70.187 Z" id="Fill-35" fill="#FFFFFF"></path>
            <path d="M116.088,74.565 L117.937,74.565 L117.037,71.946 L117.017,71.946 L116.088,74.565 L116.088,74.565 Z M116.238,70.187 L117.847,70.187 L120.515,77.323 L118.886,77.323 L118.347,75.734 L115.678,75.734 L115.118,77.323 L113.529,77.323 L116.238,70.187 L116.238,70.187 Z" id="Fill-36" fill="#FFFFFF"></path>
            <polyline id="Fill-37" fill="#FFFFFF" points="122.001 71.506 119.862 71.506 119.862 70.187 125.709 70.187 125.709 71.506 123.57 71.506 123.57 77.323 122.001 77.323 122.001 71.506"></polyline>
            <path d="M127.601,74.565 L129.45,74.565 L128.55,71.946 L128.53,71.946 L127.601,74.565 L127.601,74.565 Z M127.751,70.187 L129.36,70.187 L132.028,77.323 L130.399,77.323 L129.86,75.734 L127.191,75.734 L126.631,77.323 L125.042,77.323 L127.751,70.187 L127.751,70.187 Z" id="Fill-38" fill="#FFFFFF"></path>
            <path d="M94.89,87.012 L96.289,87.012 C97.198,87.012 98.068,86.452 98.068,84.873 C98.068,83.434 97.568,82.514 96.009,82.514 L94.89,82.514 L94.89,87.012 L94.89,87.012 Z M93.32,81.195 L96.399,81.195 C98.248,81.195 99.637,82.354 99.637,84.723 C99.637,86.792 98.578,88.331 96.399,88.331 L93.32,88.331 L93.32,81.195 L93.32,81.195 Z" id="Fill-39" fill="#FFFFFF"></path>
            <polyline id="Fill-40" fill="#FFFFFF" points="100.73 81.195 106.068 81.195 106.068 82.514 102.3 82.514 102.3 84.043 105.758 84.043 105.758 85.263 102.3 85.263 102.3 87.012 106.147 87.012 106.147 88.331 100.73 88.331 100.73 81.195"></polyline>
            <polyline id="Fill-41" fill="#FFFFFF" points="107.21 81.195 112.228 81.195 112.228 82.514 108.78 82.514 108.78 84.164 111.768 84.164 111.768 85.383 108.78 85.383 108.78 88.331 107.21 88.331 107.21 81.195"></polyline>
            <polygon id="Fill-42" fill="#FFFFFF" points="113.14 88.331 114.709 88.331 114.709 81.195 113.14 81.195"></polygon>
            <path d="M120.847,83.594 C120.748,82.885 120.068,82.344 119.288,82.344 C117.879,82.344 117.349,83.543 117.349,84.793 C117.349,85.982 117.879,87.182 119.288,87.182 C120.248,87.182 120.788,86.521 120.907,85.582 L122.427,85.582 C122.267,87.361 121.037,88.501 119.288,88.501 C117.08,88.501 115.78,86.852 115.78,84.793 C115.78,82.674 117.08,81.025 119.288,81.025 C120.857,81.025 122.177,81.944 122.367,83.594 L120.847,83.594" id="Fill-43" fill="#FFFFFF"></path>
            <polygon id="Fill-44" fill="#FFFFFF" points="123.5 88.331 125.069 88.331 125.069 81.195 123.5 81.195"></polygon>
            <polyline id="Fill-45" fill="#FFFFFF" points="126.45 81.195 131.788 81.195 131.788 82.514 128.02 82.514 128.02 84.043 131.478 84.043 131.478 85.263 128.02 85.263 128.02 87.012 131.867 87.012 131.867 88.331 126.45 88.331 126.45 81.195"></polyline>
            <polyline id="Fill-46" fill="#FFFFFF" points="132.93 81.195 134.489 81.195 137.468 85.982 137.488 85.982 137.488 81.195 138.957 81.195 138.957 88.331 137.388 88.331 134.419 83.554 134.399 83.554 134.399 88.331 132.93 88.331 132.93 81.195"></polyline>
            <polyline id="Fill-47" fill="#FFFFFF" points="141.919 82.514 139.78 82.514 139.78 81.195 145.627 81.195 145.627 82.514 143.488 82.514 143.488 88.331 141.919 88.331 141.919 82.514"></polyline>
            <polygon id="Fill-50" fill="#666666" points="0 96.314 77.599 96.314 77.599 62.109 0 62.109"></polygon>
            <polyline id="Fill-51" fill="#FFFFFF" points="28.906 70.187 30.465 70.187 33.444 74.975 33.464 74.975 33.464 70.187 34.933 70.187 34.933 77.323 33.364 77.323 30.396 72.546 30.375 72.546 30.375 77.323 28.906 77.323 28.906 70.187"></polyline>
            <path d="M39.515,76.174 C40.924,76.174 41.454,74.975 41.454,73.785 C41.454,72.536 40.924,71.337 39.515,71.337 C38.105,71.337 37.576,72.536 37.576,73.785 C37.576,74.975 38.105,76.174 39.515,76.174 L39.515,76.174 Z M39.515,70.017 C41.724,70.017 43.023,71.666 43.023,73.785 C43.023,75.844 41.724,77.493 39.515,77.493 C37.306,77.493 36.007,75.844 36.007,73.785 C36.007,71.666 37.306,70.017 39.515,70.017 L39.515,70.017 Z" id="Fill-52" fill="#FFFFFF"></path>
            <polyline id="Fill-53" fill="#FFFFFF" points="45.524 71.506 43.386 71.506 43.386 70.187 49.232 70.187 49.232 71.506 47.094 71.506 47.094 77.323 45.524 77.323 45.524 71.506"></polyline>
            <polyline id="Fill-54" fill="#FFFFFF" points="10.234 81.195 15.572 81.195 15.572 82.514 11.804 82.514 11.804 84.043 15.262 84.043 15.262 85.263 11.804 85.263 11.804 87.012 15.651 87.012 15.651 88.331 10.234 88.331 10.234 81.195"></polyline>
            <polyline id="Fill-55" fill="#FFFFFF" points="20.203 88.331 18.434 88.331 16.115 81.195 17.734 81.195 19.323 86.213 19.343 86.213 20.952 81.195 22.571 81.195 20.203 88.331"></polyline>
            <path d="M24.549,85.572 L26.398,85.572 L25.499,82.954 L25.478,82.954 L24.549,85.572 L24.549,85.572 Z M24.699,81.195 L26.308,81.195 L28.977,88.331 L27.348,88.331 L26.808,86.742 L24.14,86.742 L23.58,88.331 L21.991,88.331 L24.699,81.195 L24.699,81.195 Z" id="Fill-56" fill="#FFFFFF"></path>
            <polyline id="Fill-57" fill="#FFFFFF" points="29.84 81.195 31.409 81.195 31.409 87.012 34.887 87.012 34.887 88.331 29.84 88.331 29.84 81.195"></polyline>
            <path d="M41.471,85.633 C41.471,87.562 40.331,88.501 38.422,88.501 C36.503,88.501 35.384,87.571 35.384,85.633 L35.384,81.195 L36.954,81.195 L36.954,85.633 C36.954,86.412 37.153,87.182 38.422,87.182 C39.542,87.182 39.902,86.691 39.902,85.633 L39.902,81.195 L41.471,81.195 L41.471,85.633" id="Fill-58" fill="#FFFFFF"></path>
            <path d="M44.373,85.572 L46.222,85.572 L45.323,82.954 L45.303,82.954 L44.373,85.572 L44.373,85.572 Z M44.523,81.195 L46.132,81.195 L48.801,88.331 L47.172,88.331 L46.632,86.742 L43.964,86.742 L43.404,88.331 L41.815,88.331 L44.523,81.195 L44.523,81.195 Z" id="Fill-59" fill="#FFFFFF"></path>
            <polyline id="Fill-60" fill="#FFFFFF" points="50.282 82.514 48.144 82.514 48.144 81.195 53.99 81.195 53.99 82.514 51.852 82.514 51.852 88.331 50.282 88.331 50.282 82.514"></polyline>
            <polyline id="Fill-61" fill="#FFFFFF" points="54.763 81.195 60.101 81.195 60.101 82.514 56.332 82.514 56.332 84.043 59.79 84.043 59.79 85.263 56.332 85.263 56.332 87.012 60.18 87.012 60.18 88.331 54.763 88.331 54.763 81.195"></polyline>
            <path d="M62.89,87.012 L64.289,87.012 C65.198,87.012 66.068,86.452 66.068,84.873 C66.068,83.434 65.568,82.514 64.009,82.514 L62.89,82.514 L62.89,87.012 L62.89,87.012 Z M61.32,81.195 L64.399,81.195 C66.248,81.195 67.637,82.354 67.637,84.723 C67.637,86.792 66.578,88.331 64.399,88.331 L61.32,88.331 L61.32,81.195 L61.32,81.195 Z" id="Fill-62" fill="#FFFFFF"></path>
            <polyline id="Fill-65" fill="#FFFFFF" points="718.203 75.703 723.54 75.703 723.54 77.022 719.772 77.022 719.772 78.551 723.23 78.551 723.23 79.77 719.772 79.77 719.772 81.52 723.62 81.52 723.62 82.839 718.203 82.839 718.203 75.703"></polyline>
            <polyline id="Fill-66" fill="#FFFFFF" points="726.632 79.101 724.333 75.703 726.152 75.703 727.552 77.981 729.001 75.703 730.72 75.703 728.431 79.111 730.92 82.839 729.051 82.839 727.491 80.37 725.902 82.839 724.134 82.839 726.632 79.101"></polyline>
            <polyline id="Fill-67" fill="#FFFFFF" points="733.142 77.022 731.003 77.022 731.003 75.703 736.85 75.703 736.85 77.022 734.711 77.022 734.711 82.839 733.142 82.839 733.142 77.022"></polyline>
            <polygon id="Fill-68" fill="#FFFFFF" points="737.643 82.839 739.212 82.839 739.212 75.703 737.643 75.703"></polygon>
            <polyline id="Fill-69" fill="#FFFFFF" points="740.563 75.703 742.122 75.703 745.101 80.49 745.12 80.49 745.12 75.703 746.59 75.703 746.59 82.839 745.021 82.839 742.052 78.062 742.032 78.062 742.032 82.839 740.563 82.839 740.563 75.703"></polyline>
            <path d="M752.7,78.102 C752.6,77.392 751.92,76.852 751.141,76.852 C749.731,76.852 749.202,78.051 749.202,79.301 C749.202,80.49 749.731,81.689 751.141,81.689 C752.101,81.689 752.64,81.029 752.76,80.09 L754.279,80.09 C754.119,81.869 752.89,83.009 751.141,83.009 C748.932,83.009 747.633,81.359 747.633,79.301 C747.633,77.182 748.932,75.533 751.141,75.533 C752.71,75.533 754.029,76.452 754.219,78.102 L752.7,78.102" id="Fill-70" fill="#FFFFFF"></path>
            <polyline id="Fill-71" fill="#FFFFFF" points="756.931 77.022 754.792 77.022 754.792 75.703 760.639 75.703 760.639 77.022 758.5 77.022 758.5 82.839 756.931 82.839 756.931 77.022"></polyline>
            <polyline id="Fill-74" fill="#000000" points="173.43 70.187 174.999 70.187 174.999 76.004 178.477 76.004 178.477 77.323 173.43 77.323 173.43 70.187"></polyline>
            <polyline id="Fill-75" fill="#000000" points="179.229 70.187 184.567 70.187 184.567 71.506 180.799 71.506 180.799 73.036 184.257 73.036 184.257 74.255 180.799 74.255 180.799 76.004 184.646 76.004 184.646 77.323 179.229 77.323 179.229 70.187"></polyline>
            <path d="M187.26,74.565 L189.109,74.565 L188.209,71.946 L188.189,71.946 L187.26,74.565 L187.26,74.565 Z M187.41,70.187 L189.019,70.187 L191.688,77.323 L190.059,77.323 L189.519,75.734 L186.851,75.734 L186.291,77.323 L184.702,77.323 L187.41,70.187 L187.41,70.187 Z" id="Fill-76" fill="#000000"></path>
            <path d="M193.301,74.955 C193.301,75.904 194.04,76.274 194.88,76.274 C195.429,76.274 196.269,76.114 196.269,75.384 C196.269,74.615 195.2,74.485 194.15,74.205 C193.091,73.925 192.021,73.515 192.021,72.176 C192.021,70.717 193.4,70.017 194.69,70.017 C196.179,70.017 197.548,70.667 197.548,72.316 L196.029,72.316 C195.979,71.457 195.37,71.237 194.62,71.237 C194.12,71.237 193.541,71.446 193.541,72.046 C193.541,72.596 193.88,72.666 195.669,73.125 C196.189,73.255 197.788,73.585 197.788,75.205 C197.788,76.514 196.759,77.493 194.82,77.493 C193.241,77.493 191.761,76.713 191.781,74.955 L193.301,74.955" id="Fill-77" fill="#000000"></path>
            <polyline id="Fill-78" fill="#000000" points="200.056 71.506 197.917 71.506 197.917 70.187 203.764 70.187 203.764 71.506 201.625 71.506 201.625 77.323 200.056 77.323 200.056 71.506"></polyline>
            <path d="M168.445,83.594 C168.345,82.885 167.666,82.344 166.886,82.344 C165.477,82.344 164.947,83.543 164.947,84.793 C164.947,85.982 165.477,87.182 166.886,87.182 C167.845,87.182 168.385,86.521 168.505,85.582 L170.024,85.582 C169.864,87.361 168.635,88.501 166.886,88.501 C164.677,88.501 163.378,86.852 163.378,84.793 C163.378,82.674 164.677,81.025 166.886,81.025 C168.455,81.025 169.774,81.944 169.964,83.594 L168.445,83.594" id="Fill-79" fill="#000000"></path>
            <path d="M174.206,87.182 C175.615,87.182 176.145,85.982 176.145,84.793 C176.145,83.543 175.615,82.344 174.206,82.344 C172.796,82.344 172.267,83.543 172.267,84.793 C172.267,85.982 172.796,87.182 174.206,87.182 L174.206,87.182 Z M174.206,81.025 C176.415,81.025 177.714,82.674 177.714,84.793 C177.714,86.852 176.415,88.501 174.206,88.501 C171.997,88.501 170.698,86.852 170.698,84.793 C170.698,82.674 171.997,81.025 174.206,81.025 L174.206,81.025 Z" id="Fill-80" fill="#000000"></path>
            <polyline id="Fill-81" fill="#000000" points="178.539 81.195 180.098 81.195 183.077 85.982 183.097 85.982 183.097 81.195 184.566 81.195 184.566 88.331 182.997 88.331 180.028 83.554 180.008 83.554 180.008 88.331 178.539 88.331 178.539 81.195"></polyline>
            <path d="M190.696,83.594 C190.597,82.885 189.917,82.344 189.137,82.344 C187.728,82.344 187.198,83.543 187.198,84.793 C187.198,85.982 187.728,87.182 189.137,87.182 C190.097,87.182 190.637,86.521 190.756,85.582 L192.276,85.582 C192.116,87.361 190.886,88.501 189.137,88.501 C186.929,88.501 185.629,86.852 185.629,84.793 C185.629,82.674 186.929,81.025 189.137,81.025 C190.707,81.025 192.026,81.944 192.216,83.594 L190.696,83.594" id="Fill-82" fill="#000000"></path>
            <polyline id="Fill-83" fill="#000000" points="193.339 81.195 198.676 81.195 198.676 82.514 194.908 82.514 194.908 84.043 198.366 84.043 198.366 85.263 194.908 85.263 194.908 87.012 198.756 87.012 198.756 88.331 193.339 88.331 193.339 81.195"></polyline>
            <path d="M201.378,84.424 L203.098,84.424 C203.797,84.424 204.177,84.123 204.177,83.404 C204.177,82.715 203.797,82.414 203.098,82.414 L201.378,82.414 L201.378,84.424 L201.378,84.424 Z M199.809,81.195 L203.657,81.195 C204.937,81.195 205.746,82.084 205.746,83.164 C205.746,84.004 205.406,84.633 204.617,84.953 L204.617,84.973 C205.386,85.173 205.606,85.922 205.656,86.643 C205.686,87.092 205.676,87.932 205.956,88.331 L204.387,88.331 C204.197,87.881 204.217,87.191 204.137,86.622 C204.027,85.873 203.737,85.543 202.948,85.543 L201.378,85.543 L201.378,88.331 L199.809,88.331 L199.809,81.195 L199.809,81.195 Z" id="Fill-84" fill="#000000"></path>
            <polyline id="Fill-85" fill="#000000" points="206.93 81.195 208.489 81.195 211.467 85.982 211.487 85.982 211.487 81.195 212.957 81.195 212.957 88.331 211.387 88.331 208.419 83.554 208.399 83.554 208.399 88.331 206.93 88.331 206.93 81.195"></polyline>
            <polyline id="Fill-88" fill="#000000" points="248.508 70.187 250.067 70.187 253.045 74.975 253.065 74.975 253.065 70.187 254.535 70.187 254.535 77.323 252.965 77.323 249.997 72.546 249.977 72.546 249.977 77.323 248.508 77.323 248.508 70.187"></polyline>
            <polyline id="Fill-89" fill="#000000" points="255.948 70.187 261.285 70.187 261.285 71.506 257.517 71.506 257.517 73.036 260.975 73.036 260.975 74.255 257.517 74.255 257.517 76.004 261.365 76.004 261.365 77.323 255.948 77.323 255.948 70.187"></polyline>
            <path d="M264.229,74.565 L266.078,74.565 L265.178,71.946 L265.158,71.946 L264.229,74.565 L264.229,74.565 Z M264.379,70.187 L265.988,70.187 L268.656,77.323 L267.027,77.323 L266.488,75.734 L263.819,75.734 L263.259,77.323 L261.67,77.323 L264.379,70.187 L264.379,70.187 Z" id="Fill-90" fill="#000000"></path>
            <path d="M270.689,73.416 L272.408,73.416 C273.107,73.416 273.487,73.116 273.487,72.396 C273.487,71.707 273.107,71.406 272.408,71.406 L270.689,71.406 L270.689,73.416 L270.689,73.416 Z M269.12,70.187 L272.968,70.187 C274.247,70.187 275.057,71.077 275.057,72.156 C275.057,72.996 274.717,73.625 273.927,73.945 L273.927,73.965 C274.697,74.165 274.917,74.915 274.967,75.634 C274.997,76.084 274.986,76.923 275.267,77.323 L273.697,77.323 C273.507,76.874 273.527,76.184 273.447,75.614 C273.337,74.865 273.048,74.535 272.258,74.535 L270.689,74.535 L270.689,77.323 L269.12,77.323 L269.12,70.187 L269.12,70.187 Z" id="Fill-91" fill="#000000"></path>
            <polyline id="Fill-92" fill="#000000" points="230.431 82.514 228.292 82.514 228.292 81.195 234.139 81.195 234.139 82.514 232 82.514 232 88.331 230.431 88.331 230.431 82.514"></polyline>
            <polyline id="Fill-93" fill="#000000" points="234.912 81.195 236.481 81.195 236.481 83.934 239.369 83.934 239.369 81.195 240.938 81.195 240.938 88.331 239.369 88.331 239.369 85.253 236.481 85.253 236.481 88.331 234.912 88.331 234.912 81.195"></polyline>
            <path d="M243.913,84.424 L245.632,84.424 C246.332,84.424 246.711,84.123 246.711,83.404 C246.711,82.715 246.332,82.414 245.632,82.414 L243.913,82.414 L243.913,84.424 L243.913,84.424 Z M242.344,81.195 L246.192,81.195 C247.471,81.195 248.281,82.084 248.281,83.164 C248.281,84.004 247.941,84.633 247.151,84.953 L247.151,84.973 C247.921,85.173 248.141,85.922 248.191,86.643 C248.221,87.092 248.211,87.932 248.491,88.331 L246.921,88.331 C246.731,87.881 246.751,87.191 246.671,86.622 C246.562,85.873 246.272,85.543 245.482,85.543 L243.913,85.543 L243.913,88.331 L242.344,88.331 L242.344,81.195 L242.344,81.195 Z" id="Fill-94" fill="#000000"></path>
            <polyline id="Fill-95" fill="#000000" points="249.364 81.195 254.701 81.195 254.701 82.514 250.933 82.514 250.933 84.043 254.391 84.043 254.391 85.263 250.933 85.263 250.933 87.012 254.781 87.012 254.781 88.331 249.364 88.331 249.364 81.195"></polyline>
            <path d="M257.659,85.572 L259.507,85.572 L258.608,82.954 L258.588,82.954 L257.659,85.572 L257.659,85.572 Z M257.809,81.195 L259.417,81.195 L262.086,88.331 L260.457,88.331 L259.917,86.742 L257.249,86.742 L256.689,88.331 L255.1,88.331 L257.809,81.195 L257.809,81.195 Z" id="Fill-96" fill="#000000"></path>
            <polyline id="Fill-97" fill="#000000" points="263.568 82.514 261.43 82.514 261.43 81.195 267.276 81.195 267.276 82.514 265.138 82.514 265.138 88.331 263.568 88.331 263.568 82.514"></polyline>
            <polyline id="Fill-98" fill="#000000" points="268.039 81.195 273.376 81.195 273.376 82.514 269.608 82.514 269.608 84.043 273.066 84.043 273.066 85.263 269.608 85.263 269.608 87.012 273.456 87.012 273.456 88.331 268.039 88.331 268.039 81.195"></polyline>
            <polyline id="Fill-99" fill="#000000" points="274.599 81.195 276.158 81.195 279.137 85.982 279.157 85.982 279.157 81.195 280.626 81.195 280.626 88.331 279.057 88.331 276.088 83.554 276.068 83.554 276.068 88.331 274.599 88.331 274.599 81.195"></polyline>
            <polyline id="Fill-100" fill="#000000" points="282.089 81.195 287.426 81.195 287.426 82.514 283.658 82.514 283.658 84.043 287.116 84.043 287.116 85.263 283.658 85.263 283.658 87.012 287.506 87.012 287.506 88.331 282.089 88.331 282.089 81.195"></polyline>
            <path d="M290.218,87.012 L291.618,87.012 C292.527,87.012 293.396,86.452 293.396,84.873 C293.396,83.434 292.897,82.514 291.337,82.514 L290.218,82.514 L290.218,87.012 L290.218,87.012 Z M288.649,81.195 L291.728,81.195 C293.576,81.195 294.966,82.354 294.966,84.723 C294.966,86.792 293.906,88.331 291.728,88.331 L288.649,88.331 L288.649,81.195 L288.649,81.195 Z" id="Fill-101" fill="#000000"></path>
            <path d="M543.918,79.77 L543.918,0.543 L463.344,0.543 L463.344,0.577 C420.217,1.297 385.465,36.461 385.465,79.774 C385.465,123.531 420.938,159 464.688,159 C508.309,159 543.691,123.748 543.91,80.178 L543.918,80.178 L543.918,79.848 C543.918,79.823 543.92,79.799 543.92,79.774 C543.92,79.773 543.918,79.77 543.918,79.77" id="Fill-104" fill="#DA2A1C"></path>
            <path d="M517.161,29.976 L521.054,29.976 C522.4,29.976 523.727,30.585 523.727,32.125 C523.727,32.948 523.331,33.729 522.529,34.039 L522.529,34.061 C523.342,34.253 523.577,35.162 523.642,35.889 C523.662,36.209 523.694,37.333 523.962,37.61 L521.994,37.61 C521.823,37.353 521.791,36.605 521.77,36.392 C521.717,35.622 521.588,34.83 520.658,34.83 L519.15,34.83 L519.15,37.61 L517.161,37.61 L517.161,29.976 L517.161,29.976 Z M519.15,33.291 L520.818,33.291 C521.417,33.291 521.738,32.97 521.738,32.392 C521.738,31.826 521.289,31.569 520.732,31.569 L519.15,31.569 L519.15,33.291 L519.15,33.291 Z" id="Fill-105" fill="#FFFFFF"></path>
            <polyline id="Fill-106" fill="#FFFFFF" points="524.668 29.976 530.752 29.976 530.752 31.569 526.656 31.569 526.656 32.905 530.399 32.905 530.399 34.445 526.656 34.445 526.656 35.899 530.859 35.899 530.859 37.61 524.668 37.61 524.668 29.976"></polyline>
            <path d="M531.779,29.976 L535.062,29.976 C537.404,29.976 538.805,31.398 538.805,33.761 C538.805,36.263 537.383,37.61 535.062,37.61 L531.779,37.61 L531.779,29.976 L531.779,29.976 Z M533.768,35.899 L534.709,35.899 C536.217,35.867 536.815,35.279 536.815,33.75 C536.815,32.36 536.066,31.687 534.709,31.687 L533.768,31.687 L533.768,35.899 L533.768,35.899 Z" id="Fill-107" fill="#FFFFFF"></path>
            <polyline id="Fill-108" fill="#FFFFFF" points="517.161 38.395 519.15 38.395 519.15 44.319 522.711 44.319 522.711 46.029 517.161 46.029 517.161 38.395"></polyline>
            <polygon id="Fill-109" fill="#FFFFFF" points="523.268 46.029 525.256 46.029 525.256 38.395 523.268 38.395"></polygon>
            <path d="M527.758,43.463 C527.801,44.361 528.357,44.65 529.201,44.65 C529.801,44.65 530.421,44.437 530.421,43.87 C530.421,43.196 529.33,43.067 528.229,42.757 C527.138,42.447 525.994,41.956 525.994,40.555 C525.994,38.887 527.673,38.234 529.105,38.234 C530.624,38.234 532.153,38.972 532.164,40.694 L530.175,40.694 C530.207,39.999 529.555,39.774 528.945,39.774 C528.518,39.774 527.982,39.924 527.982,40.426 C527.982,41.015 529.084,41.122 530.196,41.432 C531.298,41.742 532.41,42.255 532.41,43.634 C532.41,45.57 530.763,46.19 529.084,46.19 C527.33,46.19 525.78,45.42 525.77,43.463 L527.758,43.463" id="Fill-110" fill="#FFFFFF"></path>
            <polyline id="Fill-111" fill="#FFFFFF" points="538.697 40.105 536.42 40.105 536.42 46.029 534.431 46.029 534.431 40.105 532.153 40.105 532.153 38.395 538.697 38.395 538.697 40.105"></polyline>
            <path d="M531.922,12.114 C530.389,13.595 530.06,15.739 531.186,16.905 C532.312,18.071 534.468,17.815 536,16.335 C537.532,14.855 537.862,12.71 536.735,11.545 C535.609,10.379 533.453,10.634 531.922,12.114" id="Fill-112" fill="#FFFFFF"></path>
            <path d="M530.695,19.311 C529.164,20.791 528.834,22.936 529.96,24.102 C531.087,25.268 533.241,25.013 534.773,23.532 C536.307,22.052 536.635,19.907 535.509,18.74 C534.384,17.575 532.229,17.831 530.695,19.311" id="Fill-113" fill="#FFFFFF"></path>
            <g id="Group-117" transform="translate(518.000000, 6.000000)" fill="#FFFFFF">
                <path d="M2.167,2.782 C0.635,4.263 0.306,6.407 1.432,7.574 C2.558,8.739 4.713,8.484 6.245,7.004 C7.777,5.523 8.106,3.378 6.98,2.212 C5.855,1.047 3.699,1.301 2.167,2.782" id="Fill-114"></path>
                <path d="M9.421,1.647 C7.889,3.127 7.559,5.271 8.684,6.437 C9.812,7.603 11.967,7.349 13.499,5.868 C15.031,4.388 15.36,2.242 14.233,1.077 C13.108,-0.089 10.953,0.167 9.421,1.647" id="Fill-116"></path>
            </g>
            <path d="M528.81,20.753 C528.81,24.082 526.109,26.782 522.779,26.782 C519.449,26.782 516.75,24.082 516.75,20.753 C516.75,17.423 519.449,14.723 522.779,14.723 C526.109,14.723 528.81,17.423 528.81,20.753" id="Fill-118" fill="#FFFFFF"></path>
            <path d="M514.805,17.142 C514.805,22.454 510.499,26.757 505.189,26.757 C499.879,26.757 495.574,22.454 495.574,17.142 C495.574,11.833 499.879,7.528 505.189,7.528 L514.816,7.528 L514.805,17.142" id="Fill-119" fill="#FFFFFF"></path>
            <path d="M514.91,38.222 C514.91,43.565 510.578,47.896 505.234,47.896 C499.893,47.896 495.561,43.565 495.561,38.222 C495.561,32.878 499.893,28.547 505.234,28.547 C510.578,28.547 514.91,32.878 514.91,38.222" id="Fill-120" fill="#FFFFFF"></path>
            <polygon id="Fill-121" fill="#D61D17" points="500.922 39.241 501.35 39.241 501.35 37.293 500.922 37.293"></polygon>
            <path d="M503.104,39.092 C502.957,39.221 502.753,39.285 502.493,39.285 C502.229,39.285 502.025,39.221 501.881,39.094 C501.736,38.966 501.664,38.77 501.664,38.504 L501.664,37.293 L502.092,37.293 L502.092,38.504 C502.092,38.557 502.097,38.609 502.105,38.66 C502.115,38.711 502.134,38.756 502.163,38.795 C502.192,38.834 502.232,38.866 502.284,38.89 C502.336,38.915 502.406,38.927 502.493,38.927 C502.646,38.927 502.752,38.893 502.81,38.825 C502.868,38.757 502.896,38.65 502.896,38.504 L502.896,37.293 L503.325,37.293 L503.325,38.504 C503.325,38.768 503.252,38.964 503.104,39.092" id="Fill-122" fill="#D61D17"></path>
            <path d="M504.889,37.812 C504.863,37.771 504.832,37.736 504.793,37.705 C504.755,37.674 504.712,37.65 504.664,37.633 C504.615,37.615 504.564,37.606 504.513,37.606 C504.416,37.606 504.334,37.625 504.267,37.663 C504.199,37.7 504.145,37.75 504.104,37.812 C504.062,37.875 504.031,37.947 504.012,38.027 C503.992,38.107 503.982,38.189 503.982,38.275 C503.982,38.357 503.992,38.437 504.012,38.514 C504.031,38.591 504.062,38.661 504.104,38.723 C504.145,38.784 504.199,38.834 504.267,38.871 C504.334,38.908 504.416,38.927 504.513,38.927 C504.644,38.927 504.746,38.887 504.819,38.807 C504.893,38.727 504.938,38.622 504.954,38.491 L505.369,38.491 C505.358,38.612 505.33,38.723 505.284,38.821 C505.239,38.919 505.179,39.003 505.104,39.072 C505.029,39.141 504.942,39.194 504.843,39.23 C504.742,39.266 504.633,39.285 504.513,39.285 C504.363,39.285 504.229,39.259 504.109,39.207 C503.99,39.155 503.891,39.084 503.809,38.993 C503.727,38.902 503.664,38.795 503.62,38.672 C503.576,38.549 503.555,38.417 503.555,38.275 C503.555,38.129 503.576,37.995 503.62,37.87 C503.664,37.745 503.727,37.637 503.809,37.544 C503.891,37.451 503.99,37.378 504.109,37.326 C504.229,37.272 504.363,37.247 504.513,37.247 C504.619,37.247 504.721,37.262 504.816,37.293 C504.912,37.324 504.998,37.369 505.073,37.428 C505.148,37.487 505.211,37.56 505.26,37.647 C505.309,37.735 505.34,37.835 505.353,37.948 L504.938,37.948 C504.931,37.898 504.914,37.854 504.889,37.812" id="Fill-123" fill="#D61D17"></path>
            <polyline id="Fill-124" fill="#D61D17" points="506.032 37.293 506.845 38.6 506.851 38.6 506.851 37.293 507.252 37.293 507.252 39.241 506.823 39.241 506.013 37.937 506.008 37.937 506.008 39.241 505.606 39.241 505.606 37.293 506.032 37.293"></polyline>
            <path d="M505.002,40.306 C504.967,40.345 504.93,40.384 504.893,40.421 C504.328,40.985 503.551,41.333 502.691,41.333 C501.83,41.333 501.053,40.985 500.488,40.421 C499.925,39.857 499.577,39.08 499.576,38.219 C499.577,37.359 499.925,36.582 500.488,36.018 C501.053,35.454 501.83,35.105 502.691,35.105 C503.551,35.105 504.328,35.454 504.893,36.018 C504.958,36.083 505.02,36.15 505.078,36.221 L506.35,36.221 C505.643,34.925 504.268,34.047 502.688,34.046 C500.385,34.047 498.518,35.914 498.518,38.217 C498.518,40.52 500.385,42.387 502.688,42.387 C504.229,42.387 505.576,41.55 506.298,40.306 L505.002,40.306" id="Fill-125" fill="#D61D17"></path>
            <path d="M539.593,31.61 C538.991,31.61 538.563,31.16 538.563,30.563 C538.563,29.934 539.039,29.516 539.593,29.516 C540.142,29.516 540.618,29.934 540.618,30.563 C540.618,31.193 540.142,31.61 539.593,31.61 L539.593,31.61 Z M539.593,29.698 C539.14,29.698 538.787,30.054 538.787,30.563 C538.787,31.04 539.095,31.429 539.593,31.429 C540.041,31.429 540.394,31.076 540.394,30.563 C540.394,30.054 540.041,29.698 539.593,29.698 L539.593,29.698 Z M540.122,30.765 C540.074,31.031 539.873,31.196 539.627,31.196 C539.268,31.196 539.033,30.925 539.033,30.563 C539.033,30.225 539.257,29.964 539.621,29.962 C539.876,29.962 540.083,30.11 540.119,30.384 L539.929,30.384 C539.9,30.241 539.78,30.144 539.621,30.144 C539.386,30.144 539.257,30.331 539.257,30.563 C539.257,30.807 539.399,31.014 539.627,31.014 C539.792,31.014 539.909,30.911 539.929,30.765 L540.122,30.765 L540.122,30.765 Z" id="Fill-126" fill="#FFFFFF"></path>
            <polyline id="Fill-127" fill="#FFFFFF" points="407.236 73.666 416.037 73.666 416.037 75.842 409.824 75.842 409.824 78.363 415.525 78.363 415.525 80.373 409.824 80.373 409.824 83.258 416.169 83.258 416.169 85.433 407.236 85.433 407.236 73.666"></polyline>
            <polyline id="Fill-128" fill="#FFFFFF" points="418.045 73.666 420.616 73.666 425.527 81.561 425.56 81.561 425.56 73.666 427.982 73.666 427.982 85.433 425.396 85.433 420.501 77.556 420.468 77.556 420.468 85.433 418.045 85.433 418.045 73.666"></polyline>
            <path d="M432.902,83.258 L435.209,83.258 C436.709,83.258 438.143,82.334 438.143,79.73 C438.143,77.357 437.318,75.842 434.748,75.842 L432.902,75.842 L432.902,83.258 L432.902,83.258 Z M430.314,73.666 L435.391,73.666 C438.439,73.666 440.729,75.578 440.729,79.483 C440.729,82.895 438.983,85.433 435.391,85.433 L430.314,85.433 L430.314,73.666 L430.314,73.666 Z" id="Fill-129" fill="#FFFFFF"></path>
            <path d="M445.028,80.885 L448.077,80.885 L446.594,76.566 L446.561,76.566 L445.028,80.885 L445.028,80.885 Z M445.275,73.666 L447.929,73.666 L452.328,85.433 L449.643,85.433 L448.753,82.812 L444.353,82.812 L443.43,85.433 L440.81,85.433 L445.275,73.666 L445.275,73.666 Z" id="Fill-130" fill="#FFFFFF"></path>
            <polyline id="Fill-131" fill="#FFFFFF" points="453.439 73.666 456.011 73.666 460.922 81.561 460.954 81.561 460.954 73.666 463.377 73.666 463.377 85.433 460.79 85.433 455.896 77.556 455.862 77.556 455.862 85.433 453.439 85.433 453.439 73.666"></polyline>
            <path d="M474.251,84.098 C473.345,85.268 472.158,85.713 471.021,85.713 C467.379,85.713 465.236,82.994 465.236,79.599 C465.236,76.105 467.379,73.386 471.021,73.386 C473.427,73.386 475.701,74.869 475.981,77.539 L473.51,77.539 C473.213,76.237 472.24,75.562 471.021,75.562 C468.697,75.562 467.824,77.539 467.824,79.599 C467.824,81.561 468.697,83.537 471.021,83.537 C472.702,83.537 473.674,82.631 473.822,81 L471.219,81 L471.219,79.071 L476.162,79.071 L476.162,85.433 L474.515,85.433 L474.251,84.098" id="Fill-132" fill="#FFFFFF"></path>
            <polyline id="Fill-133" fill="#FFFFFF" points="478.351 73.666 487.151 73.666 487.151 75.842 480.938 75.842 480.938 78.363 486.641 78.363 486.641 80.373 480.938 80.373 480.938 83.258 487.283 83.258 487.283 85.433 478.351 85.433 478.351 73.666"></polyline>
            <path d="M491.714,78.989 L494.548,78.989 C495.701,78.989 496.328,78.495 496.328,77.308 C496.328,76.171 495.701,75.677 494.548,75.677 L491.714,75.677 L491.714,78.989 L491.714,78.989 Z M489.126,73.666 L495.471,73.666 C497.58,73.666 498.915,75.133 498.915,76.913 C498.915,78.297 498.354,79.335 497.053,79.862 L497.053,79.895 C498.322,80.225 498.685,81.461 498.767,82.647 C498.816,83.389 498.8,84.773 499.262,85.433 L496.674,85.433 C496.361,84.691 496.394,83.554 496.262,82.615 C496.081,81.379 495.603,80.835 494.301,80.835 L491.714,80.835 L491.714,85.433 L489.126,85.433 L489.126,73.666 L489.126,73.666 Z" id="Fill-134" fill="#FFFFFF"></path>
            <polyline id="Fill-135" fill="#FFFFFF" points="501.12 73.666 509.921 73.666 509.921 75.842 503.708 75.842 503.708 78.363 509.41 78.363 509.41 80.373 503.708 80.373 503.708 83.258 510.053 83.258 510.053 85.433 501.12 85.433 501.12 73.666"></polyline>
            <path d="M514.483,83.258 L516.79,83.258 C518.29,83.258 519.724,82.334 519.724,79.73 C519.724,77.357 518.899,75.842 516.329,75.842 L514.483,75.842 L514.483,83.258 L514.483,83.258 Z M511.896,73.666 L516.972,73.666 C520.021,73.666 522.311,75.578 522.311,79.483 C522.311,82.895 520.564,85.433 516.972,85.433 L511.896,85.433 L511.896,73.666 L511.896,73.666 Z" id="Fill-136" fill="#FFFFFF"></path>
            <path d="M567.023,72.586 C566.923,71.877 566.243,71.337 565.464,71.337 C564.055,71.337 563.525,72.536 563.525,73.785 C563.525,74.975 564.055,76.174 565.464,76.174 C566.424,76.174 566.963,75.514 567.083,74.575 L568.603,74.575 C568.442,76.354 567.213,77.493 565.464,77.493 C563.255,77.493 561.956,75.844 561.956,73.785 C561.956,71.666 563.255,70.017 565.464,70.017 C567.033,70.017 568.353,70.937 568.542,72.586 L567.023,72.586" id="Fill-139" fill="#000000"></path>
            <path d="M571.215,73.416 L572.934,73.416 C573.634,73.416 574.014,73.116 574.014,72.396 C574.014,71.707 573.634,71.406 572.934,71.406 L571.215,71.406 L571.215,73.416 L571.215,73.416 Z M569.646,70.187 L573.493,70.187 C574.772,70.187 575.582,71.077 575.582,72.156 C575.582,72.996 575.242,73.625 574.453,73.945 L574.453,73.965 C575.223,74.165 575.442,74.915 575.492,75.634 C575.522,76.084 575.513,76.923 575.792,77.323 L574.224,77.323 C574.033,76.874 574.054,76.184 573.974,75.614 C573.863,74.865 573.573,74.535 572.784,74.535 L571.215,74.535 L571.215,77.323 L569.646,77.323 L569.646,70.187 L569.646,70.187 Z" id="Fill-140" fill="#000000"></path>
            <polygon id="Fill-141" fill="#000000" points="576.835 77.323 578.404 77.323 578.404 70.187 576.835 70.187"></polygon>
            <polyline id="Fill-142" fill="#000000" points="581.335 71.506 579.196 71.506 579.196 70.187 585.043 70.187 585.043 71.506 582.904 71.506 582.904 77.323 581.335 77.323 581.335 71.506"></polyline>
            <polygon id="Fill-143" fill="#000000" points="585.835 77.323 587.404 77.323 587.404 70.187 585.835 70.187"></polygon>
            <path d="M593.513,72.586 C593.412,71.877 592.732,71.337 591.953,71.337 C590.544,71.337 590.015,72.536 590.015,73.785 C590.015,74.975 590.544,76.174 591.953,76.174 C592.913,76.174 593.452,75.514 593.572,74.575 L595.092,74.575 C594.932,76.354 593.702,77.493 591.953,77.493 C589.744,77.493 588.445,75.844 588.445,73.785 C588.445,71.666 589.744,70.017 591.953,70.017 C593.522,70.017 594.842,70.937 595.031,72.586 L593.513,72.586" id="Fill-144" fill="#000000"></path>
            <path d="M597.791,74.565 L599.641,74.565 L598.741,71.946 L598.721,71.946 L597.791,74.565 L597.791,74.565 Z M597.941,70.187 L599.551,70.187 L602.219,77.323 L600.59,77.323 L600.05,75.734 L597.382,75.734 L596.822,77.323 L595.232,77.323 L597.941,70.187 L597.941,70.187 Z" id="Fill-145" fill="#000000"></path>
            <polyline id="Fill-146" fill="#000000" points="602.882 70.187 604.451 70.187 604.451 76.004 607.93 76.004 607.93 77.323 602.882 77.323 602.882 70.187"></polyline>
            <polyline id="Fill-147" fill="#000000" points="608.727 70.187 610.296 70.187 610.296 76.004 613.774 76.004 613.774 77.323 608.727 77.323 608.727 70.187"></polyline>
            <polyline id="Fill-148" fill="#000000" points="615.526 74.545 612.897 70.187 614.666 70.187 616.336 73.006 617.994 70.187 619.743 70.187 617.095 74.585 617.095 77.323 615.526 77.323 615.526 74.545"></polyline>
            <polyline id="Fill-149" fill="#000000" points="555.898 81.195 561.235 81.195 561.235 82.514 557.468 82.514 557.468 84.043 560.926 84.043 560.926 85.263 557.468 85.263 557.468 87.012 561.315 87.012 561.315 88.331 555.898 88.331 555.898 81.195"></polyline>
            <polyline id="Fill-150" fill="#000000" points="562.458 81.195 564.018 81.195 566.996 85.982 567.016 85.982 567.016 81.195 568.484 81.195 568.484 88.331 566.916 88.331 563.947 83.554 563.928 83.554 563.928 88.331 562.458 88.331 562.458 81.195"></polyline>
            <path d="M571.468,87.012 L572.867,87.012 C573.776,87.012 574.646,86.452 574.646,84.873 C574.646,83.434 574.146,82.514 572.587,82.514 L571.468,82.514 L571.468,87.012 L571.468,87.012 Z M569.898,81.195 L572.977,81.195 C574.826,81.195 576.215,82.354 576.215,84.723 C576.215,86.792 575.155,88.331 572.977,88.331 L569.898,88.331 L569.898,81.195 L569.898,81.195 Z" id="Fill-151" fill="#000000"></path>
            <path d="M578.837,85.572 L580.687,85.572 L579.787,82.954 L579.767,82.954 L578.837,85.572 L578.837,85.572 Z M578.987,81.195 L580.597,81.195 L583.265,88.331 L581.636,88.331 L581.096,86.742 L578.428,86.742 L577.868,88.331 L576.278,88.331 L578.987,81.195 L578.987,81.195 Z" id="Fill-152" fill="#000000"></path>
            <polyline id="Fill-153" fill="#000000" points="583.93 81.195 585.489 81.195 588.468 85.982 588.487 85.982 588.487 81.195 589.957 81.195 589.957 88.331 588.388 88.331 585.419 83.554 585.399 83.554 585.399 88.331 583.93 88.331 583.93 81.195"></polyline>
            <path d="M596.547,87.521 C595.997,88.23 595.277,88.501 594.588,88.501 C592.379,88.501 591.08,86.852 591.08,84.793 C591.08,82.674 592.379,81.025 594.588,81.025 C596.047,81.025 597.427,81.925 597.597,83.543 L596.098,83.543 C595.917,82.754 595.328,82.344 594.588,82.344 C593.179,82.344 592.649,83.543 592.649,84.793 C592.649,85.982 593.179,87.182 594.588,87.182 C595.607,87.182 596.197,86.632 596.287,85.643 L594.708,85.643 L594.708,84.473 L597.706,84.473 L597.706,88.331 L596.707,88.331 L596.547,87.521" id="Fill-154" fill="#000000"></path>
            <polyline id="Fill-155" fill="#000000" points="599.029 81.195 604.366 81.195 604.366 82.514 600.599 82.514 600.599 84.043 604.057 84.043 604.057 85.263 600.599 85.263 600.599 87.012 604.446 87.012 604.446 88.331 599.029 88.331 599.029 81.195"></polyline>
            <path d="M607.129,84.424 L608.848,84.424 C609.548,84.424 609.928,84.123 609.928,83.404 C609.928,82.715 609.548,82.414 608.848,82.414 L607.129,82.414 L607.129,84.424 L607.129,84.424 Z M605.56,81.195 L609.407,81.195 C610.687,81.195 611.496,82.084 611.496,83.164 C611.496,84.004 611.156,84.633 610.367,84.953 L610.367,84.973 C611.137,85.173 611.356,85.922 611.406,86.643 C611.437,87.092 611.427,87.932 611.706,88.331 L610.138,88.331 C609.947,87.881 609.968,87.191 609.888,86.622 C609.777,85.873 609.487,85.543 608.698,85.543 L607.129,85.543 L607.129,88.331 L605.56,88.331 L605.56,81.195 L605.56,81.195 Z" id="Fill-156" fill="#000000"></path>
            <polyline id="Fill-157" fill="#000000" points="612.829 81.195 618.166 81.195 618.166 82.514 614.398 82.514 614.398 84.043 617.856 84.043 617.856 85.263 614.398 85.263 614.398 87.012 618.246 87.012 618.246 88.331 612.829 88.331 612.829 81.195"></polyline>
            <path d="M620.929,87.012 L622.328,87.012 C623.237,87.012 624.107,86.452 624.107,84.873 C624.107,83.434 623.607,82.514 622.048,82.514 L620.929,82.514 L620.929,87.012 L620.929,87.012 Z M619.359,81.195 L622.438,81.195 C624.287,81.195 625.676,82.354 625.676,84.723 C625.676,86.792 624.616,88.331 622.438,88.331 L619.359,88.331 L619.359,81.195 L619.359,81.195 Z" id="Fill-158" fill="#000000"></path>
        </g>
    </g>
</svg>