<?xml version="1.0" encoding="UTF-8"?>
<svg width="768px" height="159px" viewBox="0 0 768 159" version="1.1" xmlns="http://www.w3.org/2000/svg" xmlns:xlink="http://www.w3.org/1999/xlink">
    <!-- Generator: Sketch 40.3 (33839) - http://www.bohemiancoding.com/sketch -->
    <title>category-scale_ew</title>
    <desc>Created with Sketch.</desc>
    <defs></defs>
    <g id="Page-1" stroke="none" stroke-width="1" fill="none" fill-rule="evenodd">
        <g id="category-scale_ew">
            <path d="M163.276,95.857 L767.183,95.857 M163.275,62.635 L767.183,62.635" id="Stroke-1" stroke="#000000"></path>
            <polygon id="Fill-3" fill="#000000" points="709.64 96.305 767.183 96.305 767.183 62.424 709.64 62.424"></polygon>
            <polygon id="Fill-4" fill="#666666" points="81.118 96.314 157.441 96.314 157.441 62.109 81.118 62.109"></polygon>
            <path d="M108.718,76.004 L110.117,76.004 C111.026,76.004 111.896,75.444 111.896,73.865 C111.896,72.426 111.396,71.506 109.837,71.506 L108.718,71.506 L108.718,76.004 L108.718,76.004 Z M107.148,70.187 L110.227,70.187 C112.076,70.187 113.465,71.347 113.465,73.715 C113.465,75.784 112.406,77.323 110.227,77.323 L107.148,77.323 L107.148,70.187 L107.148,70.187 Z" id="Fill-5" fill="#FFFFFF"></path>
            <path d="M116.088,74.565 L117.937,74.565 L117.037,71.946 L117.017,71.946 L116.088,74.565 L116.088,74.565 Z M116.238,70.187 L117.847,70.187 L120.515,77.323 L118.886,77.323 L118.347,75.734 L115.678,75.734 L115.118,77.323 L113.529,77.323 L116.238,70.187 L116.238,70.187 Z" id="Fill-6" fill="#FFFFFF"></path>
            <polyline id="Fill-7" fill="#FFFFFF" points="122.001 71.506 119.862 71.506 119.862 70.187 125.709 70.187 125.709 71.506 123.57 71.506 123.57 77.323 122.001 77.323 122.001 71.506"></polyline>
            <path d="M127.601,74.565 L129.45,74.565 L128.55,71.946 L128.53,71.946 L127.601,74.565 L127.601,74.565 Z M127.751,70.187 L129.36,70.187 L132.028,77.323 L130.399,77.323 L129.86,75.734 L127.191,75.734 L126.631,77.323 L125.042,77.323 L127.751,70.187 L127.751,70.187 Z" id="Fill-8" fill="#FFFFFF"></path>
            <path d="M94.89,87.012 L96.289,87.012 C97.198,87.012 98.068,86.452 98.068,84.873 C98.068,83.434 97.568,82.514 96.009,82.514 L94.89,82.514 L94.89,87.012 L94.89,87.012 Z M93.32,81.195 L96.399,81.195 C98.248,81.195 99.637,82.354 99.637,84.723 C99.637,86.792 98.578,88.331 96.399,88.331 L93.32,88.331 L93.32,81.195 L93.32,81.195 Z" id="Fill-9" fill="#FFFFFF"></path>
            <polyline id="Fill-10" fill="#FFFFFF" points="100.73 81.195 106.068 81.195 106.068 82.514 102.3 82.514 102.3 84.043 105.758 84.043 105.758 85.263 102.3 85.263 102.3 87.012 106.147 87.012 106.147 88.331 100.73 88.331 100.73 81.195"></polyline>
            <polyline id="Fill-11" fill="#FFFFFF" points="107.21 81.195 112.228 81.195 112.228 82.514 108.78 82.514 108.78 84.164 111.768 84.164 111.768 85.383 108.78 85.383 108.78 88.331 107.21 88.331 107.21 81.195"></polyline>
            <polygon id="Fill-12" fill="#FFFFFF" points="113.14 88.331 114.709 88.331 114.709 81.195 113.14 81.195"></polygon>
            <path d="M120.847,83.594 C120.748,82.885 120.068,82.344 119.288,82.344 C117.879,82.344 117.349,83.543 117.349,84.793 C117.349,85.982 117.879,87.182 119.288,87.182 C120.248,87.182 120.788,86.521 120.907,85.582 L122.427,85.582 C122.267,87.361 121.037,88.501 119.288,88.501 C117.08,88.501 115.78,86.852 115.78,84.793 C115.78,82.674 117.08,81.025 119.288,81.025 C120.857,81.025 122.177,81.944 122.367,83.594 L120.847,83.594" id="Fill-13" fill="#FFFFFF"></path>
            <polygon id="Fill-14" fill="#FFFFFF" points="123.5 88.331 125.069 88.331 125.069 81.195 123.5 81.195"></polygon>
            <polyline id="Fill-15" fill="#FFFFFF" points="126.45 81.195 131.788 81.195 131.788 82.514 128.02 82.514 128.02 84.043 131.478 84.043 131.478 85.263 128.02 85.263 128.02 87.012 131.867 87.012 131.867 88.331 126.45 88.331 126.45 81.195"></polyline>
            <polyline id="Fill-16" fill="#FFFFFF" points="132.93 81.195 134.489 81.195 137.468 85.982 137.488 85.982 137.488 81.195 138.957 81.195 138.957 88.331 137.388 88.331 134.419 83.554 134.399 83.554 134.399 88.331 132.93 88.331 132.93 81.195"></polyline>
            <polyline id="Fill-17" fill="#FFFFFF" points="141.919 82.514 139.78 82.514 139.78 81.195 145.627 81.195 145.627 82.514 143.488 82.514 143.488 88.331 141.919 88.331 141.919 82.514"></polyline>
            <polygon id="Fill-20" fill="#666666" points="0 96.314 77.599 96.314 77.599 62.109 0 62.109"></polygon>
            <polyline id="Fill-21" fill="#FFFFFF" points="28.906 70.187 30.465 70.187 33.444 74.975 33.464 74.975 33.464 70.187 34.933 70.187 34.933 77.323 33.364 77.323 30.396 72.546 30.375 72.546 30.375 77.323 28.906 77.323 28.906 70.187"></polyline>
            <path d="M39.515,76.174 C40.924,76.174 41.454,74.975 41.454,73.785 C41.454,72.536 40.924,71.337 39.515,71.337 C38.105,71.337 37.576,72.536 37.576,73.785 C37.576,74.975 38.105,76.174 39.515,76.174 L39.515,76.174 Z M39.515,70.017 C41.724,70.017 43.023,71.666 43.023,73.785 C43.023,75.844 41.724,77.493 39.515,77.493 C37.306,77.493 36.007,75.844 36.007,73.785 C36.007,71.666 37.306,70.017 39.515,70.017 L39.515,70.017 Z" id="Fill-22" fill="#FFFFFF"></path>
            <polyline id="Fill-23" fill="#FFFFFF" points="45.524 71.506 43.386 71.506 43.386 70.187 49.232 70.187 49.232 71.506 47.094 71.506 47.094 77.323 45.524 77.323 45.524 71.506"></polyline>
            <polyline id="Fill-24" fill="#FFFFFF" points="10.234 81.195 15.572 81.195 15.572 82.514 11.804 82.514 11.804 84.043 15.262 84.043 15.262 85.263 11.804 85.263 11.804 87.012 15.651 87.012 15.651 88.331 10.234 88.331 10.234 81.195"></polyline>
            <polyline id="Fill-25" fill="#FFFFFF" points="20.203 88.331 18.434 88.331 16.115 81.195 17.734 81.195 19.323 86.213 19.343 86.213 20.952 81.195 22.571 81.195 20.203 88.331"></polyline>
            <path d="M24.549,85.572 L26.398,85.572 L25.499,82.954 L25.478,82.954 L24.549,85.572 L24.549,85.572 Z M24.699,81.195 L26.308,81.195 L28.977,88.331 L27.348,88.331 L26.808,86.742 L24.14,86.742 L23.58,88.331 L21.991,88.331 L24.699,81.195 L24.699,81.195 Z" id="Fill-26" fill="#FFFFFF"></path>
            <polyline id="Fill-27" fill="#FFFFFF" points="29.84 81.195 31.409 81.195 31.409 87.012 34.887 87.012 34.887 88.331 29.84 88.331 29.84 81.195"></polyline>
            <path d="M41.471,85.633 C41.471,87.562 40.331,88.501 38.422,88.501 C36.503,88.501 35.384,87.571 35.384,85.633 L35.384,81.195 L36.954,81.195 L36.954,85.633 C36.954,86.412 37.153,87.182 38.422,87.182 C39.542,87.182 39.902,86.691 39.902,85.633 L39.902,81.195 L41.471,81.195 L41.471,85.633" id="Fill-28" fill="#FFFFFF"></path>
            <path d="M44.373,85.572 L46.222,85.572 L45.323,82.954 L45.303,82.954 L44.373,85.572 L44.373,85.572 Z M44.523,81.195 L46.132,81.195 L48.801,88.331 L47.172,88.331 L46.632,86.742 L43.964,86.742 L43.404,88.331 L41.815,88.331 L44.523,81.195 L44.523,81.195 Z" id="Fill-29" fill="#FFFFFF"></path>
            <polyline id="Fill-30" fill="#FFFFFF" points="50.282 82.514 48.144 82.514 48.144 81.195 53.99 81.195 53.99 82.514 51.852 82.514 51.852 88.331 50.282 88.331 50.282 82.514"></polyline>
            <polyline id="Fill-31" fill="#FFFFFF" points="54.763 81.195 60.101 81.195 60.101 82.514 56.332 82.514 56.332 84.043 59.79 84.043 59.79 85.263 56.332 85.263 56.332 87.012 60.18 87.012 60.18 88.331 54.763 88.331 54.763 81.195"></polyline>
            <path d="M62.89,87.012 L64.289,87.012 C65.198,87.012 66.068,86.452 66.068,84.873 C66.068,83.434 65.568,82.514 64.009,82.514 L62.89,82.514 L62.89,87.012 L62.89,87.012 Z M61.32,81.195 L64.399,81.195 C66.248,81.195 67.637,82.354 67.637,84.723 C67.637,86.792 66.578,88.331 64.399,88.331 L61.32,88.331 L61.32,81.195 L61.32,81.195 Z" id="Fill-32" fill="#FFFFFF"></path>
            <polyline id="Fill-35" fill="#FFFFFF" points="718.203 75.703 723.54 75.703 723.54 77.022 719.772 77.022 719.772 78.551 723.23 78.551 723.23 79.77 719.772 79.77 719.772 81.52 723.62 81.52 723.62 82.839 718.203 82.839 718.203 75.703"></polyline>
            <polyline id="Fill-36" fill="#FFFFFF" points="726.632 79.101 724.333 75.703 726.152 75.703 727.552 77.981 729.001 75.703 730.72 75.703 728.431 79.111 730.92 82.839 729.051 82.839 727.491 80.37 725.902 82.839 724.134 82.839 726.632 79.101"></polyline>
            <polyline id="Fill-37" fill="#FFFFFF" points="733.142 77.022 731.003 77.022 731.003 75.703 736.85 75.703 736.85 77.022 734.711 77.022 734.711 82.839 733.142 82.839 733.142 77.022"></polyline>
            <polygon id="Fill-38" fill="#FFFFFF" points="737.643 82.839 739.212 82.839 739.212 75.703 737.643 75.703"></polygon>
            <polyline id="Fill-39" fill="#FFFFFF" points="740.563 75.703 742.122 75.703 745.101 80.49 745.12 80.49 745.12 75.703 746.59 75.703 746.59 82.839 745.021 82.839 742.052 78.062 742.032 78.062 742.032 82.839 740.563 82.839 740.563 75.703"></polyline>
            <path d="M752.7,78.102 C752.6,77.392 751.92,76.852 751.141,76.852 C749.731,76.852 749.202,78.051 749.202,79.301 C749.202,80.49 749.731,81.689 751.141,81.689 C752.101,81.689 752.64,81.029 752.76,80.09 L754.279,80.09 C754.119,81.869 752.89,83.009 751.141,83.009 C748.932,83.009 747.633,81.359 747.633,79.301 C747.633,77.182 748.932,75.533 751.141,75.533 C752.71,75.533 754.029,76.452 754.219,78.102 L752.7,78.102" id="Fill-40" fill="#FFFFFF"></path>
            <polyline id="Fill-41" fill="#FFFFFF" points="756.931 77.022 754.792 77.022 754.792 75.703 760.639 75.703 760.639 77.022 758.5 77.022 758.5 82.839 756.931 82.839 756.931 77.022"></polyline>
            <polyline id="Fill-44" fill="#000000" points="173.43 70.187 174.999 70.187 174.999 76.004 178.477 76.004 178.477 77.323 173.43 77.323 173.43 70.187"></polyline>
            <polyline id="Fill-45" fill="#000000" points="179.229 70.187 184.567 70.187 184.567 71.506 180.799 71.506 180.799 73.036 184.257 73.036 184.257 74.255 180.799 74.255 180.799 76.004 184.646 76.004 184.646 77.323 179.229 77.323 179.229 70.187"></polyline>
            <path d="M187.26,74.565 L189.109,74.565 L188.209,71.946 L188.189,71.946 L187.26,74.565 L187.26,74.565 Z M187.41,70.187 L189.019,70.187 L191.688,77.323 L190.059,77.323 L189.519,75.734 L186.851,75.734 L186.291,77.323 L184.702,77.323 L187.41,70.187 L187.41,70.187 Z" id="Fill-46" fill="#000000"></path>
            <path d="M193.301,74.955 C193.301,75.904 194.04,76.274 194.88,76.274 C195.429,76.274 196.269,76.114 196.269,75.384 C196.269,74.615 195.2,74.485 194.15,74.205 C193.091,73.925 192.021,73.515 192.021,72.176 C192.021,70.717 193.4,70.017 194.69,70.017 C196.179,70.017 197.548,70.667 197.548,72.316 L196.029,72.316 C195.979,71.457 195.37,71.237 194.62,71.237 C194.12,71.237 193.541,71.446 193.541,72.046 C193.541,72.596 193.88,72.666 195.669,73.125 C196.189,73.255 197.788,73.585 197.788,75.205 C197.788,76.514 196.759,77.493 194.82,77.493 C193.241,77.493 191.761,76.713 191.781,74.955 L193.301,74.955" id="Fill-47" fill="#000000"></path>
            <polyline id="Fill-48" fill="#000000" points="200.056 71.506 197.917 71.506 197.917 70.187 203.764 70.187 203.764 71.506 201.625 71.506 201.625 77.323 200.056 77.323 200.056 71.506"></polyline>
            <path d="M168.445,83.594 C168.345,82.885 167.666,82.344 166.886,82.344 C165.477,82.344 164.947,83.543 164.947,84.793 C164.947,85.982 165.477,87.182 166.886,87.182 C167.845,87.182 168.385,86.521 168.505,85.582 L170.024,85.582 C169.864,87.361 168.635,88.501 166.886,88.501 C164.677,88.501 163.378,86.852 163.378,84.793 C163.378,82.674 164.677,81.025 166.886,81.025 C168.455,81.025 169.774,81.944 169.964,83.594 L168.445,83.594" id="Fill-49" fill="#000000"></path>
            <path d="M174.206,87.182 C175.615,87.182 176.145,85.982 176.145,84.793 C176.145,83.543 175.615,82.344 174.206,82.344 C172.796,82.344 172.267,83.543 172.267,84.793 C172.267,85.982 172.796,87.182 174.206,87.182 L174.206,87.182 Z M174.206,81.025 C176.415,81.025 177.714,82.674 177.714,84.793 C177.714,86.852 176.415,88.501 174.206,88.501 C171.997,88.501 170.698,86.852 170.698,84.793 C170.698,82.674 171.997,81.025 174.206,81.025 L174.206,81.025 Z" id="Fill-50" fill="#000000"></path>
            <polyline id="Fill-51" fill="#000000" points="178.539 81.195 180.098 81.195 183.077 85.982 183.097 85.982 183.097 81.195 184.566 81.195 184.566 88.331 182.997 88.331 180.028 83.554 180.008 83.554 180.008 88.331 178.539 88.331 178.539 81.195"></polyline>
            <path d="M190.696,83.594 C190.597,82.885 189.917,82.344 189.137,82.344 C187.728,82.344 187.198,83.543 187.198,84.793 C187.198,85.982 187.728,87.182 189.137,87.182 C190.097,87.182 190.637,86.521 190.756,85.582 L192.276,85.582 C192.116,87.361 190.886,88.501 189.137,88.501 C186.929,88.501 185.629,86.852 185.629,84.793 C185.629,82.674 186.929,81.025 189.137,81.025 C190.707,81.025 192.026,81.944 192.216,83.594 L190.696,83.594" id="Fill-52" fill="#000000"></path>
            <polyline id="Fill-53" fill="#000000" points="193.339 81.195 198.676 81.195 198.676 82.514 194.908 82.514 194.908 84.043 198.366 84.043 198.366 85.263 194.908 85.263 194.908 87.012 198.756 87.012 198.756 88.331 193.339 88.331 193.339 81.195"></polyline>
            <path d="M201.378,84.424 L203.098,84.424 C203.797,84.424 204.177,84.123 204.177,83.404 C204.177,82.715 203.797,82.414 203.098,82.414 L201.378,82.414 L201.378,84.424 L201.378,84.424 Z M199.809,81.195 L203.657,81.195 C204.937,81.195 205.746,82.084 205.746,83.164 C205.746,84.004 205.406,84.633 204.617,84.953 L204.617,84.973 C205.386,85.173 205.606,85.922 205.656,86.643 C205.686,87.092 205.676,87.932 205.956,88.331 L204.387,88.331 C204.197,87.881 204.217,87.191 204.137,86.622 C204.027,85.873 203.737,85.543 202.948,85.543 L201.378,85.543 L201.378,88.331 L199.809,88.331 L199.809,81.195 L199.809,81.195 Z" id="Fill-54" fill="#000000"></path>
            <polyline id="Fill-55" fill="#000000" points="206.93 81.195 208.489 81.195 211.467 85.982 211.487 85.982 211.487 81.195 212.957 81.195 212.957 88.331 211.387 88.331 208.419 83.554 208.399 83.554 208.399 88.331 206.93 88.331 206.93 81.195"></polyline>
            <polyline id="Fill-58" fill="#000000" points="248.508 70.187 250.067 70.187 253.045 74.975 253.065 74.975 253.065 70.187 254.535 70.187 254.535 77.323 252.965 77.323 249.997 72.546 249.977 72.546 249.977 77.323 248.508 77.323 248.508 70.187"></polyline>
            <polyline id="Fill-59" fill="#000000" points="255.948 70.187 261.285 70.187 261.285 71.506 257.517 71.506 257.517 73.036 260.975 73.036 260.975 74.255 257.517 74.255 257.517 76.004 261.365 76.004 261.365 77.323 255.948 77.323 255.948 70.187"></polyline>
            <path d="M264.229,74.565 L266.078,74.565 L265.178,71.946 L265.158,71.946 L264.229,74.565 L264.229,74.565 Z M264.379,70.187 L265.988,70.187 L268.656,77.323 L267.027,77.323 L266.488,75.734 L263.819,75.734 L263.259,77.323 L261.67,77.323 L264.379,70.187 L264.379,70.187 Z" id="Fill-60" fill="#000000"></path>
            <path d="M270.689,73.416 L272.408,73.416 C273.107,73.416 273.487,73.116 273.487,72.396 C273.487,71.707 273.107,71.406 272.408,71.406 L270.689,71.406 L270.689,73.416 L270.689,73.416 Z M269.12,70.187 L272.968,70.187 C274.247,70.187 275.057,71.077 275.057,72.156 C275.057,72.996 274.717,73.625 273.927,73.945 L273.927,73.965 C274.697,74.165 274.917,74.915 274.967,75.634 C274.997,76.084 274.986,76.923 275.267,77.323 L273.697,77.323 C273.507,76.874 273.527,76.184 273.447,75.614 C273.337,74.865 273.048,74.535 272.258,74.535 L270.689,74.535 L270.689,77.323 L269.12,77.323 L269.12,70.187 L269.12,70.187 Z" id="Fill-61" fill="#000000"></path>
            <polyline id="Fill-62" fill="#000000" points="230.431 82.514 228.292 82.514 228.292 81.195 234.139 81.195 234.139 82.514 232 82.514 232 88.331 230.431 88.331 230.431 82.514"></polyline>
            <polyline id="Fill-63" fill="#000000" points="234.912 81.195 236.481 81.195 236.481 83.934 239.369 83.934 239.369 81.195 240.938 81.195 240.938 88.331 239.369 88.331 239.369 85.253 236.481 85.253 236.481 88.331 234.912 88.331 234.912 81.195"></polyline>
            <path d="M243.913,84.424 L245.632,84.424 C246.332,84.424 246.711,84.123 246.711,83.404 C246.711,82.715 246.332,82.414 245.632,82.414 L243.913,82.414 L243.913,84.424 L243.913,84.424 Z M242.344,81.195 L246.192,81.195 C247.471,81.195 248.281,82.084 248.281,83.164 C248.281,84.004 247.941,84.633 247.151,84.953 L247.151,84.973 C247.921,85.173 248.141,85.922 248.191,86.643 C248.221,87.092 248.211,87.932 248.491,88.331 L246.921,88.331 C246.731,87.881 246.751,87.191 246.671,86.622 C246.562,85.873 246.272,85.543 245.482,85.543 L243.913,85.543 L243.913,88.331 L242.344,88.331 L242.344,81.195 L242.344,81.195 Z" id="Fill-64" fill="#000000"></path>
            <polyline id="Fill-65" fill="#000000" points="249.364 81.195 254.701 81.195 254.701 82.514 250.933 82.514 250.933 84.043 254.391 84.043 254.391 85.263 250.933 85.263 250.933 87.012 254.781 87.012 254.781 88.331 249.364 88.331 249.364 81.195"></polyline>
            <path d="M257.659,85.572 L259.507,85.572 L258.608,82.954 L258.588,82.954 L257.659,85.572 L257.659,85.572 Z M257.809,81.195 L259.417,81.195 L262.086,88.331 L260.457,88.331 L259.917,86.742 L257.249,86.742 L256.689,88.331 L255.1,88.331 L257.809,81.195 L257.809,81.195 Z" id="Fill-66" fill="#000000"></path>
            <polyline id="Fill-67" fill="#000000" points="263.568 82.514 261.43 82.514 261.43 81.195 267.276 81.195 267.276 82.514 265.138 82.514 265.138 88.331 263.568 88.331 263.568 82.514"></polyline>
            <polyline id="Fill-68" fill="#000000" points="268.039 81.195 273.376 81.195 273.376 82.514 269.608 82.514 269.608 84.043 273.066 84.043 273.066 85.263 269.608 85.263 269.608 87.012 273.456 87.012 273.456 88.331 268.039 88.331 268.039 81.195"></polyline>
            <polyline id="Fill-69" fill="#000000" points="274.599 81.195 276.158 81.195 279.137 85.982 279.157 85.982 279.157 81.195 280.626 81.195 280.626 88.331 279.057 88.331 276.088 83.554 276.068 83.554 276.068 88.331 274.599 88.331 274.599 81.195"></polyline>
            <polyline id="Fill-70" fill="#000000" points="282.089 81.195 287.426 81.195 287.426 82.514 283.658 82.514 283.658 84.043 287.116 84.043 287.116 85.263 283.658 85.263 283.658 87.012 287.506 87.012 287.506 88.331 282.089 88.331 282.089 81.195"></polyline>
            <path d="M290.218,87.012 L291.618,87.012 C292.527,87.012 293.396,86.452 293.396,84.873 C293.396,83.434 292.897,82.514 291.337,82.514 L290.218,82.514 L290.218,87.012 L290.218,87.012 Z M288.649,81.195 L291.728,81.195 C293.576,81.195 294.966,82.354 294.966,84.723 C294.966,86.792 293.906,88.331 291.728,88.331 L288.649,88.331 L288.649,81.195 L288.649,81.195 Z" id="Fill-71" fill="#000000"></path>
            <polyline id="Fill-74" fill="#000000" points="311.084 82.878 309.315 82.878 306.996 75.742 308.615 75.742 310.205 80.76 310.225 80.76 311.833 75.742 313.453 75.742 311.084 82.878"></polyline>
            <path d="M320.182,80.18 C320.182,82.108 319.043,83.048 317.134,83.048 C315.215,83.048 314.096,82.118 314.096,80.18 L314.096,75.742 L315.665,75.742 L315.665,80.18 C315.665,80.959 315.865,81.729 317.134,81.729 C318.253,81.729 318.613,81.238 318.613,80.18 L318.613,75.742 L320.182,75.742 L320.182,80.18" id="Fill-75" fill="#000000"></path>
            <polyline id="Fill-76" fill="#000000" points="321.563 75.742 323.132 75.742 323.132 81.559 326.61 81.559 326.61 82.878 321.563 82.878 321.563 75.742"></polyline>
            <polyline id="Fill-77" fill="#000000" points="327.212 75.742 328.771 75.742 331.75 80.529 331.77 80.529 331.77 75.742 333.239 75.742 333.239 82.878 331.67 82.878 328.702 78.101 328.682 78.101 328.682 82.878 327.212 82.878 327.212 75.742"></polyline>
            <polyline id="Fill-78" fill="#000000" points="334.648 75.742 339.986 75.742 339.986 77.061 336.218 77.061 336.218 78.59 339.676 78.59 339.676 79.81 336.218 79.81 336.218 81.559 340.065 81.559 340.065 82.878 334.648 82.878 334.648 75.742"></polyline>
            <path d="M342.758,78.97 L344.477,78.97 C345.176,78.97 345.556,78.67 345.556,77.951 C345.556,77.261 345.176,76.961 344.477,76.961 L342.758,76.961 L342.758,78.97 L342.758,78.97 Z M341.188,75.742 L345.037,75.742 C346.316,75.742 347.125,76.631 347.125,77.711 C347.125,78.55 346.786,79.18 345.996,79.5 L345.996,79.52 C346.766,79.72 346.985,80.469 347.036,81.189 C347.065,81.639 347.056,82.479 347.335,82.878 L345.766,82.878 C345.576,82.428 345.596,81.738 345.516,81.169 C345.406,80.42 345.117,80.09 344.327,80.09 L342.758,80.09 L342.758,82.878 L341.188,82.878 L341.188,75.742 L341.188,75.742 Z" id="Fill-79" fill="#000000"></path>
            <path d="M350.268,80.119 L352.116,80.119 L351.217,77.501 L351.197,77.501 L350.268,80.119 L350.268,80.119 Z M350.417,75.742 L352.026,75.742 L354.695,82.878 L353.066,82.878 L352.526,81.289 L349.857,81.289 L349.298,82.878 L347.709,82.878 L350.417,75.742 L350.417,75.742 Z" id="Fill-80" fill="#000000"></path>
            <path d="M356.948,81.658 L358.627,81.658 C359.247,81.658 359.786,81.459 359.786,80.719 C359.786,79.99 359.326,79.7 358.657,79.7 L356.948,79.7 L356.948,81.658 L356.948,81.658 Z M356.948,78.63 L358.537,78.63 C359.086,78.63 359.496,78.38 359.496,77.781 C359.496,77.101 358.977,76.961 358.417,76.961 L356.948,76.961 L356.948,78.63 L356.948,78.63 Z M355.378,75.742 L358.737,75.742 C360.096,75.742 361.016,76.182 361.016,77.511 C361.016,78.211 360.666,78.7 360.046,79 C360.916,79.25 361.355,79.919 361.355,80.809 C361.355,82.258 360.126,82.878 358.837,82.878 L355.378,82.878 L355.378,75.742 L355.378,75.742 Z" id="Fill-81" fill="#000000"></path>
            <polyline id="Fill-82" fill="#000000" points="362.375 75.742 363.944 75.742 363.944 81.559 367.422 81.559 367.422 82.878 362.375 82.878 362.375 75.742"></polyline>
            <polyline id="Fill-83" fill="#000000" points="368.025 75.742 373.362 75.742 373.362 77.061 369.594 77.061 369.594 78.59 373.052 78.59 373.052 79.81 369.594 79.81 369.594 81.559 373.442 81.559 373.442 82.878 368.025 82.878 368.025 75.742"></polyline>
            <polyline id="Fill-86" fill="#000000" points="389.586 75.742 394.923 75.742 394.923 77.061 391.155 77.061 391.155 78.59 394.613 78.59 394.613 79.81 391.155 79.81 391.155 81.559 395.003 81.559 395.003 82.878 389.586 82.878 389.586 75.742"></polyline>
            <polyline id="Fill-87" fill="#000000" points="396.146 75.742 397.705 75.742 400.684 80.529 400.703 80.529 400.703 75.742 402.172 75.742 402.172 82.878 400.604 82.878 397.635 78.101 397.615 78.101 397.615 82.878 396.146 82.878 396.146 75.742"></polyline>
            <path d="M405.147,81.559 L406.547,81.559 C407.456,81.559 408.326,80.999 408.326,79.42 C408.326,77.98 407.826,77.061 406.267,77.061 L405.147,77.061 L405.147,81.559 L405.147,81.559 Z M403.578,75.742 L406.656,75.742 C408.506,75.742 409.895,76.901 409.895,79.27 C409.895,81.339 408.835,82.878 406.656,82.878 L403.578,82.878 L403.578,75.742 L403.578,75.742 Z" id="Fill-88" fill="#000000"></path>
            <path d="M412.517,80.119 L414.366,80.119 L413.467,77.501 L413.446,77.501 L412.517,80.119 L412.517,80.119 Z M412.667,75.742 L414.276,75.742 L416.944,82.878 L415.315,82.878 L414.775,81.289 L412.107,81.289 L411.548,82.878 L409.958,82.878 L412.667,75.742 L412.667,75.742 Z" id="Fill-89" fill="#000000"></path>
            <polyline id="Fill-90" fill="#000000" points="417.617 75.742 419.177 75.742 422.155 80.529 422.175 80.529 422.175 75.742 423.645 75.742 423.645 82.878 422.075 82.878 419.106 78.101 419.087 78.101 419.087 82.878 417.617 82.878 417.617 75.742"></polyline>
            <path d="M430.234,82.068 C429.685,82.777 428.965,83.048 428.275,83.048 C426.066,83.048 424.768,81.398 424.768,79.34 C424.768,77.221 426.066,75.572 428.275,75.572 C429.734,75.572 431.114,76.472 431.284,78.09 L429.785,78.09 C429.604,77.301 429.016,76.891 428.275,76.891 C426.866,76.891 426.337,78.09 426.337,79.34 C426.337,80.529 426.866,81.729 428.275,81.729 C429.295,81.729 429.885,81.179 429.975,80.189 L428.396,80.189 L428.396,79.02 L431.394,79.02 L431.394,82.878 L430.395,82.878 L430.234,82.068" id="Fill-91" fill="#000000"></path>
            <polyline id="Fill-92" fill="#000000" points="432.717 75.742 438.054 75.742 438.054 77.061 434.286 77.061 434.286 78.59 437.744 78.59 437.744 79.81 434.286 79.81 434.286 81.559 438.134 81.559 438.134 82.878 432.717 82.878 432.717 75.742"></polyline>
            <path d="M440.816,78.97 L442.535,78.97 C443.235,78.97 443.615,78.67 443.615,77.951 C443.615,77.261 443.235,76.961 442.535,76.961 L440.816,76.961 L440.816,78.97 L440.816,78.97 Z M439.247,75.742 L443.095,75.742 C444.374,75.742 445.184,76.631 445.184,77.711 C445.184,78.55 444.844,79.18 444.055,79.5 L444.055,79.52 C444.824,79.72 445.044,80.469 445.094,81.189 C445.124,81.639 445.114,82.479 445.394,82.878 L443.825,82.878 C443.635,82.428 443.655,81.738 443.575,81.169 C443.465,80.42 443.175,80.09 442.386,80.09 L440.816,80.09 L440.816,82.878 L439.247,82.878 L439.247,75.742 L439.247,75.742 Z" id="Fill-93" fill="#000000"></path>
            <polyline id="Fill-94" fill="#000000" points="446.517 75.742 451.854 75.742 451.854 77.061 448.086 77.061 448.086 78.59 451.544 78.59 451.544 79.81 448.086 79.81 448.086 81.559 451.934 81.559 451.934 82.878 446.517 82.878 446.517 75.742"></polyline>
            <path d="M454.616,81.559 L456.016,81.559 C456.925,81.559 457.795,80.999 457.795,79.42 C457.795,77.98 457.295,77.061 455.735,77.061 L454.616,77.061 L454.616,81.559 L454.616,81.559 Z M453.047,75.742 L456.125,75.742 C457.975,75.742 459.363,76.901 459.363,79.27 C459.363,81.339 458.304,82.878 456.125,82.878 L453.047,82.878 L453.047,75.742 L453.047,75.742 Z" id="Fill-95" fill="#000000"></path>
            <path d="M482.219,72.586 C482.118,71.877 481.438,71.337 480.659,71.337 C479.25,71.337 478.721,72.536 478.721,73.785 C478.721,74.975 479.25,76.174 480.659,76.174 C481.619,76.174 482.158,75.514 482.278,74.575 L483.798,74.575 C483.638,76.354 482.408,77.493 480.659,77.493 C478.45,77.493 477.151,75.844 477.151,73.785 C477.151,71.666 478.45,70.017 480.659,70.017 C482.229,70.017 483.548,70.937 483.737,72.586 L482.219,72.586" id="Fill-98" fill="#000000"></path>
            <path d="M486.41,73.416 L488.129,73.416 C488.829,73.416 489.209,73.116 489.209,72.396 C489.209,71.707 488.829,71.406 488.129,71.406 L486.41,71.406 L486.41,73.416 L486.41,73.416 Z M484.841,70.187 L488.688,70.187 C489.968,70.187 490.777,71.077 490.777,72.156 C490.777,72.996 490.438,73.625 489.648,73.945 L489.648,73.965 C490.418,74.165 490.638,74.915 490.688,75.634 C490.718,76.084 490.708,76.923 490.987,77.323 L489.419,77.323 C489.229,76.874 489.249,76.184 489.169,75.614 C489.059,74.865 488.769,74.535 487.979,74.535 L486.41,74.535 L486.41,77.323 L484.841,77.323 L484.841,70.187 L484.841,70.187 Z" id="Fill-99" fill="#000000"></path>
            <polygon id="Fill-100" fill="#000000" points="492.03 77.323 493.6 77.323 493.6 70.187 492.03 70.187"></polygon>
            <polyline id="Fill-101" fill="#000000" points="496.53 71.506 494.392 71.506 494.392 70.187 500.238 70.187 500.238 71.506 498.1 71.506 498.1 77.323 496.53 77.323 496.53 71.506"></polyline>
            <polygon id="Fill-102" fill="#000000" points="501.03 77.323 502.6 77.323 502.6 70.187 501.03 70.187"></polygon>
            <path d="M508.708,72.586 C508.607,71.877 507.928,71.337 507.148,71.337 C505.739,71.337 505.21,72.536 505.21,73.785 C505.21,74.975 505.739,76.174 507.148,76.174 C508.108,76.174 508.647,75.514 508.768,74.575 L510.287,74.575 C510.127,76.354 508.897,77.493 507.148,77.493 C504.939,77.493 503.641,75.844 503.641,73.785 C503.641,71.666 504.939,70.017 507.148,70.017 C508.718,70.017 510.037,70.937 510.227,72.586 L508.708,72.586" id="Fill-103" fill="#000000"></path>
            <path d="M512.986,74.565 L514.836,74.565 L513.937,71.946 L513.916,71.946 L512.986,74.565 L512.986,74.565 Z M513.137,70.187 L514.746,70.187 L517.414,77.323 L515.785,77.323 L515.245,75.734 L512.577,75.734 L512.018,77.323 L510.428,77.323 L513.137,70.187 L513.137,70.187 Z" id="Fill-104" fill="#000000"></path>
            <polyline id="Fill-105" fill="#000000" points="518.077 70.187 519.646 70.187 519.646 76.004 523.125 76.004 523.125 77.323 518.077 77.323 518.077 70.187"></polyline>
            <polyline id="Fill-106" fill="#000000" points="523.93 70.187 525.499 70.187 525.499 76.004 528.978 76.004 528.978 77.323 523.93 77.323 523.93 70.187"></polyline>
            <polyline id="Fill-107" fill="#000000" points="530.729 74.545 528.101 70.187 529.869 70.187 531.539 73.006 533.197 70.187 534.946 70.187 532.298 74.585 532.298 77.323 530.729 77.323 530.729 74.545"></polyline>
            <polyline id="Fill-108" fill="#000000" points="471.094 81.195 476.431 81.195 476.431 82.514 472.663 82.514 472.663 84.043 476.121 84.043 476.121 85.263 472.663 85.263 472.663 87.012 476.511 87.012 476.511 88.331 471.094 88.331 471.094 81.195"></polyline>
            <polyline id="Fill-109" fill="#000000" points="477.653 81.195 479.213 81.195 482.191 85.982 482.211 85.982 482.211 81.195 483.68 81.195 483.68 88.331 482.111 88.331 479.143 83.554 479.123 83.554 479.123 88.331 477.653 88.331 477.653 81.195"></polyline>
            <path d="M486.655,87.012 L488.055,87.012 C488.964,87.012 489.834,86.452 489.834,84.873 C489.834,83.434 489.334,82.514 487.774,82.514 L486.655,82.514 L486.655,87.012 L486.655,87.012 Z M485.086,81.195 L488.164,81.195 C490.014,81.195 491.402,82.354 491.402,84.723 C491.402,86.792 490.343,88.331 488.164,88.331 L485.086,88.331 L485.086,81.195 L485.086,81.195 Z" id="Fill-110" fill="#000000"></path>
            <path d="M494.024,85.572 L495.874,85.572 L494.975,82.954 L494.954,82.954 L494.024,85.572 L494.024,85.572 Z M494.175,81.195 L495.784,81.195 L498.452,88.331 L496.823,88.331 L496.283,86.742 L493.615,86.742 L493.056,88.331 L491.466,88.331 L494.175,81.195 L494.175,81.195 Z" id="Fill-111" fill="#000000"></path>
            <polyline id="Fill-112" fill="#000000" points="499.125 81.195 500.685 81.195 503.663 85.982 503.683 85.982 503.683 81.195 505.152 81.195 505.152 88.331 503.583 88.331 500.614 83.554 500.595 83.554 500.595 88.331 499.125 88.331 499.125 81.195"></polyline>
            <path d="M511.742,87.521 C511.192,88.23 510.473,88.501 509.783,88.501 C507.574,88.501 506.275,86.852 506.275,84.793 C506.275,82.674 507.574,81.025 509.783,81.025 C511.242,81.025 512.622,81.925 512.792,83.543 L511.293,83.543 C511.112,82.754 510.523,82.344 509.783,82.344 C508.374,82.344 507.845,83.543 507.845,84.793 C507.845,85.982 508.374,87.182 509.783,87.182 C510.803,87.182 511.393,86.632 511.482,85.643 L509.903,85.643 L509.903,84.473 L512.901,84.473 L512.901,88.331 L511.902,88.331 L511.742,87.521" id="Fill-113" fill="#000000"></path>
            <polyline id="Fill-114" fill="#000000" points="514.225 81.195 519.562 81.195 519.562 82.514 515.794 82.514 515.794 84.043 519.252 84.043 519.252 85.263 515.794 85.263 515.794 87.012 519.642 87.012 519.642 88.331 514.225 88.331 514.225 81.195"></polyline>
            <path d="M522.324,84.424 L524.043,84.424 C524.743,84.424 525.123,84.123 525.123,83.404 C525.123,82.715 524.743,82.414 524.043,82.414 L522.324,82.414 L522.324,84.424 L522.324,84.424 Z M520.755,81.195 L524.603,81.195 C525.882,81.195 526.691,82.084 526.691,83.164 C526.691,84.004 526.352,84.633 525.563,84.953 L525.563,84.973 C526.332,85.173 526.552,85.922 526.602,86.643 C526.632,87.092 526.622,87.932 526.901,88.331 L525.333,88.331 C525.143,87.881 525.163,87.191 525.083,86.622 C524.973,85.873 524.683,85.543 523.894,85.543 L522.324,85.543 L522.324,88.331 L520.755,88.331 L520.755,81.195 L520.755,81.195 Z" id="Fill-115" fill="#000000"></path>
            <polyline id="Fill-116" fill="#000000" points="528.024 81.195 533.361 81.195 533.361 82.514 529.594 82.514 529.594 84.043 533.052 84.043 533.052 85.263 529.594 85.263 529.594 87.012 533.441 87.012 533.441 88.331 528.024 88.331 528.024 81.195"></polyline>
            <path d="M536.124,87.012 L537.523,87.012 C538.433,87.012 539.303,86.452 539.303,84.873 C539.303,83.434 538.803,82.514 537.243,82.514 L536.124,82.514 L536.124,87.012 L536.124,87.012 Z M534.555,81.195 L537.633,81.195 C539.482,81.195 540.871,82.354 540.871,84.723 C540.871,86.792 539.812,88.331 537.633,88.331 L534.555,88.331 L534.555,81.195 L534.555,81.195 Z" id="Fill-117" fill="#000000"></path>
            <path d="M704.926,79.77 L704.926,0.543 L624.352,0.543 L624.352,0.577 C581.225,1.297 546.473,36.461 546.473,79.774 C546.473,123.531 581.946,159 625.695,159 C669.316,159 704.699,123.748 704.918,80.178 L704.926,80.178 L704.926,79.848 C704.926,79.823 704.928,79.799 704.928,79.774 C704.928,79.773 704.926,79.77 704.926,79.77" id="Fill-120" fill="#DA2A1C"></path>
            <path d="M678.169,29.976 L682.062,29.976 C683.408,29.976 684.734,30.585 684.734,32.125 C684.734,32.948 684.339,33.729 683.537,34.039 L683.537,34.061 C684.35,34.253 684.585,35.162 684.649,35.889 C684.671,36.209 684.703,37.333 684.97,37.61 L683.002,37.61 C682.831,37.353 682.799,36.605 682.777,36.392 C682.725,35.622 682.596,34.83 681.666,34.83 L680.158,34.83 L680.158,37.61 L678.169,37.61 L678.169,29.976 L678.169,29.976 Z M680.158,33.291 L681.826,33.291 C682.425,33.291 682.746,32.97 682.746,32.392 C682.746,31.826 682.297,31.569 681.74,31.569 L680.158,31.569 L680.158,33.291 L680.158,33.291 Z" id="Fill-121" fill="#FFFFFF"></path>
            <polyline id="Fill-122" fill="#FFFFFF" points="685.676 29.976 691.76 29.976 691.76 31.569 687.664 31.569 687.664 32.905 691.407 32.905 691.407 34.445 687.664 34.445 687.664 35.899 691.867 35.899 691.867 37.61 685.676 37.61 685.676 29.976"></polyline>
            <path d="M692.787,29.976 L696.07,29.976 C698.412,29.976 699.813,31.398 699.813,33.761 C699.813,36.263 698.391,37.61 696.07,37.61 L692.787,37.61 L692.787,29.976 L692.787,29.976 Z M694.775,35.899 L695.717,35.899 C697.225,35.867 697.823,35.279 697.823,33.75 C697.823,32.36 697.075,31.687 695.717,31.687 L694.775,31.687 L694.775,35.899 L694.775,35.899 Z" id="Fill-123" fill="#FFFFFF"></path>
            <polyline id="Fill-124" fill="#FFFFFF" points="678.169 38.395 680.158 38.395 680.158 44.319 683.719 44.319 683.719 46.029 678.169 46.029 678.169 38.395"></polyline>
            <polygon id="Fill-125" fill="#FFFFFF" points="684.275 46.029 686.264 46.029 686.264 38.395 684.275 38.395"></polygon>
            <path d="M688.766,43.463 C688.809,44.361 689.365,44.65 690.21,44.65 C690.809,44.65 691.429,44.437 691.429,43.87 C691.429,43.196 690.338,43.067 689.236,42.757 C688.146,42.447 687.002,41.956 687.002,40.555 C687.002,38.887 688.681,38.234 690.113,38.234 C691.632,38.234 693.161,38.972 693.172,40.694 L691.183,40.694 C691.215,39.999 690.563,39.774 689.953,39.774 C689.525,39.774 688.99,39.924 688.99,40.426 C688.99,41.015 690.092,41.122 691.204,41.432 C692.306,41.742 693.418,42.255 693.418,43.634 C693.418,45.57 691.771,46.19 690.092,46.19 C688.338,46.19 686.788,45.42 686.777,43.463 L688.766,43.463" id="Fill-126" fill="#FFFFFF"></path>
            <polyline id="Fill-127" fill="#FFFFFF" points="699.705 40.105 697.428 40.105 697.428 46.029 695.438 46.029 695.438 40.105 693.161 40.105 693.161 38.395 699.705 38.395 699.705 40.105"></polyline>
            <path d="M692.93,12.114 C691.396,13.595 691.067,15.739 692.193,16.905 C693.319,18.071 695.476,17.815 697.008,16.335 C698.54,14.855 698.87,12.71 697.743,11.545 C696.617,10.379 694.461,10.634 692.93,12.114" id="Fill-128" fill="#FFFFFF"></path>
            <path d="M691.703,19.311 C690.172,20.791 689.842,22.936 690.968,24.102 C692.095,25.268 694.249,25.013 695.781,23.532 C697.314,22.052 697.643,19.907 696.517,18.74 C695.392,17.575 693.236,17.831 691.703,19.311" id="Fill-129" fill="#FFFFFF"></path>
            <g id="Group-133" transform="translate(679.000000, 6.000000)" fill="#FFFFFF">
                <path d="M2.175,2.782 C0.643,4.263 0.313,6.407 1.439,7.574 C2.565,8.739 4.721,8.484 6.253,7.004 C7.785,5.523 8.114,3.378 6.988,2.212 C5.863,1.047 3.707,1.301 2.175,2.782" id="Fill-130"></path>
                <path d="M9.429,1.647 C7.896,3.127 7.566,5.271 8.691,6.437 C9.819,7.603 11.975,7.349 13.507,5.868 C15.039,4.388 15.368,2.242 14.242,1.077 C13.116,-0.089 10.961,0.167 9.429,1.647" id="Fill-132"></path>
            </g>
            <path d="M689.817,20.753 C689.817,24.082 687.117,26.782 683.787,26.782 C680.457,26.782 677.758,24.082 677.758,20.753 C677.758,17.423 680.457,14.723 683.787,14.723 C687.117,14.723 689.817,17.423 689.817,20.753" id="Fill-134" fill="#FFFFFF"></path>
            <path d="M675.813,17.142 C675.813,22.454 671.507,26.757 666.197,26.757 C660.887,26.757 656.582,22.454 656.582,17.142 C656.582,11.833 660.887,7.528 666.197,7.528 L675.824,7.528 L675.813,17.142" id="Fill-135" fill="#FFFFFF"></path>
            <path d="M675.918,38.222 C675.918,43.565 671.586,47.896 666.242,47.896 C660.9,47.896 656.568,43.565 656.568,38.222 C656.568,32.878 660.9,28.547 666.242,28.547 C671.586,28.547 675.918,32.878 675.918,38.222" id="Fill-136" fill="#FFFFFF"></path>
            <polygon id="Fill-137" fill="#D61D17" points="661.93 39.241 662.357 39.241 662.357 37.293 661.93 37.293"></polygon>
            <path d="M664.112,39.092 C663.965,39.221 663.762,39.285 663.501,39.285 C663.237,39.285 663.033,39.221 662.889,39.094 C662.744,38.966 662.672,38.77 662.672,38.504 L662.672,37.293 L663.1,37.293 L663.1,38.504 C663.1,38.557 663.104,38.609 663.113,38.66 C663.123,38.711 663.142,38.756 663.171,38.795 C663.2,38.834 663.24,38.866 663.292,38.89 C663.344,38.915 663.414,38.927 663.501,38.927 C663.654,38.927 663.76,38.893 663.817,38.825 C663.876,38.757 663.905,38.65 663.905,38.504 L663.905,37.293 L664.333,37.293 L664.333,38.504 C664.333,38.768 664.26,38.964 664.112,39.092" id="Fill-138" fill="#D61D17"></path>
            <path d="M665.896,37.812 C665.871,37.771 665.84,37.736 665.801,37.705 C665.763,37.674 665.72,37.65 665.672,37.633 C665.623,37.615 665.573,37.606 665.521,37.606 C665.424,37.606 665.342,37.625 665.274,37.663 C665.207,37.7 665.152,37.75 665.111,37.812 C665.069,37.875 665.039,37.947 665.02,38.027 C665,38.107 664.991,38.189 664.991,38.275 C664.991,38.357 665,38.437 665.02,38.514 C665.039,38.591 665.069,38.661 665.111,38.723 C665.152,38.784 665.207,38.834 665.274,38.871 C665.342,38.908 665.424,38.927 665.521,38.927 C665.651,38.927 665.754,38.887 665.827,38.807 C665.9,38.727 665.945,38.622 665.962,38.491 L666.377,38.491 C666.366,38.612 666.338,38.723 666.292,38.821 C666.247,38.919 666.187,39.003 666.112,39.072 C666.037,39.141 665.95,39.194 665.851,39.23 C665.75,39.266 665.641,39.285 665.521,39.285 C665.371,39.285 665.236,39.259 665.117,39.207 C664.998,39.155 664.898,39.084 664.816,38.993 C664.734,38.902 664.672,38.795 664.628,38.672 C664.584,38.549 664.563,38.417 664.563,38.275 C664.563,38.129 664.584,37.995 664.628,37.87 C664.672,37.745 664.734,37.637 664.816,37.544 C664.898,37.451 664.998,37.378 665.117,37.326 C665.236,37.272 665.371,37.247 665.521,37.247 C665.627,37.247 665.729,37.262 665.824,37.293 C665.92,37.324 666.006,37.369 666.081,37.428 C666.156,37.487 666.219,37.56 666.268,37.647 C666.316,37.735 666.348,37.835 666.36,37.948 L665.945,37.948 C665.938,37.898 665.922,37.854 665.896,37.812" id="Fill-139" fill="#D61D17"></path>
            <polyline id="Fill-140" fill="#D61D17" points="667.04 37.293 667.854 38.6 667.858 38.6 667.858 37.293 668.26 37.293 668.26 39.241 667.831 39.241 667.021 37.937 667.016 37.937 667.016 39.241 666.614 39.241 666.614 37.293 667.04 37.293"></polyline>
            <path d="M666.01,40.306 C665.975,40.345 665.938,40.384 665.9,40.421 C665.336,40.985 664.559,41.333 663.699,41.333 C662.838,41.333 662.062,40.985 661.496,40.421 C660.933,39.857 660.585,39.08 660.584,38.219 C660.585,37.359 660.933,36.582 661.496,36.018 C662.062,35.454 662.838,35.105 663.699,35.105 C664.559,35.105 665.336,35.454 665.9,36.018 C665.966,36.083 666.027,36.15 666.087,36.221 L667.357,36.221 C666.65,34.925 665.275,34.047 663.695,34.046 C661.393,34.047 659.525,35.914 659.525,38.217 C659.525,40.52 661.393,42.387 663.695,42.387 C665.237,42.387 666.584,41.55 667.306,40.306 L666.01,40.306" id="Fill-141" fill="#D61D17"></path>
            <path d="M700.601,31.61 C699.999,31.61 699.57,31.16 699.57,30.563 C699.57,29.934 700.047,29.516 700.601,29.516 C701.149,29.516 701.626,29.934 701.626,30.563 C701.626,31.193 701.149,31.61 700.601,31.61 L700.601,31.61 Z M700.601,29.698 C700.147,29.698 699.795,30.054 699.795,30.563 C699.795,31.04 700.103,31.429 700.601,31.429 C701.049,31.429 701.401,31.076 701.401,30.563 C701.401,30.054 701.049,29.698 700.601,29.698 L700.601,29.698 Z M701.13,30.765 C701.082,31.031 700.881,31.196 700.635,31.196 C700.276,31.196 700.041,30.925 700.041,30.563 C700.041,30.225 700.265,29.964 700.629,29.962 C700.884,29.962 701.091,30.11 701.127,30.384 L700.937,30.384 C700.909,30.241 700.789,30.144 700.629,30.144 C700.394,30.144 700.265,30.331 700.265,30.563 C700.265,30.807 700.408,31.014 700.635,31.014 C700.8,31.014 700.917,30.911 700.937,30.765 L701.13,30.765 L701.13,30.765 Z" id="Fill-142" fill="#FFFFFF"></path>
            <polyline id="Fill-143" fill="#FFFFFF" points="591.002 64.588 599.803 64.588 599.803 66.764 593.59 66.764 593.59 69.285 599.291 69.285 599.291 71.295 593.59 71.295 593.59 74.179 599.935 74.179 599.935 76.354 591.002 76.354 591.002 64.588"></polyline>
            <polyline id="Fill-144" fill="#FFFFFF" points="604.908 70.191 601.118 64.588 604.117 64.588 606.425 68.346 608.814 64.588 611.648 64.588 607.875 70.208 611.979 76.354 608.896 76.354 606.326 72.284 603.706 76.354 600.789 76.354 604.908 70.191"></polyline>
            <polyline id="Fill-145" fill="#FFFFFF" points="615.989 66.764 612.462 66.764 612.462 64.588 622.103 64.588 622.103 66.764 618.576 66.764 618.576 76.354 615.989 76.354 615.989 66.764"></polyline>
            <polygon id="Fill-146" fill="#FFFFFF" points="623.435 76.355 626.022 76.355 626.022 64.588 623.435 64.588"></polygon>
            <polyline id="Fill-147" fill="#FFFFFF" points="628.279 64.588 630.851 64.588 635.762 72.482 635.794 72.482 635.794 64.588 638.217 64.588 638.217 76.354 635.63 76.354 630.735 68.478 630.702 68.478 630.702 76.354 628.279 76.354 628.279 64.588"></polyline>
            <path d="M648.315,68.543 C648.15,67.373 647.03,66.483 645.744,66.483 C643.421,66.483 642.548,68.461 642.548,70.52 C642.548,72.482 643.421,74.459 645.744,74.459 C647.326,74.459 648.217,73.372 648.414,71.823 L650.919,71.823 C650.655,74.756 648.629,76.635 645.744,76.635 C642.103,76.635 639.96,73.916 639.96,70.52 C639.96,67.027 642.103,64.308 645.744,64.308 C648.332,64.308 650.507,65.824 650.82,68.543 L648.315,68.543" id="Fill-148" fill="#FFFFFF"></path>
            <polyline id="Fill-149" fill="#FFFFFF" points="655.268 66.764 651.74 66.764 651.74 64.588 661.381 64.588 661.381 66.764 657.854 66.764 657.854 76.354 655.268 76.354 655.268 66.764"></polyline>
            <polygon id="Fill-150" fill="#FFFFFF" points="576.096 93.831 578.684 93.831 578.684 82.064 576.096 82.064"></polygon>
            <polyline id="Fill-151" fill="#FFFFFF" points="580.923 82.064 583.494 82.064 588.405 89.959 588.438 89.959 588.438 82.064 590.86 82.064 590.86 93.831 588.273 93.831 583.379 85.954 583.346 85.954 583.346 93.831 580.923 93.831 580.923 82.064"></polyline>
            <polyline id="Fill-152" fill="#FFFFFF" points="600.251 84.24 596.724 84.24 596.724 82.064 606.364 82.064 606.364 84.24 602.838 84.24 602.838 93.831 600.251 93.831 600.251 84.24"></polyline>
            <polyline id="Fill-153" fill="#FFFFFF" points="607.68 82.064 610.268 82.064 610.268 86.58 615.03 86.58 615.03 82.064 617.617 82.064 617.617 93.831 615.03 93.831 615.03 88.756 610.268 88.756 610.268 93.831 607.68 93.831 607.68 82.064"></polyline>
            <polyline id="Fill-154" fill="#FFFFFF" points="619.855 82.064 628.656 82.064 628.656 84.24 622.443 84.24 622.443 86.762 628.145 86.762 628.145 88.771 622.443 88.771 622.443 91.656 628.788 91.656 628.788 93.831 619.855 93.831 619.855 82.064"></polyline>
            <polyline id="Fill-155" fill="#FFFFFF" points="646.252 93.831 643.682 93.831 641.688 85.822 641.654 85.822 639.693 93.831 637.073 93.831 633.959 82.064 636.546 82.064 638.408 90.074 638.441 90.074 640.484 82.064 642.907 82.064 644.918 90.173 644.95 90.173 646.879 82.064 649.416 82.064 646.252 93.831"></polyline>
            <polygon id="Fill-156" fill="#FFFFFF" points="650.566 93.831 653.154 93.831 653.154 82.064 650.566 82.064"></polygon>
            <polyline id="Fill-157" fill="#FFFFFF" points="655.394 82.064 657.981 82.064 657.981 91.656 663.716 91.656 663.716 93.831 655.394 93.831 655.394 82.064"></polyline>
            <path d="M667.719,91.656 L670.025,91.656 C671.525,91.656 672.959,90.732 672.959,88.129 C672.959,85.756 672.135,84.24 669.564,84.24 L667.719,84.24 L667.719,91.656 L667.719,91.656 Z M665.131,82.064 L670.207,82.064 C673.256,82.064 675.546,83.977 675.546,87.882 C675.546,91.293 673.8,93.831 670.207,93.831 L665.131,93.831 L665.131,82.064 L665.131,82.064 Z" id="Fill-158" fill="#FFFFFF"></path>
        </g>
    </g>
</svg>