<svg xmlns="http://www.w3.org/2000/svg" width="770" height="159" viewBox="0 0 770 159"><title>category-scale_ex</title><g fill="none" fill-rule="evenodd"><path fill="#000" d="M769.272 79.77V.543h-80.574v.034c-43.127.72-77.88 35.884-77.88 79.197 0 43.757 35.475 79.226 79.224 79.226 43.621 0 79.004-35.252 79.222-78.822h.008v-.33l.002-.074-.002-.004"/><path fill="#FFF" d="M742.516 29.976h3.892c1.347 0 2.673.609 2.673 2.149 0 .823-.395 1.604-1.197 1.914v.021c.812.193 1.048 1.102 1.112 1.829.021.32.053 1.444.32 1.721h-1.967c-.171-.257-.203-1.005-.225-1.219-.054-.769-.182-1.561-1.112-1.561h-1.508v2.78h-1.988v-7.634zm1.988 3.315h1.669c.598 0 .919-.322.919-.899 0-.566-.449-.823-1.005-.823h-1.583v1.722zm5.518-3.315h6.084v1.593h-4.095v1.337h3.743v1.539h-3.743v1.454h4.203v1.711h-6.192v-7.634m7.112 0h3.282c2.342 0 3.742 1.422 3.742 3.785 0 2.502-1.422 3.849-3.742 3.849h-3.282v-7.634zm1.988 5.923h.941c1.508-.031 2.107-.62 2.107-2.149 0-1.39-.748-2.063-2.107-2.063h-.941v4.212zm-16.606 2.496h1.988v5.924h3.561v1.71h-5.549v-7.634m6.105 7.634h1.989v-7.634h-1.989zm4.491-2.566c.043.898.599 1.187 1.445 1.187.597 0 1.218-.213 1.218-.78 0-.674-1.09-.803-2.192-1.113-1.091-.31-2.235-.801-2.235-2.202 0-1.668 1.679-2.321 3.112-2.321 1.519 0 3.048.738 3.058 2.46h-1.989c.033-.695-.62-.92-1.229-.92-.428 0-.963.15-.963.652 0 .589 1.101.696 2.214 1.006 1.101.31 2.213.823 2.213 2.202 0 1.936-1.647 2.556-3.326 2.556-1.753 0-3.303-.77-3.314-2.727h1.988"/><path fill="#FFF" d="M764.052 40.105h-2.278v5.924h-1.989v-5.924h-2.277v-1.71h6.544v1.71m-6.777-27.991c-1.532 1.48-1.861 3.625-.736 4.791 1.127 1.166 3.283.91 4.815-.57 1.533-1.48 1.863-3.625.736-4.79-1.126-1.166-3.282-.911-4.815.569"/><path fill="#FFF" d="M756.049 19.311c-1.531 1.48-1.861 3.625-.735 4.79 1.127 1.167 3.282.911 4.813-.569 1.533-1.48 1.862-3.625.736-4.792-1.125-1.165-3.281-.909-4.814.571"/><g fill="#FFF"><path d="M745.521 8.782c-1.533 1.481-1.861 3.625-.735 4.792 1.126 1.165 3.281.91 4.814-.57 1.531-1.481 1.861-3.626.735-4.792-1.126-1.165-3.282-.911-4.814.57"/><path d="M752.775 7.647c-1.533 1.48-1.862 3.624-.737 4.79 1.128 1.166 3.282.912 4.816-.569 1.531-1.48 1.861-3.626.734-4.791-1.125-1.166-3.28-.91-4.813.57"/></g><path fill="#FFF" d="M754.164 20.753a6.031 6.031 0 0 1-12.06 0 6.03 6.03 0 0 1 12.06 0m-14.005-3.611a9.614 9.614 0 0 1-9.615 9.615 9.613 9.613 0 0 1-9.615-9.615c0-5.309 4.304-9.614 9.615-9.614h9.627l-.012 9.614m.106 21.08c0 5.343-4.332 9.674-9.676 9.674-5.342 0-9.674-4.331-9.674-9.674 0-5.344 4.332-9.675 9.674-9.675 5.344 0 9.676 4.331 9.676 9.675"/><path fill="#000" d="M726.275 39.241h.429v-1.948h-.429zm2.184-.149c-.147.128-.352.193-.611.193-.264 0-.468-.064-.614-.191-.144-.128-.216-.324-.216-.59v-1.211h.428v1.211c0 .053.005.105.014.156a.309.309 0 0 0 .179.23.483.483 0 0 0 .209.037c.152 0 .257-.034.316-.102.059-.068.087-.175.087-.321v-1.211h.429v1.211c0 .264-.075.46-.221.588m1.784-1.28a.454.454 0 0 0-.376-.206.47.47 0 0 0-.41.206.68.68 0 0 0-.091.215 1.066 1.066 0 0 0 0 .487c.019.077.05.147.091.209a.477.477 0 0 0 .164.148c.067.038.15.056.246.056.131 0 .233-.04.307-.12a.562.562 0 0 0 .135-.316h.415a.983.983 0 0 1-.085.33.766.766 0 0 1-.442.409.972.972 0 0 1-.33.055.999.999 0 0 1-.403-.078.881.881 0 0 1-.489-.535 1.169 1.169 0 0 1-.066-.397c0-.146.022-.28.066-.405a.972.972 0 0 1 .187-.326.852.852 0 0 1 .302-.218.983.983 0 0 1 .403-.079c.107 0 .208.015.304.046a.83.83 0 0 1 .257.135.732.732 0 0 1 .186.219c.049.088.08.188.093.301h-.415a.342.342 0 0 0-.049-.136m1.144-.519l.812 1.307h.006v-1.307h.4v1.948h-.427l-.811-1.304h-.006v1.304h-.4v-1.948h.426"/><path fill="#000" d="M730.356 40.306a3.103 3.103 0 0 1-2.311 1.027c-.86 0-1.638-.348-2.202-.912a3.105 3.105 0 0 1-.912-2.202c.001-.86.348-1.637.912-2.202a3.107 3.107 0 0 1 2.202-.912 3.107 3.107 0 0 1 2.389 1.116h1.27a4.17 4.17 0 0 0-7.832 1.996 4.17 4.17 0 0 0 7.78 2.089h-1.296"/><path fill="#FFF" d="M764.947 31.611c-.601 0-1.03-.451-1.03-1.048 0-.63.476-1.047 1.03-1.047.549 0 1.026.417 1.026 1.047 0 .63-.477 1.048-1.026 1.048zm0-1.913c-.453 0-.806.356-.806.865 0 .477.308.866.806.866.449 0 .801-.353.801-.866 0-.509-.352-.865-.801-.865zm.53 1.067a.497.497 0 0 1-.497.431c-.357 0-.592-.272-.592-.633 0-.338.223-.599.588-.601.254 0 .462.148.498.422h-.191c-.027-.143-.148-.24-.307-.24-.236 0-.365.187-.365.419 0 .244.143.451.369.451.166 0 .284-.103.303-.249h.194z"/><path fill="#000" d="M81.118 96.314h76.323V62.109H81.118z"/><path fill="#FFF" d="M108.718 76.005h1.399c.909 0 1.779-.56 1.779-2.139 0-1.439-.5-2.359-2.059-2.359h-1.119v4.498zm-1.57-5.817h3.079c1.849 0 3.238 1.16 3.238 3.528 0 2.069-1.059 3.608-3.238 3.608h-3.079v-7.136zm8.94 4.378h1.849l-.9-2.619h-.02l-.929 2.619zm.15-4.378h1.609l2.668 7.136h-1.629l-.539-1.589h-2.669l-.56 1.589h-1.589l2.709-7.136zm5.763 1.319h-2.139v-1.319h5.847v1.319h-2.139v5.817h-1.569v-5.817m5.6 3.059h1.849l-.9-2.619h-.02l-.929 2.619zm.15-4.378h1.609l2.668 7.136h-1.629l-.539-1.589h-2.669l-.56 1.589h-1.589l2.709-7.136zM94.89 87.013h1.399c.909 0 1.779-.56 1.779-2.139 0-1.439-.5-2.358-2.059-2.358H94.89v4.497zm-1.57-5.818h3.079c1.849 0 3.238 1.16 3.238 3.53 0 2.068-1.059 3.607-3.238 3.607H93.32v-7.137zm7.41 0h5.338v1.321H102.3v1.529h3.458v1.219H102.3v1.749h3.847v1.319h-5.417v-7.137m6.48 0h5.018v1.321h-3.448v1.648h2.988v1.22h-2.988v2.948h-1.57v-7.137m5.93 7.137h1.569v-7.137h-1.569zm7.707-4.737c-.099-.71-.779-1.249-1.559-1.249-1.409 0-1.939 1.199-1.939 2.448 0 1.189.53 2.389 1.939 2.389.96 0 1.5-.66 1.619-1.599h1.52c-.16 1.779-1.39 2.918-3.139 2.918-2.208 0-3.508-1.649-3.508-3.708 0-2.118 1.3-3.769 3.508-3.769 1.569 0 2.889.92 3.079 2.57h-1.52m2.653 4.737h1.569v-7.137H123.5zm2.95-7.137h5.338v1.321h-3.768v1.529h3.458v1.219h-3.458v1.749h3.847v1.319h-5.417v-7.137m6.48 0h1.559l2.979 4.788h.02v-4.788h1.469v7.137h-1.569l-2.969-4.777h-.02v4.777h-1.469v-7.137m8.989 1.321h-2.139v-1.321h5.847v1.321h-2.139v5.816h-1.569v-5.816"/><path fill="#000" d="M0 96.314h77.599V62.109H0z"/><path fill="#FFF" d="M28.906 70.188h1.559l2.979 4.788h.02v-4.788h1.469v7.136h-1.569l-2.968-4.777h-.021v4.777h-1.469v-7.136m10.609 5.987c1.409 0 1.939-1.199 1.939-2.389 0-1.249-.53-2.449-1.939-2.449-1.41 0-1.939 1.2-1.939 2.449 0 1.19.529 2.389 1.939 2.389zm0-6.157c2.209 0 3.508 1.649 3.508 3.768 0 2.059-1.299 3.708-3.508 3.708s-3.508-1.649-3.508-3.708c0-2.119 1.299-3.768 3.508-3.768zm6.009 1.489h-2.138v-1.319h5.846v1.319h-2.138v5.817h-1.57v-5.817m-35.29 9.688h5.338v1.321h-3.768v1.529h3.458v1.219h-3.458v1.749h3.847v1.319h-5.417v-7.137m9.969 7.137h-1.769l-2.319-7.137h1.619l1.589 5.018h.02l1.609-5.018h1.619l-2.368 7.137m4.346-2.758h1.849l-.899-2.619h-.02l-.93 2.619zm.15-4.379h1.609l2.669 7.137h-1.629l-.54-1.59H24.14l-.56 1.59h-1.589l2.708-7.137zm5.141 0h1.569v5.818h3.478v1.319H29.84v-7.137m11.631 4.438c0 1.929-1.14 2.869-3.049 2.869-1.919 0-3.038-.93-3.038-2.869v-4.438h1.57v4.438c0 .78.199 1.55 1.468 1.55 1.12 0 1.48-.49 1.48-1.55v-4.438h1.569v4.438m2.903-.059h1.848l-.899-2.619h-.02l-.929 2.619zm.149-4.379h1.609l2.669 7.137h-1.629l-.54-1.59h-2.668l-.56 1.59h-1.589l2.708-7.137zm5.759 1.321h-2.138v-1.321h5.846v1.321h-2.138v5.816h-1.57v-5.816m4.481-1.321h5.338v1.321h-3.768v1.529h3.457v1.219h-3.457v1.749h3.847v1.319h-5.417v-7.137m8.127 5.818h1.399c.909 0 1.779-.56 1.779-2.139 0-1.439-.5-2.358-2.059-2.358H62.89v4.497zm-1.57-5.818h3.079c1.849 0 3.238 1.16 3.238 3.53 0 2.068-1.059 3.607-3.238 3.607H61.32v-7.137zm590.909-7.528h8.8v2.176h-6.213v2.521h5.702v2.011h-5.702v2.883h6.345v2.176h-8.932V73.667m13.906 5.604l-3.79-5.604h2.999l2.307 3.758 2.39-3.758h2.834l-3.773 5.62 4.103 6.147h-3.082l-2.57-4.071-2.62 4.071h-2.917l4.119-6.163m11.081-3.428h-3.528v-2.176h9.641v2.176h-3.526v9.591h-2.587v-9.591m7.43 9.591h2.587V73.667h-2.587zm4.827-11.767h2.571l4.911 7.894h.032v-7.894h2.423v11.767h-2.587l-4.894-7.877h-.033v7.877h-2.423V73.667m20.02 3.955c-.165-1.17-1.285-2.06-2.571-2.06-2.323 0-3.196 1.978-3.196 4.038 0 1.961.873 3.939 3.196 3.939 1.582 0 2.473-1.088 2.67-2.637h2.505c-.264 2.933-2.29 4.812-5.175 4.812-3.642 0-5.784-2.72-5.784-6.114 0-3.494 2.142-6.213 5.784-6.213 2.588 0 4.763 1.516 5.076 4.235h-2.505m6.949-1.779h-3.527v-2.176h9.641v2.176h-3.527v9.591h-2.587v-9.591"/><path fill="#000" d="M173.43 70.188h1.569v5.817h3.478v1.319h-5.047v-7.136m5.799 0h5.338v1.319h-3.768v1.53h3.458v1.219h-3.458v1.749h3.847v1.319h-5.417v-7.136m8.031 4.378h1.849l-.9-2.619h-.02l-.929 2.619zm.15-4.378h1.609l2.669 7.136h-1.629l-.54-1.589h-2.668l-.56 1.589h-1.589l2.708-7.136zm5.891 4.768c0 .949.739 1.319 1.579 1.319.549 0 1.389-.16 1.389-.89 0-.769-1.069-.899-2.119-1.179-1.059-.28-2.129-.69-2.129-2.029 0-1.459 1.379-2.159 2.669-2.159 1.489 0 2.858.65 2.858 2.299h-1.519c-.05-.859-.659-1.079-1.409-1.079-.5 0-1.079.209-1.079.809 0 .55.339.62 2.128 1.079.52.13 2.119.461 2.119 2.08 0 1.309-1.029 2.288-2.968 2.288-1.579 0-3.059-.78-3.039-2.538h1.52m6.755-3.449h-2.139v-1.319h5.847v1.319h-2.139v5.817h-1.569v-5.817m-31.611 12.088c-.1-.71-.779-1.249-1.559-1.249-1.409 0-1.939 1.199-1.939 2.448 0 1.189.53 2.389 1.939 2.389.959 0 1.499-.66 1.619-1.599h1.519c-.16 1.779-1.389 2.918-3.138 2.918-2.209 0-3.508-1.649-3.508-3.708 0-2.118 1.299-3.769 3.508-3.769 1.569 0 2.888.92 3.078 2.57h-1.519m5.761 3.588c1.409 0 1.939-1.2 1.939-2.389 0-1.249-.53-2.448-1.939-2.448-1.41 0-1.939 1.199-1.939 2.448 0 1.189.529 2.389 1.939 2.389zm0-6.158c2.209 0 3.508 1.651 3.508 3.769 0 2.059-1.299 3.708-3.508 3.708s-3.508-1.649-3.508-3.708c0-2.118 1.299-3.769 3.508-3.769zm4.333.17h1.559l2.979 4.788h.02v-4.788h1.469v7.137h-1.569l-2.969-4.777h-.02v4.777h-1.469v-7.137m12.157 2.4c-.099-.71-.779-1.249-1.559-1.249-1.409 0-1.939 1.199-1.939 2.448 0 1.189.53 2.389 1.939 2.389.96 0 1.5-.66 1.619-1.599h1.52c-.16 1.779-1.39 2.918-3.139 2.918-2.208 0-3.508-1.649-3.508-3.708 0-2.118 1.3-3.769 3.508-3.769 1.57 0 2.889.92 3.079 2.57h-1.52m2.643-2.4h5.337v1.321h-3.768v1.529h3.458v1.219h-3.458v1.749h3.848v1.319h-5.417v-7.137m8.039 3.229h1.72c.699 0 1.079-.299 1.079-1.02 0-.689-.38-.989-1.079-.989h-1.72v2.009zm-1.569-3.229h3.848c1.28 0 2.089.891 2.089 1.97 0 .839-.34 1.47-1.129 1.789v.02c.769.2.989.95 1.039 1.669.03.45.02 1.289.3 1.689h-1.569c-.19-.449-.17-1.139-.25-1.709-.11-.75-.4-1.08-1.189-1.08h-1.57v2.789h-1.569v-7.137zm7.121 0h1.559l2.978 4.788h.02v-4.788h1.47v7.137h-1.57l-2.968-4.777h-.02v4.777h-1.469v-7.137m37.328-11.007h1.559l2.978 4.788h.02v-4.788h1.47v7.136h-1.57l-2.968-4.777h-.02v4.777h-1.469v-7.136m7.44 0h5.337v1.319h-3.768v1.53h3.458v1.219h-3.458v1.749h3.848v1.319h-5.417v-7.136m8.281 4.378h1.849l-.9-2.619h-.02l-.929 2.619zm.15-4.378h1.609l2.668 7.136h-1.629l-.539-1.589h-2.669l-.56 1.589h-1.589l2.709-7.136zm6.31 3.228h1.719c.699 0 1.079-.299 1.079-1.019 0-.689-.38-.99-1.079-.99h-1.719v2.009zm-1.569-3.228h3.848c1.279 0 2.089.89 2.089 1.969 0 .84-.34 1.469-1.13 1.789v.02c.77.2.99.95 1.04 1.669.03.45.019 1.289.3 1.689h-1.57c-.19-.45-.17-1.139-.25-1.709-.11-.749-.399-1.079-1.189-1.079h-1.569v2.788h-1.569v-7.136zm-38.689 12.328h-2.139v-1.321h5.847v1.321h-2.139v5.816h-1.569v-5.816m4.481-1.321h1.569v2.74h2.888v-2.74h1.569v7.137h-1.569v-3.078h-2.888v3.078h-1.569v-7.137m9.009 3.229h1.719c.699 0 1.079-.299 1.079-1.02 0-.689-.38-.989-1.079-.989h-1.719v2.009zm-1.569-3.229h3.848c1.279 0 2.089.891 2.089 1.97 0 .839-.34 1.47-1.13 1.789v.02c.77.2.989.95 1.04 1.669.03.45.02 1.289.3 1.689h-1.57c-.19-.449-.17-1.139-.25-1.709-.11-.75-.399-1.08-1.189-1.08h-1.569v2.789h-1.569v-7.137zm7.02 0h5.337v1.321h-3.768v1.529h3.458v1.219h-3.458v1.749h3.848v1.319h-5.417v-7.137m8.279 4.379h1.849l-.9-2.619h-.02l-.929 2.619zm.15-4.379h1.609l2.668 7.137h-1.629l-.539-1.59h-2.669l-.56 1.59h-1.589l2.709-7.137zm5.76 1.321h-2.139v-1.321h5.847v1.321h-2.139v5.816h-1.569v-5.816m4.486-1.321h5.337v1.321h-3.768v1.529h3.458v1.219h-3.458v1.749h3.848v1.319h-5.417v-7.137m6.56 0h1.559l2.979 4.788h.02v-4.788h1.469v7.137h-1.57l-2.968-4.777h-.02v4.777h-1.469v-7.137m7.49 0h5.337v1.321h-3.768v1.529h3.458v1.219h-3.458v1.749h3.848v1.319h-5.417v-7.137m8.129 5.818h1.399c.91 0 1.779-.56 1.779-2.139 0-1.439-.499-2.358-2.059-2.358h-1.119v4.497zm-1.569-5.818h3.078c1.849 0 3.239 1.16 3.239 3.53 0 2.068-1.06 3.607-3.239 3.607h-3.078v-7.137zm22.232 1.684h-1.769l-2.319-7.136h1.619l1.589 5.017h.02l1.609-5.017h1.619l-2.368 7.136m9.098-2.699c0 1.929-1.139 2.869-3.049 2.869-1.918 0-3.038-.93-3.038-2.869v-4.437h1.57v4.437c0 .78.199 1.549 1.468 1.549 1.12 0 1.48-.489 1.48-1.549v-4.437h1.569v4.437m1.38-4.437h1.57v5.817h3.478v1.319h-5.048v-7.136m5.65 0h1.559l2.979 4.787h.02v-4.787h1.469v7.136h-1.569l-2.969-4.777h-.02v4.777h-1.469v-7.136m7.436 0h5.338v1.319h-3.769v1.529h3.458v1.22h-3.458v1.749h3.848v1.319h-5.417v-7.136m8.11 3.228h1.719c.699 0 1.079-.3 1.079-1.019 0-.69-.38-.99-1.079-.99h-1.719v2.009zm-1.57-3.228h3.848c1.28 0 2.089.889 2.089 1.969 0 .839-.34 1.469-1.129 1.789v.019c.769.201.989.951 1.039 1.669.03.451.02 1.29.3 1.69h-1.569c-.19-.449-.17-1.139-.25-1.709-.11-.75-.4-1.08-1.189-1.08h-1.569v2.789h-1.57v-7.136zm9.079 4.378h1.849l-.9-2.619h-.02l-.929 2.619zm.15-4.378h1.609l2.669 7.136h-1.629l-.54-1.59h-2.669l-.559 1.59h-1.589l2.708-7.136zm6.53 5.917h1.68c.619 0 1.159-.201 1.159-.939 0-.73-.46-1.02-1.13-1.02h-1.709v1.959zm0-3.029h1.589c.55 0 .96-.25.96-.849 0-.68-.52-.82-1.079-.82h-1.47v1.669zm-1.569-2.888h3.359c1.359 0 2.278.44 2.278 1.769 0 .699-.35 1.189-.969 1.489.869.25 1.309.919 1.309 1.81 0 1.449-1.229 2.068-2.518 2.068h-3.459v-7.136zm7.005 0h1.569v5.817h3.478v1.319h-5.047v-7.136m5.649 0h5.338v1.319h-3.768v1.529h3.458v1.22h-3.458v1.749h3.847v1.319h-5.417v-7.136m17.733 0h5.337v1.319h-3.767v1.529h3.458v1.22h-3.458v1.749h3.847v1.319h-5.417v-7.136m6.56 0h1.559l2.979 4.787h.02v-4.787h1.468v7.136h-1.568l-2.969-4.777h-.019v4.777h-1.47v-7.136m9.002 5.817h1.399c.909 0 1.78-.56 1.78-2.139 0-1.44-.5-2.359-2.06-2.359h-1.119v4.498zm-1.569-5.817h3.078c1.849 0 3.238 1.159 3.238 3.528 0 2.069-1.06 3.608-3.238 3.608h-3.078v-7.136zm8.938 4.378h1.85l-.9-2.619h-.02l-.93 2.619zm.15-4.378h1.61l2.668 7.136h-1.629l-.54-1.59h-2.668l-.56 1.59h-1.59l2.709-7.136zm4.951 0h1.559l2.979 4.787h.019v-4.787h1.47v7.136h-1.569l-2.969-4.777h-.02v4.777h-1.469v-7.136m12.617 6.326c-.55.71-1.27.98-1.959.98-2.209 0-3.508-1.649-3.508-3.708 0-2.119 1.299-3.768 3.508-3.768 1.459 0 2.839.9 3.009 2.518h-1.499c-.181-.789-.77-1.199-1.51-1.199-1.409 0-1.939 1.199-1.939 2.449 0 1.189.53 2.388 1.939 2.388 1.019 0 1.609-.549 1.699-1.539h-1.579v-1.169h2.998v3.858h-.999l-.16-.81m2.482-6.326h5.337v1.319h-3.767v1.529h3.458v1.22h-3.458v1.749h3.847v1.319h-5.417v-7.136m8.1 3.228h1.719c.7 0 1.08-.3 1.08-1.019 0-.69-.38-.99-1.08-.99h-1.719v2.009zm-1.57-3.228h3.848c1.279 0 2.089.889 2.089 1.969 0 .839-.34 1.469-1.129 1.789v.019c.77.201.989.951 1.039 1.669.03.451.021 1.29.3 1.69h-1.568c-.191-.449-.17-1.139-.25-1.709-.111-.75-.401-1.08-1.19-1.08h-1.569v2.789h-1.57v-7.136zm7.27 0h5.337v1.319h-3.768v1.529h3.458v1.22h-3.458v1.749h3.848v1.319h-5.417v-7.136m8.1 5.817h1.399c.909 0 1.779-.56 1.779-2.139 0-1.44-.5-2.359-2.059-2.359h-1.119v4.498zm-1.57-5.817h3.078c1.85 0 3.239 1.159 3.239 3.528 0 2.069-1.06 3.608-3.239 3.608h-3.078v-7.136zm24.688-3.156c-.101-.71-.781-1.25-1.56-1.25-1.409 0-1.938 1.2-1.938 2.449 0 1.19.529 2.389 1.938 2.389.96 0 1.499-.66 1.619-1.599h1.52c-.16 1.779-1.39 2.918-3.139 2.918-2.209 0-3.508-1.649-3.508-3.708 0-2.119 1.299-3.768 3.508-3.768 1.57 0 2.889.919 3.078 2.569h-1.518m4.191.829h1.719c.7 0 1.08-.299 1.08-1.019 0-.689-.38-.99-1.08-.99h-1.719v2.009zm-1.569-3.228h3.847c1.28 0 2.089.89 2.089 1.969 0 .84-.339 1.469-1.129 1.789v.02c.77.2.99.95 1.04 1.669.03.45.02 1.289.299 1.689h-1.568c-.19-.45-.17-1.139-.25-1.709-.11-.749-.4-1.079-1.19-1.079h-1.569v2.788h-1.569v-7.136zm7.189 7.136h1.57v-7.136h-1.57zm4.5-5.817h-2.138v-1.319h5.846v1.319h-2.138v5.817h-1.57v-5.817m4.5 5.817h1.57v-7.136h-1.57zm7.678-4.737c-.101-.71-.78-1.25-1.56-1.25-1.409 0-1.938 1.2-1.938 2.449 0 1.19.529 2.389 1.938 2.389.96 0 1.499-.66 1.62-1.599h1.519c-.16 1.779-1.39 2.918-3.139 2.918-2.209 0-3.507-1.649-3.507-3.708 0-2.119 1.298-3.768 3.507-3.768 1.57 0 2.889.919 3.079 2.569h-1.519m4.271 1.979h1.849l-.899-2.619h-.021l-.929 2.619zm.15-4.378h1.609l2.668 7.136h-1.629l-.54-1.589h-2.668l-.559 1.589h-1.59l2.709-7.136zm4.94 0h1.57v5.817h3.478v1.319h-5.048v-7.136m5.853 0h1.569v5.817h3.479v1.319h-5.048v-7.136m6.8 4.358l-2.629-4.358h1.768l1.67 2.819 1.658-2.819h1.749l-2.648 4.398v2.738h-1.568v-2.778m-59.628 6.649h5.337v1.321h-3.768v1.529h3.458v1.219h-3.458v1.749h3.848v1.319h-5.417v-7.137m6.559 0h1.56l2.978 4.788h.02v-4.788h1.469v7.137h-1.569l-2.968-4.777h-.02v4.777h-1.47v-7.137m8.994 5.818h1.4c.909 0 1.779-.56 1.779-2.139 0-1.439-.5-2.358-2.059-2.358h-1.12v4.497zm-1.569-5.818h3.078c1.85 0 3.239 1.16 3.239 3.53 0 2.068-1.06 3.607-3.239 3.607h-3.078v-7.137zm8.939 4.379h1.849l-.899-2.619h-.021l-.929 2.619zm.15-4.379h1.609l2.668 7.137h-1.629l-.54-1.59h-2.668l-.559 1.59h-1.59l2.709-7.137zm4.95 0h1.56l2.978 4.788h.02v-4.788h1.47v7.137h-1.57l-2.969-4.777h-.019v4.777h-1.47v-7.137m12.617 6.327c-.549.71-1.269.98-1.959.98-2.209 0-3.507-1.649-3.507-3.708 0-2.118 1.298-3.769 3.507-3.769 1.459 0 2.839.901 3.009 2.52h-1.499c-.181-.79-.769-1.199-1.51-1.199-1.409 0-1.938 1.199-1.938 2.448 0 1.189.529 2.389 1.938 2.389 1.02 0 1.61-.55 1.7-1.539h-1.579v-1.169h2.998v3.857h-.999l-.161-.81m2.483-6.327h5.337v1.321h-3.768v1.529h3.458v1.219h-3.458v1.749h3.848v1.319h-5.417v-7.137m8.099 3.229h1.719c.7 0 1.08-.299 1.08-1.02 0-.689-.38-.989-1.08-.989h-1.719v2.009zm-1.569-3.229h3.848c1.279 0 2.089.891 2.089 1.97 0 .839-.34 1.47-1.129 1.789v.02c.769.2.989.95 1.039 1.669.03.45.02 1.289.3 1.689h-1.569c-.19-.449-.17-1.139-.25-1.709-.11-.75-.4-1.08-1.189-1.08h-1.57v2.789h-1.569v-7.137zm7.27 0h5.337v1.321h-3.768v1.529h3.458v1.219h-3.458v1.749h3.848v1.319h-5.417v-7.137m8.099 5.818h1.4c.909 0 1.779-.56 1.779-2.139 0-1.439-.5-2.358-2.06-2.358h-1.119v4.497zm-1.569-5.818h3.078c1.85 0 3.238 1.16 3.238 3.53 0 2.068-1.059 3.607-3.238 3.607h-3.078v-7.137z"/><path stroke="#000" d="M163.276 95.857h603.907M163.275 62.635h603.908"/><path fill="#000" d="M550.195 70.188h5.337v1.319h-3.767v1.53h3.458v1.219h-3.458v1.749h3.847v1.319h-5.417v-7.136m8.429 3.399l-2.299-3.399h1.82l1.399 2.279 1.449-2.279h1.719l-2.289 3.408 2.489 3.728h-1.869l-1.56-2.469-1.588 2.469h-1.769l2.498-3.737m6.51-2.08h-2.139v-1.319h5.847v1.319h-2.139v5.817h-1.569v-5.817m4.48 5.817h1.57v-7.136h-1.57zm3.167-7.136h1.56l2.978 4.788h.02v-4.788h1.47v7.136h-1.57l-2.968-4.777h-.02v4.777h-1.47v-7.136m12.168 2.399c-.1-.71-.78-1.25-1.559-1.25-1.41 0-1.939 1.2-1.939 2.449 0 1.19.529 2.389 1.939 2.389.96 0 1.499-.66 1.619-1.599h1.519c-.16 1.779-1.389 2.918-3.138 2.918-2.209 0-3.508-1.649-3.508-3.708 0-2.119 1.299-3.768 3.508-3.768 1.569 0 2.888.919 3.078 2.569h-1.519m3.982-1.08h-2.139v-1.319h5.847v1.319H590.5v5.817h-1.569v-5.817m-47.486 16.825h1.57v-7.137h-1.57zm2.96-7.137h1.56l2.978 4.788h.02v-4.788h1.469v7.137h-1.569l-2.968-4.777h-.02v4.777h-1.47v-7.137m11.616 1.321h-2.139v-1.321h5.847v1.321h-2.139v5.816h-1.569v-5.816m4.48-1.321h1.569v2.74h2.889v-2.74h1.568v7.137h-1.568v-3.078h-2.889v3.078h-1.569v-7.137m7.39 0h5.337v1.321h-3.768v1.529h3.458v1.219h-3.458v1.749h3.848v1.319h-5.417v-7.137m15.859 7.137h-1.56l-1.209-4.857h-.02l-1.19 4.857h-1.588l-1.889-7.137h1.569l1.129 4.858h.02l1.24-4.858h1.469l1.219 4.918h.02l1.169-4.918h1.54l-1.919 7.137m2.653 0h1.57v-7.137h-1.57zm2.956-7.137h1.57v5.818h3.478v1.319h-5.048v-7.137m7.02 5.818h1.399c.91 0 1.779-.56 1.779-2.139 0-1.439-.499-2.358-2.059-2.358h-1.119v4.497zm-1.569-5.818h3.078c1.849 0 3.238 1.16 3.238 3.53 0 2.068-1.06 3.607-3.238 3.607h-3.078v-7.137z"/></g></svg>