<?xml version="1.0" encoding="UTF-8"?>
<svg width="770px" height="159px" viewBox="0 0 770 159" version="1.1" xmlns="http://www.w3.org/2000/svg" xmlns:xlink="http://www.w3.org/1999/xlink">
    <!-- Generator: Sketch 40.3 (33839) - http://www.bohemiancoding.com/sketch -->
    <title>category-scale_ex</title>
    <desc>Created with Sketch.</desc>
    <defs></defs>
    <g id="Page-1" stroke="none" stroke-width="1" fill="none" fill-rule="evenodd">
        <g id="category-scale_ex">
            <path d="M769.272,79.77 L769.272,0.543 L688.698,0.543 L688.698,0.577 C645.571,1.297 610.818,36.461 610.818,79.774 C610.818,123.531 646.293,159 690.042,159 C733.663,159 769.046,123.748 769.264,80.178 L769.272,80.178 L769.272,79.848 C769.272,79.824 769.274,79.799 769.274,79.774 C769.274,79.773 769.272,79.771 769.272,79.77" id="Fill-1" fill="#000000"></path>
            <path d="M742.516,29.976 L746.408,29.976 C747.755,29.976 749.081,30.585 749.081,32.125 C749.081,32.948 748.686,33.729 747.884,34.039 L747.884,34.06 C748.696,34.253 748.932,35.162 748.996,35.889 C749.017,36.209 749.049,37.333 749.316,37.61 L747.349,37.61 C747.178,37.353 747.146,36.605 747.124,36.391 C747.07,35.622 746.942,34.83 746.012,34.83 L744.504,34.83 L744.504,37.61 L742.516,37.61 L742.516,29.976 L742.516,29.976 Z M744.504,33.291 L746.173,33.291 C746.771,33.291 747.092,32.969 747.092,32.392 C747.092,31.826 746.643,31.569 746.087,31.569 L744.504,31.569 L744.504,33.291 L744.504,33.291 Z" id="Fill-2" fill="#FFFFFF"></path>
            <polyline id="Fill-3" fill="#FFFFFF" points="750.022 29.976 756.106 29.976 756.106 31.569 752.011 31.569 752.011 32.906 755.754 32.906 755.754 34.445 752.011 34.445 752.011 35.899 756.214 35.899 756.214 37.61 750.022 37.61 750.022 29.976"></polyline>
            <path d="M757.134,29.976 L760.416,29.976 C762.758,29.976 764.158,31.398 764.158,33.761 C764.158,36.263 762.736,37.61 760.416,37.61 L757.134,37.61 L757.134,29.976 L757.134,29.976 Z M759.122,35.899 L760.063,35.899 C761.571,35.868 762.17,35.279 762.17,33.75 C762.17,32.36 761.422,31.687 760.063,31.687 L759.122,31.687 L759.122,35.899 L759.122,35.899 Z" id="Fill-4" fill="#FFFFFF"></path>
            <polyline id="Fill-5" fill="#FFFFFF" points="742.516 38.395 744.504 38.395 744.504 44.319 748.065 44.319 748.065 46.029 742.516 46.029 742.516 38.395"></polyline>
            <polygon id="Fill-6" fill="#FFFFFF" points="748.621 46.029 750.61 46.029 750.61 38.395 748.621 38.395"></polygon>
            <path d="M753.112,43.463 C753.155,44.361 753.711,44.65 754.557,44.65 C755.154,44.65 755.775,44.437 755.775,43.87 C755.775,43.196 754.685,43.067 753.583,42.757 C752.492,42.447 751.348,41.956 751.348,40.555 C751.348,38.887 753.027,38.234 754.46,38.234 C755.979,38.234 757.508,38.972 757.518,40.694 L755.529,40.694 C755.562,39.999 754.909,39.774 754.3,39.774 C753.872,39.774 753.337,39.924 753.337,40.426 C753.337,41.015 754.438,41.122 755.551,41.432 C756.652,41.742 757.764,42.255 757.764,43.634 C757.764,45.57 756.117,46.19 754.438,46.19 C752.685,46.19 751.135,45.42 751.124,43.463 L753.112,43.463" id="Fill-7" fill="#FFFFFF"></path>
            <polyline id="Fill-8" fill="#FFFFFF" points="764.052 40.105 761.774 40.105 761.774 46.029 759.785 46.029 759.785 40.105 757.508 40.105 757.508 38.395 764.052 38.395 764.052 40.105"></polyline>
            <path d="M757.275,12.114 C755.743,13.594 755.414,15.739 756.539,16.905 C757.666,18.071 759.822,17.815 761.354,16.335 C762.887,14.855 763.217,12.71 762.09,11.545 C760.964,10.379 758.808,10.634 757.275,12.114" id="Fill-9" fill="#FFFFFF"></path>
            <path d="M756.049,19.311 C754.518,20.791 754.188,22.936 755.314,24.101 C756.441,25.268 758.596,25.012 760.127,23.532 C761.66,22.052 761.989,19.907 760.863,18.74 C759.738,17.575 757.582,17.831 756.049,19.311" id="Fill-10" fill="#FFFFFF"></path>
            <g id="Group-14" transform="translate(744.000000, 6.000000)" fill="#FFFFFF">
                <path d="M1.521,2.782 C-0.012,4.263 -0.34,6.407 0.786,7.574 C1.912,8.739 4.067,8.484 5.6,7.004 C7.131,5.523 7.461,3.378 6.335,2.212 C5.209,1.047 3.053,1.301 1.521,2.782" id="Fill-11"></path>
                <path d="M8.775,1.647 C7.242,3.127 6.913,5.271 8.038,6.437 C9.166,7.603 11.32,7.349 12.854,5.868 C14.385,4.388 14.715,2.242 13.588,1.077 C12.463,-0.089 10.308,0.167 8.775,1.647" id="Fill-13"></path>
            </g>
            <path d="M754.164,20.753 C754.164,24.082 751.464,26.783 748.134,26.783 C744.804,26.783 742.104,24.082 742.104,20.753 C742.104,17.423 744.804,14.723 748.134,14.723 C751.464,14.723 754.164,17.423 754.164,20.753" id="Fill-15" fill="#FFFFFF"></path>
            <path d="M740.159,17.142 C740.159,22.454 735.854,26.757 730.544,26.757 C725.233,26.757 720.929,22.454 720.929,17.142 C720.929,11.833 725.233,7.528 730.544,7.528 L740.171,7.528 L740.159,17.142" id="Fill-16" fill="#FFFFFF"></path>
            <path d="M740.265,38.222 C740.265,43.565 735.933,47.896 730.589,47.896 C725.247,47.896 720.915,43.565 720.915,38.222 C720.915,32.878 725.247,28.547 730.589,28.547 C735.933,28.547 740.265,32.878 740.265,38.222" id="Fill-17" fill="#FFFFFF"></path>
            <polygon id="Fill-18" fill="#000000" points="726.275 39.241 726.704 39.241 726.704 37.293 726.275 37.293"></polygon>
            <path d="M728.459,39.092 C728.312,39.22 728.107,39.285 727.848,39.285 C727.584,39.285 727.38,39.221 727.234,39.094 C727.09,38.966 727.018,38.77 727.018,38.504 L727.018,37.293 L727.446,37.293 L727.446,38.504 C727.446,38.557 727.451,38.609 727.46,38.66 C727.469,38.71 727.488,38.756 727.518,38.795 C727.547,38.834 727.587,38.866 727.639,38.89 C727.69,38.915 727.76,38.927 727.848,38.927 C728,38.927 728.105,38.893 728.164,38.825 C728.223,38.757 728.251,38.65 728.251,38.504 L728.251,37.293 L728.68,37.293 L728.68,38.504 C728.68,38.768 728.605,38.964 728.459,39.092" id="Fill-19" fill="#000000"></path>
            <path d="M730.243,37.812 C730.218,37.771 730.186,37.736 730.147,37.705 C730.109,37.674 730.066,37.65 730.018,37.632 C729.97,37.615 729.92,37.606 729.867,37.606 C729.771,37.606 729.688,37.625 729.621,37.663 C729.554,37.7 729.499,37.75 729.457,37.812 C729.416,37.875 729.385,37.947 729.366,38.027 C729.347,38.107 729.337,38.189 729.337,38.275 C729.337,38.357 729.347,38.437 729.366,38.514 C729.385,38.591 729.416,38.661 729.457,38.723 C729.499,38.784 729.554,38.834 729.621,38.871 C729.688,38.909 729.771,38.927 729.867,38.927 C729.998,38.927 730.1,38.887 730.174,38.807 C730.247,38.727 730.292,38.622 730.309,38.491 L730.724,38.491 C730.713,38.612 730.685,38.723 730.639,38.821 C730.594,38.919 730.533,39.002 730.459,39.072 C730.384,39.141 730.297,39.194 730.197,39.23 C730.097,39.266 729.986,39.285 729.867,39.285 C729.718,39.285 729.583,39.259 729.464,39.207 C729.345,39.155 729.244,39.083 729.162,38.993 C729.081,38.902 729.018,38.795 728.975,38.672 C728.931,38.549 728.909,38.417 728.909,38.275 C728.909,38.129 728.931,37.995 728.975,37.87 C729.018,37.745 729.081,37.637 729.162,37.544 C729.244,37.451 729.345,37.378 729.464,37.326 C729.583,37.273 729.718,37.247 729.867,37.247 C729.974,37.247 730.075,37.262 730.171,37.293 C730.267,37.324 730.352,37.369 730.428,37.428 C730.503,37.487 730.565,37.56 730.614,37.647 C730.663,37.735 730.694,37.835 730.707,37.948 L730.292,37.948 C730.285,37.898 730.269,37.854 730.243,37.812" id="Fill-20" fill="#000000"></path>
            <polyline id="Fill-21" fill="#000000" points="731.387 37.293 732.199 38.6 732.205 38.6 732.205 37.293 732.605 37.293 732.605 39.241 732.178 39.241 731.367 37.937 731.361 37.937 731.361 39.241 730.961 39.241 730.961 37.293 731.387 37.293"></polyline>
            <path d="M730.356,40.306 C730.321,40.345 730.284,40.384 730.247,40.421 C729.683,40.985 728.905,41.333 728.045,41.333 C727.185,41.333 726.407,40.985 725.843,40.421 C725.279,39.857 724.932,39.08 724.931,38.219 C724.932,37.359 725.279,36.582 725.843,36.017 C726.407,35.454 727.185,35.105 728.045,35.105 C728.905,35.105 729.683,35.454 730.247,36.017 C730.313,36.083 730.374,36.15 730.434,36.221 L731.704,36.221 C730.997,34.925 729.622,34.047 728.042,34.046 C725.739,34.047 723.872,35.914 723.872,38.217 C723.872,40.52 725.739,42.387 728.042,42.387 C729.584,42.387 730.931,41.55 731.652,40.306 L730.356,40.306" id="Fill-22" fill="#000000"></path>
            <path d="M764.947,31.611 C764.346,31.611 763.917,31.16 763.917,30.563 C763.917,29.933 764.393,29.516 764.947,29.516 C765.496,29.516 765.973,29.933 765.973,30.563 C765.973,31.193 765.496,31.611 764.947,31.611 L764.947,31.611 Z M764.947,29.698 C764.494,29.698 764.141,30.054 764.141,30.563 C764.141,31.04 764.449,31.429 764.947,31.429 C765.396,31.429 765.748,31.076 765.748,30.563 C765.748,30.054 765.396,29.698 764.947,29.698 L764.947,29.698 Z M765.477,30.765 C765.429,31.031 765.228,31.196 764.98,31.196 C764.623,31.196 764.388,30.924 764.388,30.563 C764.388,30.225 764.611,29.964 764.976,29.962 C765.23,29.962 765.438,30.11 765.474,30.384 L765.283,30.384 C765.256,30.241 765.135,30.144 764.976,30.144 C764.74,30.144 764.611,30.331 764.611,30.563 C764.611,30.807 764.754,31.014 764.98,31.014 C765.146,31.014 765.264,30.911 765.283,30.765 L765.477,30.765 L765.477,30.765 Z" id="Fill-23" fill="#FFFFFF"></path>
            <polygon id="Fill-24" fill="#000000" points="81.118 96.314 157.441 96.314 157.441 62.109 81.118 62.109"></polygon>
            <path d="M108.718,76.005 L110.117,76.005 C111.026,76.005 111.896,75.445 111.896,73.866 C111.896,72.427 111.396,71.507 109.837,71.507 L108.718,71.507 L108.718,76.005 L108.718,76.005 Z M107.148,70.188 L110.227,70.188 C112.076,70.188 113.465,71.348 113.465,73.716 C113.465,75.785 112.406,77.324 110.227,77.324 L107.148,77.324 L107.148,70.188 L107.148,70.188 Z" id="Fill-25" fill="#FFFFFF"></path>
            <path d="M116.088,74.566 L117.937,74.566 L117.037,71.947 L117.017,71.947 L116.088,74.566 L116.088,74.566 Z M116.238,70.188 L117.847,70.188 L120.515,77.324 L118.886,77.324 L118.347,75.735 L115.678,75.735 L115.118,77.324 L113.529,77.324 L116.238,70.188 L116.238,70.188 Z" id="Fill-26" fill="#FFFFFF"></path>
            <polyline id="Fill-27" fill="#FFFFFF" points="122.001 71.507 119.862 71.507 119.862 70.188 125.709 70.188 125.709 71.507 123.57 71.507 123.57 77.324 122.001 77.324 122.001 71.507"></polyline>
            <path d="M127.601,74.566 L129.45,74.566 L128.55,71.947 L128.53,71.947 L127.601,74.566 L127.601,74.566 Z M127.751,70.188 L129.36,70.188 L132.028,77.324 L130.399,77.324 L129.86,75.735 L127.191,75.735 L126.631,77.324 L125.042,77.324 L127.751,70.188 L127.751,70.188 Z" id="Fill-28" fill="#FFFFFF"></path>
            <path d="M94.89,87.013 L96.289,87.013 C97.198,87.013 98.068,86.453 98.068,84.874 C98.068,83.435 97.568,82.516 96.009,82.516 L94.89,82.516 L94.89,87.013 L94.89,87.013 Z M93.32,81.195 L96.399,81.195 C98.248,81.195 99.637,82.355 99.637,84.725 C99.637,86.793 98.578,88.332 96.399,88.332 L93.32,88.332 L93.32,81.195 L93.32,81.195 Z" id="Fill-29" fill="#FFFFFF"></path>
            <polyline id="Fill-30" fill="#FFFFFF" points="100.73 81.195 106.068 81.195 106.068 82.516 102.3 82.516 102.3 84.045 105.758 84.045 105.758 85.264 102.3 85.264 102.3 87.013 106.147 87.013 106.147 88.332 100.73 88.332 100.73 81.195"></polyline>
            <polyline id="Fill-31" fill="#FFFFFF" points="107.21 81.195 112.228 81.195 112.228 82.516 108.78 82.516 108.78 84.164 111.768 84.164 111.768 85.384 108.78 85.384 108.78 88.332 107.21 88.332 107.21 81.195"></polyline>
            <polygon id="Fill-32" fill="#FFFFFF" points="113.14 88.332 114.709 88.332 114.709 81.195 113.14 81.195"></polygon>
            <path d="M120.847,83.595 C120.748,82.885 120.068,82.346 119.288,82.346 C117.879,82.346 117.349,83.545 117.349,84.794 C117.349,85.983 117.879,87.183 119.288,87.183 C120.248,87.183 120.788,86.523 120.907,85.584 L122.427,85.584 C122.267,87.363 121.037,88.502 119.288,88.502 C117.08,88.502 115.78,86.853 115.78,84.794 C115.78,82.676 117.08,81.025 119.288,81.025 C120.857,81.025 122.177,81.945 122.367,83.595 L120.847,83.595" id="Fill-33" fill="#FFFFFF"></path>
            <polygon id="Fill-34" fill="#FFFFFF" points="123.5 88.332 125.069 88.332 125.069 81.195 123.5 81.195"></polygon>
            <polyline id="Fill-35" fill="#FFFFFF" points="126.45 81.195 131.788 81.195 131.788 82.516 128.02 82.516 128.02 84.045 131.478 84.045 131.478 85.264 128.02 85.264 128.02 87.013 131.867 87.013 131.867 88.332 126.45 88.332 126.45 81.195"></polyline>
            <polyline id="Fill-36" fill="#FFFFFF" points="132.93 81.195 134.489 81.195 137.468 85.983 137.488 85.983 137.488 81.195 138.957 81.195 138.957 88.332 137.388 88.332 134.419 83.555 134.399 83.555 134.399 88.332 132.93 88.332 132.93 81.195"></polyline>
            <polyline id="Fill-37" fill="#FFFFFF" points="141.919 82.516 139.78 82.516 139.78 81.195 145.627 81.195 145.627 82.516 143.488 82.516 143.488 88.332 141.919 88.332 141.919 82.516"></polyline>
            <polygon id="Fill-41" fill="#000000" points="0 96.314 77.599 96.314 77.599 62.109 0 62.109"></polygon>
            <polyline id="Fill-43" fill="#FFFFFF" points="28.906 70.188 30.465 70.188 33.444 74.976 33.464 74.976 33.464 70.188 34.933 70.188 34.933 77.324 33.364 77.324 30.396 72.547 30.375 72.547 30.375 77.324 28.906 77.324 28.906 70.188"></polyline>
            <path d="M39.515,76.175 C40.924,76.175 41.454,74.976 41.454,73.786 C41.454,72.537 40.924,71.337 39.515,71.337 C38.105,71.337 37.576,72.537 37.576,73.786 C37.576,74.976 38.105,76.175 39.515,76.175 L39.515,76.175 Z M39.515,70.018 C41.724,70.018 43.023,71.667 43.023,73.786 C43.023,75.845 41.724,77.494 39.515,77.494 C37.306,77.494 36.007,75.845 36.007,73.786 C36.007,71.667 37.306,70.018 39.515,70.018 L39.515,70.018 Z" id="Fill-44" fill="#FFFFFF"></path>
            <polyline id="Fill-45" fill="#FFFFFF" points="45.524 71.507 43.386 71.507 43.386 70.188 49.232 70.188 49.232 71.507 47.094 71.507 47.094 77.324 45.524 77.324 45.524 71.507"></polyline>
            <polyline id="Fill-46" fill="#FFFFFF" points="10.234 81.195 15.572 81.195 15.572 82.516 11.804 82.516 11.804 84.045 15.262 84.045 15.262 85.264 11.804 85.264 11.804 87.013 15.651 87.013 15.651 88.332 10.234 88.332 10.234 81.195"></polyline>
            <polyline id="Fill-47" fill="#FFFFFF" points="20.203 88.332 18.434 88.332 16.115 81.195 17.734 81.195 19.323 86.213 19.343 86.213 20.952 81.195 22.571 81.195 20.203 88.332"></polyline>
            <path d="M24.549,85.574 L26.398,85.574 L25.499,82.955 L25.479,82.955 L24.549,85.574 L24.549,85.574 Z M24.699,81.195 L26.308,81.195 L28.977,88.332 L27.348,88.332 L26.808,86.742 L24.14,86.742 L23.58,88.332 L21.991,88.332 L24.699,81.195 L24.699,81.195 Z" id="Fill-48" fill="#FFFFFF"></path>
            <polyline id="Fill-49" fill="#FFFFFF" points="29.84 81.195 31.409 81.195 31.409 87.013 34.887 87.013 34.887 88.332 29.84 88.332 29.84 81.195"></polyline>
            <path d="M41.471,85.633 C41.471,87.562 40.331,88.502 38.422,88.502 C36.503,88.502 35.384,87.572 35.384,85.633 L35.384,81.195 L36.954,81.195 L36.954,85.633 C36.954,86.413 37.153,87.183 38.422,87.183 C39.542,87.183 39.902,86.693 39.902,85.633 L39.902,81.195 L41.471,81.195 L41.471,85.633" id="Fill-50" fill="#FFFFFF"></path>
            <path d="M44.374,85.574 L46.222,85.574 L45.323,82.955 L45.303,82.955 L44.374,85.574 L44.374,85.574 Z M44.523,81.195 L46.132,81.195 L48.801,88.332 L47.172,88.332 L46.632,86.742 L43.964,86.742 L43.404,88.332 L41.815,88.332 L44.523,81.195 L44.523,81.195 Z" id="Fill-51" fill="#FFFFFF"></path>
            <polyline id="Fill-52" fill="#FFFFFF" points="50.282 82.516 48.144 82.516 48.144 81.195 53.99 81.195 53.99 82.516 51.852 82.516 51.852 88.332 50.282 88.332 50.282 82.516"></polyline>
            <polyline id="Fill-53" fill="#FFFFFF" points="54.763 81.195 60.101 81.195 60.101 82.516 56.333 82.516 56.333 84.045 59.79 84.045 59.79 85.264 56.333 85.264 56.333 87.013 60.18 87.013 60.18 88.332 54.763 88.332 54.763 81.195"></polyline>
            <path d="M62.89,87.013 L64.289,87.013 C65.198,87.013 66.068,86.453 66.068,84.874 C66.068,83.435 65.568,82.516 64.009,82.516 L62.89,82.516 L62.89,87.013 L62.89,87.013 Z M61.32,81.195 L64.399,81.195 C66.248,81.195 67.637,82.355 67.637,84.725 C67.637,86.793 66.578,88.332 64.399,88.332 L61.32,88.332 L61.32,81.195 L61.32,81.195 Z" id="Fill-54" fill="#FFFFFF"></path>
            <polyline id="Fill-57" fill="#FFFFFF" points="652.229 73.667 661.029 73.667 661.029 75.843 654.816 75.843 654.816 78.364 660.518 78.364 660.518 80.375 654.816 80.375 654.816 83.258 661.161 83.258 661.161 85.434 652.229 85.434 652.229 73.667"></polyline>
            <polyline id="Fill-58" fill="#FFFFFF" points="666.135 79.271 662.345 73.667 665.344 73.667 667.651 77.425 670.041 73.667 672.875 73.667 669.102 79.287 673.205 85.434 670.123 85.434 667.553 81.363 664.933 85.434 662.016 85.434 666.135 79.271"></polyline>
            <polyline id="Fill-59" fill="#FFFFFF" points="677.216 75.843 673.688 75.843 673.688 73.667 683.329 73.667 683.329 75.843 679.803 75.843 679.803 85.434 677.216 85.434 677.216 75.843"></polyline>
            <polygon id="Fill-60" fill="#FFFFFF" points="684.646 85.434 687.233 85.434 687.233 73.667 684.646 73.667"></polygon>
            <polyline id="Fill-61" fill="#FFFFFF" points="689.473 73.667 692.044 73.667 696.955 81.561 696.987 81.561 696.987 73.667 699.41 73.667 699.41 85.434 696.823 85.434 691.929 77.557 691.896 77.557 691.896 85.434 689.473 85.434 689.473 73.667"></polyline>
            <path d="M709.493,77.622 C709.328,76.452 708.208,75.562 706.922,75.562 C704.599,75.562 703.726,77.54 703.726,79.6 C703.726,81.561 704.599,83.539 706.922,83.539 C708.504,83.539 709.395,82.451 709.592,80.902 L712.097,80.902 C711.833,83.835 709.807,85.714 706.922,85.714 C703.28,85.714 701.138,82.994 701.138,79.6 C701.138,76.106 703.28,73.387 706.922,73.387 C709.51,73.387 711.685,74.903 711.998,77.622 L709.493,77.622" id="Fill-62" fill="#FFFFFF"></path>
            <polyline id="Fill-63" fill="#FFFFFF" points="716.442 75.843 712.915 75.843 712.915 73.667 722.556 73.667 722.556 75.843 719.029 75.843 719.029 85.434 716.442 85.434 716.442 75.843"></polyline>
            <polyline id="Fill-66" fill="#000000" points="173.43 70.188 174.999 70.188 174.999 76.005 178.477 76.005 178.477 77.324 173.43 77.324 173.43 70.188"></polyline>
            <polyline id="Fill-67" fill="#000000" points="179.229 70.188 184.567 70.188 184.567 71.507 180.799 71.507 180.799 73.037 184.257 73.037 184.257 74.256 180.799 74.256 180.799 76.005 184.646 76.005 184.646 77.324 179.229 77.324 179.229 70.188"></polyline>
            <path d="M187.26,74.566 L189.109,74.566 L188.209,71.947 L188.189,71.947 L187.26,74.566 L187.26,74.566 Z M187.41,70.188 L189.019,70.188 L191.688,77.324 L190.059,77.324 L189.519,75.735 L186.851,75.735 L186.291,77.324 L184.702,77.324 L187.41,70.188 L187.41,70.188 Z" id="Fill-68" fill="#000000"></path>
            <path d="M193.301,74.956 C193.301,75.905 194.04,76.275 194.88,76.275 C195.429,76.275 196.269,76.115 196.269,75.385 C196.269,74.616 195.2,74.486 194.15,74.206 C193.091,73.926 192.021,73.516 192.021,72.177 C192.021,70.718 193.4,70.018 194.69,70.018 C196.179,70.018 197.548,70.668 197.548,72.317 L196.029,72.317 C195.979,71.458 195.37,71.238 194.62,71.238 C194.12,71.238 193.541,71.447 193.541,72.047 C193.541,72.597 193.88,72.667 195.669,73.126 C196.189,73.256 197.788,73.587 197.788,75.206 C197.788,76.515 196.759,77.494 194.82,77.494 C193.241,77.494 191.761,76.714 191.781,74.956 L193.301,74.956" id="Fill-69" fill="#000000"></path>
            <polyline id="Fill-70" fill="#000000" points="200.056 71.507 197.917 71.507 197.917 70.188 203.764 70.188 203.764 71.507 201.625 71.507 201.625 77.324 200.056 77.324 200.056 71.507"></polyline>
            <path d="M168.445,83.595 C168.345,82.885 167.666,82.346 166.886,82.346 C165.477,82.346 164.947,83.545 164.947,84.794 C164.947,85.983 165.477,87.183 166.886,87.183 C167.845,87.183 168.385,86.523 168.505,85.584 L170.024,85.584 C169.864,87.363 168.635,88.502 166.886,88.502 C164.677,88.502 163.378,86.853 163.378,84.794 C163.378,82.676 164.677,81.025 166.886,81.025 C168.455,81.025 169.774,81.945 169.964,83.595 L168.445,83.595" id="Fill-71" fill="#000000"></path>
            <path d="M174.206,87.183 C175.615,87.183 176.145,85.983 176.145,84.794 C176.145,83.545 175.615,82.346 174.206,82.346 C172.796,82.346 172.267,83.545 172.267,84.794 C172.267,85.983 172.796,87.183 174.206,87.183 L174.206,87.183 Z M174.206,81.025 C176.415,81.025 177.714,82.676 177.714,84.794 C177.714,86.853 176.415,88.502 174.206,88.502 C171.997,88.502 170.698,86.853 170.698,84.794 C170.698,82.676 171.997,81.025 174.206,81.025 L174.206,81.025 Z" id="Fill-72" fill="#000000"></path>
            <polyline id="Fill-73" fill="#000000" points="178.539 81.195 180.098 81.195 183.077 85.983 183.097 85.983 183.097 81.195 184.566 81.195 184.566 88.332 182.997 88.332 180.028 83.555 180.008 83.555 180.008 88.332 178.539 88.332 178.539 81.195"></polyline>
            <path d="M190.696,83.595 C190.597,82.885 189.917,82.346 189.137,82.346 C187.728,82.346 187.198,83.545 187.198,84.794 C187.198,85.983 187.728,87.183 189.137,87.183 C190.097,87.183 190.637,86.523 190.756,85.584 L192.276,85.584 C192.116,87.363 190.886,88.502 189.137,88.502 C186.929,88.502 185.629,86.853 185.629,84.794 C185.629,82.676 186.929,81.025 189.137,81.025 C190.707,81.025 192.026,81.945 192.216,83.595 L190.696,83.595" id="Fill-74" fill="#000000"></path>
            <polyline id="Fill-75" fill="#000000" points="193.339 81.195 198.676 81.195 198.676 82.516 194.908 82.516 194.908 84.045 198.366 84.045 198.366 85.264 194.908 85.264 194.908 87.013 198.756 87.013 198.756 88.332 193.339 88.332 193.339 81.195"></polyline>
            <path d="M201.378,84.424 L203.098,84.424 C203.797,84.424 204.177,84.125 204.177,83.404 C204.177,82.715 203.797,82.415 203.098,82.415 L201.378,82.415 L201.378,84.424 L201.378,84.424 Z M199.809,81.195 L203.657,81.195 C204.937,81.195 205.746,82.086 205.746,83.165 C205.746,84.004 205.406,84.635 204.617,84.954 L204.617,84.974 C205.386,85.174 205.606,85.924 205.656,86.643 C205.686,87.093 205.676,87.932 205.956,88.332 L204.387,88.332 C204.197,87.883 204.217,87.193 204.137,86.623 C204.027,85.873 203.737,85.543 202.948,85.543 L201.378,85.543 L201.378,88.332 L199.809,88.332 L199.809,81.195 L199.809,81.195 Z" id="Fill-76" fill="#000000"></path>
            <polyline id="Fill-77" fill="#000000" points="206.93 81.195 208.489 81.195 211.467 85.983 211.487 85.983 211.487 81.195 212.957 81.195 212.957 88.332 211.387 88.332 208.419 83.555 208.399 83.555 208.399 88.332 206.93 88.332 206.93 81.195"></polyline>
            <polyline id="Fill-80" fill="#000000" points="244.258 70.188 245.817 70.188 248.795 74.976 248.815 74.976 248.815 70.188 250.285 70.188 250.285 77.324 248.715 77.324 245.747 72.547 245.727 72.547 245.727 77.324 244.258 77.324 244.258 70.188"></polyline>
            <polyline id="Fill-81" fill="#000000" points="251.698 70.188 257.035 70.188 257.035 71.507 253.267 71.507 253.267 73.037 256.725 73.037 256.725 74.256 253.267 74.256 253.267 76.005 257.115 76.005 257.115 77.324 251.698 77.324 251.698 70.188"></polyline>
            <path d="M259.979,74.566 L261.828,74.566 L260.928,71.947 L260.908,71.947 L259.979,74.566 L259.979,74.566 Z M260.129,70.188 L261.738,70.188 L264.406,77.324 L262.777,77.324 L262.238,75.735 L259.569,75.735 L259.009,77.324 L257.42,77.324 L260.129,70.188 L260.129,70.188 Z" id="Fill-82" fill="#000000"></path>
            <path d="M266.439,73.416 L268.158,73.416 C268.857,73.416 269.237,73.117 269.237,72.397 C269.237,71.708 268.857,71.407 268.158,71.407 L266.439,71.407 L266.439,73.416 L266.439,73.416 Z M264.87,70.188 L268.718,70.188 C269.997,70.188 270.807,71.078 270.807,72.157 C270.807,72.997 270.467,73.626 269.677,73.946 L269.677,73.966 C270.447,74.166 270.667,74.916 270.717,75.635 C270.747,76.085 270.736,76.924 271.017,77.324 L269.447,77.324 C269.257,76.874 269.277,76.185 269.197,75.615 C269.087,74.866 268.798,74.536 268.008,74.536 L266.439,74.536 L266.439,77.324 L264.87,77.324 L264.87,70.188 L264.87,70.188 Z" id="Fill-83" fill="#000000"></path>
            <polyline id="Fill-84" fill="#000000" points="226.181 82.516 224.042 82.516 224.042 81.195 229.889 81.195 229.889 82.516 227.75 82.516 227.75 88.332 226.181 88.332 226.181 82.516"></polyline>
            <polyline id="Fill-85" fill="#000000" points="230.662 81.195 232.231 81.195 232.231 83.935 235.119 83.935 235.119 81.195 236.688 81.195 236.688 88.332 235.119 88.332 235.119 85.254 232.231 85.254 232.231 88.332 230.662 88.332 230.662 81.195"></polyline>
            <path d="M239.671,84.424 L241.39,84.424 C242.089,84.424 242.469,84.125 242.469,83.404 C242.469,82.715 242.089,82.415 241.39,82.415 L239.671,82.415 L239.671,84.424 L239.671,84.424 Z M238.102,81.195 L241.95,81.195 C243.229,81.195 244.039,82.086 244.039,83.165 C244.039,84.004 243.699,84.635 242.909,84.954 L242.909,84.974 C243.679,85.174 243.898,85.924 243.949,86.643 C243.979,87.093 243.969,87.932 244.249,88.332 L242.679,88.332 C242.489,87.883 242.509,87.193 242.429,86.623 C242.319,85.873 242.03,85.543 241.24,85.543 L239.671,85.543 L239.671,88.332 L238.102,88.332 L238.102,81.195 L238.102,81.195 Z" id="Fill-86" fill="#000000"></path>
            <polyline id="Fill-87" fill="#000000" points="245.122 81.195 250.459 81.195 250.459 82.516 246.691 82.516 246.691 84.045 250.149 84.045 250.149 85.264 246.691 85.264 246.691 87.013 250.539 87.013 250.539 88.332 245.122 88.332 245.122 81.195"></polyline>
            <path d="M253.401,85.574 L255.25,85.574 L254.35,82.955 L254.33,82.955 L253.401,85.574 L253.401,85.574 Z M253.551,81.195 L255.16,81.195 L257.828,88.332 L256.199,88.332 L255.66,86.742 L252.991,86.742 L252.431,88.332 L250.842,88.332 L253.551,81.195 L253.551,81.195 Z" id="Fill-88" fill="#000000"></path>
            <polyline id="Fill-89" fill="#000000" points="259.311 82.516 257.172 82.516 257.172 81.195 263.019 81.195 263.019 82.516 260.88 82.516 260.88 88.332 259.311 88.332 259.311 82.516"></polyline>
            <polyline id="Fill-90" fill="#000000" points="263.797 81.195 269.134 81.195 269.134 82.516 265.366 82.516 265.366 84.045 268.824 84.045 268.824 85.264 265.366 85.264 265.366 87.013 269.214 87.013 269.214 88.332 263.797 88.332 263.797 81.195"></polyline>
            <polyline id="Fill-91" fill="#000000" points="270.357 81.195 271.916 81.195 274.895 85.983 274.915 85.983 274.915 81.195 276.384 81.195 276.384 88.332 274.814 88.332 271.846 83.555 271.826 83.555 271.826 88.332 270.357 88.332 270.357 81.195"></polyline>
            <polyline id="Fill-92" fill="#000000" points="277.847 81.195 283.184 81.195 283.184 82.516 279.416 82.516 279.416 84.045 282.874 84.045 282.874 85.264 279.416 85.264 279.416 87.013 283.264 87.013 283.264 88.332 277.847 88.332 277.847 81.195"></polyline>
            <path d="M285.976,87.013 L287.375,87.013 C288.285,87.013 289.154,86.453 289.154,84.874 C289.154,83.435 288.655,82.516 287.095,82.516 L285.976,82.516 L285.976,87.013 L285.976,87.013 Z M284.407,81.195 L287.485,81.195 C289.334,81.195 290.724,82.355 290.724,84.725 C290.724,86.793 289.664,88.332 287.485,88.332 L284.407,88.332 L284.407,81.195 L284.407,81.195 Z" id="Fill-93" fill="#000000"></path>
            <polyline id="Fill-96" fill="#000000" points="306.639 82.879 304.87 82.879 302.551 75.743 304.17 75.743 305.759 80.76 305.779 80.76 307.388 75.743 309.007 75.743 306.639 82.879"></polyline>
            <path d="M315.737,80.18 C315.737,82.109 314.598,83.049 312.688,83.049 C310.77,83.049 309.65,82.119 309.65,80.18 L309.65,75.743 L311.22,75.743 L311.22,80.18 C311.22,80.96 311.419,81.729 312.688,81.729 C313.808,81.729 314.168,81.24 314.168,80.18 L314.168,75.743 L315.737,75.743 L315.737,80.18" id="Fill-97" fill="#000000"></path>
            <polyline id="Fill-98" fill="#000000" points="317.117 75.743 318.687 75.743 318.687 81.56 322.165 81.56 322.165 82.879 317.117 82.879 317.117 75.743"></polyline>
            <polyline id="Fill-99" fill="#000000" points="322.767 75.743 324.326 75.743 327.305 80.53 327.325 80.53 327.325 75.743 328.794 75.743 328.794 82.879 327.225 82.879 324.256 78.102 324.236 78.102 324.236 82.879 322.767 82.879 322.767 75.743"></polyline>
            <polyline id="Fill-100" fill="#000000" points="330.203 75.743 335.541 75.743 335.541 77.062 331.772 77.062 331.772 78.591 335.23 78.591 335.23 79.811 331.772 79.811 331.772 81.56 335.62 81.56 335.62 82.879 330.203 82.879 330.203 75.743"></polyline>
            <path d="M338.313,78.971 L340.032,78.971 C340.731,78.971 341.111,78.671 341.111,77.952 C341.111,77.262 340.731,76.962 340.032,76.962 L338.313,76.962 L338.313,78.971 L338.313,78.971 Z M336.743,75.743 L340.591,75.743 C341.871,75.743 342.68,76.632 342.68,77.712 C342.68,78.551 342.34,79.181 341.551,79.501 L341.551,79.52 C342.32,79.721 342.54,80.471 342.59,81.189 C342.62,81.64 342.61,82.479 342.89,82.879 L341.321,82.879 C341.131,82.43 341.151,81.74 341.071,81.17 C340.961,80.42 340.671,80.09 339.882,80.09 L338.313,80.09 L338.313,82.879 L336.743,82.879 L336.743,75.743 L336.743,75.743 Z" id="Fill-101" fill="#000000"></path>
            <path d="M345.822,80.121 L347.671,80.121 L346.771,77.502 L346.751,77.502 L345.822,80.121 L345.822,80.121 Z M345.972,75.743 L347.581,75.743 L350.25,82.879 L348.621,82.879 L348.081,81.289 L345.412,81.289 L344.853,82.879 L343.264,82.879 L345.972,75.743 L345.972,75.743 Z" id="Fill-102" fill="#000000"></path>
            <path d="M352.502,81.66 L354.182,81.66 C354.801,81.66 355.341,81.459 355.341,80.721 C355.341,79.991 354.881,79.701 354.211,79.701 L352.502,79.701 L352.502,81.66 L352.502,81.66 Z M352.502,78.631 L354.091,78.631 C354.641,78.631 355.051,78.381 355.051,77.782 C355.051,77.102 354.531,76.962 353.972,76.962 L352.502,76.962 L352.502,78.631 L352.502,78.631 Z M350.933,75.743 L354.292,75.743 C355.651,75.743 356.57,76.183 356.57,77.512 C356.57,78.211 356.22,78.701 355.601,79.001 C356.47,79.251 356.91,79.92 356.91,80.811 C356.91,82.26 355.681,82.879 354.392,82.879 L350.933,82.879 L350.933,75.743 L350.933,75.743 Z" id="Fill-103" fill="#000000"></path>
            <polyline id="Fill-104" fill="#000000" points="357.938 75.743 359.507 75.743 359.507 81.56 362.985 81.56 362.985 82.879 357.938 82.879 357.938 75.743"></polyline>
            <polyline id="Fill-105" fill="#000000" points="363.587 75.743 368.925 75.743 368.925 77.062 365.157 77.062 365.157 78.591 368.615 78.591 368.615 79.811 365.157 79.811 365.157 81.56 369.004 81.56 369.004 82.879 363.587 82.879 363.587 75.743"></polyline>
            <polyline id="Fill-108" fill="#000000" points="381.32 75.743 386.657 75.743 386.657 77.062 382.89 77.062 382.89 78.591 386.348 78.591 386.348 79.811 382.89 79.811 382.89 81.56 386.737 81.56 386.737 82.879 381.32 82.879 381.32 75.743"></polyline>
            <polyline id="Fill-109" fill="#000000" points="387.88 75.743 389.439 75.743 392.418 80.53 392.438 80.53 392.438 75.743 393.906 75.743 393.906 82.879 392.338 82.879 389.369 78.102 389.35 78.102 389.35 82.879 387.88 82.879 387.88 75.743"></polyline>
            <path d="M396.882,81.56 L398.281,81.56 C399.19,81.56 400.061,81 400.061,79.421 C400.061,77.981 399.561,77.062 398.001,77.062 L396.882,77.062 L396.882,81.56 L396.882,81.56 Z M395.313,75.743 L398.391,75.743 C400.24,75.743 401.629,76.902 401.629,79.271 C401.629,81.34 400.569,82.879 398.391,82.879 L395.313,82.879 L395.313,75.743 L395.313,75.743 Z" id="Fill-110" fill="#000000"></path>
            <path d="M404.251,80.121 L406.101,80.121 L405.201,77.502 L405.181,77.502 L404.251,80.121 L404.251,80.121 Z M404.401,75.743 L406.011,75.743 L408.679,82.879 L407.05,82.879 L406.51,81.289 L403.842,81.289 L403.282,82.879 L401.692,82.879 L404.401,75.743 L404.401,75.743 Z" id="Fill-111" fill="#000000"></path>
            <polyline id="Fill-112" fill="#000000" points="409.352 75.743 410.911 75.743 413.89 80.53 413.909 80.53 413.909 75.743 415.379 75.743 415.379 82.879 413.81 82.879 410.841 78.102 410.821 78.102 410.821 82.879 409.352 82.879 409.352 75.743"></polyline>
            <path d="M421.969,82.069 C421.419,82.779 420.699,83.049 420.01,83.049 C417.801,83.049 416.502,81.4 416.502,79.341 C416.502,77.222 417.801,75.573 420.01,75.573 C421.469,75.573 422.849,76.473 423.019,78.091 L421.52,78.091 C421.339,77.302 420.75,76.892 420.01,76.892 C418.601,76.892 418.071,78.091 418.071,79.341 C418.071,80.53 418.601,81.729 420.01,81.729 C421.029,81.729 421.619,81.18 421.709,80.19 L420.13,80.19 L420.13,79.021 L423.128,79.021 L423.128,82.879 L422.129,82.879 L421.969,82.069" id="Fill-113" fill="#000000"></path>
            <polyline id="Fill-114" fill="#000000" points="424.451 75.743 429.788 75.743 429.788 77.062 426.021 77.062 426.021 78.591 429.479 78.591 429.479 79.811 426.021 79.811 426.021 81.56 429.868 81.56 429.868 82.879 424.451 82.879 424.451 75.743"></polyline>
            <path d="M432.551,78.971 L434.27,78.971 C434.97,78.971 435.35,78.671 435.35,77.952 C435.35,77.262 434.97,76.962 434.27,76.962 L432.551,76.962 L432.551,78.971 L432.551,78.971 Z M430.981,75.743 L434.829,75.743 C436.108,75.743 436.918,76.632 436.918,77.712 C436.918,78.551 436.578,79.181 435.789,79.501 L435.789,79.52 C436.559,79.721 436.778,80.471 436.828,81.189 C436.858,81.64 436.849,82.479 437.128,82.879 L435.56,82.879 C435.369,82.43 435.39,81.74 435.31,81.17 C435.199,80.42 434.909,80.09 434.12,80.09 L432.551,80.09 L432.551,82.879 L430.981,82.879 L430.981,75.743 L430.981,75.743 Z" id="Fill-115" fill="#000000"></path>
            <polyline id="Fill-116" fill="#000000" points="438.251 75.743 443.588 75.743 443.588 77.062 439.82 77.062 439.82 78.591 443.278 78.591 443.278 79.811 439.82 79.811 439.82 81.56 443.668 81.56 443.668 82.879 438.251 82.879 438.251 75.743"></polyline>
            <path d="M446.351,81.56 L447.75,81.56 C448.659,81.56 449.529,81 449.529,79.421 C449.529,77.981 449.029,77.062 447.47,77.062 L446.351,77.062 L446.351,81.56 L446.351,81.56 Z M444.781,75.743 L447.859,75.743 C449.709,75.743 451.098,76.902 451.098,79.271 C451.098,81.34 450.038,82.879 447.859,82.879 L444.781,82.879 L444.781,75.743 L444.781,75.743 Z" id="Fill-117" fill="#000000"></path>
            <path d="M469.469,72.587 C469.368,71.877 468.688,71.337 467.909,71.337 C466.5,71.337 465.971,72.537 465.971,73.786 C465.971,74.976 466.5,76.175 467.909,76.175 C468.869,76.175 469.408,75.515 469.528,74.576 L471.048,74.576 C470.888,76.355 469.658,77.494 467.909,77.494 C465.7,77.494 464.401,75.845 464.401,73.786 C464.401,71.667 465.7,70.018 467.909,70.018 C469.479,70.018 470.798,70.937 470.987,72.587 L469.469,72.587" id="Fill-120" fill="#000000"></path>
            <path d="M473.66,73.416 L475.379,73.416 C476.079,73.416 476.459,73.117 476.459,72.397 C476.459,71.708 476.079,71.407 475.379,71.407 L473.66,71.407 L473.66,73.416 L473.66,73.416 Z M472.091,70.188 L475.938,70.188 C477.218,70.188 478.027,71.078 478.027,72.157 C478.027,72.997 477.688,73.626 476.898,73.946 L476.898,73.966 C477.668,74.166 477.888,74.916 477.938,75.635 C477.968,76.085 477.958,76.924 478.237,77.324 L476.669,77.324 C476.479,76.874 476.499,76.185 476.419,75.615 C476.309,74.866 476.019,74.536 475.229,74.536 L473.66,74.536 L473.66,77.324 L472.091,77.324 L472.091,70.188 L472.091,70.188 Z" id="Fill-121" fill="#000000"></path>
            <polygon id="Fill-122" fill="#000000" points="479.28 77.324 480.85 77.324 480.85 70.188 479.28 70.188"></polygon>
            <polyline id="Fill-123" fill="#000000" points="483.78 71.507 481.642 71.507 481.642 70.188 487.488 70.188 487.488 71.507 485.35 71.507 485.35 77.324 483.78 77.324 483.78 71.507"></polyline>
            <polygon id="Fill-124" fill="#000000" points="488.28 77.324 489.85 77.324 489.85 70.188 488.28 70.188"></polygon>
            <path d="M495.958,72.587 C495.857,71.877 495.178,71.337 494.398,71.337 C492.989,71.337 492.46,72.537 492.46,73.786 C492.46,74.976 492.989,76.175 494.398,76.175 C495.358,76.175 495.897,75.515 496.018,74.576 L497.537,74.576 C497.377,76.355 496.147,77.494 494.398,77.494 C492.189,77.494 490.891,75.845 490.891,73.786 C490.891,71.667 492.189,70.018 494.398,70.018 C495.968,70.018 497.287,70.937 497.477,72.587 L495.958,72.587" id="Fill-125" fill="#000000"></path>
            <path d="M500.229,74.566 L502.078,74.566 L501.179,71.947 L501.158,71.947 L500.229,74.566 L500.229,74.566 Z M500.379,70.188 L501.988,70.188 L504.656,77.324 L503.027,77.324 L502.487,75.735 L499.819,75.735 L499.26,77.324 L497.67,77.324 L500.379,70.188 L500.379,70.188 Z" id="Fill-126" fill="#000000"></path>
            <polyline id="Fill-127" fill="#000000" points="505.319 70.188 506.889 70.188 506.889 76.005 510.367 76.005 510.367 77.324 505.319 77.324 505.319 70.188"></polyline>
            <polyline id="Fill-128" fill="#000000" points="511.172 70.188 512.741 70.188 512.741 76.005 516.22 76.005 516.22 77.324 511.172 77.324 511.172 70.188"></polyline>
            <polyline id="Fill-129" fill="#000000" points="517.972 74.546 515.343 70.188 517.111 70.188 518.781 73.007 520.439 70.188 522.188 70.188 519.54 74.586 519.54 77.324 517.972 77.324 517.972 74.546"></polyline>
            <polyline id="Fill-130" fill="#000000" points="458.344 81.195 463.681 81.195 463.681 82.516 459.913 82.516 459.913 84.045 463.371 84.045 463.371 85.264 459.913 85.264 459.913 87.013 463.761 87.013 463.761 88.332 458.344 88.332 458.344 81.195"></polyline>
            <polyline id="Fill-131" fill="#000000" points="464.903 81.195 466.463 81.195 469.441 85.983 469.461 85.983 469.461 81.195 470.93 81.195 470.93 88.332 469.361 88.332 466.393 83.555 466.373 83.555 466.373 88.332 464.903 88.332 464.903 81.195"></polyline>
            <path d="M473.897,87.013 L475.297,87.013 C476.206,87.013 477.076,86.453 477.076,84.874 C477.076,83.435 476.576,82.516 475.017,82.516 L473.897,82.516 L473.897,87.013 L473.897,87.013 Z M472.328,81.195 L475.406,81.195 C477.256,81.195 478.645,82.355 478.645,84.725 C478.645,86.793 477.585,88.332 475.406,88.332 L472.328,88.332 L472.328,81.195 L472.328,81.195 Z" id="Fill-132" fill="#000000"></path>
            <path d="M481.267,85.574 L483.116,85.574 L482.217,82.955 L482.196,82.955 L481.267,85.574 L481.267,85.574 Z M481.417,81.195 L483.026,81.195 L485.694,88.332 L484.065,88.332 L483.525,86.742 L480.857,86.742 L480.298,88.332 L478.708,88.332 L481.417,81.195 L481.417,81.195 Z" id="Fill-133" fill="#000000"></path>
            <polyline id="Fill-134" fill="#000000" points="486.367 81.195 487.927 81.195 490.905 85.983 490.925 85.983 490.925 81.195 492.395 81.195 492.395 88.332 490.825 88.332 487.856 83.555 487.837 83.555 487.837 88.332 486.367 88.332 486.367 81.195"></polyline>
            <path d="M498.984,87.522 C498.435,88.232 497.715,88.502 497.025,88.502 C494.816,88.502 493.518,86.853 493.518,84.794 C493.518,82.676 494.816,81.025 497.025,81.025 C498.484,81.025 499.864,81.926 500.034,83.545 L498.535,83.545 C498.354,82.755 497.766,82.346 497.025,82.346 C495.616,82.346 495.087,83.545 495.087,84.794 C495.087,85.983 495.616,87.183 497.025,87.183 C498.045,87.183 498.635,86.633 498.725,85.644 L497.146,85.644 L497.146,84.475 L500.144,84.475 L500.144,88.332 L499.145,88.332 L498.984,87.522" id="Fill-135" fill="#000000"></path>
            <polyline id="Fill-136" fill="#000000" points="501.467 81.195 506.804 81.195 506.804 82.516 503.036 82.516 503.036 84.045 506.494 84.045 506.494 85.264 503.036 85.264 503.036 87.013 506.884 87.013 506.884 88.332 501.467 88.332 501.467 81.195"></polyline>
            <path d="M509.566,84.424 L511.285,84.424 C511.985,84.424 512.365,84.125 512.365,83.404 C512.365,82.715 511.985,82.415 511.285,82.415 L509.566,82.415 L509.566,84.424 L509.566,84.424 Z M507.997,81.195 L511.845,81.195 C513.124,81.195 513.934,82.086 513.934,83.165 C513.934,84.004 513.594,84.635 512.805,84.954 L512.805,84.974 C513.574,85.174 513.794,85.924 513.844,86.643 C513.874,87.093 513.864,87.932 514.144,88.332 L512.575,88.332 C512.385,87.883 512.405,87.193 512.325,86.623 C512.215,85.873 511.925,85.543 511.136,85.543 L509.566,85.543 L509.566,88.332 L507.997,88.332 L507.997,81.195 L507.997,81.195 Z" id="Fill-137" fill="#000000"></path>
            <polyline id="Fill-138" fill="#000000" points="515.267 81.195 520.604 81.195 520.604 82.516 516.836 82.516 516.836 84.045 520.294 84.045 520.294 85.264 516.836 85.264 516.836 87.013 520.684 87.013 520.684 88.332 515.267 88.332 515.267 81.195"></polyline>
            <path d="M523.366,87.013 L524.766,87.013 C525.675,87.013 526.545,86.453 526.545,84.874 C526.545,83.435 526.045,82.516 524.485,82.516 L523.366,82.516 L523.366,87.013 L523.366,87.013 Z M521.797,81.195 L524.875,81.195 C526.725,81.195 528.113,82.355 528.113,84.725 C528.113,86.793 527.054,88.332 524.875,88.332 L521.797,88.332 L521.797,81.195 L521.797,81.195 Z" id="Fill-139" fill="#000000"></path>
            <path d="M163.276,95.857 L767.183,95.857 M163.275,62.635 L767.183,62.635" id="Stroke-142" stroke="#000000"></path>
            <polyline id="Fill-143" fill="#000000" points="550.195 70.188 555.532 70.188 555.532 71.507 551.765 71.507 551.765 73.037 555.223 73.037 555.223 74.256 551.765 74.256 551.765 76.005 555.612 76.005 555.612 77.324 550.195 77.324 550.195 70.188"></polyline>
            <polyline id="Fill-144" fill="#000000" points="558.624 73.587 556.325 70.188 558.145 70.188 559.544 72.467 560.993 70.188 562.712 70.188 560.423 73.596 562.912 77.324 561.043 77.324 559.483 74.855 557.895 77.324 556.126 77.324 558.624 73.587"></polyline>
            <polyline id="Fill-145" fill="#000000" points="565.134 71.507 562.995 71.507 562.995 70.188 568.842 70.188 568.842 71.507 566.703 71.507 566.703 77.324 565.134 77.324 565.134 71.507"></polyline>
            <polygon id="Fill-146" fill="#000000" points="569.614 77.324 571.184 77.324 571.184 70.188 569.614 70.188"></polygon>
            <polyline id="Fill-147" fill="#000000" points="572.781 70.188 574.341 70.188 577.319 74.976 577.339 74.976 577.339 70.188 578.809 70.188 578.809 77.324 577.239 77.324 574.271 72.547 574.251 72.547 574.251 77.324 572.781 77.324 572.781 70.188"></polyline>
            <path d="M584.949,72.587 C584.849,71.877 584.169,71.337 583.39,71.337 C581.98,71.337 581.451,72.537 581.451,73.786 C581.451,74.976 581.98,76.175 583.39,76.175 C584.35,76.175 584.889,75.515 585.009,74.576 L586.528,74.576 C586.368,76.355 585.139,77.494 583.39,77.494 C581.181,77.494 579.882,75.845 579.882,73.786 C579.882,71.667 581.181,70.018 583.39,70.018 C584.959,70.018 586.278,70.937 586.468,72.587 L584.949,72.587" id="Fill-148" fill="#000000"></path>
            <polyline id="Fill-149" fill="#000000" points="588.931 71.507 586.792 71.507 586.792 70.188 592.639 70.188 592.639 71.507 590.5 71.507 590.5 77.324 588.931 77.324 588.931 71.507"></polyline>
            <polygon id="Fill-150" fill="#000000" points="541.445 88.332 543.015 88.332 543.015 81.195 541.445 81.195"></polygon>
            <polyline id="Fill-151" fill="#000000" points="544.405 81.195 545.965 81.195 548.943 85.983 548.963 85.983 548.963 81.195 550.432 81.195 550.432 88.332 548.863 88.332 545.895 83.555 545.875 83.555 545.875 88.332 544.405 88.332 544.405 81.195"></polyline>
            <polyline id="Fill-152" fill="#000000" points="556.021 82.516 553.882 82.516 553.882 81.195 559.729 81.195 559.729 82.516 557.59 82.516 557.59 88.332 556.021 88.332 556.021 82.516"></polyline>
            <polyline id="Fill-153" fill="#000000" points="560.501 81.195 562.07 81.195 562.07 83.935 564.959 83.935 564.959 81.195 566.527 81.195 566.527 88.332 564.959 88.332 564.959 85.254 562.07 85.254 562.07 88.332 560.501 88.332 560.501 81.195"></polyline>
            <polyline id="Fill-154" fill="#000000" points="567.891 81.195 573.228 81.195 573.228 82.516 569.46 82.516 569.46 84.045 572.918 84.045 572.918 85.264 569.46 85.264 569.46 87.013 573.308 87.013 573.308 88.332 567.891 88.332 567.891 81.195"></polyline>
            <polyline id="Fill-155" fill="#000000" points="583.75 88.332 582.19 88.332 580.981 83.475 580.961 83.475 579.771 88.332 578.183 88.332 576.294 81.195 577.863 81.195 578.992 86.053 579.012 86.053 580.252 81.195 581.721 81.195 582.94 86.113 582.96 86.113 584.129 81.195 585.669 81.195 583.75 88.332"></polyline>
            <polygon id="Fill-156" fill="#000000" points="586.403 88.332 587.973 88.332 587.973 81.195 586.403 81.195"></polygon>
            <polyline id="Fill-157" fill="#000000" points="589.359 81.195 590.929 81.195 590.929 87.013 594.407 87.013 594.407 88.332 589.359 88.332 589.359 81.195"></polyline>
            <path d="M596.379,87.013 L597.778,87.013 C598.688,87.013 599.557,86.453 599.557,84.874 C599.557,83.435 599.058,82.516 597.498,82.516 L596.379,82.516 L596.379,87.013 L596.379,87.013 Z M594.81,81.195 L597.888,81.195 C599.737,81.195 601.126,82.355 601.126,84.725 C601.126,86.793 600.066,88.332 597.888,88.332 L594.81,88.332 L594.81,81.195 L594.81,81.195 Z" id="Fill-158" fill="#000000"></path>
        </g>
    </g>
</svg>