<svg xmlns="http://www.w3.org/2000/svg" width="768" height="159" viewBox="0 0 768 159"><title>category-scale_lc</title><g fill="none" fill-rule="evenodd"><path fill="#000" d="M709.64 96.305h57.543V62.424H709.64z"/><path fill="#666" d="M81.118 96.314h76.323V62.109H81.118z"/><path fill="#FFF" d="M108.718 76.004h1.399c.909 0 1.779-.56 1.779-2.139 0-1.439-.5-2.359-2.059-2.359h-1.119v4.498zm-1.57-5.817h3.079c1.849 0 3.238 1.16 3.238 3.528 0 2.069-1.059 3.608-3.238 3.608h-3.079v-7.136zm8.94 4.378h1.849l-.9-2.619h-.02l-.929 2.619zm.15-4.378h1.609l2.668 7.136h-1.629l-.539-1.589h-2.669l-.56 1.589h-1.589l2.709-7.136zm5.763 1.319h-2.139v-1.319h5.847v1.319h-2.139v5.817h-1.569v-5.817m5.6 3.059h1.849l-.9-2.619h-.02l-.929 2.619zm.15-4.378h1.609l2.668 7.136h-1.629l-.539-1.589h-2.669l-.56 1.589h-1.589l2.709-7.136zM94.89 87.012h1.399c.909 0 1.779-.56 1.779-2.139 0-1.439-.5-2.359-2.059-2.359H94.89v4.498zm-1.57-5.817h3.079c1.849 0 3.238 1.159 3.238 3.528 0 2.069-1.059 3.608-3.238 3.608H93.32v-7.136zm7.41 0h5.338v1.319H102.3v1.529h3.458v1.22H102.3v1.749h3.847v1.319h-5.417v-7.136m6.48 0h5.018v1.319h-3.448v1.65h2.988v1.219h-2.988v2.948h-1.57v-7.136m5.93 7.136h1.569v-7.136h-1.569zm7.707-4.737c-.099-.709-.779-1.25-1.559-1.25-1.409 0-1.939 1.199-1.939 2.449 0 1.189.53 2.389 1.939 2.389.96 0 1.5-.661 1.619-1.6h1.52c-.16 1.779-1.39 2.919-3.139 2.919-2.208 0-3.508-1.649-3.508-3.708 0-2.119 1.3-3.768 3.508-3.768 1.569 0 2.889.919 3.079 2.569h-1.52m2.653 4.737h1.569v-7.136H123.5zm2.95-7.136h5.338v1.319h-3.768v1.529h3.458v1.22h-3.458v1.749h3.847v1.319h-5.417v-7.136m6.48 0h1.559l2.979 4.787h.02v-4.787h1.469v7.136h-1.569l-2.969-4.777h-.02v4.777h-1.469v-7.136m8.989 1.319h-2.139v-1.319h5.847v1.319h-2.139v5.817h-1.569v-5.817"/><path fill="#666" d="M0 96.314h77.599V62.109H0z"/><path stroke="#000" d="M163.276 95.857h603.907M163.275 62.635h603.908"/><path fill="#FFF" d="M28.906 70.187h1.559l2.979 4.788h.02v-4.788h1.469v7.136h-1.569l-2.968-4.777h-.021v4.777h-1.469v-7.136m10.609 5.987c1.409 0 1.939-1.199 1.939-2.389 0-1.249-.53-2.448-1.939-2.448-1.41 0-1.939 1.199-1.939 2.448 0 1.19.529 2.389 1.939 2.389zm0-6.157c2.209 0 3.508 1.649 3.508 3.768 0 2.059-1.299 3.708-3.508 3.708s-3.508-1.649-3.508-3.708c0-2.119 1.299-3.768 3.508-3.768zm6.009 1.489h-2.138v-1.319h5.846v1.319h-2.138v5.817h-1.57v-5.817m-35.29 9.689h5.338v1.319h-3.768v1.529h3.458v1.22h-3.458v1.749h3.847v1.319h-5.417v-7.136m9.969 7.136h-1.769l-2.319-7.136h1.619l1.589 5.018h.02l1.609-5.018h1.619l-2.368 7.136m4.346-2.759h1.849l-.899-2.618h-.021l-.929 2.618zm.15-4.377h1.609l2.669 7.136h-1.629l-.54-1.589H24.14l-.56 1.589h-1.589l2.708-7.136zm5.141 0h1.569v5.817h3.478v1.319H29.84v-7.136m11.631 4.438c0 1.929-1.14 2.868-3.049 2.868-1.919 0-3.038-.93-3.038-2.868v-4.438h1.57v4.438c0 .779.199 1.549 1.468 1.549 1.12 0 1.48-.491 1.48-1.549v-4.438h1.569v4.438m2.902-.061h1.849l-.899-2.618h-.02l-.93 2.618zm.15-4.377h1.609l2.669 7.136h-1.629l-.54-1.589h-2.668l-.56 1.589h-1.589l2.708-7.136zm5.759 1.319h-2.138v-1.319h5.846v1.319h-2.138v5.817h-1.57v-5.817m4.481-1.319h5.338v1.319h-3.769v1.529h3.458v1.22h-3.458v1.749h3.848v1.319h-5.417v-7.136m8.127 5.817h1.399c.909 0 1.779-.56 1.779-2.139 0-1.439-.5-2.359-2.059-2.359H62.89v4.498zm-1.57-5.817h3.079c1.849 0 3.238 1.159 3.238 3.528 0 2.069-1.059 3.608-3.238 3.608H61.32v-7.136z"/><path fill="#000" d="M344.602 70.187h1.559l2.978 4.788h.02v-4.788h1.469v7.136h-1.569l-2.968-4.777h-.02v4.777h-1.469v-7.136m7.44 0h5.337v1.319h-3.768v1.53h3.458v1.219h-3.458v1.749h3.847v1.319h-5.416v-7.136m8.281 4.378h1.848l-.899-2.619h-.02l-.929 2.619zm.15-4.378h1.609l2.668 7.136h-1.629l-.539-1.589h-2.669l-.56 1.589h-1.589l2.709-7.136zm6.31 3.229h1.719c.699 0 1.079-.3 1.079-1.02 0-.689-.38-.99-1.079-.99h-1.719v2.01zm-1.57-3.229h3.849c1.279 0 2.088.89 2.088 1.969 0 .84-.339 1.469-1.129 1.789v.02c.77.2.989.95 1.04 1.669.029.45.019 1.289.299 1.689h-1.569c-.19-.449-.17-1.139-.25-1.709-.11-.749-.399-1.079-1.189-1.079h-1.569v2.788h-1.57v-7.136zm-38.689 12.327h-2.138v-1.319h5.846v1.319h-2.138v5.817h-1.57v-5.817m4.481-1.319h1.57v2.739h2.888v-2.739h1.569v7.136h-1.569v-3.078h-2.888v3.078h-1.57v-7.136m9.002 3.229h1.719c.699 0 1.079-.301 1.079-1.02 0-.689-.38-.99-1.079-.99h-1.719v2.01zm-1.569-3.229h3.848c1.279 0 2.089.889 2.089 1.969 0 .84-.34 1.469-1.13 1.789v.02c.77.2.989.949 1.04 1.67.029.449.02 1.289.299 1.688h-1.569c-.19-.45-.17-1.14-.25-1.709-.11-.749-.399-1.079-1.189-1.079h-1.569v2.788h-1.569v-7.136zm7.02 0h5.337v1.319h-3.768v1.529h3.458v1.22h-3.458v1.749h3.848v1.319h-5.417v-7.136m8.294 4.377h1.849l-.899-2.618h-.02l-.93 2.618zm.15-4.377h1.609l2.669 7.136h-1.629l-.54-1.589h-2.668l-.56 1.589h-1.589l2.708-7.136zm5.76 1.319h-2.139v-1.319h5.847v1.319h-2.139v5.817h-1.569v-5.817m4.471-1.319h5.337v1.319h-3.768v1.529h3.458v1.22h-3.458v1.749h3.848v1.319h-5.417v-7.136m6.56 0h1.559l2.978 4.787h.02v-4.787h1.47v7.136h-1.57l-2.968-4.777h-.02v4.777h-1.469v-7.136m7.49 0h5.337v1.319h-3.768v1.529h3.458v1.22h-3.458v1.749h3.848v1.319h-5.417v-7.136m8.129 5.817h1.399c.91 0 1.779-.56 1.779-2.139 0-1.439-.5-2.359-2.058-2.359h-1.12v4.498zm-1.569-5.817h3.078c1.849 0 3.239 1.159 3.239 3.528 0 2.069-1.06 3.608-3.239 3.608h-3.078v-7.136zm19.552 1.683h-1.77l-2.318-7.136h1.619l1.589 5.018h.021l1.609-5.018h1.619l-2.369 7.136m9.099-2.698c0 1.928-1.14 2.868-3.048 2.868-1.919 0-3.039-.93-3.039-2.868v-4.438h1.569v4.438c0 .779.2 1.549 1.47 1.549 1.119 0 1.478-.491 1.478-1.549v-4.438h1.57v4.438m1.379-4.438h1.57v5.817h3.478v1.319h-5.048v-7.136m5.65 0h1.559l2.979 4.787h.019v-4.787h1.469v7.136h-1.568l-2.969-4.777h-.019v4.777h-1.47v-7.136m7.436 0h5.337v1.319h-3.767v1.529h3.458v1.22h-3.458v1.749h3.847v1.319h-5.417v-7.136m8.11 3.228h1.719c.7 0 1.08-.3 1.08-1.019 0-.69-.38-.99-1.08-.99h-1.719v2.009zm-1.57-3.228h3.848c1.279 0 2.089.889 2.089 1.969 0 .839-.34 1.469-1.129 1.789v.02c.77.2.989.949 1.039 1.669.03.45.021 1.29.3 1.689h-1.568c-.191-.45-.17-1.14-.25-1.709-.111-.749-.401-1.079-1.19-1.079h-1.569v2.788h-1.57v-7.136zm9.079 4.377h1.849l-.899-2.618h-.021l-.929 2.618zm.15-4.377h1.609l2.668 7.136h-1.629l-.54-1.589h-2.668l-.559 1.589h-1.59l2.709-7.136zm6.53 5.916h1.679c.62 0 1.16-.199 1.16-.939 0-.729-.46-1.019-1.13-1.019h-1.709v1.958zm0-3.028h1.589c.55 0 .96-.25.96-.849 0-.68-.519-.82-1.08-.82h-1.469v1.669zm-1.569-2.888h3.358c1.36 0 2.279.44 2.279 1.769 0 .7-.35 1.189-.969 1.489.869.25 1.308.919 1.308 1.809 0 1.449-1.229 2.069-2.518 2.069h-3.458v-7.136zm7.005 0h1.569v5.817h3.479v1.319h-5.048v-7.136m5.649 0h5.337v1.319h-3.767v1.529h3.458v1.22h-3.458v1.749h3.847v1.319h-5.417v-7.136m16.64 0h5.337v1.319h-3.768v1.529h3.458v1.22h-3.458v1.749h3.848v1.319h-5.417v-7.136m6.559 0h1.56l2.978 4.787h.02v-4.787h1.469v7.136H488.9l-2.968-4.777h-.02v4.777h-1.47v-7.136m9.002 5.817h1.4c.909 0 1.779-.56 1.779-2.139 0-1.44-.5-2.359-2.06-2.359h-1.119v4.498zm-1.569-5.817h3.078c1.85 0 3.238 1.159 3.238 3.528 0 2.069-1.059 3.608-3.238 3.608h-3.078v-7.136zm8.938 4.377h1.85l-.899-2.618h-.021l-.93 2.618zm.151-4.377h1.609l2.668 7.136h-1.629l-.54-1.589h-2.668l-.559 1.589h-1.59l2.709-7.136zm4.95 0h1.56l2.978 4.787h.02v-4.787h1.469v7.136h-1.569l-2.969-4.777h-.019v4.777h-1.47v-7.136m12.617 6.326c-.55.709-1.269.98-1.959.98-2.209 0-3.508-1.65-3.508-3.708 0-2.119 1.299-3.768 3.508-3.768 1.459 0 2.839.9 3.009 2.518h-1.499c-.181-.789-.769-1.199-1.51-1.199-1.409 0-1.938 1.199-1.938 2.449 0 1.189.529 2.389 1.938 2.389 1.02 0 1.61-.55 1.699-1.54h-1.579V79.02h2.998v3.858h-.999l-.16-.81m2.483-6.326h5.337v1.319h-3.768v1.529h3.458v1.22h-3.458v1.749h3.848v1.319h-5.417v-7.136m8.099 3.228h1.719c.7 0 1.08-.3 1.08-1.019 0-.69-.38-.99-1.08-.99h-1.719v2.009zm-1.569-3.228h3.848c1.279 0 2.088.889 2.088 1.969 0 .839-.339 1.469-1.128 1.789v.02c.769.2.989.949 1.039 1.669.03.45.02 1.29.299 1.689h-1.568c-.19-.45-.17-1.14-.25-1.709-.11-.749-.4-1.079-1.189-1.079h-1.57v2.788h-1.569v-7.136zm7.269 0h5.337v1.319h-3.767v1.529h3.458v1.22h-3.458v1.749h3.847v1.319h-5.417v-7.136m8.1 5.817h1.4c.909 0 1.779-.56 1.779-2.139 0-1.44-.5-2.359-2.06-2.359h-1.119v4.498zm-1.569-5.817h3.078c1.849 0 3.238 1.159 3.238 3.528 0 2.069-1.059 3.608-3.238 3.608h-3.078v-7.136zm108.187-5.555h5.337v1.319h-3.767v1.53h3.458v1.219h-3.458v1.749h3.847v1.319h-5.417v-7.136m8.429 3.398l-2.299-3.398h1.819l1.4 2.279 1.449-2.279h1.719l-2.289 3.408 2.489 3.728h-1.869l-1.56-2.469-1.589 2.469h-1.768l2.498-3.738m6.51-2.079h-2.139v-1.319h5.847v1.319h-2.139v5.817h-1.569v-5.817m4.48 5.817h1.57v-7.136h-1.57zm3.159-7.136h1.56l2.978 4.788h.02v-4.788h1.47v7.136h-1.57l-2.968-4.777h-.02v4.777h-1.47v-7.136m12.168 2.399c-.1-.709-.78-1.249-1.559-1.249-1.409 0-1.939 1.199-1.939 2.448 0 1.19.53 2.389 1.939 2.389.96 0 1.499-.66 1.619-1.599h1.519c-.16 1.779-1.389 2.918-3.138 2.918-2.209 0-3.508-1.649-3.508-3.708 0-2.119 1.299-3.768 3.508-3.768 1.569 0 2.888.92 3.078 2.569h-1.519m3.99-1.08h-2.139v-1.319h5.847v1.319h-2.139v5.817h-1.569v-5.817m-47.494 16.825h1.57v-7.136h-1.57zm2.96-7.136h1.56l2.978 4.787h.02v-4.787h1.469v7.136h-1.569l-2.968-4.777h-.02v4.777h-1.47v-7.136m11.623 1.319h-2.138v-1.319h5.846v1.319h-2.138v5.817h-1.57v-5.817m4.481-1.319h1.569v2.739h2.889v-2.739h1.568v7.136h-1.568v-3.078h-2.889v3.078h-1.569v-7.136m7.39 0h5.336v1.319h-3.767v1.529h3.458v1.22h-3.458v1.749h3.848v1.319h-5.417v-7.136m15.859 7.136h-1.56l-1.209-4.857h-.02l-1.19 4.857h-1.588l-1.889-7.136h1.569l1.129 4.858h.02l1.24-4.858h1.469l1.219 4.917h.02l1.169-4.917h1.54l-1.919 7.136m2.653 0h1.57v-7.136h-1.57zm2.956-7.136h1.57v5.817h3.478v1.319h-5.048v-7.136m7.02 5.817h1.399c.909 0 1.779-.56 1.779-2.139 0-1.439-.499-2.359-2.059-2.359h-1.119v4.498zm-1.569-5.817h3.078c1.849 0 3.238 1.159 3.238 3.528 0 2.069-1.06 3.608-3.238 3.608h-3.078v-7.136z"/><path fill="#FFF" d="M718.203 75.703h5.337v1.319h-3.768v1.529h3.458v1.219h-3.458v1.75h3.848v1.319h-5.417v-7.136m8.429 3.398l-2.299-3.398h1.819l1.4 2.278 1.449-2.278h1.719l-2.289 3.408 2.489 3.728h-1.869l-1.56-2.469-1.589 2.469h-1.768l2.498-3.738m6.51-2.079h-2.139v-1.319h5.847v1.319h-2.139v5.817h-1.569v-5.817m4.501 5.817h1.569v-7.136h-1.569zm2.92-7.136h1.559l2.979 4.787h.019v-4.787h1.47v7.136h-1.569l-2.969-4.777h-.02v4.777h-1.469v-7.136m12.137 2.399c-.1-.71-.78-1.25-1.559-1.25-1.41 0-1.939 1.199-1.939 2.449 0 1.189.529 2.388 1.939 2.388.96 0 1.499-.66 1.619-1.599h1.519c-.16 1.779-1.389 2.919-3.138 2.919-2.209 0-3.508-1.65-3.508-3.708 0-2.119 1.299-3.768 3.508-3.768 1.569 0 2.888.919 3.078 2.569H752.7m4.231-1.08h-2.139v-1.319h5.847v1.319H758.5v5.817h-1.569v-5.817"/><path fill="#000" d="M569.625 72.586c-.101-.709-.78-1.249-1.56-1.249-1.409 0-1.938 1.199-1.938 2.448 0 1.19.529 2.389 1.938 2.389.96 0 1.499-.66 1.62-1.599h1.519c-.16 1.779-1.39 2.918-3.139 2.918-2.209 0-3.507-1.649-3.507-3.708 0-2.119 1.298-3.768 3.507-3.768 1.57 0 2.889.92 3.079 2.569h-1.519m4.191.83h1.719c.7 0 1.08-.3 1.08-1.02 0-.689-.38-.99-1.08-.99h-1.719v2.01zm-1.569-3.229h3.848c1.279 0 2.089.89 2.089 1.969 0 .84-.34 1.469-1.129 1.789v.02c.769.2.989.95 1.039 1.669.03.45.02 1.289.3 1.689h-1.569c-.19-.449-.17-1.139-.25-1.709-.11-.749-.4-1.079-1.189-1.079h-1.57v2.788h-1.569v-7.136zm7.19 7.136h1.569v-7.136h-1.569zm4.5-5.817h-2.139v-1.319h5.847v1.319h-2.139v5.817h-1.569v-5.817m4.5 5.817h1.569v-7.136h-1.569zm7.677-4.737c-.1-.709-.78-1.249-1.559-1.249-1.409 0-1.939 1.199-1.939 2.448 0 1.19.53 2.389 1.939 2.389.96 0 1.499-.66 1.619-1.599h1.519c-.16 1.779-1.389 2.918-3.138 2.918-2.209 0-3.508-1.649-3.508-3.708 0-2.119 1.299-3.768 3.508-3.768 1.569 0 2.888.92 3.078 2.569h-1.519m4.271 1.979h1.849l-.899-2.619h-.021l-.929 2.619zm.15-4.378h1.61l2.668 7.136h-1.629l-.54-1.589h-2.668l-.56 1.589h-1.59l2.709-7.136zm4.941 0h1.569v5.817h3.478v1.319h-5.047v-7.136m5.852 0h1.569v5.817h3.479v1.319h-5.048v-7.136m6.8 4.358l-2.629-4.358h1.769l1.67 2.819 1.658-2.819h1.749l-2.649 4.398v2.738h-1.568v-2.778m-59.628 6.65h5.337v1.319h-3.768v1.529h3.458v1.22h-3.458v1.749h3.848v1.319H558.5v-7.136m6.56 0h1.559l2.979 4.787h.019v-4.787h1.469v7.136h-1.568l-2.969-4.777h-.02v4.777h-1.469v-7.136m9.002 5.817h1.399c.909 0 1.779-.56 1.779-2.139 0-1.439-.5-2.359-2.059-2.359h-1.119v4.498zm-1.57-5.817h3.078c1.85 0 3.239 1.159 3.239 3.528 0 2.069-1.06 3.608-3.239 3.608h-3.078v-7.136zm8.939 4.377h1.849l-.899-2.618h-.021l-.929 2.618zm.15-4.377h1.609l2.668 7.136h-1.629l-.54-1.589h-2.668l-.559 1.589h-1.59l2.709-7.136zm4.942 0h1.56l2.979 4.787h.019v-4.787h1.47v7.136h-1.57l-2.968-4.777h-.02v4.777h-1.47v-7.136m12.618 6.326c-.55.709-1.27.98-1.959.98-2.209 0-3.508-1.649-3.508-3.708 0-2.119 1.299-3.768 3.508-3.768 1.459 0 2.839.9 3.008 2.518h-1.499c-.18-.789-.769-1.199-1.509-1.199-1.41 0-1.939 1.199-1.939 2.449 0 1.189.529 2.389 1.939 2.389 1.019 0 1.609-.55 1.699-1.539h-1.579v-1.17h2.998v3.858h-.999l-.16-.81m2.482-6.326h5.337v1.319h-3.768v1.529h3.458v1.22h-3.458v1.749h3.848v1.319h-5.417v-7.136m8.1 3.229h1.718c.701 0 1.08-.301 1.08-1.02 0-.689-.379-.99-1.08-.99h-1.718v2.01zm-1.57-3.229h3.848c1.279 0 2.089.889 2.089 1.969 0 .84-.34 1.469-1.129 1.789v.02c.769.2.989.949 1.039 1.67.03.449.021 1.289.3 1.688h-1.569c-.19-.45-.169-1.14-.25-1.709-.11-.749-.4-1.079-1.189-1.079h-1.569v2.788h-1.57v-7.136zm7.27 0h5.337v1.319h-3.768v1.529h3.458v1.22h-3.458v1.749h3.848v1.319h-5.417v-7.136m8.099 5.817h1.4c.909 0 1.779-.56 1.779-2.139 0-1.439-.5-2.359-2.059-2.359h-1.12v4.498zm-1.569-5.817h3.078c1.85 0 3.239 1.159 3.239 3.528 0 2.069-1.06 3.608-3.239 3.608h-3.078v-7.136z"/><path fill="#DA2A1C" d="M319.272 79.77V.543h-80.574v.034c-43.127.72-77.879 35.884-77.879 79.197 0 43.757 35.473 79.226 79.223 79.226 43.621 0 79.003-35.252 79.222-78.822h.008v-.33l.002-.074-.002-.004"/><path fill="#FFF" d="M292.516 29.976h3.892c1.347 0 2.673.609 2.673 2.149 0 .823-.395 1.604-1.198 1.914v.022c.813.192 1.048 1.101 1.113 1.828.021.32.053 1.444.32 1.721h-1.967c-.171-.257-.203-1.005-.225-1.218-.053-.77-.182-1.562-1.112-1.562h-1.508v2.78h-1.988v-7.634zm1.988 3.315h1.669c.598 0 .919-.321.919-.899 0-.566-.449-.823-1.005-.823h-1.583v1.722zm5.518-3.315h6.084v1.593h-4.095v1.336h3.742v1.54h-3.742v1.454h4.202v1.711h-6.191v-7.634m7.111 0h3.283c2.342 0 3.743 1.422 3.743 3.785 0 2.502-1.423 3.849-3.743 3.849h-3.283v-7.634zm1.99 5.923h.94c1.508-.032 2.107-.62 2.107-2.149 0-1.39-.749-2.063-2.107-2.063h-.94v4.212zm-16.607 2.496h1.988v5.924h3.561v1.71h-5.549v-7.634m6.106 7.634h1.988v-7.634h-1.988zm4.491-2.566c.042.898.598 1.187 1.443 1.187.599 0 1.219-.213 1.219-.78 0-.674-1.09-.803-2.192-1.113-1.091-.31-2.235-.801-2.235-2.202 0-1.668 1.679-2.321 3.112-2.321 1.519 0 3.047.738 3.058 2.46h-1.989c.033-.695-.62-.92-1.229-.92-.428 0-.963.15-.963.652 0 .589 1.101.696 2.213 1.006 1.102.31 2.214.823 2.214 2.202 0 1.936-1.647 2.556-3.326 2.556-1.753 0-3.304-.77-3.314-2.727h1.989"/><path fill="#FFF" d="M314.052 40.105h-2.278v5.924h-1.989v-5.924h-2.277v-1.71h6.544v1.71m-6.776-27.991c-1.533 1.481-1.862 3.625-.736 4.791 1.126 1.166 3.282.91 4.814-.57 1.533-1.48 1.862-3.625.736-4.79-1.126-1.166-3.282-.911-4.814.569"/><path fill="#FFF" d="M306.049 19.311c-1.531 1.48-1.861 3.625-.735 4.791 1.127 1.166 3.282.911 4.813-.57 1.534-1.48 1.862-3.625.736-4.792-1.125-1.165-3.28-.909-4.814.571"/><g fill="#FFF"><path d="M295.521 8.782c-1.532 1.481-1.861 3.625-.735 4.792 1.126 1.165 3.281.91 4.814-.57 1.531-1.481 1.861-3.626.735-4.792-1.126-1.165-3.282-.911-4.814.57"/><path d="M302.775 7.647c-1.532 1.48-1.862 3.624-.736 4.79 1.127 1.166 3.281.912 4.814-.569 1.532-1.48 1.862-3.626.735-4.791-1.125-1.166-3.28-.91-4.813.57"/></g><path fill="#FFF" d="M304.164 20.753a6.03 6.03 0 1 1-12.06-.002 6.03 6.03 0 0 1 12.06.002m-14.005-3.611c0 5.312-4.306 9.615-9.616 9.615a9.613 9.613 0 0 1-9.614-9.615c0-5.309 4.304-9.614 9.614-9.614h9.628l-.012 9.614m.105 21.08c0 5.343-4.331 9.674-9.675 9.674-5.342 0-9.674-4.331-9.674-9.674 0-5.344 4.332-9.675 9.674-9.675a9.674 9.674 0 0 1 9.675 9.675"/><path fill="#D61D17" d="M276.276 39.241h.428v-1.948h-.428zm1.572.044c-.264 0-.468-.064-.613-.191-.145-.128-.217-.324-.217-.59v-1.211h.428v1.211c0 .053.005.105.014.156a.304.304 0 0 0 .179.23.483.483 0 0 0 .209.037c.152 0 .258-.034.316-.102.058-.068.087-.175.087-.321v-1.211h.429v1.211c0 .264-.074.46-.222.588-.146.129-.351.193-.61.193zm2.299-1.58a.429.429 0 0 0-.129-.072.492.492 0 0 0-.397.03.458.458 0 0 0-.163.149.66.66 0 0 0-.092.215 1.066 1.066 0 0 0 0 .487c.019.077.05.147.092.209a.465.465 0 0 0 .409.204c.131 0 .233-.04.307-.12a.562.562 0 0 0 .135-.316h.414a1.007 1.007 0 0 1-.084.33.766.766 0 0 1-.442.409.968.968 0 0 1-.33.055.999.999 0 0 1-.403-.078.864.864 0 0 1-.301-.214.935.935 0 0 1-.188-.321 1.169 1.169 0 0 1-.066-.397c0-.146.022-.28.066-.405a.958.958 0 0 1 .188-.326.849.849 0 0 1 .301-.218.967.967 0 0 1 .403-.079c.107 0 .208.015.304.046a.814.814 0 0 1 .256.135.721.721 0 0 1 .187.219c.049.088.08.188.093.301h-.415a.342.342 0 0 0-.049-.136.406.406 0 0 0-.096-.107zm2.052.895h.006v-1.307h.401v1.948h-.428l-.811-1.304h-.005v1.304h-.401v-1.948h.425z"/><path fill="#D61D17" d="M280.247 40.421a3.101 3.101 0 0 1-2.202.912 3.103 3.103 0 0 1-2.202-.912 3.101 3.101 0 0 1-.912-2.202 3.1 3.1 0 0 1 .912-2.201 3.104 3.104 0 0 1 2.202-.913 3.102 3.102 0 0 1 2.388 1.116h1.271a4.17 4.17 0 0 0-7.832 1.996 4.17 4.17 0 0 0 7.78 2.089h-1.296a2.96 2.96 0 0 1-.109.115z"/><path fill="#FFF" d="M314.947 31.61c-.602 0-1.03-.45-1.03-1.047 0-.629.476-1.047 1.03-1.047.549 0 1.025.418 1.025 1.047 0 .63-.476 1.047-1.025 1.047zm0-1.912c-.453 0-.806.356-.806.865 0 .477.308.866.806.866.449 0 .801-.353.801-.866 0-.509-.352-.865-.801-.865zm.53 1.067a.497.497 0 0 1-.496.431c-.358 0-.594-.271-.594-.633 0-.338.224-.599.589-.601.254 0 .462.148.498.422h-.191c-.028-.143-.148-.24-.307-.24-.236 0-.365.187-.365.419 0 .244.143.451.37.451.165 0 .283-.103.302-.249h.194zM215.331 64.728h2.587v9.592h5.734v2.175h-8.321V64.728m9.638 0h8.8v2.176h-6.213v2.521h5.702v2.011h-5.702v2.884h6.344v2.175h-8.931V64.728m14 7.219h3.049l-1.484-4.318h-.033l-1.532 4.318zm.247-7.219h2.653l4.4 11.767h-2.686l-.89-2.62h-4.4l-.923 2.62h-2.62l4.466-11.767zm9.803 7.861c0 1.566 1.219 2.176 2.603 2.176.907 0 2.291-.264 2.291-1.467 0-1.269-1.764-1.483-3.494-1.945-1.747-.461-3.51-1.137-3.51-3.345 0-2.406 2.275-3.559 4.4-3.559 2.456 0 4.713 1.071 4.713 3.79h-2.504c-.083-1.417-1.088-1.78-2.324-1.78-.824 0-1.78.346-1.78 1.335 0 .906.561 1.021 3.51 1.78.857.214 3.494.758 3.494 3.428 0 2.158-1.697 3.773-4.895 3.773-2.603 0-5.043-1.285-5.009-4.186h2.505m11.5-5.685h-3.527v-2.176h9.641v2.176h-3.527v9.591h-2.587v-9.591M207.354 86.16c-.165-1.17-1.285-2.059-2.57-2.059-2.324 0-3.198 1.977-3.198 4.037 0 1.962.874 3.938 3.198 3.938 1.582 0 2.471-1.088 2.669-2.637h2.505c-.264 2.934-2.291 4.813-5.174 4.813-3.642 0-5.785-2.719-5.785-6.114 0-3.493 2.143-6.212 5.785-6.212 2.587 0 4.762 1.515 5.075 4.234h-2.505m9.605 5.916c2.324 0 3.197-1.976 3.197-3.938 0-2.06-.873-4.037-3.197-4.037-2.323 0-3.197 1.977-3.197 4.037 0 1.962.874 3.938 3.197 3.938zm0-10.15c3.643 0 5.785 2.719 5.785 6.212 0 3.395-2.142 6.114-5.785 6.114-3.642 0-5.784-2.719-5.784-6.114 0-3.493 2.142-6.212 5.784-6.212zm7.512.279h2.571l4.911 7.895h.033v-7.895h2.422v11.767h-2.587l-4.894-7.877h-.033v7.877h-2.423V82.205m20.02 3.955c-.165-1.17-1.285-2.059-2.571-2.059-2.323 0-3.197 1.977-3.197 4.037 0 1.962.874 3.938 3.197 3.938 1.582 0 2.472-1.088 2.67-2.637h2.505c-.264 2.934-2.291 4.813-5.175 4.813-3.642 0-5.784-2.719-5.784-6.114 0-3.493 2.142-6.212 5.784-6.212 2.588 0 4.763 1.515 5.076 4.234h-2.505m4.418-3.955h8.799v2.176h-6.212v2.521h5.702v2.01h-5.702v2.885h6.344v2.175h-8.931V82.205m13.395 5.323h2.835c1.153 0 1.779-.495 1.779-1.68 0-1.138-.626-1.632-1.779-1.632h-2.835v3.312zm-2.587-5.323h6.345c2.109 0 3.443 1.467 3.443 3.246 0 1.385-.56 2.423-1.861 2.95v.034c1.268.329 1.631 1.565 1.713 2.752.05.741.033 2.126.495 2.785h-2.588c-.313-.742-.28-1.879-.411-2.818-.182-1.236-.66-1.78-1.962-1.78h-2.587v4.598h-2.587V82.205zm11.918 0h2.571l4.911 7.895h.033v-7.895h2.422v11.767h-2.587l-4.894-7.877h-.033v7.877h-2.423V82.205"/></g></svg>