<svg xmlns="http://www.w3.org/2000/svg" width="768" height="159" viewBox="0 0 768 159"><title>category-scale_nt</title><g fill="none" fill-rule="evenodd"><path stroke="#000" d="M163.276 95.857h603.907M163.275 62.635h603.908"/><path fill="#000" d="M709.64 96.305h57.543V62.424H709.64z"/><path fill="#666" d="M81.118 96.314h76.323V62.109H81.118z"/><path fill="#FFF" d="M108.718 76.004h1.399c.909 0 1.779-.56 1.779-2.139 0-1.439-.5-2.359-2.059-2.359h-1.119v4.498zm-1.57-5.817h3.079c1.849 0 3.238 1.16 3.238 3.528 0 2.069-1.059 3.608-3.238 3.608h-3.079v-7.136zm8.94 4.378h1.849l-.9-2.619h-.02l-.929 2.619zm.15-4.378h1.609l2.668 7.136h-1.629l-.539-1.589h-2.669l-.56 1.589h-1.589l2.709-7.136zm5.763 1.319h-2.139v-1.319h5.847v1.319h-2.139v5.817h-1.569v-5.817m5.6 3.059h1.849l-.9-2.619h-.02l-.929 2.619zm.15-4.378h1.609l2.668 7.136h-1.629l-.539-1.589h-2.669l-.56 1.589h-1.589l2.709-7.136zM94.89 87.012h1.399c.909 0 1.779-.56 1.779-2.139 0-1.439-.5-2.359-2.059-2.359H94.89v4.498zm-1.57-5.817h3.079c1.849 0 3.238 1.159 3.238 3.528 0 2.069-1.059 3.608-3.238 3.608H93.32v-7.136zm7.41 0h5.338v1.319H102.3v1.529h3.458v1.22H102.3v1.749h3.847v1.319h-5.417v-7.136m6.48 0h5.018v1.319h-3.448v1.65h2.988v1.219h-2.988v2.948h-1.57v-7.136m5.93 7.136h1.569v-7.136h-1.569zm7.707-4.737c-.099-.709-.779-1.25-1.559-1.25-1.409 0-1.939 1.199-1.939 2.449 0 1.189.53 2.389 1.939 2.389.96 0 1.5-.661 1.619-1.6h1.52c-.16 1.779-1.39 2.919-3.139 2.919-2.208 0-3.508-1.649-3.508-3.708 0-2.119 1.3-3.768 3.508-3.768 1.569 0 2.889.919 3.079 2.569h-1.52m2.653 4.737h1.569v-7.136H123.5zm2.95-7.136h5.338v1.319h-3.768v1.529h3.458v1.22h-3.458v1.749h3.847v1.319h-5.417v-7.136m6.48 0h1.559l2.979 4.787h.02v-4.787h1.469v7.136h-1.569l-2.969-4.777h-.02v4.777h-1.469v-7.136m8.989 1.319h-2.139v-1.319h5.847v1.319h-2.139v5.817h-1.569v-5.817"/><path fill="#666" d="M0 96.314h77.599V62.109H0z"/><path fill="#FFF" d="M28.906 70.187h1.559l2.979 4.788h.02v-4.788h1.469v7.136h-1.569l-2.968-4.777h-.021v4.777h-1.469v-7.136m10.609 5.987c1.409 0 1.939-1.199 1.939-2.389 0-1.249-.53-2.448-1.939-2.448-1.41 0-1.939 1.199-1.939 2.448 0 1.19.529 2.389 1.939 2.389zm0-6.157c2.209 0 3.508 1.649 3.508 3.768 0 2.059-1.299 3.708-3.508 3.708s-3.508-1.649-3.508-3.708c0-2.119 1.299-3.768 3.508-3.768zm6.009 1.489h-2.138v-1.319h5.846v1.319h-2.138v5.817h-1.57v-5.817m-35.29 9.689h5.338v1.319h-3.768v1.529h3.458v1.22h-3.458v1.749h3.847v1.319h-5.417v-7.136m9.969 7.136h-1.769l-2.319-7.136h1.619l1.589 5.018h.02l1.609-5.018h1.619l-2.368 7.136m4.346-2.759h1.849l-.899-2.618h-.021l-.929 2.618zm.15-4.377h1.609l2.669 7.136h-1.629l-.54-1.589H24.14l-.56 1.589h-1.589l2.708-7.136zm5.141 0h1.569v5.817h3.478v1.319H29.84v-7.136m11.631 4.438c0 1.929-1.14 2.868-3.049 2.868-1.919 0-3.038-.93-3.038-2.868v-4.438h1.57v4.438c0 .779.199 1.549 1.468 1.549 1.12 0 1.48-.491 1.48-1.549v-4.438h1.569v4.438m2.902-.061h1.849l-.899-2.618h-.02l-.93 2.618zm.15-4.377h1.609l2.669 7.136h-1.629l-.54-1.589h-2.668l-.56 1.589h-1.589l2.708-7.136zm5.759 1.319h-2.138v-1.319h5.846v1.319h-2.138v5.817h-1.57v-5.817m4.481-1.319h5.338v1.319h-3.769v1.529h3.458v1.22h-3.458v1.749h3.848v1.319h-5.417v-7.136m8.127 5.817h1.399c.909 0 1.779-.56 1.779-2.139 0-1.439-.5-2.359-2.059-2.359H62.89v4.498zm-1.57-5.817h3.079c1.849 0 3.238 1.159 3.238 3.528 0 2.069-1.059 3.608-3.238 3.608H61.32v-7.136z"/><path fill="#DA2A1C" d="M386.359 79.77V.543h-80.574v.034c-43.127.72-77.879 35.884-77.879 79.197 0 43.757 35.473 79.226 79.223 79.226 43.621 0 79.004-35.252 79.222-78.822h.008v-.33l.002-.074-.002-.004"/><path fill="#FFF" d="M359.602 29.976h3.892c1.348 0 2.674.609 2.674 2.149 0 .823-.396 1.604-1.198 1.914v.022c.813.192 1.048 1.101 1.112 1.828.022.32.054 1.444.321 1.721h-1.967c-.172-.257-.204-1.005-.225-1.218-.054-.77-.182-1.562-1.112-1.562h-1.508v2.78h-1.989v-7.634zm1.989 3.315h1.668c.599 0 .92-.321.92-.899 0-.566-.45-.823-1.005-.823h-1.583v1.722zm5.518-3.315h6.084v1.593h-4.095v1.336h3.742v1.54h-3.742v1.454h4.202v1.711h-6.191v-7.634m7.111 0h3.283c2.342 0 3.742 1.422 3.742 3.785 0 2.502-1.422 3.849-3.742 3.849h-3.283v-7.634zm1.989 5.923h.941c1.508-.032 2.106-.62 2.106-2.149 0-1.39-.748-2.063-2.106-2.063h-.941v4.212zm-16.607 2.496h1.989v5.924h3.561v1.71h-5.55v-7.634m6.106 7.634h1.989v-7.634h-1.989zm4.491-2.566c.043.898.599 1.187 1.444 1.187.598 0 1.219-.213 1.219-.78 0-.674-1.091-.803-2.192-1.113-1.091-.31-2.235-.801-2.235-2.202 0-1.668 1.679-2.321 3.111-2.321 1.519 0 3.048.738 3.058 2.46h-1.988c.032-.695-.62-.92-1.23-.92-.428 0-.962.15-.962.652 0 .589 1.101.696 2.213 1.006 1.101.31 2.214.823 2.214 2.202 0 1.936-1.647 2.556-3.326 2.556-1.754 0-3.304-.77-3.315-2.727h1.989"/><path fill="#FFF" d="M381.138 40.105h-2.277v5.924h-1.989v-5.924h-2.278v-1.71h6.544v1.71m-6.776-27.991c-1.533 1.481-1.862 3.625-.736 4.791 1.127 1.166 3.282.91 4.814-.57 1.533-1.48 1.863-3.625.736-4.79-1.125-1.166-3.281-.911-4.814.569"/><path fill="#FFF" d="M373.136 19.311c-1.532 1.48-1.861 3.625-.735 4.791 1.126 1.166 3.282.911 4.813-.57 1.533-1.48 1.862-3.625.736-4.792-1.125-1.165-3.281-.909-4.814.571"/><g fill="#FFF"><path d="M362.608 8.782c-1.533 1.481-1.862 3.625-.736 4.792 1.126 1.165 3.282.91 4.814-.57 1.532-1.481 1.861-3.626.735-4.792-1.125-1.165-3.281-.911-4.813.57"/><path d="M369.861 7.647c-1.532 1.48-1.861 3.624-.736 4.79 1.127 1.166 3.282.912 4.814-.569 1.533-1.48 1.862-3.626.736-4.791-1.126-1.166-3.281-.91-4.814.57"/></g><path fill="#FFF" d="M371.25 20.753a6.03 6.03 0 1 1-12.06-.003 6.03 6.03 0 0 1 12.06.003m-14.004-3.611c0 5.312-4.307 9.615-9.616 9.615a9.613 9.613 0 0 1-9.614-9.615c0-5.309 4.304-9.614 9.614-9.614h9.628l-.012 9.614m.105 21.08c0 5.343-4.332 9.674-9.675 9.674a9.674 9.674 0 0 1-9.674-9.674c0-5.344 4.331-9.675 9.674-9.675 5.343 0 9.675 4.331 9.675 9.675"/><path fill="#D61D17" d="M343.362 39.241h.429v-1.948h-.429zm2.183-.149c-.147.129-.351.193-.611.193-.264 0-.468-.064-.613-.191-.144-.128-.217-.324-.217-.59v-1.211h.429v1.211c0 .053.005.105.014.156a.314.314 0 0 0 .057.135c.029.039.07.071.122.095a.481.481 0 0 0 .208.037c.153 0 .258-.034.316-.102.059-.068.088-.175.088-.321v-1.211h.429v1.211c0 .264-.075.46-.222.588m1.785-1.28a.444.444 0 0 0-.377-.206.47.47 0 0 0-.409.206.658.658 0 0 0-.091.215 1.066 1.066 0 0 0 0 .487.645.645 0 0 0 .091.209.477.477 0 0 0 .164.148.501.501 0 0 0 .245.056c.131 0 .234-.04.307-.12a.556.556 0 0 0 .136-.316h.414a1.007 1.007 0 0 1-.084.33.756.756 0 0 1-.443.409.964.964 0 0 1-.33.055.994.994 0 0 1-.402-.078.868.868 0 0 1-.49-.535 1.193 1.193 0 0 1-.065-.397c0-.146.022-.28.065-.405a.958.958 0 0 1 .188-.326.852.852 0 0 1 .302-.218.962.962 0 0 1 .402-.079c.108 0 .209.015.304.046a.83.83 0 0 1 .257.135.735.735 0 0 1 .279.52h-.414a.358.358 0 0 0-.049-.136m1.143-.519l.813 1.307h.006v-1.307h.4v1.948h-.428l-.81-1.304h-.006v1.304h-.401v-1.948h.426"/><path fill="#D61D17" d="M347.443 40.306a3.099 3.099 0 0 1-2.311 1.027 3.101 3.101 0 0 1-2.202-.912 3.097 3.097 0 0 1-.912-2.202c0-.86.347-1.637.912-2.201a3.102 3.102 0 0 1 2.202-.913 3.1 3.1 0 0 1 2.388 1.116h1.271a4.17 4.17 0 1 0-.053 4.085h-1.295"/><path fill="#FFF" d="M382.034 31.61c-.602 0-1.031-.45-1.031-1.047 0-.629.476-1.047 1.031-1.047.549 0 1.025.418 1.025 1.047 0 .63-.476 1.047-1.025 1.047zm0-1.912c-.454 0-.806.356-.806.865 0 .477.308.866.806.866.448 0 .801-.353.801-.866 0-.509-.353-.865-.801-.865zm.529 1.067a.496.496 0 0 1-.496.431c-.358 0-.593-.271-.593-.633 0-.338.224-.599.588-.601.254 0 .462.148.499.422h-.191c-.028-.143-.148-.24-.308-.24-.235 0-.364.187-.364.419 0 .244.143.451.369.451.165 0 .284-.103.303-.249h.193zm-97.225 33.69h2.571l4.911 7.894h.033v-7.894h2.422v11.767h-2.587l-4.894-7.877h-.033v7.877h-2.423V64.455m12.275 0h8.8v2.176H300.2v2.521h5.702v2.011H300.2v2.883h6.344v2.176h-8.931V64.455m13.996 7.218h3.049l-1.483-4.318h-.033l-1.533 4.318zm.247-7.218h2.654l4.4 11.767h-2.686l-.891-2.62h-4.399l-.923 2.62h-2.62l4.465-11.767zm10.743 5.323h2.834c1.153 0 1.78-.494 1.78-1.681 0-1.137-.627-1.631-1.78-1.631h-2.834v3.312zm-2.588-5.323h6.344c2.11 0 3.445 1.467 3.445 3.247 0 1.384-.56 2.422-1.862 2.949v.034c1.269.329 1.631 1.565 1.713 2.752.05.741.034 2.125.495 2.785h-2.587c-.313-.742-.281-1.879-.413-2.818-.181-1.236-.659-1.78-1.96-1.78h-2.587v4.598h-2.588V64.455zM255.551 84.1h-3.526v-2.176h9.64V84.1h-3.526v9.59h-2.588V84.1m7.43-2.176h2.587v4.515h4.763v-4.515h2.587V93.69h-2.587v-5.075h-4.763v5.075h-2.587V81.924m14.763 5.323h2.835c1.153 0 1.779-.495 1.779-1.681 0-1.137-.626-1.631-1.779-1.631h-2.835v3.312zm-2.587-5.323h6.345c2.109 0 3.444 1.467 3.444 3.246 0 1.385-.56 2.423-1.862 2.95v.033c1.269.329 1.631 1.566 1.714 2.752.049.741.033 2.126.494 2.785h-2.587c-.313-.741-.28-1.878-.412-2.817-.182-1.236-.659-1.78-1.961-1.78h-2.588v4.597h-2.587V81.924zm11.863 0h8.799V84.1h-6.213v2.521h5.703v2.01h-5.703v2.885h6.345v2.174h-8.931V81.924m14.089 7.219h3.049l-1.483-4.319h-.033l-1.533 4.319zm.247-7.219h2.654l4.4 11.766h-2.686l-.891-2.62h-4.399l-.923 2.62h-2.62l4.465-11.766zm9.457 2.176h-3.526v-2.176h9.641V84.1h-3.527v9.59h-2.588V84.1m7.385-2.176h8.8V84.1h-6.213v2.521h5.702v2.01h-5.702v2.885h6.344v2.174h-8.931V81.924m10.808 0h2.571l4.91 7.894h.034v-7.894h2.422V93.69h-2.588l-4.894-7.877h-.033v7.877h-2.422V81.924m12.34 0h8.8V84.1h-6.212v2.521h5.701v2.01h-5.701v2.885h6.344v2.174h-8.932V81.924m13.395 9.592h2.308c1.499 0 2.933-.924 2.933-3.528 0-2.373-.824-3.888-3.395-3.888h-1.846v7.416zm-2.587-9.592h5.076c3.048 0 5.339 1.912 5.339 5.817 0 3.411-1.747 5.949-5.339 5.949h-5.076V81.924z"/><path fill="#000" d="M398.725 82.878h-1.77l-2.318-7.136h1.619l1.589 5.018h.02l1.61-5.018h1.619l-2.369 7.136m9.098-2.698c0 1.928-1.139 2.868-3.048 2.868-1.919 0-3.039-.93-3.039-2.868v-4.438h1.57v4.438c0 .779.2 1.549 1.469 1.549 1.12 0 1.479-.491 1.479-1.549v-4.438h1.569v4.438m1.38-4.438h1.569v5.817h3.479v1.319h-5.048v-7.136m5.65 0h1.559l2.979 4.787h.019v-4.787h1.469v7.136h-1.568l-2.969-4.777h-.02v4.777h-1.469v-7.136m7.436 0h5.337v1.319h-3.768v1.529h3.458v1.22h-3.458v1.749h3.848v1.319h-5.417v-7.136m8.109 3.228h1.719c.7 0 1.08-.3 1.08-1.019 0-.69-.38-.99-1.08-.99h-1.719v2.009zm-1.569-3.228h3.848c1.279 0 2.089.889 2.089 1.969 0 .839-.34 1.469-1.129 1.789v.02c.769.2.989.949 1.039 1.669.03.45.02 1.29.3 1.689h-1.569c-.19-.45-.17-1.14-.25-1.709-.11-.749-.4-1.079-1.189-1.079h-1.57v2.788h-1.569v-7.136zm9.078 4.377h1.85l-.9-2.618h-.02l-.93 2.618zm.151-4.377h1.609l2.668 7.136h-1.629l-.54-1.589h-2.668l-.56 1.589h-1.589l2.709-7.136zm6.53 5.916h1.679c.62 0 1.16-.199 1.16-.939 0-.729-.46-1.019-1.13-1.019h-1.709v1.958zm0-3.028h1.589c.55 0 .96-.25.96-.849 0-.68-.52-.82-1.08-.82h-1.469v1.669zm-1.569-2.888h3.358c1.359 0 2.278.44 2.278 1.769 0 .7-.349 1.189-.968 1.489.869.25 1.308.919 1.308 1.809 0 1.449-1.229 2.069-2.518 2.069h-3.458v-7.136zm7.004 0h1.57v5.817h3.478v1.319h-5.048v-7.136m5.65 0h5.337v1.319h-3.768v1.529h3.458v1.22h-3.458v1.749h3.848v1.319h-5.417v-7.136m18.671 0h5.337v1.319h-3.768v1.529h3.458v1.22h-3.458v1.749h3.848v1.319h-5.417v-7.136m6.559 0h1.56l2.978 4.787h.02v-4.787h1.469v7.136h-1.569l-2.968-4.777h-.02v4.777h-1.47v-7.136m9.002 5.817h1.4c.909 0 1.779-.56 1.779-2.139 0-1.44-.5-2.359-2.06-2.359h-1.119v4.498zm-1.569-5.817h3.078c1.85 0 3.238 1.159 3.238 3.528 0 2.069-1.059 3.608-3.238 3.608h-3.078v-7.136zm8.938 4.377h1.85l-.899-2.618h-.021l-.93 2.618zm.151-4.377h1.609l2.668 7.136h-1.629l-.54-1.589h-2.668l-.559 1.589h-1.59l2.709-7.136zm4.942 0h1.56l2.978 4.787h.02v-4.787h1.47v7.136h-1.57l-2.969-4.777h-.019v4.777h-1.47v-7.136m12.617 6.326c-.549.709-1.269.98-1.959.98-2.209 0-3.507-1.65-3.507-3.708 0-2.119 1.298-3.768 3.507-3.768 1.459 0 2.839.9 3.009 2.518h-1.499c-.181-.789-.769-1.199-1.51-1.199-1.409 0-1.938 1.199-1.938 2.449 0 1.189.529 2.389 1.938 2.389 1.02 0 1.61-.55 1.7-1.54h-1.579V79.02h2.998v3.858h-.999l-.161-.81m2.483-6.326h5.337v1.319h-3.768v1.529h3.458v1.22h-3.458v1.749h3.848v1.319h-5.417v-7.136m8.099 3.228h1.719c.7 0 1.08-.3 1.08-1.019 0-.69-.38-.99-1.08-.99h-1.719v2.009zm-1.569-3.228h3.848c1.279 0 2.089.889 2.089 1.969 0 .839-.34 1.469-1.129 1.789v.02c.769.2.989.949 1.039 1.669.03.45.02 1.29.3 1.689h-1.569c-.19-.45-.17-1.14-.25-1.709-.11-.749-.4-1.079-1.189-1.079h-1.57v2.788h-1.569v-7.136zm7.27 0h5.337v1.319h-3.768v1.529h3.458v1.22h-3.458v1.749h3.848v1.319h-5.417v-7.136m8.099 5.817h1.4c.909 0 1.779-.56 1.779-2.139 0-1.44-.5-2.359-2.06-2.359h-1.119v4.498zm-1.569-5.817h3.078c1.85 0 3.238 1.159 3.238 3.528 0 2.069-1.059 3.608-3.238 3.608h-3.078v-7.136zm112.461-5.555h5.337v1.319h-3.768v1.53h3.458v1.219h-3.458v1.749h3.848v1.319h-5.417v-7.136m8.429 3.398l-2.299-3.398h1.819l1.399 2.279 1.45-2.279h1.718l-2.289 3.408 2.49 3.728h-1.87l-1.559-2.469-1.589 2.469h-1.769l2.499-3.738m6.517-2.079h-2.139v-1.319h5.847v1.319h-2.139v5.817h-1.569v-5.817m4.481 5.817h1.569v-7.136h-1.569zm3.159-7.136h1.559l2.979 4.788h.019v-4.788h1.47v7.136h-1.569l-2.969-4.777h-.02v4.777h-1.469v-7.136m12.168 2.399c-.101-.709-.781-1.249-1.56-1.249-1.409 0-1.938 1.199-1.938 2.448 0 1.19.529 2.389 1.938 2.389.96 0 1.499-.66 1.619-1.599h1.52c-.16 1.779-1.39 2.918-3.139 2.918-2.209 0-3.508-1.649-3.508-3.708 0-2.119 1.299-3.768 3.508-3.768 1.569 0 2.889.92 3.078 2.569h-1.518m3.981-1.08h-2.139v-1.319h5.847v1.319h-2.138v5.817h-1.57v-5.817m-47.485 16.825h1.569v-7.136h-1.569zm2.96-7.136h1.559l2.979 4.787h.019v-4.787h1.469v7.136h-1.568l-2.969-4.777h-.019v4.777h-1.47v-7.136m11.623 1.319h-2.139v-1.319h5.847v1.319h-2.139v5.817h-1.569v-5.817m4.48-1.319h1.57v2.739h2.888v-2.739h1.569v7.136h-1.569v-3.078h-2.888v3.078h-1.57v-7.136m7.39 0h5.337v1.319h-3.768v1.529h3.458v1.22h-3.458v1.749h3.848v1.319h-5.417v-7.136m15.852 7.136h-1.56l-1.209-4.857h-.021l-1.189 4.857h-1.589l-1.889-7.136h1.57l1.129 4.858h.019l1.24-4.858h1.469l1.22 4.917h.019l1.169-4.917h1.54l-1.918 7.136m2.653 0h1.569v-7.136h-1.569zm2.956-7.136h1.569v5.817h3.479v1.319h-5.048v-7.136m7.019 5.817h1.4c.909 0 1.778-.56 1.778-2.139 0-1.439-.499-2.359-2.058-2.359h-1.12v4.498zm-1.569-5.817h3.078c1.85 0 3.238 1.159 3.238 3.528 0 2.069-1.059 3.608-3.238 3.608h-3.078v-7.136z"/><path fill="#FFF" d="M718.203 75.703h5.337v1.319h-3.768v1.529h3.458v1.219h-3.458v1.75h3.848v1.319h-5.417v-7.136m8.429 3.398l-2.299-3.398h1.819l1.4 2.278 1.449-2.278h1.719l-2.289 3.408 2.489 3.728h-1.869l-1.56-2.469-1.589 2.469h-1.768l2.498-3.738m6.51-2.079h-2.139v-1.319h5.847v1.319h-2.139v5.817h-1.569v-5.817m4.501 5.817h1.569v-7.136h-1.569zm2.92-7.136h1.559l2.979 4.787h.019v-4.787h1.47v7.136h-1.569l-2.969-4.777h-.02v4.777h-1.469v-7.136m12.137 2.399c-.1-.71-.78-1.25-1.559-1.25-1.41 0-1.939 1.199-1.939 2.449 0 1.189.529 2.388 1.939 2.388.96 0 1.499-.66 1.619-1.599h1.519c-.16 1.779-1.389 2.919-3.138 2.919-2.209 0-3.508-1.65-3.508-3.708 0-2.119 1.299-3.768 3.508-3.768 1.569 0 2.888.919 3.078 2.569H752.7m4.231-1.08h-2.139v-1.319h5.847v1.319H758.5v5.817h-1.569v-5.817"/><path fill="#000" d="M569.156 72.586c-.1-.709-.78-1.249-1.559-1.249-1.409 0-1.939 1.199-1.939 2.448 0 1.19.53 2.389 1.939 2.389.96 0 1.499-.66 1.619-1.599h1.519c-.16 1.779-1.389 2.918-3.138 2.918-2.209 0-3.508-1.649-3.508-3.708 0-2.119 1.299-3.768 3.508-3.768 1.569 0 2.888.92 3.078 2.569h-1.519m4.192.83h1.718c.701 0 1.08-.3 1.08-1.02 0-.689-.379-.99-1.08-.99h-1.718v2.01zm-1.57-3.229h3.848c1.279 0 2.089.89 2.089 1.969 0 .84-.34 1.469-1.129 1.789v.02c.769.2.989.95 1.039 1.669.03.45.021 1.289.3 1.689h-1.569c-.19-.449-.169-1.139-.25-1.709-.11-.749-.4-1.079-1.189-1.079h-1.569v2.788h-1.57v-7.136zm7.19 7.136h1.569v-7.136h-1.569zm4.5-5.817h-2.139v-1.319h5.847v1.319h-2.139v5.817h-1.569v-5.817m4.5 5.817h1.569v-7.136h-1.569zm7.678-4.737c-.101-.709-.781-1.249-1.56-1.249-1.409 0-1.939 1.199-1.939 2.448 0 1.19.53 2.389 1.939 2.389.96 0 1.499-.66 1.619-1.599h1.52c-.161 1.779-1.39 2.918-3.139 2.918-2.209 0-3.508-1.649-3.508-3.708 0-2.119 1.299-3.768 3.508-3.768 1.569 0 2.889.92 3.078 2.569h-1.518m4.262 1.979h1.85l-.9-2.619h-.02l-.93 2.619zm.151-4.378h1.609l2.668 7.136h-1.629l-.54-1.589h-2.668l-.56 1.589h-1.589l2.709-7.136zm4.94 0h1.569v5.817h3.479v1.319h-5.048v-7.136m5.86 0h1.57v5.817h3.478v1.319h-5.048v-7.136m6.8 4.358l-2.629-4.358h1.769l1.67 2.819 1.658-2.819h1.749l-2.648 4.398v2.738h-1.569v-2.778m-59.636 6.65h5.337v1.319h-3.767v1.529h3.458v1.22h-3.458v1.749h3.847v1.319h-5.417v-7.136m6.56 0h1.56l2.978 4.787h.02v-4.787h1.468v7.136h-1.568l-2.969-4.777h-.019v4.777h-1.47v-7.136m9.002 5.817h1.399c.91 0 1.78-.56 1.78-2.139 0-1.439-.5-2.359-2.06-2.359h-1.119v4.498zm-1.569-5.817h3.078c1.849 0 3.238 1.159 3.238 3.528 0 2.069-1.06 3.608-3.238 3.608h-3.078v-7.136zm8.938 4.377h1.85l-.9-2.618h-.02l-.93 2.618zm.15-4.377h1.61l2.668 7.136h-1.629l-.54-1.589h-2.668l-.56 1.589h-1.589l2.708-7.136zm4.951 0h1.559l2.979 4.787h.019v-4.787h1.47v7.136h-1.569l-2.969-4.777h-.02v4.777h-1.469v-7.136m12.617 6.326c-.55.709-1.27.98-1.959.98-2.209 0-3.508-1.649-3.508-3.708 0-2.119 1.299-3.768 3.508-3.768 1.459 0 2.839.9 3.009 2.518h-1.499c-.181-.789-.77-1.199-1.51-1.199-1.409 0-1.939 1.199-1.939 2.449 0 1.189.53 2.389 1.939 2.389 1.019 0 1.609-.55 1.699-1.539h-1.579v-1.17h2.998v3.858h-.999l-.16-.81m2.482-6.326h5.337v1.319h-3.767v1.529h3.458v1.22h-3.458v1.749h3.847v1.319h-5.417v-7.136m8.1 3.229h1.719c.7 0 1.08-.301 1.08-1.02 0-.689-.38-.99-1.08-.99h-1.719v2.01zm-1.569-3.229h3.847c1.28 0 2.089.889 2.089 1.969 0 .84-.34 1.469-1.129 1.789v.02c.77.2.989.949 1.039 1.67.031.449.021 1.289.3 1.688h-1.568c-.191-.45-.17-1.14-.25-1.709-.111-.749-.401-1.079-1.19-1.079h-1.569v2.788h-1.569v-7.136zm7.269 0h5.337v1.319h-3.768v1.529h3.458v1.22h-3.458v1.749h3.848v1.319h-5.417v-7.136m8.1 5.817h1.399c.909 0 1.779-.56 1.779-2.139 0-1.439-.5-2.359-2.059-2.359h-1.119v4.498zm-1.57-5.817h3.079c1.849 0 3.238 1.159 3.238 3.528 0 2.069-1.06 3.608-3.238 3.608h-3.079v-7.136zM173.43 70.187h1.569v5.817h3.478v1.319h-5.047v-7.136m5.799 0h5.338v1.319h-3.768v1.53h3.458v1.219h-3.458v1.749h3.847v1.319h-5.417v-7.136m8.031 4.378h1.849l-.9-2.619h-.02l-.929 2.619zm.15-4.378h1.609l2.669 7.136h-1.629l-.54-1.589h-2.668l-.56 1.589h-1.589l2.708-7.136zm5.891 4.768c0 .949.739 1.319 1.579 1.319.549 0 1.389-.16 1.389-.89 0-.769-1.069-.899-2.119-1.179-1.059-.28-2.129-.69-2.129-2.029 0-1.459 1.379-2.159 2.669-2.159 1.489 0 2.858.65 2.858 2.299h-1.519c-.05-.859-.659-1.079-1.409-1.079-.5 0-1.079.209-1.079.809 0 .55.339.62 2.128 1.079.52.13 2.119.46 2.119 2.08 0 1.309-1.029 2.288-2.968 2.288-1.579 0-3.059-.78-3.039-2.538h1.52m6.755-3.449h-2.139v-1.319h5.847v1.319h-2.139v5.817h-1.569v-5.817m-31.611 12.088c-.1-.709-.779-1.25-1.559-1.25-1.409 0-1.939 1.199-1.939 2.449 0 1.189.53 2.389 1.939 2.389.959 0 1.499-.661 1.619-1.6h1.519c-.16 1.779-1.389 2.919-3.138 2.919-2.209 0-3.508-1.649-3.508-3.708 0-2.119 1.299-3.768 3.508-3.768 1.569 0 2.888.919 3.078 2.569h-1.519m5.761 3.588c1.409 0 1.939-1.2 1.939-2.389 0-1.25-.53-2.449-1.939-2.449-1.41 0-1.939 1.199-1.939 2.449 0 1.189.529 2.389 1.939 2.389zm0-6.157c2.209 0 3.508 1.649 3.508 3.768 0 2.059-1.299 3.708-3.508 3.708s-3.508-1.649-3.508-3.708c0-2.119 1.299-3.768 3.508-3.768zm4.333.17h1.559l2.979 4.787h.02v-4.787h1.469v7.136h-1.569l-2.969-4.777h-.02v4.777h-1.469v-7.136m12.157 2.399c-.099-.709-.779-1.25-1.559-1.25-1.409 0-1.939 1.199-1.939 2.449 0 1.189.53 2.389 1.939 2.389.96 0 1.5-.661 1.619-1.6h1.52c-.16 1.779-1.39 2.919-3.139 2.919-2.208 0-3.508-1.649-3.508-3.708 0-2.119 1.3-3.768 3.508-3.768 1.57 0 2.889.919 3.079 2.569h-1.52m2.643-2.399h5.337v1.319h-3.768v1.529h3.458v1.22h-3.458v1.749h3.848v1.319h-5.417v-7.136m8.039 3.229h1.72c.699 0 1.079-.301 1.079-1.02 0-.689-.38-.99-1.079-.99h-1.72v2.01zm-1.569-3.229h3.848c1.28 0 2.089.889 2.089 1.969 0 .84-.34 1.469-1.129 1.789v.02c.769.2.989.949 1.039 1.67.03.449.02 1.289.3 1.688h-1.569c-.19-.45-.17-1.14-.25-1.709-.11-.749-.4-1.079-1.189-1.079h-1.57v2.788h-1.569v-7.136zm7.121 0h1.559l2.978 4.787h.02v-4.787h1.47v7.136h-1.57l-2.968-4.777h-.02v4.777h-1.469v-7.136"/></g></svg>