<?xml version="1.0" encoding="UTF-8"?>
<svg width="768px" height="159px" viewBox="0 0 768 159" version="1.1" xmlns="http://www.w3.org/2000/svg" xmlns:xlink="http://www.w3.org/1999/xlink">
    <!-- Generator: Sketch 40.3 (33839) - http://www.bohemiancoding.com/sketch -->
    <title>category-scale_nt</title>
    <desc>Created with Sketch.</desc>
    <defs></defs>
    <g id="Page-1" stroke="none" stroke-width="1" fill="none" fill-rule="evenodd">
        <g id="category-scale_nt">
            <path d="M163.276,95.857 L767.183,95.857 M163.275,62.635 L767.183,62.635" id="Stroke-1" stroke="#000000"></path>
            <polygon id="Fill-3" fill="#000000" points="709.64 96.305 767.183 96.305 767.183 62.424 709.64 62.424"></polygon>
            <polygon id="Fill-4" fill="#666666" points="81.118 96.314 157.441 96.314 157.441 62.109 81.118 62.109"></polygon>
            <path d="M108.718,76.004 L110.117,76.004 C111.026,76.004 111.896,75.444 111.896,73.865 C111.896,72.426 111.396,71.506 109.837,71.506 L108.718,71.506 L108.718,76.004 L108.718,76.004 Z M107.148,70.187 L110.227,70.187 C112.076,70.187 113.465,71.347 113.465,73.715 C113.465,75.784 112.406,77.323 110.227,77.323 L107.148,77.323 L107.148,70.187 L107.148,70.187 Z" id="Fill-5" fill="#FFFFFF"></path>
            <path d="M116.088,74.565 L117.937,74.565 L117.037,71.946 L117.017,71.946 L116.088,74.565 L116.088,74.565 Z M116.238,70.187 L117.847,70.187 L120.515,77.323 L118.886,77.323 L118.347,75.734 L115.678,75.734 L115.118,77.323 L113.529,77.323 L116.238,70.187 L116.238,70.187 Z" id="Fill-6" fill="#FFFFFF"></path>
            <polyline id="Fill-7" fill="#FFFFFF" points="122.001 71.506 119.862 71.506 119.862 70.187 125.709 70.187 125.709 71.506 123.57 71.506 123.57 77.323 122.001 77.323 122.001 71.506"></polyline>
            <path d="M127.601,74.565 L129.45,74.565 L128.55,71.946 L128.53,71.946 L127.601,74.565 L127.601,74.565 Z M127.751,70.187 L129.36,70.187 L132.028,77.323 L130.399,77.323 L129.86,75.734 L127.191,75.734 L126.631,77.323 L125.042,77.323 L127.751,70.187 L127.751,70.187 Z" id="Fill-8" fill="#FFFFFF"></path>
            <path d="M94.89,87.012 L96.289,87.012 C97.198,87.012 98.068,86.452 98.068,84.873 C98.068,83.434 97.568,82.514 96.009,82.514 L94.89,82.514 L94.89,87.012 L94.89,87.012 Z M93.32,81.195 L96.399,81.195 C98.248,81.195 99.637,82.354 99.637,84.723 C99.637,86.792 98.578,88.331 96.399,88.331 L93.32,88.331 L93.32,81.195 L93.32,81.195 Z" id="Fill-9" fill="#FFFFFF"></path>
            <polyline id="Fill-10" fill="#FFFFFF" points="100.73 81.195 106.068 81.195 106.068 82.514 102.3 82.514 102.3 84.043 105.758 84.043 105.758 85.263 102.3 85.263 102.3 87.012 106.147 87.012 106.147 88.331 100.73 88.331 100.73 81.195"></polyline>
            <polyline id="Fill-11" fill="#FFFFFF" points="107.21 81.195 112.228 81.195 112.228 82.514 108.78 82.514 108.78 84.164 111.768 84.164 111.768 85.383 108.78 85.383 108.78 88.331 107.21 88.331 107.21 81.195"></polyline>
            <polygon id="Fill-12" fill="#FFFFFF" points="113.14 88.331 114.709 88.331 114.709 81.195 113.14 81.195"></polygon>
            <path d="M120.847,83.594 C120.748,82.885 120.068,82.344 119.288,82.344 C117.879,82.344 117.349,83.543 117.349,84.793 C117.349,85.982 117.879,87.182 119.288,87.182 C120.248,87.182 120.788,86.521 120.907,85.582 L122.427,85.582 C122.267,87.361 121.037,88.501 119.288,88.501 C117.08,88.501 115.78,86.852 115.78,84.793 C115.78,82.674 117.08,81.025 119.288,81.025 C120.857,81.025 122.177,81.944 122.367,83.594 L120.847,83.594" id="Fill-13" fill="#FFFFFF"></path>
            <polygon id="Fill-14" fill="#FFFFFF" points="123.5 88.331 125.069 88.331 125.069 81.195 123.5 81.195"></polygon>
            <polyline id="Fill-15" fill="#FFFFFF" points="126.45 81.195 131.788 81.195 131.788 82.514 128.02 82.514 128.02 84.043 131.478 84.043 131.478 85.263 128.02 85.263 128.02 87.012 131.867 87.012 131.867 88.331 126.45 88.331 126.45 81.195"></polyline>
            <polyline id="Fill-16" fill="#FFFFFF" points="132.93 81.195 134.489 81.195 137.468 85.982 137.488 85.982 137.488 81.195 138.957 81.195 138.957 88.331 137.388 88.331 134.419 83.554 134.399 83.554 134.399 88.331 132.93 88.331 132.93 81.195"></polyline>
            <polyline id="Fill-17" fill="#FFFFFF" points="141.919 82.514 139.78 82.514 139.78 81.195 145.627 81.195 145.627 82.514 143.488 82.514 143.488 88.331 141.919 88.331 141.919 82.514"></polyline>
            <polygon id="Fill-20" fill="#666666" points="0 96.314 77.599 96.314 77.599 62.109 0 62.109"></polygon>
            <polyline id="Fill-21" fill="#FFFFFF" points="28.906 70.187 30.465 70.187 33.444 74.975 33.464 74.975 33.464 70.187 34.933 70.187 34.933 77.323 33.364 77.323 30.396 72.546 30.375 72.546 30.375 77.323 28.906 77.323 28.906 70.187"></polyline>
            <path d="M39.515,76.174 C40.924,76.174 41.454,74.975 41.454,73.785 C41.454,72.536 40.924,71.337 39.515,71.337 C38.105,71.337 37.576,72.536 37.576,73.785 C37.576,74.975 38.105,76.174 39.515,76.174 L39.515,76.174 Z M39.515,70.017 C41.724,70.017 43.023,71.666 43.023,73.785 C43.023,75.844 41.724,77.493 39.515,77.493 C37.306,77.493 36.007,75.844 36.007,73.785 C36.007,71.666 37.306,70.017 39.515,70.017 L39.515,70.017 Z" id="Fill-22" fill="#FFFFFF"></path>
            <polyline id="Fill-23" fill="#FFFFFF" points="45.524 71.506 43.386 71.506 43.386 70.187 49.232 70.187 49.232 71.506 47.094 71.506 47.094 77.323 45.524 77.323 45.524 71.506"></polyline>
            <polyline id="Fill-24" fill="#FFFFFF" points="10.234 81.195 15.572 81.195 15.572 82.514 11.804 82.514 11.804 84.043 15.262 84.043 15.262 85.263 11.804 85.263 11.804 87.012 15.651 87.012 15.651 88.331 10.234 88.331 10.234 81.195"></polyline>
            <polyline id="Fill-25" fill="#FFFFFF" points="20.203 88.331 18.434 88.331 16.115 81.195 17.734 81.195 19.323 86.213 19.343 86.213 20.952 81.195 22.571 81.195 20.203 88.331"></polyline>
            <path d="M24.549,85.572 L26.398,85.572 L25.499,82.954 L25.478,82.954 L24.549,85.572 L24.549,85.572 Z M24.699,81.195 L26.308,81.195 L28.977,88.331 L27.348,88.331 L26.808,86.742 L24.14,86.742 L23.58,88.331 L21.991,88.331 L24.699,81.195 L24.699,81.195 Z" id="Fill-26" fill="#FFFFFF"></path>
            <polyline id="Fill-27" fill="#FFFFFF" points="29.84 81.195 31.409 81.195 31.409 87.012 34.887 87.012 34.887 88.331 29.84 88.331 29.84 81.195"></polyline>
            <path d="M41.471,85.633 C41.471,87.562 40.331,88.501 38.422,88.501 C36.503,88.501 35.384,87.571 35.384,85.633 L35.384,81.195 L36.954,81.195 L36.954,85.633 C36.954,86.412 37.153,87.182 38.422,87.182 C39.542,87.182 39.902,86.691 39.902,85.633 L39.902,81.195 L41.471,81.195 L41.471,85.633" id="Fill-28" fill="#FFFFFF"></path>
            <path d="M44.373,85.572 L46.222,85.572 L45.323,82.954 L45.303,82.954 L44.373,85.572 L44.373,85.572 Z M44.523,81.195 L46.132,81.195 L48.801,88.331 L47.172,88.331 L46.632,86.742 L43.964,86.742 L43.404,88.331 L41.815,88.331 L44.523,81.195 L44.523,81.195 Z" id="Fill-29" fill="#FFFFFF"></path>
            <polyline id="Fill-30" fill="#FFFFFF" points="50.282 82.514 48.144 82.514 48.144 81.195 53.99 81.195 53.99 82.514 51.852 82.514 51.852 88.331 50.282 88.331 50.282 82.514"></polyline>
            <polyline id="Fill-31" fill="#FFFFFF" points="54.763 81.195 60.101 81.195 60.101 82.514 56.332 82.514 56.332 84.043 59.79 84.043 59.79 85.263 56.332 85.263 56.332 87.012 60.18 87.012 60.18 88.331 54.763 88.331 54.763 81.195"></polyline>
            <path d="M62.89,87.012 L64.289,87.012 C65.198,87.012 66.068,86.452 66.068,84.873 C66.068,83.434 65.568,82.514 64.009,82.514 L62.89,82.514 L62.89,87.012 L62.89,87.012 Z M61.32,81.195 L64.399,81.195 C66.248,81.195 67.637,82.354 67.637,84.723 C67.637,86.792 66.578,88.331 64.399,88.331 L61.32,88.331 L61.32,81.195 L61.32,81.195 Z" id="Fill-32" fill="#FFFFFF"></path>
            <path d="M386.359,79.77 L386.359,0.543 L305.785,0.543 L305.785,0.577 C262.658,1.297 227.906,36.461 227.906,79.774 C227.906,123.531 263.379,159 307.129,159 C350.75,159 386.133,123.748 386.351,80.178 L386.359,80.178 L386.359,79.848 C386.359,79.823 386.361,79.799 386.361,79.774 C386.361,79.773 386.359,79.77 386.359,79.77" id="Fill-35" fill="#DA2A1C"></path>
            <path d="M359.602,29.976 L363.494,29.976 C364.842,29.976 366.168,30.585 366.168,32.125 C366.168,32.948 365.772,33.729 364.97,34.039 L364.97,34.061 C365.783,34.253 366.018,35.162 366.082,35.889 C366.104,36.209 366.136,37.333 366.403,37.61 L364.436,37.61 C364.264,37.353 364.232,36.605 364.211,36.392 C364.157,35.622 364.029,34.83 363.099,34.83 L361.591,34.83 L361.591,37.61 L359.602,37.61 L359.602,29.976 L359.602,29.976 Z M361.591,33.291 L363.259,33.291 C363.858,33.291 364.179,32.97 364.179,32.392 C364.179,31.826 363.729,31.569 363.174,31.569 L361.591,31.569 L361.591,33.291 L361.591,33.291 Z" id="Fill-36" fill="#FFFFFF"></path>
            <polyline id="Fill-37" fill="#FFFFFF" points="367.109 29.976 373.193 29.976 373.193 31.569 369.098 31.569 369.098 32.905 372.84 32.905 372.84 34.445 369.098 34.445 369.098 35.899 373.3 35.899 373.3 37.61 367.109 37.61 367.109 29.976"></polyline>
            <path d="M374.22,29.976 L377.503,29.976 C379.845,29.976 381.245,31.398 381.245,33.761 C381.245,36.263 379.823,37.61 377.503,37.61 L374.22,37.61 L374.22,29.976 L374.22,29.976 Z M376.209,35.899 L377.15,35.899 C378.658,35.867 379.256,35.279 379.256,33.75 C379.256,32.36 378.508,31.687 377.15,31.687 L376.209,31.687 L376.209,35.899 L376.209,35.899 Z" id="Fill-38" fill="#FFFFFF"></path>
            <polyline id="Fill-39" fill="#FFFFFF" points="359.602 38.395 361.591 38.395 361.591 44.319 365.152 44.319 365.152 46.029 359.602 46.029 359.602 38.395"></polyline>
            <polygon id="Fill-40" fill="#FFFFFF" points="365.708 46.029 367.697 46.029 367.697 38.395 365.708 38.395"></polygon>
            <path d="M370.199,43.463 C370.242,44.361 370.798,44.65 371.643,44.65 C372.241,44.65 372.862,44.437 372.862,43.87 C372.862,43.196 371.771,43.067 370.67,42.757 C369.579,42.447 368.435,41.956 368.435,40.555 C368.435,38.887 370.114,38.234 371.546,38.234 C373.065,38.234 374.594,38.972 374.604,40.694 L372.616,40.694 C372.648,39.999 371.996,39.774 371.386,39.774 C370.958,39.774 370.424,39.924 370.424,40.426 C370.424,41.015 371.525,41.122 372.637,41.432 C373.738,41.742 374.851,42.255 374.851,43.634 C374.851,45.57 373.204,46.19 371.525,46.19 C369.771,46.19 368.221,45.42 368.21,43.463 L370.199,43.463" id="Fill-41" fill="#FFFFFF"></path>
            <polyline id="Fill-42" fill="#FFFFFF" points="381.138 40.105 378.861 40.105 378.861 46.029 376.872 46.029 376.872 40.105 374.594 40.105 374.594 38.395 381.138 38.395 381.138 40.105"></polyline>
            <path d="M374.362,12.114 C372.829,13.595 372.5,15.739 373.626,16.905 C374.753,18.071 376.908,17.815 378.44,16.335 C379.973,14.855 380.303,12.71 379.176,11.545 C378.051,10.379 375.895,10.634 374.362,12.114" id="Fill-43" fill="#FFFFFF"></path>
            <path d="M373.136,19.311 C371.604,20.791 371.275,22.936 372.401,24.102 C373.527,25.268 375.683,25.013 377.214,23.532 C378.747,22.052 379.076,19.907 377.95,18.74 C376.825,17.575 374.669,17.831 373.136,19.311" id="Fill-44" fill="#FFFFFF"></path>
            <g id="Group-48" transform="translate(361.000000, 6.000000)" fill="#FFFFFF">
                <path d="M1.608,2.782 C0.075,4.263 -0.254,6.407 0.872,7.574 C1.998,8.739 4.154,8.484 5.686,7.004 C7.218,5.523 7.547,3.378 6.421,2.212 C5.296,1.047 3.14,1.301 1.608,2.782" id="Fill-45"></path>
                <path d="M8.861,1.647 C7.329,3.127 7,5.271 8.125,6.437 C9.252,7.603 11.407,7.349 12.939,5.868 C14.472,4.388 14.801,2.242 13.675,1.077 C12.549,-0.089 10.394,0.167 8.861,1.647" id="Fill-47"></path>
            </g>
            <path d="M371.25,20.753 C371.25,24.082 368.551,26.782 365.221,26.782 C361.89,26.782 359.19,24.082 359.19,20.753 C359.19,17.423 361.89,14.723 365.221,14.723 C368.551,14.723 371.25,17.423 371.25,20.753" id="Fill-49" fill="#FFFFFF"></path>
            <path d="M357.246,17.142 C357.246,22.454 352.939,26.757 347.63,26.757 C342.32,26.757 338.016,22.454 338.016,17.142 C338.016,11.833 342.32,7.528 347.63,7.528 L357.258,7.528 L357.246,17.142" id="Fill-50" fill="#FFFFFF"></path>
            <path d="M357.351,38.222 C357.351,43.565 353.019,47.896 347.676,47.896 C342.333,47.896 338.002,43.565 338.002,38.222 C338.002,32.878 342.333,28.547 347.676,28.547 C353.019,28.547 357.351,32.878 357.351,38.222" id="Fill-51" fill="#FFFFFF"></path>
            <polygon id="Fill-52" fill="#D61D17" points="343.362 39.241 343.791 39.241 343.791 37.293 343.362 37.293"></polygon>
            <path d="M345.545,39.092 C345.398,39.221 345.194,39.285 344.934,39.285 C344.67,39.285 344.466,39.221 344.321,39.094 C344.177,38.966 344.104,38.77 344.104,38.504 L344.104,37.293 L344.533,37.293 L344.533,38.504 C344.533,38.557 344.538,38.609 344.547,38.66 C344.556,38.711 344.575,38.756 344.604,38.795 C344.633,38.834 344.674,38.866 344.726,38.89 C344.777,38.915 344.847,38.927 344.934,38.927 C345.087,38.927 345.192,38.893 345.25,38.825 C345.309,38.757 345.338,38.65 345.338,38.504 L345.338,37.293 L345.767,37.293 L345.767,38.504 C345.767,38.768 345.692,38.964 345.545,39.092" id="Fill-53" fill="#D61D17"></path>
            <path d="M347.33,37.812 C347.304,37.771 347.272,37.736 347.234,37.705 C347.196,37.674 347.153,37.65 347.104,37.633 C347.057,37.615 347.006,37.606 346.953,37.606 C346.857,37.606 346.775,37.625 346.708,37.663 C346.641,37.7 346.586,37.75 346.544,37.812 C346.502,37.875 346.472,37.947 346.453,38.027 C346.434,38.107 346.424,38.189 346.424,38.275 C346.424,38.357 346.434,38.437 346.453,38.514 C346.472,38.591 346.502,38.661 346.544,38.723 C346.586,38.784 346.641,38.834 346.708,38.871 C346.775,38.908 346.857,38.927 346.953,38.927 C347.084,38.927 347.187,38.887 347.26,38.807 C347.334,38.727 347.379,38.622 347.396,38.491 L347.81,38.491 C347.799,38.612 347.771,38.723 347.726,38.821 C347.68,38.919 347.62,39.003 347.545,39.072 C347.471,39.141 347.383,39.194 347.283,39.23 C347.184,39.266 347.073,39.285 346.953,39.285 C346.804,39.285 346.67,39.259 346.551,39.207 C346.432,39.155 346.331,39.084 346.249,38.993 C346.167,38.902 346.104,38.795 346.061,38.672 C346.018,38.549 345.996,38.417 345.996,38.275 C345.996,38.129 346.018,37.995 346.061,37.87 C346.104,37.745 346.167,37.637 346.249,37.544 C346.331,37.451 346.432,37.378 346.551,37.326 C346.67,37.272 346.804,37.247 346.953,37.247 C347.061,37.247 347.162,37.262 347.257,37.293 C347.353,37.324 347.438,37.369 347.514,37.428 C347.589,37.487 347.652,37.56 347.701,37.647 C347.75,37.735 347.781,37.835 347.793,37.948 L347.379,37.948 C347.372,37.898 347.355,37.854 347.33,37.812" id="Fill-54" fill="#D61D17"></path>
            <polyline id="Fill-55" fill="#D61D17" points="348.473 37.293 349.286 38.6 349.292 38.6 349.292 37.293 349.692 37.293 349.692 39.241 349.264 39.241 348.454 37.937 348.448 37.937 348.448 39.241 348.047 39.241 348.047 37.293 348.473 37.293"></polyline>
            <path d="M347.443,40.306 C347.407,40.345 347.371,40.384 347.333,40.421 C346.77,40.985 345.992,41.333 345.132,41.333 C344.271,41.333 343.494,40.985 342.93,40.421 C342.365,39.857 342.018,39.08 342.018,38.219 C342.018,37.359 342.365,36.582 342.93,36.018 C343.494,35.454 344.271,35.105 345.132,35.105 C345.992,35.105 346.77,35.454 347.333,36.018 C347.399,36.083 347.46,36.15 347.52,36.221 L348.791,36.221 C348.083,34.925 346.709,34.047 345.129,34.046 C342.826,34.047 340.959,35.914 340.958,38.217 C340.959,40.52 342.826,42.387 345.129,42.387 C346.671,42.387 348.017,41.55 348.738,40.306 L347.443,40.306" id="Fill-56" fill="#D61D17"></path>
            <path d="M382.034,31.61 C381.432,31.61 381.003,31.16 381.003,30.563 C381.003,29.934 381.479,29.516 382.034,29.516 C382.583,29.516 383.059,29.934 383.059,30.563 C383.059,31.193 382.583,31.61 382.034,31.61 L382.034,31.61 Z M382.034,29.698 C381.58,29.698 381.228,30.054 381.228,30.563 C381.228,31.04 381.536,31.429 382.034,31.429 C382.482,31.429 382.835,31.076 382.835,30.563 C382.835,30.054 382.482,29.698 382.034,29.698 L382.034,29.698 Z M382.563,30.765 C382.516,31.031 382.314,31.196 382.067,31.196 C381.709,31.196 381.474,30.925 381.474,30.563 C381.474,30.225 381.698,29.964 382.062,29.962 C382.316,29.962 382.524,30.11 382.561,30.384 L382.37,30.384 C382.342,30.241 382.222,30.144 382.062,30.144 C381.827,30.144 381.698,30.331 381.698,30.563 C381.698,30.807 381.841,31.014 382.067,31.014 C382.232,31.014 382.351,30.911 382.37,30.765 L382.563,30.765 L382.563,30.765 Z" id="Fill-57" fill="#FFFFFF"></path>
            <polyline id="Fill-58" fill="#FFFFFF" points="285.338 64.455 287.909 64.455 292.82 72.349 292.853 72.349 292.853 64.455 295.275 64.455 295.275 76.222 292.688 76.222 287.794 68.345 287.761 68.345 287.761 76.222 285.338 76.222 285.338 64.455"></polyline>
            <polyline id="Fill-59" fill="#FFFFFF" points="297.613 64.455 306.413 64.455 306.413 66.631 300.2 66.631 300.2 69.152 305.902 69.152 305.902 71.163 300.2 71.163 300.2 74.046 306.544 74.046 306.544 76.222 297.613 76.222 297.613 64.455"></polyline>
            <path d="M311.609,71.673 L314.658,71.673 L313.175,67.355 L313.142,67.355 L311.609,71.673 L311.609,71.673 Z M311.856,64.455 L314.51,64.455 L318.91,76.222 L316.224,76.222 L315.333,73.602 L310.934,73.602 L310.011,76.222 L307.391,76.222 L311.856,64.455 L311.856,64.455 Z" id="Fill-60" fill="#FFFFFF"></path>
            <path d="M322.599,69.778 L325.433,69.778 C326.586,69.778 327.213,69.284 327.213,68.097 C327.213,66.96 326.586,66.466 325.433,66.466 L322.599,66.466 L322.599,69.778 L322.599,69.778 Z M320.011,64.455 L326.355,64.455 C328.465,64.455 329.8,65.922 329.8,67.702 C329.8,69.086 329.24,70.124 327.938,70.651 L327.938,70.685 C329.207,71.014 329.569,72.25 329.651,73.437 C329.701,74.178 329.685,75.562 330.146,76.222 L327.559,76.222 C327.246,75.48 327.278,74.343 327.146,73.404 C326.965,72.168 326.487,71.624 325.186,71.624 L322.599,71.624 L322.599,76.222 L320.011,76.222 L320.011,64.455 L320.011,64.455 Z" id="Fill-61" fill="#FFFFFF"></path>
            <polyline id="Fill-62" fill="#FFFFFF" points="255.551 84.1 252.025 84.1 252.025 81.924 261.665 81.924 261.665 84.1 258.139 84.1 258.139 93.69 255.551 93.69 255.551 84.1"></polyline>
            <polyline id="Fill-63" fill="#FFFFFF" points="262.981 81.924 265.568 81.924 265.568 86.439 270.331 86.439 270.331 81.924 272.918 81.924 272.918 93.69 270.331 93.69 270.331 88.615 265.568 88.615 265.568 93.69 262.981 93.69 262.981 81.924"></polyline>
            <path d="M277.744,87.247 L280.579,87.247 C281.732,87.247 282.358,86.752 282.358,85.566 C282.358,84.429 281.732,83.935 280.579,83.935 L277.744,83.935 L277.744,87.247 L277.744,87.247 Z M275.157,81.924 L281.502,81.924 C283.611,81.924 284.946,83.391 284.946,85.17 C284.946,86.555 284.386,87.593 283.084,88.12 L283.084,88.153 C284.353,88.482 284.715,89.719 284.798,90.905 C284.847,91.646 284.831,93.031 285.292,93.69 L282.705,93.69 C282.392,92.949 282.425,91.812 282.293,90.873 C282.111,89.637 281.634,89.093 280.332,89.093 L277.744,89.093 L277.744,93.69 L275.157,93.69 L275.157,81.924 L275.157,81.924 Z" id="Fill-64" fill="#FFFFFF"></path>
            <polyline id="Fill-65" fill="#FFFFFF" points="287.02 81.924 295.819 81.924 295.819 84.1 289.606 84.1 289.606 86.621 295.309 86.621 295.309 88.631 289.606 88.631 289.606 91.516 295.951 91.516 295.951 93.69 287.02 93.69 287.02 81.924"></polyline>
            <path d="M301.109,89.143 L304.158,89.143 L302.675,84.824 L302.642,84.824 L301.109,89.143 L301.109,89.143 Z M301.356,81.924 L304.01,81.924 L308.41,93.69 L305.724,93.69 L304.833,91.07 L300.434,91.07 L299.511,93.69 L296.891,93.69 L301.356,81.924 L301.356,81.924 Z" id="Fill-66" fill="#FFFFFF"></path>
            <polyline id="Fill-67" fill="#FFFFFF" points="310.813 84.1 307.287 84.1 307.287 81.924 316.928 81.924 316.928 84.1 313.401 84.1 313.401 93.69 310.813 93.69 310.813 84.1"></polyline>
            <polyline id="Fill-68" fill="#FFFFFF" points="318.198 81.924 326.998 81.924 326.998 84.1 320.785 84.1 320.785 86.621 326.487 86.621 326.487 88.631 320.785 88.631 320.785 91.516 327.129 91.516 327.129 93.69 318.198 93.69 318.198 81.924"></polyline>
            <polyline id="Fill-69" fill="#FFFFFF" points="329.006 81.924 331.577 81.924 336.487 89.818 336.521 89.818 336.521 81.924 338.943 81.924 338.943 93.69 336.355 93.69 331.461 85.813 331.428 85.813 331.428 93.69 329.006 93.69 329.006 81.924"></polyline>
            <polyline id="Fill-70" fill="#FFFFFF" points="341.346 81.924 350.146 81.924 350.146 84.1 343.934 84.1 343.934 86.621 349.635 86.621 349.635 88.631 343.934 88.631 343.934 91.516 350.278 91.516 350.278 93.69 341.346 93.69 341.346 81.924"></polyline>
            <path d="M354.741,91.516 L357.049,91.516 C358.548,91.516 359.982,90.592 359.982,87.988 C359.982,85.615 359.158,84.1 356.587,84.1 L354.741,84.1 L354.741,91.516 L354.741,91.516 Z M352.154,81.924 L357.23,81.924 C360.278,81.924 362.569,83.836 362.569,87.741 C362.569,91.152 360.822,93.69 357.23,93.69 L352.154,93.69 L352.154,81.924 L352.154,81.924 Z" id="Fill-71" fill="#FFFFFF"></path>
            <polyline id="Fill-74" fill="#000000" points="398.725 82.878 396.955 82.878 394.637 75.742 396.256 75.742 397.845 80.76 397.865 80.76 399.475 75.742 401.094 75.742 398.725 82.878"></polyline>
            <path d="M407.823,80.18 C407.823,82.108 406.684,83.048 404.775,83.048 C402.856,83.048 401.736,82.118 401.736,80.18 L401.736,75.742 L403.306,75.742 L403.306,80.18 C403.306,80.959 403.506,81.729 404.775,81.729 C405.895,81.729 406.254,81.238 406.254,80.18 L406.254,75.742 L407.823,75.742 L407.823,80.18" id="Fill-75" fill="#000000"></path>
            <polyline id="Fill-76" fill="#000000" points="409.203 75.742 410.772 75.742 410.772 81.559 414.251 81.559 414.251 82.878 409.203 82.878 409.203 75.742"></polyline>
            <polyline id="Fill-77" fill="#000000" points="414.853 75.742 416.412 75.742 419.391 80.529 419.41 80.529 419.41 75.742 420.879 75.742 420.879 82.878 419.311 82.878 416.342 78.101 416.322 78.101 416.322 82.878 414.853 82.878 414.853 75.742"></polyline>
            <polyline id="Fill-78" fill="#000000" points="422.289 75.742 427.626 75.742 427.626 77.061 423.858 77.061 423.858 78.59 427.316 78.59 427.316 79.81 423.858 79.81 423.858 81.559 427.706 81.559 427.706 82.878 422.289 82.878 422.289 75.742"></polyline>
            <path d="M430.398,78.97 L432.117,78.97 C432.817,78.97 433.197,78.67 433.197,77.951 C433.197,77.261 432.817,76.961 432.117,76.961 L430.398,76.961 L430.398,78.97 L430.398,78.97 Z M428.829,75.742 L432.677,75.742 C433.956,75.742 434.766,76.631 434.766,77.711 C434.766,78.55 434.426,79.18 433.637,79.5 L433.637,79.52 C434.406,79.72 434.626,80.469 434.676,81.189 C434.706,81.639 434.696,82.479 434.976,82.878 L433.407,82.878 C433.217,82.428 433.237,81.738 433.157,81.169 C433.047,80.42 432.757,80.09 431.968,80.09 L430.398,80.09 L430.398,82.878 L428.829,82.878 L428.829,75.742 L428.829,75.742 Z" id="Fill-79" fill="#000000"></path>
            <path d="M437.907,80.119 L439.757,80.119 L438.857,77.501 L438.837,77.501 L437.907,80.119 L437.907,80.119 Z M438.058,75.742 L439.667,75.742 L442.335,82.878 L440.706,82.878 L440.166,81.289 L437.498,81.289 L436.938,82.878 L435.349,82.878 L438.058,75.742 L438.058,75.742 Z" id="Fill-80" fill="#000000"></path>
            <path d="M444.588,81.658 L446.267,81.658 C446.887,81.658 447.427,81.459 447.427,80.719 C447.427,79.99 446.967,79.7 446.297,79.7 L444.588,79.7 L444.588,81.658 L444.588,81.658 Z M444.588,78.63 L446.177,78.63 C446.727,78.63 447.137,78.38 447.137,77.781 C447.137,77.101 446.617,76.961 446.057,76.961 L444.588,76.961 L444.588,78.63 L444.588,78.63 Z M443.019,75.742 L446.377,75.742 C447.736,75.742 448.655,76.182 448.655,77.511 C448.655,78.211 448.306,78.7 447.687,79 C448.556,79.25 448.995,79.919 448.995,80.809 C448.995,82.258 447.766,82.878 446.477,82.878 L443.019,82.878 L443.019,75.742 L443.019,75.742 Z" id="Fill-81" fill="#000000"></path>
            <polyline id="Fill-82" fill="#000000" points="450.023 75.742 451.593 75.742 451.593 81.559 455.071 81.559 455.071 82.878 450.023 82.878 450.023 75.742"></polyline>
            <polyline id="Fill-83" fill="#000000" points="455.673 75.742 461.01 75.742 461.01 77.061 457.242 77.061 457.242 78.59 460.7 78.59 460.7 79.81 457.242 79.81 457.242 81.559 461.09 81.559 461.09 82.878 455.673 82.878 455.673 75.742"></polyline>
            <polyline id="Fill-86" fill="#000000" points="474.344 75.742 479.681 75.742 479.681 77.061 475.913 77.061 475.913 78.59 479.371 78.59 479.371 79.81 475.913 79.81 475.913 81.559 479.761 81.559 479.761 82.878 474.344 82.878 474.344 75.742"></polyline>
            <polyline id="Fill-87" fill="#000000" points="480.903 75.742 482.463 75.742 485.441 80.529 485.461 80.529 485.461 75.742 486.93 75.742 486.93 82.878 485.361 82.878 482.393 78.101 482.373 78.101 482.373 82.878 480.903 82.878 480.903 75.742"></polyline>
            <path d="M489.905,81.559 L491.305,81.559 C492.214,81.559 493.084,80.999 493.084,79.42 C493.084,77.98 492.584,77.061 491.024,77.061 L489.905,77.061 L489.905,81.559 L489.905,81.559 Z M488.336,75.742 L491.414,75.742 C493.264,75.742 494.652,76.901 494.652,79.27 C494.652,81.339 493.593,82.878 491.414,82.878 L488.336,82.878 L488.336,75.742 L488.336,75.742 Z" id="Fill-88" fill="#000000"></path>
            <path d="M497.274,80.119 L499.124,80.119 L498.225,77.501 L498.204,77.501 L497.274,80.119 L497.274,80.119 Z M497.425,75.742 L499.034,75.742 L501.702,82.878 L500.073,82.878 L499.533,81.289 L496.865,81.289 L496.306,82.878 L494.716,82.878 L497.425,75.742 L497.425,75.742 Z" id="Fill-89" fill="#000000"></path>
            <polyline id="Fill-90" fill="#000000" points="502.367 75.742 503.927 75.742 506.905 80.529 506.925 80.529 506.925 75.742 508.395 75.742 508.395 82.878 506.825 82.878 503.856 78.101 503.837 78.101 503.837 82.878 502.367 82.878 502.367 75.742"></polyline>
            <path d="M514.984,82.068 C514.435,82.777 513.715,83.048 513.025,83.048 C510.816,83.048 509.518,81.398 509.518,79.34 C509.518,77.221 510.816,75.572 513.025,75.572 C514.484,75.572 515.864,76.472 516.034,78.09 L514.535,78.09 C514.354,77.301 513.766,76.891 513.025,76.891 C511.616,76.891 511.087,78.09 511.087,79.34 C511.087,80.529 511.616,81.729 513.025,81.729 C514.045,81.729 514.635,81.179 514.725,80.189 L513.146,80.189 L513.146,79.02 L516.144,79.02 L516.144,82.878 L515.145,82.878 L514.984,82.068" id="Fill-91" fill="#000000"></path>
            <polyline id="Fill-92" fill="#000000" points="517.467 75.742 522.804 75.742 522.804 77.061 519.036 77.061 519.036 78.59 522.494 78.59 522.494 79.81 519.036 79.81 519.036 81.559 522.884 81.559 522.884 82.878 517.467 82.878 517.467 75.742"></polyline>
            <path d="M525.566,78.97 L527.285,78.97 C527.985,78.97 528.365,78.67 528.365,77.951 C528.365,77.261 527.985,76.961 527.285,76.961 L525.566,76.961 L525.566,78.97 L525.566,78.97 Z M523.997,75.742 L527.845,75.742 C529.124,75.742 529.934,76.631 529.934,77.711 C529.934,78.55 529.594,79.18 528.805,79.5 L528.805,79.52 C529.574,79.72 529.794,80.469 529.844,81.189 C529.874,81.639 529.864,82.479 530.144,82.878 L528.575,82.878 C528.385,82.428 528.405,81.738 528.325,81.169 C528.215,80.42 527.925,80.09 527.136,80.09 L525.566,80.09 L525.566,82.878 L523.997,82.878 L523.997,75.742 L523.997,75.742 Z" id="Fill-93" fill="#000000"></path>
            <polyline id="Fill-94" fill="#000000" points="531.267 75.742 536.604 75.742 536.604 77.061 532.836 77.061 532.836 78.59 536.294 78.59 536.294 79.81 532.836 79.81 532.836 81.559 536.684 81.559 536.684 82.878 531.267 82.878 531.267 75.742"></polyline>
            <path d="M539.366,81.559 L540.766,81.559 C541.675,81.559 542.545,80.999 542.545,79.42 C542.545,77.98 542.045,77.061 540.485,77.061 L539.366,77.061 L539.366,81.559 L539.366,81.559 Z M537.797,75.742 L540.875,75.742 C542.725,75.742 544.113,76.901 544.113,79.27 C544.113,81.339 543.054,82.878 540.875,82.878 L537.797,82.878 L537.797,75.742 L537.797,75.742 Z" id="Fill-95" fill="#000000"></path>
            <polyline id="Fill-98" fill="#000000" points="650.258 70.187 655.595 70.187 655.595 71.506 651.827 71.506 651.827 73.036 655.285 73.036 655.285 74.255 651.827 74.255 651.827 76.004 655.675 76.004 655.675 77.323 650.258 77.323 650.258 70.187"></polyline>
            <polyline id="Fill-99" fill="#000000" points="658.687 73.585 656.388 70.187 658.207 70.187 659.606 72.466 661.056 70.187 662.774 70.187 660.485 73.595 662.975 77.323 661.105 77.323 659.546 74.854 657.957 77.323 656.188 77.323 658.687 73.585"></polyline>
            <polyline id="Fill-100" fill="#000000" points="665.204 71.506 663.065 71.506 663.065 70.187 668.912 70.187 668.912 71.506 666.773 71.506 666.773 77.323 665.204 77.323 665.204 71.506"></polyline>
            <polygon id="Fill-101" fill="#000000" points="669.685 77.323 671.254 77.323 671.254 70.187 669.685 70.187"></polygon>
            <polyline id="Fill-102" fill="#000000" points="672.844 70.187 674.403 70.187 677.382 74.975 677.401 74.975 677.401 70.187 678.871 70.187 678.871 77.323 677.302 77.323 674.333 72.546 674.313 72.546 674.313 77.323 672.844 77.323 672.844 70.187"></polyline>
            <path d="M685.012,72.586 C684.911,71.877 684.231,71.337 683.452,71.337 C682.043,71.337 681.514,72.536 681.514,73.785 C681.514,74.975 682.043,76.174 683.452,76.174 C684.412,76.174 684.951,75.514 685.071,74.575 L686.591,74.575 C686.431,76.354 685.201,77.493 683.452,77.493 C681.243,77.493 679.944,75.844 679.944,73.785 C679.944,71.666 681.243,70.017 683.452,70.017 C685.021,70.017 686.341,70.937 686.53,72.586 L685.012,72.586" id="Fill-103" fill="#000000"></path>
            <polyline id="Fill-104" fill="#000000" points="688.993 71.506 686.854 71.506 686.854 70.187 692.701 70.187 692.701 71.506 690.563 71.506 690.563 77.323 688.993 77.323 688.993 71.506"></polyline>
            <polygon id="Fill-105" fill="#000000" points="641.508 88.331 643.077 88.331 643.077 81.195 641.508 81.195"></polygon>
            <polyline id="Fill-106" fill="#000000" points="644.468 81.195 646.027 81.195 649.006 85.982 649.025 85.982 649.025 81.195 650.494 81.195 650.494 88.331 648.926 88.331 645.957 83.554 645.938 83.554 645.938 88.331 644.468 88.331 644.468 81.195"></polyline>
            <polyline id="Fill-107" fill="#000000" points="656.091 82.514 653.952 82.514 653.952 81.195 659.799 81.195 659.799 82.514 657.66 82.514 657.66 88.331 656.091 88.331 656.091 82.514"></polyline>
            <polyline id="Fill-108" fill="#000000" points="660.571 81.195 662.141 81.195 662.141 83.934 665.029 83.934 665.029 81.195 666.598 81.195 666.598 88.331 665.029 88.331 665.029 85.253 662.141 85.253 662.141 88.331 660.571 88.331 660.571 81.195"></polyline>
            <polyline id="Fill-109" fill="#000000" points="667.961 81.195 673.298 81.195 673.298 82.514 669.53 82.514 669.53 84.043 672.988 84.043 672.988 85.263 669.53 85.263 669.53 87.012 673.378 87.012 673.378 88.331 667.961 88.331 667.961 81.195"></polyline>
            <polyline id="Fill-110" fill="#000000" points="683.813 88.331 682.253 88.331 681.044 83.474 681.023 83.474 679.834 88.331 678.245 88.331 676.356 81.195 677.926 81.195 679.055 86.053 679.074 86.053 680.314 81.195 681.783 81.195 683.003 86.112 683.022 86.112 684.191 81.195 685.731 81.195 683.813 88.331"></polyline>
            <polygon id="Fill-111" fill="#000000" points="686.466 88.331 688.035 88.331 688.035 81.195 686.466 81.195"></polygon>
            <polyline id="Fill-112" fill="#000000" points="689.422 81.195 690.991 81.195 690.991 87.012 694.47 87.012 694.47 88.331 689.422 88.331 689.422 81.195"></polyline>
            <path d="M696.441,87.012 L697.841,87.012 C698.75,87.012 699.619,86.452 699.619,84.873 C699.619,83.434 699.12,82.514 697.561,82.514 L696.441,82.514 L696.441,87.012 L696.441,87.012 Z M694.872,81.195 L697.95,81.195 C699.8,81.195 701.188,82.354 701.188,84.723 C701.188,86.792 700.129,88.331 697.95,88.331 L694.872,88.331 L694.872,81.195 L694.872,81.195 Z" id="Fill-113" fill="#000000"></path>
            <polyline id="Fill-116" fill="#FFFFFF" points="718.203 75.703 723.54 75.703 723.54 77.022 719.772 77.022 719.772 78.551 723.23 78.551 723.23 79.77 719.772 79.77 719.772 81.52 723.62 81.52 723.62 82.839 718.203 82.839 718.203 75.703"></polyline>
            <polyline id="Fill-117" fill="#FFFFFF" points="726.632 79.101 724.333 75.703 726.152 75.703 727.552 77.981 729.001 75.703 730.72 75.703 728.431 79.111 730.92 82.839 729.051 82.839 727.491 80.37 725.902 82.839 724.134 82.839 726.632 79.101"></polyline>
            <polyline id="Fill-118" fill="#FFFFFF" points="733.142 77.022 731.003 77.022 731.003 75.703 736.85 75.703 736.85 77.022 734.711 77.022 734.711 82.839 733.142 82.839 733.142 77.022"></polyline>
            <polygon id="Fill-119" fill="#FFFFFF" points="737.643 82.839 739.212 82.839 739.212 75.703 737.643 75.703"></polygon>
            <polyline id="Fill-120" fill="#FFFFFF" points="740.563 75.703 742.122 75.703 745.101 80.49 745.12 80.49 745.12 75.703 746.59 75.703 746.59 82.839 745.021 82.839 742.052 78.062 742.032 78.062 742.032 82.839 740.563 82.839 740.563 75.703"></polyline>
            <path d="M752.7,78.102 C752.6,77.392 751.92,76.852 751.141,76.852 C749.731,76.852 749.202,78.051 749.202,79.301 C749.202,80.49 749.731,81.689 751.141,81.689 C752.101,81.689 752.64,81.029 752.76,80.09 L754.279,80.09 C754.119,81.869 752.89,83.009 751.141,83.009 C748.932,83.009 747.633,81.359 747.633,79.301 C747.633,77.182 748.932,75.533 751.141,75.533 C752.71,75.533 754.029,76.452 754.219,78.102 L752.7,78.102" id="Fill-121" fill="#FFFFFF"></path>
            <polyline id="Fill-122" fill="#FFFFFF" points="756.931 77.022 754.792 77.022 754.792 75.703 760.639 75.703 760.639 77.022 758.5 77.022 758.5 82.839 756.931 82.839 756.931 77.022"></polyline>
            <path d="M569.156,72.586 C569.056,71.877 568.376,71.337 567.597,71.337 C566.188,71.337 565.658,72.536 565.658,73.785 C565.658,74.975 566.188,76.174 567.597,76.174 C568.557,76.174 569.096,75.514 569.216,74.575 L570.735,74.575 C570.575,76.354 569.346,77.493 567.597,77.493 C565.388,77.493 564.089,75.844 564.089,73.785 C564.089,71.666 565.388,70.017 567.597,70.017 C569.166,70.017 570.485,70.937 570.675,72.586 L569.156,72.586" id="Fill-125" fill="#000000"></path>
            <path d="M573.348,73.416 L575.066,73.416 C575.767,73.416 576.146,73.116 576.146,72.396 C576.146,71.707 575.767,71.406 575.066,71.406 L573.348,71.406 L573.348,73.416 L573.348,73.416 Z M571.778,70.187 L575.626,70.187 C576.905,70.187 577.715,71.077 577.715,72.156 C577.715,72.996 577.375,73.625 576.586,73.945 L576.586,73.965 C577.355,74.165 577.575,74.915 577.625,75.634 C577.655,76.084 577.646,76.923 577.925,77.323 L576.356,77.323 C576.166,76.874 576.187,76.184 576.106,75.614 C575.996,74.865 575.706,74.535 574.917,74.535 L573.348,74.535 L573.348,77.323 L571.778,77.323 L571.778,70.187 L571.778,70.187 Z" id="Fill-126" fill="#000000"></path>
            <polygon id="Fill-127" fill="#000000" points="578.968 77.323 580.537 77.323 580.537 70.187 578.968 70.187"></polygon>
            <polyline id="Fill-128" fill="#000000" points="583.468 71.506 581.329 71.506 581.329 70.187 587.176 70.187 587.176 71.506 585.037 71.506 585.037 77.323 583.468 77.323 583.468 71.506"></polyline>
            <polygon id="Fill-129" fill="#000000" points="587.968 77.323 589.537 77.323 589.537 70.187 587.968 70.187"></polygon>
            <path d="M595.646,72.586 C595.545,71.877 594.865,71.337 594.086,71.337 C592.677,71.337 592.147,72.536 592.147,73.785 C592.147,74.975 592.677,76.174 594.086,76.174 C595.046,76.174 595.585,75.514 595.705,74.575 L597.225,74.575 C597.064,76.354 595.835,77.493 594.086,77.493 C591.877,77.493 590.578,75.844 590.578,73.785 C590.578,71.666 591.877,70.017 594.086,70.017 C595.655,70.017 596.975,70.937 597.164,72.586 L595.646,72.586" id="Fill-130" fill="#000000"></path>
            <path d="M599.908,74.565 L601.758,74.565 L600.858,71.946 L600.838,71.946 L599.908,74.565 L599.908,74.565 Z M600.059,70.187 L601.668,70.187 L604.336,77.323 L602.707,77.323 L602.167,75.734 L599.499,75.734 L598.939,77.323 L597.35,77.323 L600.059,70.187 L600.059,70.187 Z" id="Fill-131" fill="#000000"></path>
            <polyline id="Fill-132" fill="#000000" points="604.999 70.187 606.568 70.187 606.568 76.004 610.047 76.004 610.047 77.323 604.999 77.323 604.999 70.187"></polyline>
            <polyline id="Fill-133" fill="#000000" points="610.859 70.187 612.429 70.187 612.429 76.004 615.907 76.004 615.907 77.323 610.859 77.323 610.859 70.187"></polyline>
            <polyline id="Fill-134" fill="#000000" points="617.659 74.545 615.03 70.187 616.799 70.187 618.469 73.006 620.127 70.187 621.876 70.187 619.228 74.585 619.228 77.323 617.659 77.323 617.659 74.545"></polyline>
            <polyline id="Fill-135" fill="#000000" points="558.023 81.195 563.36 81.195 563.36 82.514 559.593 82.514 559.593 84.043 563.051 84.043 563.051 85.263 559.593 85.263 559.593 87.012 563.44 87.012 563.44 88.331 558.023 88.331 558.023 81.195"></polyline>
            <polyline id="Fill-136" fill="#000000" points="564.583 81.195 566.143 81.195 569.121 85.982 569.141 85.982 569.141 81.195 570.609 81.195 570.609 88.331 569.041 88.331 566.072 83.554 566.053 83.554 566.053 88.331 564.583 88.331 564.583 81.195"></polyline>
            <path d="M573.585,87.012 L574.984,87.012 C575.894,87.012 576.764,86.452 576.764,84.873 C576.764,83.434 576.264,82.514 574.704,82.514 L573.585,82.514 L573.585,87.012 L573.585,87.012 Z M572.016,81.195 L575.094,81.195 C576.943,81.195 578.332,82.354 578.332,84.723 C578.332,86.792 577.272,88.331 575.094,88.331 L572.016,88.331 L572.016,81.195 L572.016,81.195 Z" id="Fill-137" fill="#000000"></path>
            <path d="M580.954,85.572 L582.804,85.572 L581.904,82.954 L581.884,82.954 L580.954,85.572 L580.954,85.572 Z M581.104,81.195 L582.714,81.195 L585.382,88.331 L583.753,88.331 L583.213,86.742 L580.545,86.742 L579.985,88.331 L578.396,88.331 L581.104,81.195 L581.104,81.195 Z" id="Fill-138" fill="#000000"></path>
            <polyline id="Fill-139" fill="#000000" points="586.055 81.195 587.614 81.195 590.593 85.982 590.612 85.982 590.612 81.195 592.082 81.195 592.082 88.331 590.513 88.331 587.544 83.554 587.524 83.554 587.524 88.331 586.055 88.331 586.055 81.195"></polyline>
            <path d="M598.672,87.521 C598.122,88.23 597.402,88.501 596.713,88.501 C594.504,88.501 593.205,86.852 593.205,84.793 C593.205,82.674 594.504,81.025 596.713,81.025 C598.172,81.025 599.552,81.925 599.722,83.543 L598.223,83.543 C598.042,82.754 597.453,82.344 596.713,82.344 C595.304,82.344 594.774,83.543 594.774,84.793 C594.774,85.982 595.304,87.182 596.713,87.182 C597.732,87.182 598.322,86.632 598.412,85.643 L596.833,85.643 L596.833,84.473 L599.831,84.473 L599.831,88.331 L598.832,88.331 L598.672,87.521" id="Fill-140" fill="#000000"></path>
            <polyline id="Fill-141" fill="#000000" points="601.154 81.195 606.491 81.195 606.491 82.514 602.724 82.514 602.724 84.043 606.182 84.043 606.182 85.263 602.724 85.263 602.724 87.012 606.571 87.012 606.571 88.331 601.154 88.331 601.154 81.195"></polyline>
            <path d="M609.254,84.424 L610.973,84.424 C611.673,84.424 612.053,84.123 612.053,83.404 C612.053,82.715 611.673,82.414 610.973,82.414 L609.254,82.414 L609.254,84.424 L609.254,84.424 Z M607.685,81.195 L611.532,81.195 C612.812,81.195 613.621,82.084 613.621,83.164 C613.621,84.004 613.281,84.633 612.492,84.953 L612.492,84.973 C613.262,85.173 613.481,85.922 613.531,86.643 C613.562,87.092 613.552,87.932 613.831,88.331 L612.263,88.331 C612.072,87.881 612.093,87.191 612.013,86.622 C611.902,85.873 611.612,85.543 610.823,85.543 L609.254,85.543 L609.254,88.331 L607.685,88.331 L607.685,81.195 L607.685,81.195 Z" id="Fill-142" fill="#000000"></path>
            <polyline id="Fill-143" fill="#000000" points="614.954 81.195 620.291 81.195 620.291 82.514 616.523 82.514 616.523 84.043 619.981 84.043 619.981 85.263 616.523 85.263 616.523 87.012 620.371 87.012 620.371 88.331 614.954 88.331 614.954 81.195"></polyline>
            <path d="M623.054,87.012 L624.453,87.012 C625.362,87.012 626.232,86.452 626.232,84.873 C626.232,83.434 625.732,82.514 624.173,82.514 L623.054,82.514 L623.054,87.012 L623.054,87.012 Z M621.484,81.195 L624.563,81.195 C626.412,81.195 627.801,82.354 627.801,84.723 C627.801,86.792 626.741,88.331 624.563,88.331 L621.484,88.331 L621.484,81.195 L621.484,81.195 Z" id="Fill-144" fill="#000000"></path>
            <polyline id="Fill-147" fill="#000000" points="173.43 70.187 174.999 70.187 174.999 76.004 178.477 76.004 178.477 77.323 173.43 77.323 173.43 70.187"></polyline>
            <polyline id="Fill-148" fill="#000000" points="179.229 70.187 184.567 70.187 184.567 71.506 180.799 71.506 180.799 73.036 184.257 73.036 184.257 74.255 180.799 74.255 180.799 76.004 184.646 76.004 184.646 77.323 179.229 77.323 179.229 70.187"></polyline>
            <path d="M187.26,74.565 L189.109,74.565 L188.209,71.946 L188.189,71.946 L187.26,74.565 L187.26,74.565 Z M187.41,70.187 L189.019,70.187 L191.688,77.323 L190.059,77.323 L189.519,75.734 L186.851,75.734 L186.291,77.323 L184.702,77.323 L187.41,70.187 L187.41,70.187 Z" id="Fill-149" fill="#000000"></path>
            <path d="M193.301,74.955 C193.301,75.904 194.04,76.274 194.88,76.274 C195.429,76.274 196.269,76.114 196.269,75.384 C196.269,74.615 195.2,74.485 194.15,74.205 C193.091,73.925 192.021,73.515 192.021,72.176 C192.021,70.717 193.4,70.017 194.69,70.017 C196.179,70.017 197.548,70.667 197.548,72.316 L196.029,72.316 C195.979,71.457 195.37,71.237 194.62,71.237 C194.12,71.237 193.541,71.446 193.541,72.046 C193.541,72.596 193.88,72.666 195.669,73.125 C196.189,73.255 197.788,73.585 197.788,75.205 C197.788,76.514 196.759,77.493 194.82,77.493 C193.241,77.493 191.761,76.713 191.781,74.955 L193.301,74.955" id="Fill-150" fill="#000000"></path>
            <polyline id="Fill-151" fill="#000000" points="200.056 71.506 197.917 71.506 197.917 70.187 203.764 70.187 203.764 71.506 201.625 71.506 201.625 77.323 200.056 77.323 200.056 71.506"></polyline>
            <path d="M168.445,83.594 C168.345,82.885 167.666,82.344 166.886,82.344 C165.477,82.344 164.947,83.543 164.947,84.793 C164.947,85.982 165.477,87.182 166.886,87.182 C167.845,87.182 168.385,86.521 168.505,85.582 L170.024,85.582 C169.864,87.361 168.635,88.501 166.886,88.501 C164.677,88.501 163.378,86.852 163.378,84.793 C163.378,82.674 164.677,81.025 166.886,81.025 C168.455,81.025 169.774,81.944 169.964,83.594 L168.445,83.594" id="Fill-152" fill="#000000"></path>
            <path d="M174.206,87.182 C175.615,87.182 176.145,85.982 176.145,84.793 C176.145,83.543 175.615,82.344 174.206,82.344 C172.796,82.344 172.267,83.543 172.267,84.793 C172.267,85.982 172.796,87.182 174.206,87.182 L174.206,87.182 Z M174.206,81.025 C176.415,81.025 177.714,82.674 177.714,84.793 C177.714,86.852 176.415,88.501 174.206,88.501 C171.997,88.501 170.698,86.852 170.698,84.793 C170.698,82.674 171.997,81.025 174.206,81.025 L174.206,81.025 Z" id="Fill-153" fill="#000000"></path>
            <polyline id="Fill-154" fill="#000000" points="178.539 81.195 180.098 81.195 183.077 85.982 183.097 85.982 183.097 81.195 184.566 81.195 184.566 88.331 182.997 88.331 180.028 83.554 180.008 83.554 180.008 88.331 178.539 88.331 178.539 81.195"></polyline>
            <path d="M190.696,83.594 C190.597,82.885 189.917,82.344 189.137,82.344 C187.728,82.344 187.198,83.543 187.198,84.793 C187.198,85.982 187.728,87.182 189.137,87.182 C190.097,87.182 190.637,86.521 190.756,85.582 L192.276,85.582 C192.116,87.361 190.886,88.501 189.137,88.501 C186.929,88.501 185.629,86.852 185.629,84.793 C185.629,82.674 186.929,81.025 189.137,81.025 C190.707,81.025 192.026,81.944 192.216,83.594 L190.696,83.594" id="Fill-155" fill="#000000"></path>
            <polyline id="Fill-156" fill="#000000" points="193.339 81.195 198.676 81.195 198.676 82.514 194.908 82.514 194.908 84.043 198.366 84.043 198.366 85.263 194.908 85.263 194.908 87.012 198.756 87.012 198.756 88.331 193.339 88.331 193.339 81.195"></polyline>
            <path d="M201.378,84.424 L203.098,84.424 C203.797,84.424 204.177,84.123 204.177,83.404 C204.177,82.715 203.797,82.414 203.098,82.414 L201.378,82.414 L201.378,84.424 L201.378,84.424 Z M199.809,81.195 L203.657,81.195 C204.937,81.195 205.746,82.084 205.746,83.164 C205.746,84.004 205.406,84.633 204.617,84.953 L204.617,84.973 C205.386,85.173 205.606,85.922 205.656,86.643 C205.686,87.092 205.676,87.932 205.956,88.331 L204.387,88.331 C204.197,87.881 204.217,87.191 204.137,86.622 C204.027,85.873 203.737,85.543 202.948,85.543 L201.378,85.543 L201.378,88.331 L199.809,88.331 L199.809,81.195 L199.809,81.195 Z" id="Fill-157" fill="#000000"></path>
            <polyline id="Fill-158" fill="#000000" points="206.93 81.195 208.489 81.195 211.467 85.982 211.487 85.982 211.487 81.195 212.957 81.195 212.957 88.331 211.387 88.331 208.419 83.554 208.399 83.554 208.399 88.331 206.93 88.331 206.93 81.195"></polyline>
        </g>
    </g>
</svg>