<svg xmlns="http://www.w3.org/2000/svg" width="768" height="159" viewBox="0 0 768 159"><title>category-scale_vu</title><g fill="none" fill-rule="evenodd"><path stroke="#000" d="M163.276 95.857h603.907M163.275 62.635h603.908"/><path fill="#1A1918" d="M709.64 96.305h57.543V62.424H709.64z"/><path fill="#666" d="M81.118 96.314h76.323V62.109H81.118z"/><path fill="#FFF" d="M108.718 76.004h1.399c.909 0 1.779-.56 1.779-2.139 0-1.439-.5-2.359-2.059-2.359h-1.119v4.498zm-1.57-5.817h3.079c1.849 0 3.238 1.16 3.238 3.528 0 2.069-1.059 3.608-3.238 3.608h-3.079v-7.136zM116.088 74.565h1.849l-.9-2.619h-.02l-.929 2.619zm.15-4.378h1.609l2.668 7.136h-1.629l-.539-1.589h-2.669l-.56 1.589h-1.589l2.709-7.136zM122.001 71.506h-2.139v-1.319h5.847v1.319h-2.139v5.817h-1.569v-5.817M127.601 74.565h1.849l-.9-2.619h-.02l-.929 2.619zm.15-4.378h1.609l2.668 7.136h-1.629l-.539-1.589h-2.669l-.56 1.589h-1.589l2.709-7.136zM94.89 87.012h1.399c.909 0 1.779-.56 1.779-2.139 0-1.439-.5-2.359-2.059-2.359H94.89v4.498zm-1.57-5.817h3.079c1.849 0 3.238 1.159 3.238 3.528 0 2.069-1.059 3.608-3.238 3.608H93.32v-7.136zM100.73 81.195h5.338v1.319H102.3v1.529h3.458v1.22H102.3v1.749h3.847v1.319h-5.417v-7.136M107.21 81.195h5.018v1.319h-3.448v1.65h2.988v1.219h-2.988v2.948h-1.57v-7.136M113.14 88.331h1.569v-7.136h-1.569zM120.847 83.594c-.099-.709-.779-1.25-1.559-1.25-1.409 0-1.939 1.199-1.939 2.449 0 1.189.53 2.389 1.939 2.389.96 0 1.5-.661 1.619-1.6h1.52c-.16 1.779-1.39 2.919-3.139 2.919-2.208 0-3.508-1.649-3.508-3.708 0-2.119 1.3-3.768 3.508-3.768 1.569 0 2.889.919 3.079 2.569h-1.52M123.5 88.331h1.569v-7.136H123.5zM126.45 81.195h5.338v1.319h-3.768v1.529h3.458v1.22h-3.458v1.749h3.847v1.319h-5.417v-7.136M132.93 81.195h1.559l2.979 4.787h.02v-4.787h1.469v7.136h-1.569l-2.969-4.777h-.02v4.777h-1.469v-7.136M141.919 82.514h-2.139v-1.319h5.847v1.319h-2.139v5.817h-1.569v-5.817"/><path fill="#666" d="M0 96.314h77.599V62.109H0z"/><path fill="#FFF" d="M28.906 70.187h1.559l2.979 4.788h.02v-4.788h1.469v7.136h-1.569l-2.968-4.777h-.021v4.777h-1.469v-7.136M39.515 76.174c1.409 0 1.939-1.199 1.939-2.389 0-1.249-.53-2.448-1.939-2.448-1.41 0-1.939 1.199-1.939 2.448 0 1.19.529 2.389 1.939 2.389zm0-6.157c2.209 0 3.508 1.649 3.508 3.768 0 2.059-1.299 3.708-3.508 3.708s-3.508-1.649-3.508-3.708c0-2.119 1.299-3.768 3.508-3.768zM45.524 71.506h-2.138v-1.319h5.846v1.319h-2.138v5.817h-1.57v-5.817M10.234 81.195h5.338v1.319h-3.768v1.529h3.458v1.22h-3.458v1.749h3.847v1.319h-5.417v-7.136M20.203 88.331h-1.769l-2.319-7.136h1.619l1.589 5.018h.02l1.609-5.018h1.619l-2.368 7.136M24.549 85.572h1.849l-.899-2.618h-.021l-.929 2.618zm.15-4.377h1.609l2.669 7.136h-1.629l-.54-1.589H24.14l-.56 1.589h-1.589l2.708-7.136zM29.84 81.195h1.569v5.817h3.478v1.319H29.84v-7.136M41.471 85.633c0 1.929-1.14 2.868-3.049 2.868-1.919 0-3.038-.93-3.038-2.868v-4.438h1.57v4.438c0 .779.199 1.549 1.468 1.549 1.12 0 1.48-.491 1.48-1.549v-4.438h1.569v4.438M44.373 85.572h1.849l-.899-2.618h-.02l-.93 2.618zm.15-4.377h1.609l2.669 7.136h-1.629l-.54-1.589h-2.668l-.56 1.589h-1.589l2.708-7.136zM50.282 82.514h-2.138v-1.319h5.846v1.319h-2.138v5.817h-1.57v-5.817M54.763 81.195h5.338v1.319h-3.769v1.529h3.458v1.22h-3.458v1.749h3.848v1.319h-5.417v-7.136M62.89 87.012h1.399c.909 0 1.779-.56 1.779-2.139 0-1.439-.5-2.359-2.059-2.359H62.89v4.498zm-1.57-5.817h3.079c1.849 0 3.238 1.159 3.238 3.528 0 2.069-1.059 3.608-3.238 3.608H61.32v-7.136z"/><path fill="#000" d="M473.633 75.742h5.337v1.319h-3.768v1.529h3.458v1.22h-3.458v1.749h3.848v1.319h-5.417v-7.136M480.192 75.742h1.56l2.978 4.787h.02v-4.787h1.469v7.136h-1.569l-2.968-4.777h-.02v4.777h-1.47v-7.136M489.194 81.559h1.4c.909 0 1.779-.56 1.779-2.139 0-1.44-.5-2.359-2.06-2.359h-1.119v4.498zm-1.569-5.817h3.078c1.85 0 3.238 1.159 3.238 3.528 0 2.069-1.059 3.608-3.238 3.608h-3.078v-7.136zM496.563 80.119h1.85l-.899-2.618h-.021l-.93 2.618zm.151-4.377h1.609l2.668 7.136h-1.629l-.54-1.589h-2.668l-.559 1.589h-1.59l2.709-7.136zM501.664 75.742h1.56l2.978 4.787h.02v-4.787h1.469v7.136h-1.569l-2.969-4.777h-.019v4.777h-1.47v-7.136M514.281 82.068c-.55.709-1.269.98-1.959.98-2.209 0-3.508-1.65-3.508-3.708 0-2.119 1.299-3.768 3.508-3.768 1.459 0 2.839.9 3.009 2.518h-1.499c-.181-.789-.769-1.199-1.51-1.199-1.409 0-1.938 1.199-1.938 2.449 0 1.189.529 2.389 1.938 2.389 1.02 0 1.61-.55 1.699-1.54h-1.579V79.02h2.998v3.858h-.999l-.16-.81M516.764 75.742h5.337v1.319h-3.768v1.529h3.458v1.22h-3.458v1.749h3.848v1.319h-5.417v-7.136M524.863 78.97h1.719c.7 0 1.08-.3 1.08-1.019 0-.69-.38-.99-1.08-.99h-1.719v2.009zm-1.569-3.228h3.848c1.279 0 2.088.889 2.088 1.969 0 .839-.339 1.469-1.128 1.789v.02c.769.2.989.949 1.039 1.669.03.45.02 1.29.299 1.689h-1.568c-.19-.45-.17-1.14-.25-1.709-.11-.749-.4-1.079-1.189-1.079h-1.57v2.788h-1.569v-7.136zM530.563 75.742h5.337v1.319h-3.767v1.529h3.458v1.22h-3.458v1.749h3.847v1.319h-5.417v-7.136M538.663 81.559h1.4c.909 0 1.779-.56 1.779-2.139 0-1.44-.5-2.359-2.06-2.359h-1.119v4.498zm-1.569-5.817h3.078c1.849 0 3.238 1.159 3.238 3.528 0 2.069-1.059 3.608-3.238 3.608h-3.078v-7.136zM650.258 70.187h5.337v1.319h-3.768v1.53h3.458v1.219h-3.458v1.749h3.848v1.319h-5.417v-7.136M658.687 73.585l-2.299-3.398h1.819l1.399 2.279 1.45-2.279h1.718l-2.289 3.408 2.49 3.728h-1.87l-1.559-2.469-1.589 2.469h-1.769l2.499-3.738M665.204 71.506h-2.139v-1.319h5.847v1.319h-2.139v5.817h-1.569v-5.817M669.685 77.323h1.569v-7.136h-1.569zM672.844 70.187h1.559l2.979 4.788h.019v-4.788h1.47v7.136h-1.569l-2.969-4.777h-.02v4.777h-1.469v-7.136M685.012 72.586c-.101-.709-.781-1.249-1.56-1.249-1.409 0-1.938 1.199-1.938 2.448 0 1.19.529 2.389 1.938 2.389.96 0 1.499-.66 1.619-1.599h1.52c-.16 1.779-1.39 2.918-3.139 2.918-2.209 0-3.508-1.649-3.508-3.708 0-2.119 1.299-3.768 3.508-3.768 1.569 0 2.889.92 3.078 2.569h-1.518M688.993 71.506h-2.139v-1.319h5.847v1.319h-2.138v5.817h-1.57v-5.817M641.508 88.331h1.569v-7.136h-1.569zM644.468 81.195h1.559l2.979 4.787h.019v-4.787h1.469v7.136h-1.568l-2.969-4.777h-.019v4.777h-1.47v-7.136M656.091 82.514h-2.139v-1.319h5.847v1.319h-2.139v5.817h-1.569v-5.817M660.571 81.195h1.57v2.739h2.888v-2.739h1.569v7.136h-1.569v-3.078h-2.888v3.078h-1.57v-7.136M667.961 81.195h5.337v1.319h-3.768v1.529h3.458v1.22h-3.458v1.749h3.848v1.319h-5.417v-7.136M683.813 88.331h-1.56l-1.209-4.857h-.021l-1.189 4.857h-1.589l-1.889-7.136h1.57l1.129 4.858h.019l1.24-4.858h1.469l1.22 4.917h.019l1.169-4.917h1.54l-1.918 7.136M686.466 88.331h1.569v-7.136h-1.569zM689.422 81.195h1.569v5.817h3.479v1.319h-5.048v-7.136M696.441 87.012h1.4c.909 0 1.778-.56 1.778-2.139 0-1.439-.499-2.359-2.058-2.359h-1.12v4.498zm-1.569-5.817h3.078c1.85 0 3.238 1.159 3.238 3.528 0 2.069-1.059 3.608-3.238 3.608h-3.078v-7.136z"/><path fill="#FFF" d="M718.203 75.703h5.337v1.319h-3.768v1.529h3.458v1.219h-3.458v1.75h3.848v1.319h-5.417v-7.136M726.632 79.101l-2.299-3.398h1.819l1.4 2.278 1.449-2.278h1.719l-2.289 3.408 2.489 3.728h-1.869l-1.56-2.469-1.589 2.469h-1.768l2.498-3.738M733.142 77.022h-2.139v-1.319h5.847v1.319h-2.139v5.817h-1.569v-5.817M737.643 82.839h1.569v-7.136h-1.569zM740.563 75.703h1.559l2.979 4.787h.019v-4.787h1.47v7.136h-1.569l-2.969-4.777h-.02v4.777h-1.469v-7.136M752.7 78.102c-.1-.71-.78-1.25-1.559-1.25-1.41 0-1.939 1.199-1.939 2.449 0 1.189.529 2.388 1.939 2.388.96 0 1.499-.66 1.619-1.599h1.519c-.16 1.779-1.389 2.919-3.138 2.919-2.209 0-3.508-1.65-3.508-3.708 0-2.119 1.299-3.768 3.508-3.768 1.569 0 2.888.919 3.078 2.569H752.7M756.931 77.022h-2.139v-1.319h5.847v1.319H758.5v5.817h-1.569v-5.817"/><path fill="#000" d="M567.023 72.586c-.1-.709-.78-1.249-1.559-1.249-1.409 0-1.939 1.199-1.939 2.448 0 1.19.53 2.389 1.939 2.389.96 0 1.499-.66 1.619-1.599h1.52c-.161 1.779-1.39 2.918-3.139 2.918-2.209 0-3.508-1.649-3.508-3.708 0-2.119 1.299-3.768 3.508-3.768 1.569 0 2.889.92 3.078 2.569h-1.519M571.215 73.416h1.719c.7 0 1.08-.3 1.08-1.02 0-.689-.38-.99-1.08-.99h-1.719v2.01zm-1.569-3.229h3.847c1.279 0 2.089.89 2.089 1.969 0 .84-.34 1.469-1.129 1.789v.02c.77.2.989.95 1.039 1.669.03.45.021 1.289.3 1.689h-1.568c-.191-.449-.17-1.139-.25-1.709-.111-.749-.401-1.079-1.19-1.079h-1.569v2.788h-1.569v-7.136zM576.835 77.323h1.569v-7.136h-1.569zM581.335 71.506h-2.139v-1.319h5.847v1.319h-2.139v5.817h-1.569v-5.817M585.835 77.323h1.569v-7.136h-1.569zM593.513 72.586c-.101-.709-.781-1.249-1.56-1.249-1.409 0-1.938 1.199-1.938 2.448 0 1.19.529 2.389 1.938 2.389.96 0 1.499-.66 1.619-1.599h1.52c-.16 1.779-1.39 2.918-3.139 2.918-2.209 0-3.508-1.649-3.508-3.708 0-2.119 1.299-3.768 3.508-3.768 1.569 0 2.889.92 3.078 2.569h-1.518M597.791 74.565h1.85l-.9-2.619h-.02l-.93 2.619zm.15-4.378h1.61l2.668 7.136h-1.629l-.54-1.589h-2.668l-.56 1.589h-1.59l2.709-7.136zM602.882 70.187h1.569v5.817h3.479v1.319h-5.048v-7.136M608.727 70.187h1.569v5.817h3.478v1.319h-5.047v-7.136M615.526 74.545l-2.629-4.358h1.769l1.67 2.819 1.658-2.819h1.749l-2.648 4.398v2.738h-1.569v-2.778M555.898 81.195h5.337v1.319h-3.767v1.529h3.458v1.22h-3.458v1.749h3.847v1.319h-5.417v-7.136M562.458 81.195h1.56l2.978 4.787h.02v-4.787h1.468v7.136h-1.568l-2.969-4.777h-.019v4.777h-1.47v-7.136M571.468 87.012h1.399c.909 0 1.779-.56 1.779-2.139 0-1.439-.5-2.359-2.059-2.359h-1.119v4.498zm-1.57-5.817h3.079c1.849 0 3.238 1.159 3.238 3.528 0 2.069-1.06 3.608-3.238 3.608h-3.079v-7.136zM578.837 85.572h1.85l-.9-2.618h-.02l-.93 2.618zm.15-4.377h1.61l2.668 7.136h-1.629l-.54-1.589h-2.668l-.56 1.589h-1.59l2.709-7.136zM583.93 81.195h1.559l2.979 4.787h.019v-4.787h1.47v7.136h-1.569l-2.969-4.777h-.02v4.777h-1.469v-7.136M596.547 87.521c-.55.709-1.27.98-1.959.98-2.209 0-3.508-1.649-3.508-3.708 0-2.119 1.299-3.768 3.508-3.768 1.459 0 2.839.9 3.009 2.518h-1.499c-.181-.789-.77-1.199-1.51-1.199-1.409 0-1.939 1.199-1.939 2.449 0 1.189.53 2.389 1.939 2.389 1.019 0 1.609-.55 1.699-1.539h-1.579v-1.17h2.998v3.858h-.999l-.16-.81M599.029 81.195h5.337v1.319h-3.767v1.529h3.458v1.22h-3.458v1.749h3.847v1.319h-5.417v-7.136M607.129 84.424h1.719c.7 0 1.08-.301 1.08-1.02 0-.689-.38-.99-1.08-.99h-1.719v2.01zm-1.569-3.229h3.847c1.28 0 2.089.889 2.089 1.969 0 .84-.34 1.469-1.129 1.789v.02c.77.2.989.949 1.039 1.67.031.449.021 1.289.3 1.688h-1.568c-.191-.45-.17-1.14-.25-1.709-.111-.749-.401-1.079-1.19-1.079h-1.569v2.788h-1.569v-7.136zM612.829 81.195h5.337v1.319h-3.768v1.529h3.458v1.22h-3.458v1.749h3.848v1.319h-5.417v-7.136M620.929 87.012h1.399c.909 0 1.779-.56 1.779-2.139 0-1.439-.5-2.359-2.059-2.359h-1.119v4.498zm-1.57-5.817h3.079c1.849 0 3.238 1.159 3.238 3.528 0 2.069-1.06 3.608-3.238 3.608h-3.079v-7.136zM173.43 70.187h1.569v5.817h3.478v1.319h-5.047v-7.136M179.229 70.187h5.338v1.319h-3.768v1.53h3.458v1.219h-3.458v1.749h3.847v1.319h-5.417v-7.136M187.26 74.565h1.849l-.9-2.619h-.02l-.929 2.619zm.15-4.378h1.609l2.669 7.136h-1.629l-.54-1.589h-2.668l-.56 1.589h-1.589l2.708-7.136zM193.301 74.955c0 .949.739 1.319 1.579 1.319.549 0 1.389-.16 1.389-.89 0-.769-1.069-.899-2.119-1.179-1.059-.28-2.129-.69-2.129-2.029 0-1.459 1.379-2.159 2.669-2.159 1.489 0 2.858.65 2.858 2.299h-1.519c-.05-.859-.659-1.079-1.409-1.079-.5 0-1.079.209-1.079.809 0 .55.339.62 2.128 1.079.52.13 2.119.46 2.119 2.08 0 1.309-1.029 2.288-2.968 2.288-1.579 0-3.059-.78-3.039-2.538h1.52M200.056 71.506h-2.139v-1.319h5.847v1.319h-2.139v5.817h-1.569v-5.817M168.445 83.594c-.1-.709-.779-1.25-1.559-1.25-1.409 0-1.939 1.199-1.939 2.449 0 1.189.53 2.389 1.939 2.389.959 0 1.499-.661 1.619-1.6h1.519c-.16 1.779-1.389 2.919-3.138 2.919-2.209 0-3.508-1.649-3.508-3.708 0-2.119 1.299-3.768 3.508-3.768 1.569 0 2.888.919 3.078 2.569h-1.519M174.206 87.182c1.409 0 1.939-1.2 1.939-2.389 0-1.25-.53-2.449-1.939-2.449-1.41 0-1.939 1.199-1.939 2.449 0 1.189.529 2.389 1.939 2.389zm0-6.157c2.209 0 3.508 1.649 3.508 3.768 0 2.059-1.299 3.708-3.508 3.708s-3.508-1.649-3.508-3.708c0-2.119 1.299-3.768 3.508-3.768zM178.539 81.195h1.559l2.979 4.787h.02v-4.787h1.469v7.136h-1.569l-2.969-4.777h-.02v4.777h-1.469v-7.136M190.696 83.594c-.099-.709-.779-1.25-1.559-1.25-1.409 0-1.939 1.199-1.939 2.449 0 1.189.53 2.389 1.939 2.389.96 0 1.5-.661 1.619-1.6h1.52c-.16 1.779-1.39 2.919-3.139 2.919-2.208 0-3.508-1.649-3.508-3.708 0-2.119 1.3-3.768 3.508-3.768 1.57 0 2.889.919 3.079 2.569h-1.52M193.339 81.195h5.337v1.319h-3.768v1.529h3.458v1.22h-3.458v1.749h3.848v1.319h-5.417v-7.136M201.378 84.424h1.72c.699 0 1.079-.301 1.079-1.02 0-.689-.38-.99-1.079-.99h-1.72v2.01zm-1.569-3.229h3.848c1.28 0 2.089.889 2.089 1.969 0 .84-.34 1.469-1.129 1.789v.02c.769.2.989.949 1.039 1.67.03.449.02 1.289.3 1.688h-1.569c-.19-.45-.17-1.14-.25-1.709-.11-.749-.4-1.079-1.189-1.079h-1.57v2.788h-1.569v-7.136zM206.93 81.195h1.559l2.978 4.787h.02v-4.787h1.47v7.136h-1.57l-2.968-4.777h-.02v4.777h-1.469v-7.136M249.219 70.187h1.559l2.978 4.788h.02v-4.788h1.47v7.136h-1.57l-2.968-4.777h-.02v4.777h-1.469v-7.136M256.659 70.187h5.337v1.319h-3.768v1.53h3.458v1.219h-3.458v1.749h3.848v1.319h-5.417v-7.136M264.94 74.565h1.849l-.9-2.619h-.02l-.929 2.619zm.15-4.378h1.609l2.668 7.136h-1.629l-.539-1.589h-2.669l-.56 1.589h-1.589l2.709-7.136zM271.4 73.416h1.719c.699 0 1.079-.3 1.079-1.02 0-.689-.38-.99-1.079-.99H271.4v2.01zm-1.569-3.229h3.848c1.279 0 2.089.89 2.089 1.969 0 .84-.34 1.469-1.13 1.789v.02c.77.2.989.95 1.04 1.669.03.45.019 1.289.3 1.689h-1.57c-.19-.449-.17-1.139-.25-1.709-.11-.749-.399-1.079-1.189-1.079H271.4v2.788h-1.569v-7.136zM231.142 82.514h-2.139v-1.319h5.847v1.319h-2.139v5.817h-1.569v-5.817M235.623 81.195h1.569v2.739h2.888v-2.739h1.569v7.136h-1.569v-3.078h-2.888v3.078h-1.569v-7.136M244.632 84.424h1.719c.699 0 1.079-.301 1.079-1.02 0-.689-.38-.99-1.079-.99h-1.719v2.01zm-1.569-3.229h3.848c1.279 0 2.089.889 2.089 1.969 0 .84-.34 1.469-1.13 1.789v.02c.77.2.989.949 1.04 1.67.029.449.02 1.289.299 1.688h-1.569c-.19-.45-.17-1.14-.25-1.709-.11-.749-.399-1.079-1.189-1.079h-1.569v2.788h-1.569v-7.136zM250.083 81.195h5.337v1.319h-3.768v1.529h3.458v1.22h-3.458v1.749h3.848v1.319h-5.417v-7.136M258.362 85.572h1.848l-.899-2.618h-.02l-.929 2.618zm.15-4.377h1.609l2.668 7.136h-1.629l-.539-1.589h-2.669l-.56 1.589h-1.589l2.709-7.136zM264.271 82.514h-2.138v-1.319h5.846v1.319h-2.138v5.817h-1.57v-5.817M268.75 81.195h5.337v1.319h-3.768v1.529h3.458v1.22h-3.458v1.749h3.848v1.319h-5.417v-7.136M275.31 81.195h1.559l2.979 4.787h.02v-4.787h1.469v7.136h-1.569l-2.969-4.777h-.02v4.777h-1.469v-7.136M282.8 81.195h5.337v1.319h-3.768v1.529h3.458v1.22h-3.458v1.749h3.848v1.319H282.8v-7.136M290.929 87.012h1.4c.909 0 1.778-.56 1.778-2.139 0-1.439-.499-2.359-2.059-2.359h-1.119v4.498zm-1.569-5.817h3.078c1.849 0 3.239 1.159 3.239 3.528 0 2.069-1.06 3.608-3.239 3.608h-3.078v-7.136z"/><path fill="#DA2F2A" d="M464.548 79.77V.543h-80.574v.034c-43.127.72-77.879 35.884-77.879 79.197 0 43.757 35.473 79.226 79.222 79.226 43.622 0 79.004-35.252 79.223-78.822h.008v-.33l.002-.074-.002-.004"/><path fill="#FFF" d="M437.791 29.976h3.893c1.347 0 2.672.609 2.672 2.149 0 .823-.395 1.604-1.197 1.914v.022c.813.192 1.048 1.101 1.112 1.828.022.32.053 1.444.321 1.721h-1.968c-.171-.257-.203-1.005-.224-1.218-.053-.77-.182-1.562-1.112-1.562h-1.508v2.78h-1.989v-7.634zm1.989 3.315h1.668c.599 0 .92-.321.92-.899 0-.566-.449-.823-1.006-.823h-1.582v1.722zM445.298 29.976h6.084v1.593h-4.095v1.336h3.742v1.54h-3.742v1.454h4.202v1.711h-6.191v-7.634M452.409 29.976h3.282c2.342 0 3.744 1.422 3.744 3.785 0 2.502-1.423 3.849-3.744 3.849h-3.282v-7.634zm1.989 5.923h.941c1.508-.032 2.106-.62 2.106-2.149 0-1.39-.748-2.063-2.106-2.063h-.941v4.212zM437.791 38.395h1.989v5.924h3.561v1.71h-5.55v-7.634M443.897 46.029h1.989v-7.634h-1.989zM448.389 43.463c.042.898.598 1.187 1.443 1.187.599 0 1.219-.213 1.219-.78 0-.674-1.091-.803-2.193-1.113-1.09-.31-2.234-.801-2.234-2.202 0-1.668 1.679-2.321 3.111-2.321 1.519 0 3.048.738 3.059 2.46h-1.989c.032-.695-.62-.92-1.23-.92-.428 0-.962.15-.962.652 0 .589 1.101.696 2.213 1.006 1.102.31 2.214.823 2.214 2.202 0 1.936-1.647 2.556-3.326 2.556-1.753 0-3.304-.77-3.315-2.727h1.99"/><path fill="#FFF" d="M459.327 40.105h-2.277v5.924h-1.989v-5.924h-2.278v-1.71h6.544v1.71M452.552 12.114c-1.533 1.481-1.863 3.625-.737 4.791 1.126 1.166 3.283.91 4.815-.57 1.532-1.48 1.862-3.625.735-4.79-1.126-1.166-3.282-.911-4.813.569"/><path fill="#FFF" d="M451.325 19.311c-1.532 1.48-1.861 3.625-.735 4.791 1.127 1.166 3.281.911 4.812-.57 1.535-1.48 1.864-3.625.737-4.792-1.125-1.165-3.281-.909-4.814.571"/><g fill="#FFF"><path d="M440.797 8.782c-1.532 1.481-1.861 3.625-.735 4.792 1.126 1.165 3.282.91 4.813-.57 1.532-1.481 1.861-3.626.735-4.792-1.126-1.165-3.282-.911-4.813.57"/><path d="M448.051 7.647c-1.532 1.48-1.863 3.624-.737 4.79 1.127 1.166 3.282.912 4.815-.569 1.532-1.48 1.861-3.626.734-4.791-1.125-1.166-3.28-.91-4.812.57"/></g><path fill="#FFF" d="M449.439 20.753a6.03 6.03 0 11-12.059-.001 6.03 6.03 0 0112.059.001M435.435 17.142c0 5.312-4.306 9.615-9.616 9.615a9.614 9.614 0 01-9.614-9.615c0-5.309 4.305-9.614 9.614-9.614h9.628l-.012 9.614M435.54 38.222c0 5.343-4.332 9.674-9.675 9.674a9.674 9.674 0 01-9.674-9.674c0-5.344 4.331-9.675 9.674-9.675 5.343 0 9.675 4.331 9.675 9.675"/><path fill="#D62427" d="M421.552 39.241h.428v-1.948h-.428zM423.734 39.092c-.147.129-.351.193-.611.193-.264 0-.468-.064-.612-.191-.145-.128-.217-.324-.217-.59v-1.211h.428v1.211c0 .053.005.105.013.156a.308.308 0 00.179.23.492.492 0 00.209.037c.153 0 .258-.034.316-.102.059-.068.088-.175.088-.321v-1.211h.428v1.211c0 .264-.073.46-.221.588M425.519 37.812a.446.446 0 00-.376-.206.498.498 0 00-.247.057.479.479 0 00-.164.149.657.657 0 00-.09.215 1.066 1.066 0 000 .487.643.643 0 00.09.209.486.486 0 00.164.148.51.51 0 00.247.056c.13 0 .232-.04.306-.12a.549.549 0 00.135-.316h.415a.983.983 0 01-.085.33.778.778 0 01-.441.409.972.972 0 01-.33.055.996.996 0 01-.403-.078.877.877 0 01-.49-.535 1.168 1.168 0 01-.065-.397c0-.146.021-.28.065-.405a.974.974 0 01.188-.326.861.861 0 01.302-.218.963.963 0 01.403-.079.97.97 0 01.303.046.83.83 0 01.257.135.735.735 0 01.279.52h-.414a.358.358 0 00-.049-.136M426.662 37.293l.813 1.307h.005v-1.307h.402v1.948h-.429l-.81-1.304h-.005v1.304h-.402v-1.948h.426"/><path fill="#D62427" d="M425.633 40.306a3.097 3.097 0 0 1-2.312 1.027 3.103 3.103 0 0 1-2.202-.912 3.101 3.101 0 0 1-.912-2.202 3.1 3.1 0 0 1 .912-2.201 3.104 3.104 0 0 1 2.202-.913 3.098 3.098 0 0 1 2.388 1.116h1.271a4.17 4.17 0 1 0-.052 4.085h-1.295"/><path fill="#FFF" d="M460.223 31.61c-.602 0-1.031-.45-1.031-1.047 0-.629.477-1.047 1.031-1.047.548 0 1.025.418 1.025 1.047 0 .63-.477 1.047-1.025 1.047zm0-1.912c-.453 0-.807.356-.807.865 0 .477.309.866.807.866.448 0 .8-.353.8-.866 0-.509-.352-.865-.8-.865zm.529 1.067a.495.495 0 01-.495.431c-.359 0-.594-.271-.594-.633 0-.338.224-.599.588-.601.255 0 .462.148.498.422h-.19c-.028-.143-.149-.24-.308-.24-.235 0-.364.187-.364.419 0 .244.142.451.37.451.165 0 .282-.103.302-.249h.193zM336.708 85.433h-2.917l-3.823-11.767h2.67l2.62 8.273h.033l2.653-8.273h2.669l-3.905 11.767M351.718 80.983c0 3.181-1.878 4.73-5.026 4.73-3.164 0-5.009-1.533-5.009-4.73v-7.317h2.587v7.317c0 1.286.329 2.554 2.422 2.554 1.846 0 2.439-.807 2.439-2.554v-7.317h2.587v7.317M353.995 73.666h2.587v9.592h5.734v2.175h-8.321V73.666M363.633 73.666h2.571l4.91 7.895h.033v-7.895h2.423v11.767h-2.588l-4.894-7.877h-.033v7.877h-2.422V73.666M375.909 73.666h8.8v2.176h-6.213v2.521h5.702v2.01h-5.702v2.885h6.345v2.175h-8.932V73.666M389.305 78.989h2.834c1.154 0 1.78-.494 1.78-1.681 0-1.137-.626-1.631-1.78-1.631h-2.834v3.312zm-2.588-5.323h6.345c2.109 0 3.444 1.467 3.444 3.247 0 1.384-.561 2.422-1.862 2.949v.033c1.269.33 1.631 1.566 1.713 2.752.05.742.034 2.126.495 2.786h-2.587c-.314-.742-.281-1.879-.412-2.818-.181-1.236-.66-1.78-1.961-1.78h-2.587v4.598h-2.588V73.666zM401.93 80.885h3.049l-1.484-4.319h-.033l-1.532 4.319zm.247-7.219h2.653l4.4 11.767h-2.686l-.89-2.621h-4.4l-.923 2.621h-2.62l4.466-11.767zM412.919 83.422h2.769c1.021 0 1.911-.329 1.911-1.549 0-1.203-.758-1.681-1.863-1.681h-2.817v3.23zm0-4.993h2.62c.906 0 1.582-.412 1.582-1.401 0-1.121-.857-1.351-1.78-1.351h-2.422v2.752zm-2.588-4.763h5.537c2.241 0 3.758.726 3.758 2.917 0 1.154-.577 1.961-1.599 2.456 1.434.412 2.16 1.516 2.16 2.982 0 2.39-2.028 3.412-4.154 3.412h-5.702V73.666zM421.986 73.666h2.588v9.592h5.735v2.175h-8.323V73.666M431.624 73.666h8.801v2.176h-6.213v2.521h5.702v2.01h-5.702v2.885h6.345v2.175h-8.933V73.666"/></g></svg>