<?xml version="1.0" encoding="UTF-8"?>
<svg width="768px" height="159px" viewBox="0 0 768 159" version="1.1" xmlns="http://www.w3.org/2000/svg" xmlns:xlink="http://www.w3.org/1999/xlink">
    <!-- Generator: Sketch 40.3 (33839) - http://www.bohemiancoding.com/sketch -->
    <title>category-scale_vu</title>
    <desc>Created with Sketch.</desc>
    <defs></defs>
    <g id="Page-1" stroke="none" stroke-width="1" fill="none" fill-rule="evenodd">
        <g id="category-scale_vu">
            <path d="M163.276,95.857 L767.183,95.857 M163.275,62.635 L767.183,62.635" id="Stroke-1" stroke="#000000"></path>
            <polygon id="Fill-3" fill="#1A1918" points="709.64 96.305 767.183 96.305 767.183 62.424 709.64 62.424"></polygon>
            <polygon id="Fill-4" fill="#666666" points="81.118 96.314 157.441 96.314 157.441 62.109 81.118 62.109"></polygon>
            <path d="M108.718,76.004 L110.117,76.004 C111.026,76.004 111.896,75.444 111.896,73.865 C111.896,72.426 111.396,71.506 109.837,71.506 L108.718,71.506 L108.718,76.004 L108.718,76.004 Z M107.148,70.187 L110.227,70.187 C112.076,70.187 113.465,71.347 113.465,73.715 C113.465,75.784 112.406,77.323 110.227,77.323 L107.148,77.323 L107.148,70.187 L107.148,70.187 Z" id="Fill-5" fill="#FFFFFF"></path>
            <path d="M116.088,74.565 L117.937,74.565 L117.037,71.946 L117.017,71.946 L116.088,74.565 L116.088,74.565 Z M116.238,70.187 L117.847,70.187 L120.515,77.323 L118.886,77.323 L118.347,75.734 L115.678,75.734 L115.118,77.323 L113.529,77.323 L116.238,70.187 L116.238,70.187 Z" id="Fill-6" fill="#FFFFFF"></path>
            <polyline id="Fill-7" fill="#FFFFFF" points="122.001 71.506 119.862 71.506 119.862 70.187 125.709 70.187 125.709 71.506 123.57 71.506 123.57 77.323 122.001 77.323 122.001 71.506"></polyline>
            <path d="M127.601,74.565 L129.45,74.565 L128.55,71.946 L128.53,71.946 L127.601,74.565 L127.601,74.565 Z M127.751,70.187 L129.36,70.187 L132.028,77.323 L130.399,77.323 L129.86,75.734 L127.191,75.734 L126.631,77.323 L125.042,77.323 L127.751,70.187 L127.751,70.187 Z" id="Fill-8" fill="#FFFFFF"></path>
            <path d="M94.89,87.012 L96.289,87.012 C97.198,87.012 98.068,86.452 98.068,84.873 C98.068,83.434 97.568,82.514 96.009,82.514 L94.89,82.514 L94.89,87.012 L94.89,87.012 Z M93.32,81.195 L96.399,81.195 C98.248,81.195 99.637,82.354 99.637,84.723 C99.637,86.792 98.578,88.331 96.399,88.331 L93.32,88.331 L93.32,81.195 L93.32,81.195 Z" id="Fill-9" fill="#FFFFFF"></path>
            <polyline id="Fill-10" fill="#FFFFFF" points="100.73 81.195 106.068 81.195 106.068 82.514 102.3 82.514 102.3 84.043 105.758 84.043 105.758 85.263 102.3 85.263 102.3 87.012 106.147 87.012 106.147 88.331 100.73 88.331 100.73 81.195"></polyline>
            <polyline id="Fill-11" fill="#FFFFFF" points="107.21 81.195 112.228 81.195 112.228 82.514 108.78 82.514 108.78 84.164 111.768 84.164 111.768 85.383 108.78 85.383 108.78 88.331 107.21 88.331 107.21 81.195"></polyline>
            <polygon id="Fill-12" fill="#FFFFFF" points="113.14 88.331 114.709 88.331 114.709 81.195 113.14 81.195"></polygon>
            <path d="M120.847,83.594 C120.748,82.885 120.068,82.344 119.288,82.344 C117.879,82.344 117.349,83.543 117.349,84.793 C117.349,85.982 117.879,87.182 119.288,87.182 C120.248,87.182 120.788,86.521 120.907,85.582 L122.427,85.582 C122.267,87.361 121.037,88.501 119.288,88.501 C117.08,88.501 115.78,86.852 115.78,84.793 C115.78,82.674 117.08,81.025 119.288,81.025 C120.857,81.025 122.177,81.944 122.367,83.594 L120.847,83.594" id="Fill-13" fill="#FFFFFF"></path>
            <polygon id="Fill-14" fill="#FFFFFF" points="123.5 88.331 125.069 88.331 125.069 81.195 123.5 81.195"></polygon>
            <polyline id="Fill-15" fill="#FFFFFF" points="126.45 81.195 131.788 81.195 131.788 82.514 128.02 82.514 128.02 84.043 131.478 84.043 131.478 85.263 128.02 85.263 128.02 87.012 131.867 87.012 131.867 88.331 126.45 88.331 126.45 81.195"></polyline>
            <polyline id="Fill-16" fill="#FFFFFF" points="132.93 81.195 134.489 81.195 137.468 85.982 137.488 85.982 137.488 81.195 138.957 81.195 138.957 88.331 137.388 88.331 134.419 83.554 134.399 83.554 134.399 88.331 132.93 88.331 132.93 81.195"></polyline>
            <polyline id="Fill-17" fill="#FFFFFF" points="141.919 82.514 139.78 82.514 139.78 81.195 145.627 81.195 145.627 82.514 143.488 82.514 143.488 88.331 141.919 88.331 141.919 82.514"></polyline>
            <polygon id="Fill-20" fill="#666666" points="0 96.314 77.599 96.314 77.599 62.109 0 62.109"></polygon>
            <polyline id="Fill-21" fill="#FFFFFF" points="28.906 70.187 30.465 70.187 33.444 74.975 33.464 74.975 33.464 70.187 34.933 70.187 34.933 77.323 33.364 77.323 30.396 72.546 30.375 72.546 30.375 77.323 28.906 77.323 28.906 70.187"></polyline>
            <path d="M39.515,76.174 C40.924,76.174 41.454,74.975 41.454,73.785 C41.454,72.536 40.924,71.337 39.515,71.337 C38.105,71.337 37.576,72.536 37.576,73.785 C37.576,74.975 38.105,76.174 39.515,76.174 L39.515,76.174 Z M39.515,70.017 C41.724,70.017 43.023,71.666 43.023,73.785 C43.023,75.844 41.724,77.493 39.515,77.493 C37.306,77.493 36.007,75.844 36.007,73.785 C36.007,71.666 37.306,70.017 39.515,70.017 L39.515,70.017 Z" id="Fill-22" fill="#FFFFFF"></path>
            <polyline id="Fill-23" fill="#FFFFFF" points="45.524 71.506 43.386 71.506 43.386 70.187 49.232 70.187 49.232 71.506 47.094 71.506 47.094 77.323 45.524 77.323 45.524 71.506"></polyline>
            <polyline id="Fill-24" fill="#FFFFFF" points="10.234 81.195 15.572 81.195 15.572 82.514 11.804 82.514 11.804 84.043 15.262 84.043 15.262 85.263 11.804 85.263 11.804 87.012 15.651 87.012 15.651 88.331 10.234 88.331 10.234 81.195"></polyline>
            <polyline id="Fill-25" fill="#FFFFFF" points="20.203 88.331 18.434 88.331 16.115 81.195 17.734 81.195 19.323 86.213 19.343 86.213 20.952 81.195 22.571 81.195 20.203 88.331"></polyline>
            <path d="M24.549,85.572 L26.398,85.572 L25.499,82.954 L25.478,82.954 L24.549,85.572 L24.549,85.572 Z M24.699,81.195 L26.308,81.195 L28.977,88.331 L27.348,88.331 L26.808,86.742 L24.14,86.742 L23.58,88.331 L21.991,88.331 L24.699,81.195 L24.699,81.195 Z" id="Fill-26" fill="#FFFFFF"></path>
            <polyline id="Fill-27" fill="#FFFFFF" points="29.84 81.195 31.409 81.195 31.409 87.012 34.887 87.012 34.887 88.331 29.84 88.331 29.84 81.195"></polyline>
            <path d="M41.471,85.633 C41.471,87.562 40.331,88.501 38.422,88.501 C36.503,88.501 35.384,87.571 35.384,85.633 L35.384,81.195 L36.954,81.195 L36.954,85.633 C36.954,86.412 37.153,87.182 38.422,87.182 C39.542,87.182 39.902,86.691 39.902,85.633 L39.902,81.195 L41.471,81.195 L41.471,85.633" id="Fill-28" fill="#FFFFFF"></path>
            <path d="M44.373,85.572 L46.222,85.572 L45.323,82.954 L45.303,82.954 L44.373,85.572 L44.373,85.572 Z M44.523,81.195 L46.132,81.195 L48.801,88.331 L47.172,88.331 L46.632,86.742 L43.964,86.742 L43.404,88.331 L41.815,88.331 L44.523,81.195 L44.523,81.195 Z" id="Fill-29" fill="#FFFFFF"></path>
            <polyline id="Fill-30" fill="#FFFFFF" points="50.282 82.514 48.144 82.514 48.144 81.195 53.99 81.195 53.99 82.514 51.852 82.514 51.852 88.331 50.282 88.331 50.282 82.514"></polyline>
            <polyline id="Fill-31" fill="#FFFFFF" points="54.763 81.195 60.101 81.195 60.101 82.514 56.332 82.514 56.332 84.043 59.79 84.043 59.79 85.263 56.332 85.263 56.332 87.012 60.18 87.012 60.18 88.331 54.763 88.331 54.763 81.195"></polyline>
            <path d="M62.89,87.012 L64.289,87.012 C65.198,87.012 66.068,86.452 66.068,84.873 C66.068,83.434 65.568,82.514 64.009,82.514 L62.89,82.514 L62.89,87.012 L62.89,87.012 Z M61.32,81.195 L64.399,81.195 C66.248,81.195 67.637,82.354 67.637,84.723 C67.637,86.792 66.578,88.331 64.399,88.331 L61.32,88.331 L61.32,81.195 L61.32,81.195 Z" id="Fill-32" fill="#FFFFFF"></path>
            <polyline id="Fill-35" fill="#000000" points="473.633 75.742 478.97 75.742 478.97 77.061 475.202 77.061 475.202 78.59 478.66 78.59 478.66 79.81 475.202 79.81 475.202 81.559 479.05 81.559 479.05 82.878 473.633 82.878 473.633 75.742"></polyline>
            <polyline id="Fill-36" fill="#000000" points="480.192 75.742 481.752 75.742 484.73 80.529 484.75 80.529 484.75 75.742 486.219 75.742 486.219 82.878 484.65 82.878 481.682 78.101 481.662 78.101 481.662 82.878 480.192 82.878 480.192 75.742"></polyline>
            <path d="M489.194,81.559 L490.594,81.559 C491.503,81.559 492.373,80.999 492.373,79.42 C492.373,77.98 491.873,77.061 490.313,77.061 L489.194,77.061 L489.194,81.559 L489.194,81.559 Z M487.625,75.742 L490.703,75.742 C492.553,75.742 493.941,76.901 493.941,79.27 C493.941,81.339 492.882,82.878 490.703,82.878 L487.625,82.878 L487.625,75.742 L487.625,75.742 Z" id="Fill-37" fill="#000000"></path>
            <path d="M496.563,80.119 L498.413,80.119 L497.514,77.501 L497.493,77.501 L496.563,80.119 L496.563,80.119 Z M496.714,75.742 L498.323,75.742 L500.991,82.878 L499.362,82.878 L498.822,81.289 L496.154,81.289 L495.595,82.878 L494.005,82.878 L496.714,75.742 L496.714,75.742 Z" id="Fill-38" fill="#000000"></path>
            <polyline id="Fill-39" fill="#000000" points="501.664 75.742 503.224 75.742 506.202 80.529 506.222 80.529 506.222 75.742 507.691 75.742 507.691 82.878 506.122 82.878 503.153 78.101 503.134 78.101 503.134 82.878 501.664 82.878 501.664 75.742"></polyline>
            <path d="M514.281,82.068 C513.731,82.777 513.012,83.048 512.322,83.048 C510.113,83.048 508.814,81.398 508.814,79.34 C508.814,77.221 510.113,75.572 512.322,75.572 C513.781,75.572 515.161,76.472 515.331,78.09 L513.832,78.09 C513.651,77.301 513.063,76.891 512.322,76.891 C510.913,76.891 510.384,78.09 510.384,79.34 C510.384,80.529 510.913,81.729 512.322,81.729 C513.342,81.729 513.932,81.179 514.021,80.189 L512.442,80.189 L512.442,79.02 L515.44,79.02 L515.44,82.878 L514.441,82.878 L514.281,82.068" id="Fill-40" fill="#000000"></path>
            <polyline id="Fill-41" fill="#000000" points="516.764 75.742 522.101 75.742 522.101 77.061 518.333 77.061 518.333 78.59 521.791 78.59 521.791 79.81 518.333 79.81 518.333 81.559 522.181 81.559 522.181 82.878 516.764 82.878 516.764 75.742"></polyline>
            <path d="M524.863,78.97 L526.582,78.97 C527.282,78.97 527.662,78.67 527.662,77.951 C527.662,77.261 527.282,76.961 526.582,76.961 L524.863,76.961 L524.863,78.97 L524.863,78.97 Z M523.294,75.742 L527.142,75.742 C528.421,75.742 529.23,76.631 529.23,77.711 C529.23,78.55 528.891,79.18 528.102,79.5 L528.102,79.52 C528.871,79.72 529.091,80.469 529.141,81.189 C529.171,81.639 529.161,82.479 529.44,82.878 L527.872,82.878 C527.682,82.428 527.702,81.738 527.622,81.169 C527.512,80.42 527.222,80.09 526.433,80.09 L524.863,80.09 L524.863,82.878 L523.294,82.878 L523.294,75.742 L523.294,75.742 Z" id="Fill-42" fill="#000000"></path>
            <polyline id="Fill-43" fill="#000000" points="530.563 75.742 535.9 75.742 535.9 77.061 532.133 77.061 532.133 78.59 535.591 78.59 535.591 79.81 532.133 79.81 532.133 81.559 535.98 81.559 535.98 82.878 530.563 82.878 530.563 75.742"></polyline>
            <path d="M538.663,81.559 L540.063,81.559 C540.972,81.559 541.842,80.999 541.842,79.42 C541.842,77.98 541.342,77.061 539.782,77.061 L538.663,77.061 L538.663,81.559 L538.663,81.559 Z M537.094,75.742 L540.172,75.742 C542.021,75.742 543.41,76.901 543.41,79.27 C543.41,81.339 542.351,82.878 540.172,82.878 L537.094,82.878 L537.094,75.742 L537.094,75.742 Z" id="Fill-44" fill="#000000"></path>
            <polyline id="Fill-47" fill="#000000" points="650.258 70.187 655.595 70.187 655.595 71.506 651.827 71.506 651.827 73.036 655.285 73.036 655.285 74.255 651.827 74.255 651.827 76.004 655.675 76.004 655.675 77.323 650.258 77.323 650.258 70.187"></polyline>
            <polyline id="Fill-48" fill="#000000" points="658.687 73.585 656.388 70.187 658.207 70.187 659.606 72.466 661.056 70.187 662.774 70.187 660.485 73.595 662.975 77.323 661.105 77.323 659.546 74.854 657.957 77.323 656.188 77.323 658.687 73.585"></polyline>
            <polyline id="Fill-49" fill="#000000" points="665.204 71.506 663.065 71.506 663.065 70.187 668.912 70.187 668.912 71.506 666.773 71.506 666.773 77.323 665.204 77.323 665.204 71.506"></polyline>
            <polygon id="Fill-50" fill="#000000" points="669.685 77.323 671.254 77.323 671.254 70.187 669.685 70.187"></polygon>
            <polyline id="Fill-51" fill="#000000" points="672.844 70.187 674.403 70.187 677.382 74.975 677.401 74.975 677.401 70.187 678.871 70.187 678.871 77.323 677.302 77.323 674.333 72.546 674.313 72.546 674.313 77.323 672.844 77.323 672.844 70.187"></polyline>
            <path d="M685.012,72.586 C684.911,71.877 684.231,71.337 683.452,71.337 C682.043,71.337 681.514,72.536 681.514,73.785 C681.514,74.975 682.043,76.174 683.452,76.174 C684.412,76.174 684.951,75.514 685.071,74.575 L686.591,74.575 C686.431,76.354 685.201,77.493 683.452,77.493 C681.243,77.493 679.944,75.844 679.944,73.785 C679.944,71.666 681.243,70.017 683.452,70.017 C685.021,70.017 686.341,70.937 686.53,72.586 L685.012,72.586" id="Fill-52" fill="#000000"></path>
            <polyline id="Fill-53" fill="#000000" points="688.993 71.506 686.854 71.506 686.854 70.187 692.701 70.187 692.701 71.506 690.563 71.506 690.563 77.323 688.993 77.323 688.993 71.506"></polyline>
            <polygon id="Fill-54" fill="#000000" points="641.508 88.331 643.077 88.331 643.077 81.195 641.508 81.195"></polygon>
            <polyline id="Fill-55" fill="#000000" points="644.468 81.195 646.027 81.195 649.006 85.982 649.025 85.982 649.025 81.195 650.494 81.195 650.494 88.331 648.926 88.331 645.957 83.554 645.938 83.554 645.938 88.331 644.468 88.331 644.468 81.195"></polyline>
            <polyline id="Fill-56" fill="#000000" points="656.091 82.514 653.952 82.514 653.952 81.195 659.799 81.195 659.799 82.514 657.66 82.514 657.66 88.331 656.091 88.331 656.091 82.514"></polyline>
            <polyline id="Fill-57" fill="#000000" points="660.571 81.195 662.141 81.195 662.141 83.934 665.029 83.934 665.029 81.195 666.598 81.195 666.598 88.331 665.029 88.331 665.029 85.253 662.141 85.253 662.141 88.331 660.571 88.331 660.571 81.195"></polyline>
            <polyline id="Fill-58" fill="#000000" points="667.961 81.195 673.298 81.195 673.298 82.514 669.53 82.514 669.53 84.043 672.988 84.043 672.988 85.263 669.53 85.263 669.53 87.012 673.378 87.012 673.378 88.331 667.961 88.331 667.961 81.195"></polyline>
            <polyline id="Fill-59" fill="#000000" points="683.813 88.331 682.253 88.331 681.044 83.474 681.023 83.474 679.834 88.331 678.245 88.331 676.356 81.195 677.926 81.195 679.055 86.053 679.074 86.053 680.314 81.195 681.783 81.195 683.003 86.112 683.022 86.112 684.191 81.195 685.731 81.195 683.813 88.331"></polyline>
            <polygon id="Fill-60" fill="#000000" points="686.466 88.331 688.035 88.331 688.035 81.195 686.466 81.195"></polygon>
            <polyline id="Fill-61" fill="#000000" points="689.422 81.195 690.991 81.195 690.991 87.012 694.47 87.012 694.47 88.331 689.422 88.331 689.422 81.195"></polyline>
            <path d="M696.441,87.012 L697.841,87.012 C698.75,87.012 699.619,86.452 699.619,84.873 C699.619,83.434 699.12,82.514 697.561,82.514 L696.441,82.514 L696.441,87.012 L696.441,87.012 Z M694.872,81.195 L697.95,81.195 C699.8,81.195 701.188,82.354 701.188,84.723 C701.188,86.792 700.129,88.331 697.95,88.331 L694.872,88.331 L694.872,81.195 L694.872,81.195 Z" id="Fill-62" fill="#000000"></path>
            <polyline id="Fill-65" fill="#FFFFFF" points="718.203 75.703 723.54 75.703 723.54 77.022 719.772 77.022 719.772 78.551 723.23 78.551 723.23 79.77 719.772 79.77 719.772 81.52 723.62 81.52 723.62 82.839 718.203 82.839 718.203 75.703"></polyline>
            <polyline id="Fill-66" fill="#FFFFFF" points="726.632 79.101 724.333 75.703 726.152 75.703 727.552 77.981 729.001 75.703 730.72 75.703 728.431 79.111 730.92 82.839 729.051 82.839 727.491 80.37 725.902 82.839 724.134 82.839 726.632 79.101"></polyline>
            <polyline id="Fill-67" fill="#FFFFFF" points="733.142 77.022 731.003 77.022 731.003 75.703 736.85 75.703 736.85 77.022 734.711 77.022 734.711 82.839 733.142 82.839 733.142 77.022"></polyline>
            <polygon id="Fill-68" fill="#FFFFFF" points="737.643 82.839 739.212 82.839 739.212 75.703 737.643 75.703"></polygon>
            <polyline id="Fill-69" fill="#FFFFFF" points="740.563 75.703 742.122 75.703 745.101 80.49 745.12 80.49 745.12 75.703 746.59 75.703 746.59 82.839 745.021 82.839 742.052 78.062 742.032 78.062 742.032 82.839 740.563 82.839 740.563 75.703"></polyline>
            <path d="M752.7,78.102 C752.6,77.392 751.92,76.852 751.141,76.852 C749.731,76.852 749.202,78.051 749.202,79.301 C749.202,80.49 749.731,81.689 751.141,81.689 C752.101,81.689 752.64,81.029 752.76,80.09 L754.279,80.09 C754.119,81.869 752.89,83.009 751.141,83.009 C748.932,83.009 747.633,81.359 747.633,79.301 C747.633,77.182 748.932,75.533 751.141,75.533 C752.71,75.533 754.029,76.452 754.219,78.102 L752.7,78.102" id="Fill-70" fill="#FFFFFF"></path>
            <polyline id="Fill-71" fill="#FFFFFF" points="756.931 77.022 754.792 77.022 754.792 75.703 760.639 75.703 760.639 77.022 758.5 77.022 758.5 82.839 756.931 82.839 756.931 77.022"></polyline>
            <path d="M567.023,72.586 C566.923,71.877 566.243,71.337 565.464,71.337 C564.055,71.337 563.525,72.536 563.525,73.785 C563.525,74.975 564.055,76.174 565.464,76.174 C566.424,76.174 566.963,75.514 567.083,74.575 L568.603,74.575 C568.442,76.354 567.213,77.493 565.464,77.493 C563.255,77.493 561.956,75.844 561.956,73.785 C561.956,71.666 563.255,70.017 565.464,70.017 C567.033,70.017 568.353,70.937 568.542,72.586 L567.023,72.586" id="Fill-74" fill="#000000"></path>
            <path d="M571.215,73.416 L572.934,73.416 C573.634,73.416 574.014,73.116 574.014,72.396 C574.014,71.707 573.634,71.406 572.934,71.406 L571.215,71.406 L571.215,73.416 L571.215,73.416 Z M569.646,70.187 L573.493,70.187 C574.772,70.187 575.582,71.077 575.582,72.156 C575.582,72.996 575.242,73.625 574.453,73.945 L574.453,73.965 C575.223,74.165 575.442,74.915 575.492,75.634 C575.522,76.084 575.513,76.923 575.792,77.323 L574.224,77.323 C574.033,76.874 574.054,76.184 573.974,75.614 C573.863,74.865 573.573,74.535 572.784,74.535 L571.215,74.535 L571.215,77.323 L569.646,77.323 L569.646,70.187 L569.646,70.187 Z" id="Fill-75" fill="#000000"></path>
            <polygon id="Fill-76" fill="#000000" points="576.835 77.323 578.404 77.323 578.404 70.187 576.835 70.187"></polygon>
            <polyline id="Fill-77" fill="#000000" points="581.335 71.506 579.196 71.506 579.196 70.187 585.043 70.187 585.043 71.506 582.904 71.506 582.904 77.323 581.335 77.323 581.335 71.506"></polyline>
            <polygon id="Fill-78" fill="#000000" points="585.835 77.323 587.404 77.323 587.404 70.187 585.835 70.187"></polygon>
            <path d="M593.513,72.586 C593.412,71.877 592.732,71.337 591.953,71.337 C590.544,71.337 590.015,72.536 590.015,73.785 C590.015,74.975 590.544,76.174 591.953,76.174 C592.913,76.174 593.452,75.514 593.572,74.575 L595.092,74.575 C594.932,76.354 593.702,77.493 591.953,77.493 C589.744,77.493 588.445,75.844 588.445,73.785 C588.445,71.666 589.744,70.017 591.953,70.017 C593.522,70.017 594.842,70.937 595.031,72.586 L593.513,72.586" id="Fill-79" fill="#000000"></path>
            <path d="M597.791,74.565 L599.641,74.565 L598.741,71.946 L598.721,71.946 L597.791,74.565 L597.791,74.565 Z M597.941,70.187 L599.551,70.187 L602.219,77.323 L600.59,77.323 L600.05,75.734 L597.382,75.734 L596.822,77.323 L595.232,77.323 L597.941,70.187 L597.941,70.187 Z" id="Fill-80" fill="#000000"></path>
            <polyline id="Fill-81" fill="#000000" points="602.882 70.187 604.451 70.187 604.451 76.004 607.93 76.004 607.93 77.323 602.882 77.323 602.882 70.187"></polyline>
            <polyline id="Fill-82" fill="#000000" points="608.727 70.187 610.296 70.187 610.296 76.004 613.774 76.004 613.774 77.323 608.727 77.323 608.727 70.187"></polyline>
            <polyline id="Fill-83" fill="#000000" points="615.526 74.545 612.897 70.187 614.666 70.187 616.336 73.006 617.994 70.187 619.743 70.187 617.095 74.585 617.095 77.323 615.526 77.323 615.526 74.545"></polyline>
            <polyline id="Fill-84" fill="#000000" points="555.898 81.195 561.235 81.195 561.235 82.514 557.468 82.514 557.468 84.043 560.926 84.043 560.926 85.263 557.468 85.263 557.468 87.012 561.315 87.012 561.315 88.331 555.898 88.331 555.898 81.195"></polyline>
            <polyline id="Fill-85" fill="#000000" points="562.458 81.195 564.018 81.195 566.996 85.982 567.016 85.982 567.016 81.195 568.484 81.195 568.484 88.331 566.916 88.331 563.947 83.554 563.928 83.554 563.928 88.331 562.458 88.331 562.458 81.195"></polyline>
            <path d="M571.468,87.012 L572.867,87.012 C573.776,87.012 574.646,86.452 574.646,84.873 C574.646,83.434 574.146,82.514 572.587,82.514 L571.468,82.514 L571.468,87.012 L571.468,87.012 Z M569.898,81.195 L572.977,81.195 C574.826,81.195 576.215,82.354 576.215,84.723 C576.215,86.792 575.155,88.331 572.977,88.331 L569.898,88.331 L569.898,81.195 L569.898,81.195 Z" id="Fill-86" fill="#000000"></path>
            <path d="M578.837,85.572 L580.687,85.572 L579.787,82.954 L579.767,82.954 L578.837,85.572 L578.837,85.572 Z M578.987,81.195 L580.597,81.195 L583.265,88.331 L581.636,88.331 L581.096,86.742 L578.428,86.742 L577.868,88.331 L576.278,88.331 L578.987,81.195 L578.987,81.195 Z" id="Fill-87" fill="#000000"></path>
            <polyline id="Fill-88" fill="#000000" points="583.93 81.195 585.489 81.195 588.468 85.982 588.487 85.982 588.487 81.195 589.957 81.195 589.957 88.331 588.388 88.331 585.419 83.554 585.399 83.554 585.399 88.331 583.93 88.331 583.93 81.195"></polyline>
            <path d="M596.547,87.521 C595.997,88.23 595.277,88.501 594.588,88.501 C592.379,88.501 591.08,86.852 591.08,84.793 C591.08,82.674 592.379,81.025 594.588,81.025 C596.047,81.025 597.427,81.925 597.597,83.543 L596.098,83.543 C595.917,82.754 595.328,82.344 594.588,82.344 C593.179,82.344 592.649,83.543 592.649,84.793 C592.649,85.982 593.179,87.182 594.588,87.182 C595.607,87.182 596.197,86.632 596.287,85.643 L594.708,85.643 L594.708,84.473 L597.706,84.473 L597.706,88.331 L596.707,88.331 L596.547,87.521" id="Fill-89" fill="#000000"></path>
            <polyline id="Fill-90" fill="#000000" points="599.029 81.195 604.366 81.195 604.366 82.514 600.599 82.514 600.599 84.043 604.057 84.043 604.057 85.263 600.599 85.263 600.599 87.012 604.446 87.012 604.446 88.331 599.029 88.331 599.029 81.195"></polyline>
            <path d="M607.129,84.424 L608.848,84.424 C609.548,84.424 609.928,84.123 609.928,83.404 C609.928,82.715 609.548,82.414 608.848,82.414 L607.129,82.414 L607.129,84.424 L607.129,84.424 Z M605.56,81.195 L609.407,81.195 C610.687,81.195 611.496,82.084 611.496,83.164 C611.496,84.004 611.156,84.633 610.367,84.953 L610.367,84.973 C611.137,85.173 611.356,85.922 611.406,86.643 C611.437,87.092 611.427,87.932 611.706,88.331 L610.138,88.331 C609.947,87.881 609.968,87.191 609.888,86.622 C609.777,85.873 609.487,85.543 608.698,85.543 L607.129,85.543 L607.129,88.331 L605.56,88.331 L605.56,81.195 L605.56,81.195 Z" id="Fill-91" fill="#000000"></path>
            <polyline id="Fill-92" fill="#000000" points="612.829 81.195 618.166 81.195 618.166 82.514 614.398 82.514 614.398 84.043 617.856 84.043 617.856 85.263 614.398 85.263 614.398 87.012 618.246 87.012 618.246 88.331 612.829 88.331 612.829 81.195"></polyline>
            <path d="M620.929,87.012 L622.328,87.012 C623.237,87.012 624.107,86.452 624.107,84.873 C624.107,83.434 623.607,82.514 622.048,82.514 L620.929,82.514 L620.929,87.012 L620.929,87.012 Z M619.359,81.195 L622.438,81.195 C624.287,81.195 625.676,82.354 625.676,84.723 C625.676,86.792 624.616,88.331 622.438,88.331 L619.359,88.331 L619.359,81.195 L619.359,81.195 Z" id="Fill-93" fill="#000000"></path>
            <polyline id="Fill-96" fill="#000000" points="173.43 70.187 174.999 70.187 174.999 76.004 178.477 76.004 178.477 77.323 173.43 77.323 173.43 70.187"></polyline>
            <polyline id="Fill-97" fill="#000000" points="179.229 70.187 184.567 70.187 184.567 71.506 180.799 71.506 180.799 73.036 184.257 73.036 184.257 74.255 180.799 74.255 180.799 76.004 184.646 76.004 184.646 77.323 179.229 77.323 179.229 70.187"></polyline>
            <path d="M187.26,74.565 L189.109,74.565 L188.209,71.946 L188.189,71.946 L187.26,74.565 L187.26,74.565 Z M187.41,70.187 L189.019,70.187 L191.688,77.323 L190.059,77.323 L189.519,75.734 L186.851,75.734 L186.291,77.323 L184.702,77.323 L187.41,70.187 L187.41,70.187 Z" id="Fill-98" fill="#000000"></path>
            <path d="M193.301,74.955 C193.301,75.904 194.04,76.274 194.88,76.274 C195.429,76.274 196.269,76.114 196.269,75.384 C196.269,74.615 195.2,74.485 194.15,74.205 C193.091,73.925 192.021,73.515 192.021,72.176 C192.021,70.717 193.4,70.017 194.69,70.017 C196.179,70.017 197.548,70.667 197.548,72.316 L196.029,72.316 C195.979,71.457 195.37,71.237 194.62,71.237 C194.12,71.237 193.541,71.446 193.541,72.046 C193.541,72.596 193.88,72.666 195.669,73.125 C196.189,73.255 197.788,73.585 197.788,75.205 C197.788,76.514 196.759,77.493 194.82,77.493 C193.241,77.493 191.761,76.713 191.781,74.955 L193.301,74.955" id="Fill-99" fill="#000000"></path>
            <polyline id="Fill-100" fill="#000000" points="200.056 71.506 197.917 71.506 197.917 70.187 203.764 70.187 203.764 71.506 201.625 71.506 201.625 77.323 200.056 77.323 200.056 71.506"></polyline>
            <path d="M168.445,83.594 C168.345,82.885 167.666,82.344 166.886,82.344 C165.477,82.344 164.947,83.543 164.947,84.793 C164.947,85.982 165.477,87.182 166.886,87.182 C167.845,87.182 168.385,86.521 168.505,85.582 L170.024,85.582 C169.864,87.361 168.635,88.501 166.886,88.501 C164.677,88.501 163.378,86.852 163.378,84.793 C163.378,82.674 164.677,81.025 166.886,81.025 C168.455,81.025 169.774,81.944 169.964,83.594 L168.445,83.594" id="Fill-101" fill="#000000"></path>
            <path d="M174.206,87.182 C175.615,87.182 176.145,85.982 176.145,84.793 C176.145,83.543 175.615,82.344 174.206,82.344 C172.796,82.344 172.267,83.543 172.267,84.793 C172.267,85.982 172.796,87.182 174.206,87.182 L174.206,87.182 Z M174.206,81.025 C176.415,81.025 177.714,82.674 177.714,84.793 C177.714,86.852 176.415,88.501 174.206,88.501 C171.997,88.501 170.698,86.852 170.698,84.793 C170.698,82.674 171.997,81.025 174.206,81.025 L174.206,81.025 Z" id="Fill-102" fill="#000000"></path>
            <polyline id="Fill-103" fill="#000000" points="178.539 81.195 180.098 81.195 183.077 85.982 183.097 85.982 183.097 81.195 184.566 81.195 184.566 88.331 182.997 88.331 180.028 83.554 180.008 83.554 180.008 88.331 178.539 88.331 178.539 81.195"></polyline>
            <path d="M190.696,83.594 C190.597,82.885 189.917,82.344 189.137,82.344 C187.728,82.344 187.198,83.543 187.198,84.793 C187.198,85.982 187.728,87.182 189.137,87.182 C190.097,87.182 190.637,86.521 190.756,85.582 L192.276,85.582 C192.116,87.361 190.886,88.501 189.137,88.501 C186.929,88.501 185.629,86.852 185.629,84.793 C185.629,82.674 186.929,81.025 189.137,81.025 C190.707,81.025 192.026,81.944 192.216,83.594 L190.696,83.594" id="Fill-104" fill="#000000"></path>
            <polyline id="Fill-105" fill="#000000" points="193.339 81.195 198.676 81.195 198.676 82.514 194.908 82.514 194.908 84.043 198.366 84.043 198.366 85.263 194.908 85.263 194.908 87.012 198.756 87.012 198.756 88.331 193.339 88.331 193.339 81.195"></polyline>
            <path d="M201.378,84.424 L203.098,84.424 C203.797,84.424 204.177,84.123 204.177,83.404 C204.177,82.715 203.797,82.414 203.098,82.414 L201.378,82.414 L201.378,84.424 L201.378,84.424 Z M199.809,81.195 L203.657,81.195 C204.937,81.195 205.746,82.084 205.746,83.164 C205.746,84.004 205.406,84.633 204.617,84.953 L204.617,84.973 C205.386,85.173 205.606,85.922 205.656,86.643 C205.686,87.092 205.676,87.932 205.956,88.331 L204.387,88.331 C204.197,87.881 204.217,87.191 204.137,86.622 C204.027,85.873 203.737,85.543 202.948,85.543 L201.378,85.543 L201.378,88.331 L199.809,88.331 L199.809,81.195 L199.809,81.195 Z" id="Fill-106" fill="#000000"></path>
            <polyline id="Fill-107" fill="#000000" points="206.93 81.195 208.489 81.195 211.467 85.982 211.487 85.982 211.487 81.195 212.957 81.195 212.957 88.331 211.387 88.331 208.419 83.554 208.399 83.554 208.399 88.331 206.93 88.331 206.93 81.195"></polyline>
            <polyline id="Fill-110" fill="#000000" points="249.219 70.187 250.778 70.187 253.756 74.975 253.776 74.975 253.776 70.187 255.246 70.187 255.246 77.323 253.676 77.323 250.708 72.546 250.688 72.546 250.688 77.323 249.219 77.323 249.219 70.187"></polyline>
            <polyline id="Fill-111" fill="#000000" points="256.659 70.187 261.996 70.187 261.996 71.506 258.228 71.506 258.228 73.036 261.686 73.036 261.686 74.255 258.228 74.255 258.228 76.004 262.076 76.004 262.076 77.323 256.659 77.323 256.659 70.187"></polyline>
            <path d="M264.94,74.565 L266.789,74.565 L265.889,71.946 L265.869,71.946 L264.94,74.565 L264.94,74.565 Z M265.09,70.187 L266.699,70.187 L269.367,77.323 L267.738,77.323 L267.199,75.734 L264.53,75.734 L263.97,77.323 L262.381,77.323 L265.09,70.187 L265.09,70.187 Z" id="Fill-112" fill="#000000"></path>
            <path d="M271.4,73.416 L273.119,73.416 C273.818,73.416 274.198,73.116 274.198,72.396 C274.198,71.707 273.818,71.406 273.119,71.406 L271.4,71.406 L271.4,73.416 L271.4,73.416 Z M269.831,70.187 L273.679,70.187 C274.958,70.187 275.768,71.077 275.768,72.156 C275.768,72.996 275.428,73.625 274.638,73.945 L274.638,73.965 C275.408,74.165 275.627,74.915 275.678,75.634 C275.708,76.084 275.697,76.923 275.978,77.323 L274.408,77.323 C274.218,76.874 274.238,76.184 274.158,75.614 C274.048,74.865 273.759,74.535 272.969,74.535 L271.4,74.535 L271.4,77.323 L269.831,77.323 L269.831,70.187 L269.831,70.187 Z" id="Fill-113" fill="#000000"></path>
            <polyline id="Fill-114" fill="#000000" points="231.142 82.514 229.003 82.514 229.003 81.195 234.85 81.195 234.85 82.514 232.711 82.514 232.711 88.331 231.142 88.331 231.142 82.514"></polyline>
            <polyline id="Fill-115" fill="#000000" points="235.623 81.195 237.192 81.195 237.192 83.934 240.08 83.934 240.08 81.195 241.649 81.195 241.649 88.331 240.08 88.331 240.08 85.253 237.192 85.253 237.192 88.331 235.623 88.331 235.623 81.195"></polyline>
            <path d="M244.632,84.424 L246.351,84.424 C247.05,84.424 247.43,84.123 247.43,83.404 C247.43,82.715 247.05,82.414 246.351,82.414 L244.632,82.414 L244.632,84.424 L244.632,84.424 Z M243.063,81.195 L246.911,81.195 C248.19,81.195 249,82.084 249,83.164 C249,84.004 248.66,84.633 247.87,84.953 L247.87,84.973 C248.64,85.173 248.859,85.922 248.91,86.643 C248.939,87.092 248.93,87.932 249.209,88.331 L247.64,88.331 C247.45,87.881 247.47,87.191 247.39,86.622 C247.28,85.873 246.991,85.543 246.201,85.543 L244.632,85.543 L244.632,88.331 L243.063,88.331 L243.063,81.195 L243.063,81.195 Z" id="Fill-116" fill="#000000"></path>
            <polyline id="Fill-117" fill="#000000" points="250.083 81.195 255.42 81.195 255.42 82.514 251.652 82.514 251.652 84.043 255.11 84.043 255.11 85.263 251.652 85.263 251.652 87.012 255.5 87.012 255.5 88.331 250.083 88.331 250.083 81.195"></polyline>
            <path d="M258.362,85.572 L260.21,85.572 L259.311,82.954 L259.291,82.954 L258.362,85.572 L258.362,85.572 Z M258.512,81.195 L260.121,81.195 L262.789,88.331 L261.16,88.331 L260.621,86.742 L257.952,86.742 L257.392,88.331 L255.803,88.331 L258.512,81.195 L258.512,81.195 Z" id="Fill-118" fill="#000000"></path>
            <polyline id="Fill-119" fill="#000000" points="264.271 82.514 262.133 82.514 262.133 81.195 267.979 81.195 267.979 82.514 265.841 82.514 265.841 88.331 264.271 88.331 264.271 82.514"></polyline>
            <polyline id="Fill-120" fill="#000000" points="268.75 81.195 274.087 81.195 274.087 82.514 270.319 82.514 270.319 84.043 273.777 84.043 273.777 85.263 270.319 85.263 270.319 87.012 274.167 87.012 274.167 88.331 268.75 88.331 268.75 81.195"></polyline>
            <polyline id="Fill-121" fill="#000000" points="275.31 81.195 276.869 81.195 279.848 85.982 279.868 85.982 279.868 81.195 281.337 81.195 281.337 88.331 279.768 88.331 276.799 83.554 276.779 83.554 276.779 88.331 275.31 88.331 275.31 81.195"></polyline>
            <polyline id="Fill-122" fill="#000000" points="282.8 81.195 288.137 81.195 288.137 82.514 284.369 82.514 284.369 84.043 287.827 84.043 287.827 85.263 284.369 85.263 284.369 87.012 288.217 87.012 288.217 88.331 282.8 88.331 282.8 81.195"></polyline>
            <path d="M290.929,87.012 L292.329,87.012 C293.238,87.012 294.107,86.452 294.107,84.873 C294.107,83.434 293.608,82.514 292.048,82.514 L290.929,82.514 L290.929,87.012 L290.929,87.012 Z M289.36,81.195 L292.438,81.195 C294.287,81.195 295.677,82.354 295.677,84.723 C295.677,86.792 294.617,88.331 292.438,88.331 L289.36,88.331 L289.36,81.195 L289.36,81.195 Z" id="Fill-123" fill="#000000"></path>
            <path d="M464.548,79.77 L464.548,0.543 L383.974,0.543 L383.974,0.577 C340.847,1.297 306.095,36.461 306.095,79.774 C306.095,123.531 341.568,159 385.317,159 C428.939,159 464.321,123.748 464.54,80.178 L464.548,80.178 L464.548,79.848 C464.548,79.823 464.55,79.799 464.55,79.774 C464.55,79.773 464.549,79.77 464.548,79.77" id="Fill-126" fill="#DA2F2A"></path>
            <path d="M437.791,29.976 L441.684,29.976 C443.031,29.976 444.356,30.585 444.356,32.125 C444.356,32.948 443.961,33.729 443.159,34.039 L443.159,34.061 C443.972,34.253 444.207,35.162 444.271,35.889 C444.293,36.209 444.324,37.333 444.592,37.61 L442.624,37.61 C442.453,37.353 442.421,36.605 442.4,36.392 C442.347,35.622 442.218,34.83 441.288,34.83 L439.78,34.83 L439.78,37.61 L437.791,37.61 L437.791,29.976 L437.791,29.976 Z M439.78,33.291 L441.448,33.291 C442.047,33.291 442.368,32.97 442.368,32.392 C442.368,31.826 441.919,31.569 441.362,31.569 L439.78,31.569 L439.78,33.291 L439.78,33.291 Z" id="Fill-127" fill="#FFFFFF"></path>
            <polyline id="Fill-128" fill="#FFFFFF" points="445.298 29.976 451.382 29.976 451.382 31.569 447.287 31.569 447.287 32.905 451.029 32.905 451.029 34.445 447.287 34.445 447.287 35.899 451.489 35.899 451.489 37.61 445.298 37.61 445.298 29.976"></polyline>
            <path d="M452.409,29.976 L455.691,29.976 C458.033,29.976 459.435,31.398 459.435,33.761 C459.435,36.263 458.012,37.61 455.691,37.61 L452.409,37.61 L452.409,29.976 L452.409,29.976 Z M454.398,35.899 L455.339,35.899 C456.847,35.867 457.445,35.279 457.445,33.75 C457.445,32.36 456.697,31.687 455.339,31.687 L454.398,31.687 L454.398,35.899 L454.398,35.899 Z" id="Fill-129" fill="#FFFFFF"></path>
            <polyline id="Fill-130" fill="#FFFFFF" points="437.791 38.395 439.78 38.395 439.78 44.319 443.341 44.319 443.341 46.029 437.791 46.029 437.791 38.395"></polyline>
            <polygon id="Fill-131" fill="#FFFFFF" points="443.897 46.029 445.886 46.029 445.886 38.395 443.897 38.395"></polygon>
            <path d="M448.389,43.463 C448.431,44.361 448.987,44.65 449.832,44.65 C450.431,44.65 451.051,44.437 451.051,43.87 C451.051,43.196 449.96,43.067 448.858,42.757 C447.768,42.447 446.624,41.956 446.624,40.555 C446.624,38.887 448.303,38.234 449.735,38.234 C451.254,38.234 452.783,38.972 452.794,40.694 L450.805,40.694 C450.837,39.999 450.185,39.774 449.575,39.774 C449.147,39.774 448.613,39.924 448.613,40.426 C448.613,41.015 449.714,41.122 450.826,41.432 C451.928,41.742 453.04,42.255 453.04,43.634 C453.04,45.57 451.393,46.19 449.714,46.19 C447.961,46.19 446.41,45.42 446.399,43.463 L448.389,43.463" id="Fill-132" fill="#FFFFFF"></path>
            <polyline id="Fill-133" fill="#FFFFFF" points="459.327 40.105 457.05 40.105 457.05 46.029 455.061 46.029 455.061 40.105 452.783 40.105 452.783 38.395 459.327 38.395 459.327 40.105"></polyline>
            <path d="M452.552,12.114 C451.019,13.595 450.689,15.739 451.815,16.905 C452.941,18.071 455.098,17.815 456.63,16.335 C458.162,14.855 458.492,12.71 457.365,11.545 C456.239,10.379 454.083,10.634 452.552,12.114" id="Fill-134" fill="#FFFFFF"></path>
            <path d="M451.325,19.311 C449.793,20.791 449.464,22.936 450.59,24.102 C451.717,25.268 453.871,25.013 455.402,23.532 C456.937,22.052 457.266,19.907 456.139,18.74 C455.014,17.575 452.858,17.831 451.325,19.311" id="Fill-135" fill="#FFFFFF"></path>
            <g id="Group-139" transform="translate(439.000000, 6.000000)" fill="#FFFFFF">
                <path d="M1.797,2.782 C0.265,4.263 -0.064,6.407 1.062,7.574 C2.188,8.739 4.344,8.484 5.875,7.004 C7.407,5.523 7.736,3.378 6.61,2.212 C5.484,1.047 3.328,1.301 1.797,2.782" id="Fill-136"></path>
                <path d="M9.051,1.647 C7.519,3.127 7.188,5.271 8.314,6.437 C9.441,7.603 11.596,7.349 13.129,5.868 C14.661,4.388 14.99,2.242 13.863,1.077 C12.738,-0.089 10.583,0.167 9.051,1.647" id="Fill-138"></path>
            </g>
            <path d="M449.439,20.753 C449.439,24.082 446.74,26.782 443.409,26.782 C440.079,26.782 437.38,24.082 437.38,20.753 C437.38,17.423 440.079,14.723 443.409,14.723 C446.74,14.723 449.439,17.423 449.439,20.753" id="Fill-140" fill="#FFFFFF"></path>
            <path d="M435.435,17.142 C435.435,22.454 431.129,26.757 425.819,26.757 C420.51,26.757 416.205,22.454 416.205,17.142 C416.205,11.833 420.51,7.528 425.819,7.528 L435.447,7.528 L435.435,17.142" id="Fill-141" fill="#FFFFFF"></path>
            <path d="M435.54,38.222 C435.54,43.565 431.208,47.896 425.865,47.896 C420.522,47.896 416.191,43.565 416.191,38.222 C416.191,32.878 420.522,28.547 425.865,28.547 C431.208,28.547 435.54,32.878 435.54,38.222" id="Fill-142" fill="#FFFFFF"></path>
            <polygon id="Fill-143" fill="#D62427" points="421.552 39.241 421.98 39.241 421.98 37.293 421.552 37.293"></polygon>
            <path d="M423.734,39.092 C423.587,39.221 423.383,39.285 423.123,39.285 C422.859,39.285 422.655,39.221 422.511,39.094 C422.366,38.966 422.294,38.77 422.294,38.504 L422.294,37.293 L422.722,37.293 L422.722,38.504 C422.722,38.557 422.727,38.609 422.735,38.66 C422.745,38.711 422.764,38.756 422.793,38.795 C422.822,38.834 422.862,38.866 422.914,38.89 C422.967,38.915 423.036,38.927 423.123,38.927 C423.276,38.927 423.381,38.893 423.439,38.825 C423.498,38.757 423.527,38.65 423.527,38.504 L423.527,37.293 L423.955,37.293 L423.955,38.504 C423.955,38.768 423.882,38.964 423.734,39.092" id="Fill-144" fill="#D62427"></path>
            <path d="M425.519,37.812 C425.493,37.771 425.461,37.736 425.424,37.705 C425.385,37.674 425.342,37.65 425.294,37.633 C425.245,37.615 425.195,37.606 425.143,37.606 C425.046,37.606 424.964,37.625 424.896,37.663 C424.829,37.7 424.775,37.75 424.732,37.812 C424.691,37.875 424.66,37.947 424.642,38.027 C424.623,38.107 424.613,38.189 424.613,38.275 C424.613,38.357 424.623,38.437 424.642,38.514 C424.66,38.591 424.691,38.661 424.732,38.723 C424.775,38.784 424.829,38.834 424.896,38.871 C424.964,38.908 425.046,38.927 425.143,38.927 C425.273,38.927 425.375,38.887 425.449,38.807 C425.523,38.727 425.568,38.622 425.584,38.491 L425.999,38.491 C425.988,38.612 425.96,38.723 425.914,38.821 C425.869,38.919 425.809,39.003 425.734,39.072 C425.66,39.141 425.572,39.194 425.473,39.23 C425.372,39.266 425.263,39.285 425.143,39.285 C424.993,39.285 424.859,39.259 424.74,39.207 C424.621,39.155 424.521,39.084 424.438,38.993 C424.356,38.902 424.294,38.795 424.25,38.672 C424.206,38.549 424.185,38.417 424.185,38.275 C424.185,38.129 424.206,37.995 424.25,37.87 C424.294,37.745 424.356,37.637 424.438,37.544 C424.521,37.451 424.621,37.378 424.74,37.326 C424.859,37.272 424.993,37.247 425.143,37.247 C425.25,37.247 425.351,37.262 425.446,37.293 C425.542,37.324 425.627,37.369 425.703,37.428 C425.778,37.487 425.841,37.56 425.89,37.647 C425.939,37.735 425.97,37.835 425.982,37.948 L425.568,37.948 C425.561,37.898 425.544,37.854 425.519,37.812" id="Fill-145" fill="#D62427"></path>
            <polyline id="Fill-146" fill="#D62427" points="426.662 37.293 427.475 38.6 427.48 38.6 427.48 37.293 427.882 37.293 427.882 39.241 427.453 39.241 426.643 37.937 426.638 37.937 426.638 39.241 426.236 39.241 426.236 37.293 426.662 37.293"></polyline>
            <path d="M425.633,40.306 C425.597,40.345 425.561,40.384 425.522,40.421 C424.959,40.985 424.182,41.333 423.321,41.333 C422.46,41.333 421.684,40.985 421.119,40.421 C420.555,39.857 420.207,39.08 420.207,38.219 C420.207,37.359 420.555,36.582 421.119,36.018 C421.684,35.454 422.46,35.105 423.321,35.105 C424.182,35.105 424.959,35.454 425.522,36.018 C425.588,36.083 425.649,36.15 425.709,36.221 L426.98,36.221 C426.272,34.925 424.898,34.047 423.318,34.046 C421.015,34.047 419.147,35.914 419.147,38.217 C419.147,40.52 421.015,42.387 423.318,42.387 C424.859,42.387 426.206,41.55 426.928,40.306 L425.633,40.306" id="Fill-147" fill="#D62427"></path>
            <path d="M460.223,31.61 C459.621,31.61 459.192,31.16 459.192,30.563 C459.192,29.934 459.669,29.516 460.223,29.516 C460.771,29.516 461.248,29.934 461.248,30.563 C461.248,31.193 460.771,31.61 460.223,31.61 L460.223,31.61 Z M460.223,29.698 C459.77,29.698 459.416,30.054 459.416,30.563 C459.416,31.04 459.725,31.429 460.223,31.429 C460.671,31.429 461.023,31.076 461.023,30.563 C461.023,30.054 460.671,29.698 460.223,29.698 L460.223,29.698 Z M460.752,30.765 C460.705,31.031 460.503,31.196 460.257,31.196 C459.898,31.196 459.663,30.925 459.663,30.563 C459.663,30.225 459.887,29.964 460.251,29.962 C460.506,29.962 460.713,30.11 460.749,30.384 L460.559,30.384 C460.531,30.241 460.41,30.144 460.251,30.144 C460.016,30.144 459.887,30.331 459.887,30.563 C459.887,30.807 460.029,31.014 460.257,31.014 C460.422,31.014 460.539,30.911 460.559,30.765 L460.752,30.765 L460.752,30.765 Z" id="Fill-148" fill="#FFFFFF"></path>
            <polyline id="Fill-149" fill="#FFFFFF" points="336.708 85.433 333.791 85.433 329.968 73.666 332.638 73.666 335.258 81.939 335.291 81.939 337.944 73.666 340.613 73.666 336.708 85.433"></polyline>
            <path d="M351.718,80.983 C351.718,84.164 349.84,85.713 346.692,85.713 C343.528,85.713 341.683,84.18 341.683,80.983 L341.683,73.666 L344.27,73.666 L344.27,80.983 C344.27,82.269 344.599,83.537 346.692,83.537 C348.538,83.537 349.131,82.73 349.131,80.983 L349.131,73.666 L351.718,73.666 L351.718,80.983" id="Fill-150" fill="#FFFFFF"></path>
            <polyline id="Fill-151" fill="#FFFFFF" points="353.995 73.666 356.582 73.666 356.582 83.258 362.316 83.258 362.316 85.433 353.995 85.433 353.995 73.666"></polyline>
            <polyline id="Fill-152" fill="#FFFFFF" points="363.633 73.666 366.204 73.666 371.114 81.561 371.147 81.561 371.147 73.666 373.57 73.666 373.57 85.433 370.982 85.433 366.088 77.556 366.055 77.556 366.055 85.433 363.633 85.433 363.633 73.666"></polyline>
            <polyline id="Fill-153" fill="#FFFFFF" points="375.909 73.666 384.709 73.666 384.709 75.842 378.496 75.842 378.496 78.363 384.198 78.363 384.198 80.373 378.496 80.373 378.496 83.258 384.841 83.258 384.841 85.433 375.909 85.433 375.909 73.666"></polyline>
            <path d="M389.305,78.989 L392.139,78.989 C393.293,78.989 393.919,78.495 393.919,77.308 C393.919,76.171 393.293,75.677 392.139,75.677 L389.305,75.677 L389.305,78.989 L389.305,78.989 Z M386.717,73.666 L393.062,73.666 C395.171,73.666 396.506,75.133 396.506,76.913 C396.506,78.297 395.945,79.335 394.644,79.862 L394.644,79.895 C395.913,80.225 396.275,81.461 396.357,82.647 C396.407,83.389 396.391,84.773 396.852,85.433 L394.265,85.433 C393.951,84.691 393.984,83.554 393.853,82.615 C393.672,81.379 393.193,80.835 391.892,80.835 L389.305,80.835 L389.305,85.433 L386.717,85.433 L386.717,73.666 L386.717,73.666 Z" id="Fill-154" fill="#FFFFFF"></path>
            <path d="M401.93,80.885 L404.979,80.885 L403.495,76.566 L403.462,76.566 L401.93,80.885 L401.93,80.885 Z M402.177,73.666 L404.83,73.666 L409.23,85.433 L406.544,85.433 L405.654,82.812 L401.254,82.812 L400.331,85.433 L397.711,85.433 L402.177,73.666 L402.177,73.666 Z" id="Fill-155" fill="#FFFFFF"></path>
            <path d="M412.919,83.422 L415.688,83.422 C416.709,83.422 417.599,83.093 417.599,81.873 C417.599,80.67 416.841,80.192 415.736,80.192 L412.919,80.192 L412.919,83.422 L412.919,83.422 Z M412.919,78.429 L415.539,78.429 C416.445,78.429 417.121,78.017 417.121,77.028 C417.121,75.907 416.264,75.677 415.341,75.677 L412.919,75.677 L412.919,78.429 L412.919,78.429 Z M410.331,73.666 L415.868,73.666 C418.109,73.666 419.626,74.392 419.626,76.583 C419.626,77.737 419.049,78.544 418.027,79.039 C419.461,79.451 420.187,80.555 420.187,82.021 C420.187,84.411 418.159,85.433 416.033,85.433 L410.331,85.433 L410.331,73.666 L410.331,73.666 Z" id="Fill-156" fill="#FFFFFF"></path>
            <polyline id="Fill-157" fill="#FFFFFF" points="421.986 73.666 424.574 73.666 424.574 83.258 430.309 83.258 430.309 85.433 421.986 85.433 421.986 73.666"></polyline>
            <polyline id="Fill-158" fill="#FFFFFF" points="431.624 73.666 440.425 73.666 440.425 75.842 434.212 75.842 434.212 78.363 439.914 78.363 439.914 80.373 434.212 80.373 434.212 83.258 440.557 83.258 440.557 85.433 431.624 85.433 431.624 73.666"></polyline>
        </g>
    </g>
</svg>